<svg version="1.1" baseProfile="full" width="526" height="526" xmlns="http://wwww.w3.org/2000/svg"><polygon points="263,0 0,455.529 526,455.529" fill="red"/><rect x="14.4338" y="430.529" width="43" height="25" fill="green" /><rect x="57.4338" y="430.529" width="43" height="25" fill="green" /><rect x="100.434" y="430.529" width="43" height="25" fill="green" /><rect x="143.434" y="430.529" width="43" height="25" fill="green" /><rect x="186.434" y="430.529" width="43" height="25" fill="green" /><rect x="229.434" y="430.529" width="43" height="25" fill="green" /><rect x="272.434" y="430.529" width="43" height="25" fill="green" /><rect x="315.434" y="430.529" width="43" height="25" fill="green" /><rect x="358.434" y="430.529" width="43" height="25" fill="green" /><rect x="401.434" y="430.529" width="43" height="25" fill="green" /><rect x="444.434" y="430.529" width="43" height="25" fill="green" /><rect x="28.8675" y="405.529" width="43" height="25" fill="green" /><rect x="71.8675" y="405.529" width="43" height="25" fill="green" /><rect x="114.868" y="405.529" width="43" height="25" fill="green" /><rect x="157.868" y="405.529" width="43" height="25" fill="green" /><rect x="200.868" y="405.529" width="43" height="25" fill="green" /><rect x="243.868" y="405.529" width="43" height="25" fill="green" /><rect x="286.868" y="405.529" width="43" height="25" fill="green" /><rect x="329.868" y="405.529" width="43" height="25" fill="green" /><rect x="372.868" y="405.529" width="43" height="25" fill="green" /><rect x="415.868" y="405.529" width="43" height="25" fill="green" /><rect x="43.3013" y="380.529" width="43" height="25" fill="green" /><rect x="86.3013" y="380.529" width="43" height="25" fill="green" /><rect x="129.301" y="380.529" width="43" height="25" fill="green" /><rect x="172.301" y="380.529" width="43" height="25" fill="green" /><rect x="215.301" y="380.529" width="43" height="25" fill="green" /><rect x="258.301" y="380.529" width="43" height="25" fill="green" /><rect x="301.301" y="380.529" width="43" height="25" fill="green" /><rect x="344.301" y="380.529" width="43" height="25" fill="green" /><rect x="387.301" y="380.529" width="43" height="25" fill="green" /><rect x="430.301" y="380.529" width="43" height="25" fill="green" /><rect x="57.735" y="355.529" width="43" height="25" fill="green" /><rect x="100.735" y="355.529" width="43" height="25" fill="green" /><rect x="143.735" y="355.529" width="43" height="25" fill="green" /><rect x="186.735" y="355.529" width="43" height="25" fill="green" /><rect x="229.735" y="355.529" width="43" height="25" fill="green" /><rect x="272.735" y="355.529" width="43" height="25" fill="green" /><rect x="315.735" y="355.529" width="43" height="25" fill="green" /><rect x="358.735" y="355.529" width="43" height="25" fill="green" /><rect x="401.735" y="355.529" width="43" height="25" fill="green" /><rect x="72.1688" y="330.529" width="43" height="25" fill="green" /><rect x="115.169" y="330.529" width="43" height="25" fill="green" /><rect x="158.169" y="330.529" width="43" height="25" fill="green" /><rect x="201.169" y="330.529" width="43" height="25" fill="green" /><rect x="244.169" y="330.529" width="43" height="25" fill="green" /><rect x="287.169" y="330.529" width="43" height="25" fill="green" /><rect x="330.169" y="330.529" width="43" height="25" fill="green" /><rect x="373.169" y="330.529" width="43" height="25" fill="green" /><rect x="86.6025" y="305.529" width="43" height="25" fill="green" /><rect x="129.603" y="305.529" width="43" height="25" fill="green" /><rect x="172.603" y="305.529" width="43" height="25" fill="green" /><rect x="215.603" y="305.529" width="43" height="25" fill="green" /><rect x="258.603" y="305.529" width="43" height="25" fill="green" /><rect x="301.603" y="305.529" width="43" height="25" fill="green" /><rect x="344.603" y="305.529" width="43" height="25" fill="green" /><rect x="387.603" y="305.529" width="43" height="25" fill="green" /><rect x="101.036" y="280.529" width="43" height="25" fill="green" /><rect x="144.036" y="280.529" width="43" height="25" fill="green" /><rect x="187.036" y="280.529" width="43" height="25" fill="green" /><rect x="230.036" y="280.529" width="43" height="25" fill="green" /><rect x="273.036" y="280.529" width="43" height="25" fill="green" /><rect x="316.036" y="280.529" width="43" height="25" fill="green" /><rect x="359.036" y="280.529" width="43" height="25" fill="green" /><rect x="115.47" y="255.529" width="43" height="25" fill="green" /><rect x="158.47" y="255.529" width="43" height="25" fill="green" /><rect x="201.47" y="255.529" width="43" height="25" fill="green" /><rect x="244.47" y="255.529" width="43" height="25" fill="green" /><rect x="287.47" y="255.529" width="43" height="25" fill="green" /><rect x="330.47" y="255.529" width="43" height="25" fill="green" /><rect x="129.904" y="230.529" width="43" height="25" fill="green" /><rect x="172.904" y="230.529" width="43" height="25" fill="green" /><rect x="215.904" y="230.529" width="43" height="25" fill="green" /><rect x="258.904" y="230.529" width="43" height="25" fill="green" /><rect x="301.904" y="230.529" width="43" height="25" fill="green" /><rect x="344.904" y="230.529" width="43" height="25" fill="green" /><rect x="144.338" y="205.529" width="43" height="25" fill="green" /><rect x="187.338" y="205.529" width="43" height="25" fill="green" /><rect x="230.338" y="205.529" width="43" height="25" fill="green" /><rect x="273.338" y="205.529" width="43" height="25" fill="green" /><rect x="316.338" y="205.529" width="43" height="25" fill="green" /><rect x="158.771" y="180.529" width="43" height="25" fill="green" /><rect x="201.771" y="180.529" width="43" height="25" fill="green" /><rect x="244.771" y="180.529" width="43" height="25" fill="green" /><rect x="287.771" y="180.529" width="43" height="25" fill="green" /><rect x="173.205" y="155.529" width="43" height="25" fill="green" /><rect x="216.205" y="155.529" width="43" height="25" fill="green" /><rect x="259.205" y="155.529" width="43" height="25" fill="green" /><rect x="302.205" y="155.529" width="43" height="25" fill="green" /><rect x="187.639" y="130.529" width="43" height="25" fill="green" /><rect x="230.639" y="130.529" width="43" height="25" fill="green" /><rect x="273.639" y="130.529" width="43" height="25" fill="green" /><rect x="202.073" y="105.529" width="43" height="25" fill="green" /><rect x="245.073" y="105.529" width="43" height="25" fill="green" /><rect x="216.506" y="80.5294" width="43" height="25" fill="green" /><rect x="259.506" y="80.5294" width="43" height="25" fill="green" /><rect x="230.94" y="55.5294" width="43" height="25" fill="green" /></svg>