<svg version="1.1" baseProfile="full" width="950" height="950" xmlns="http://wwww.w3.org/2000/svg"><circle cx="475" cy="475" r="475" fill="red" /><circle cx="475" cy="475" r="18" fill="green" /><circle cx="439" cy="475" r="18" fill="green" /><circle cx="511" cy="475" r="18" fill="green" /><circle cx="403" cy="475" r="18" fill="green" /><circle cx="547" cy="475" r="18" fill="green" /><circle cx="367" cy="475" r="18" fill="green" /><circle cx="583" cy="475" r="18" fill="green" /><circle cx="331" cy="475" r="18" fill="green" /><circle cx="619" cy="475" r="18" fill="green" /><circle cx="295" cy="475" r="18" fill="green" /><circle cx="655" cy="475" r="18" fill="green" /><circle cx="259" cy="475" r="18" fill="green" /><circle cx="691" cy="475" r="18" fill="green" /><circle cx="223" cy="475" r="18" fill="green" /><circle cx="727" cy="475" r="18" fill="green" /><circle cx="187" cy="475" r="18" fill="green" /><circle cx="763" cy="475" r="18" fill="green" /><circle cx="151" cy="475" r="18" fill="green" /><circle cx="799" cy="475" r="18" fill="green" /><circle cx="115" cy="475" r="18" fill="green" /><circle cx="835" cy="475" r="18" fill="green" /><circle cx="79" cy="475" r="18" fill="green" /><circle cx="871" cy="475" r="18" fill="green" /><circle cx="43" cy="475" r="18" fill="green" /><circle cx="907" cy="475" r="18" fill="green" /><circle cx="475" cy="439" r="18" fill="green" /><circle cx="475" cy="511" r="18" fill="green" /><circle cx="439" cy="439" r="18" fill="green" /><circle cx="511" cy="439" r="18" fill="green" /><circle cx="439" cy="511" r="18" fill="green" /><circle cx="511" cy="511" r="18" fill="green" /><circle cx="403" cy="439" r="18" fill="green" /><circle cx="547" cy="439" r="18" fill="green" /><circle cx="403" cy="511" r="18" fill="green" /><circle cx="547" cy="511" r="18" fill="green" /><circle cx="367" cy="439" r="18" fill="green" /><circle cx="583" cy="439" r="18" fill="green" /><circle cx="367" cy="511" r="18" fill="green" /><circle cx="583" cy="511" r="18" fill="green" /><circle cx="331" cy="439" r="18" fill="green" /><circle cx="619" cy="439" r="18" fill="green" /><circle cx="331" cy="511" r="18" fill="green" /><circle cx="619" cy="511" r="18" fill="green" /><circle cx="295" cy="439" r="18" fill="green" /><circle cx="655" cy="439" r="18" fill="green" /><circle cx="295" cy="511" r="18" fill="green" /><circle cx="655" cy="511" r="18" fill="green" /><circle cx="259" cy="439" r="18" fill="green" /><circle cx="691" cy="439" r="18" fill="green" /><circle cx="259" cy="511" r="18" fill="green" /><circle cx="691" cy="511" r="18" fill="green" /><circle cx="223" cy="439" r="18" fill="green" /><circle cx="727" cy="439" r="18" fill="green" /><circle cx="223" cy="511" r="18" fill="green" /><circle cx="727" cy="511" r="18" fill="green" /><circle cx="187" cy="439" r="18" fill="green" /><circle cx="763" cy="439" r="18" fill="green" /><circle cx="187" cy="511" r="18" fill="green" /><circle cx="763" cy="511" r="18" fill="green" /><circle cx="151" cy="439" r="18" fill="green" /><circle cx="799" cy="439" r="18" fill="green" /><circle cx="151" cy="511" r="18" fill="green" /><circle cx="799" cy="511" r="18" fill="green" /><circle cx="115" cy="439" r="18" fill="green" /><circle cx="835" cy="439" r="18" fill="green" /><circle cx="115" cy="511" r="18" fill="green" /><circle cx="835" cy="511" r="18" fill="green" /><circle cx="79" cy="439" r="18" fill="green" /><circle cx="871" cy="439" r="18" fill="green" /><circle cx="79" cy="511" r="18" fill="green" /><circle cx="871" cy="511" r="18" fill="green" /><circle cx="43" cy="439" r="18" fill="green" /><circle cx="907" cy="439" r="18" fill="green" /><circle cx="43" cy="511" r="18" fill="green" /><circle cx="907" cy="511" r="18" fill="green" /><circle cx="475" cy="403" r="18" fill="green" /><circle cx="475" cy="547" r="18" fill="green" /><circle cx="439" cy="403" r="18" fill="green" /><circle cx="511" cy="403" r="18" fill="green" /><circle cx="439" cy="547" r="18" fill="green" /><circle cx="511" cy="547" r="18" fill="green" /><circle cx="403" cy="403" r="18" fill="green" /><circle cx="547" cy="403" r="18" fill="green" /><circle cx="403" cy="547" r="18" fill="green" /><circle cx="547" cy="547" r="18" fill="green" /><circle cx="367" cy="403" r="18" fill="green" /><circle cx="583" cy="403" r="18" fill="green" /><circle cx="367" cy="547" r="18" fill="green" /><circle cx="583" cy="547" r="18" fill="green" /><circle cx="331" cy="403" r="18" fill="green" /><circle cx="619" cy="403" r="18" fill="green" /><circle cx="331" cy="547" r="18" fill="green" /><circle cx="619" cy="547" r="18" fill="green" /><circle cx="295" cy="403" r="18" fill="green" /><circle cx="655" cy="403" r="18" fill="green" /><circle cx="295" cy="547" r="18" fill="green" /><circle cx="655" cy="547" r="18" fill="green" /><circle cx="259" cy="403" r="18" fill="green" /><circle cx="691" cy="403" r="18" fill="green" /><circle cx="259" cy="547" r="18" fill="green" /><circle cx="691" cy="547" r="18" fill="green" /><circle cx="223" cy="403" r="18" fill="green" /><circle cx="727" cy="403" r="18" fill="green" /><circle cx="223" cy="547" r="18" fill="green" /><circle cx="727" cy="547" r="18" fill="green" /><circle cx="187" cy="403" r="18" fill="green" /><circle cx="763" cy="403" r="18" fill="green" /><circle cx="187" cy="547" r="18" fill="green" /><circle cx="763" cy="547" r="18" fill="green" /><circle cx="151" cy="403" r="18" fill="green" /><circle cx="799" cy="403" r="18" fill="green" /><circle cx="151" cy="547" r="18" fill="green" /><circle cx="799" cy="547" r="18" fill="green" /><circle cx="115" cy="403" r="18" fill="green" /><circle cx="835" cy="403" r="18" fill="green" /><circle cx="115" cy="547" r="18" fill="green" /><circle cx="835" cy="547" r="18" fill="green" /><circle cx="79" cy="403" r="18" fill="green" /><circle cx="871" cy="403" r="18" fill="green" /><circle cx="79" cy="547" r="18" fill="green" /><circle cx="871" cy="547" r="18" fill="green" /><circle cx="43" cy="403" r="18" fill="green" /><circle cx="907" cy="403" r="18" fill="green" /><circle cx="43" cy="547" r="18" fill="green" /><circle cx="907" cy="547" r="18" fill="green" /><circle cx="475" cy="367" r="18" fill="green" /><circle cx="475" cy="583" r="18" fill="green" /><circle cx="439" cy="367" r="18" fill="green" /><circle cx="511" cy="367" r="18" fill="green" /><circle cx="439" cy="583" r="18" fill="green" /><circle cx="511" cy="583" r="18" fill="green" /><circle cx="403" cy="367" r="18" fill="green" /><circle cx="547" cy="367" r="18" fill="green" /><circle cx="403" cy="583" r="18" fill="green" /><circle cx="547" cy="583" r="18" fill="green" /><circle cx="367" cy="367" r="18" fill="green" /><circle cx="583" cy="367" r="18" fill="green" /><circle cx="367" cy="583" r="18" fill="green" /><circle cx="583" cy="583" r="18" fill="green" /><circle cx="331" cy="367" r="18" fill="green" /><circle cx="619" cy="367" r="18" fill="green" /><circle cx="331" cy="583" r="18" fill="green" /><circle cx="619" cy="583" r="18" fill="green" /><circle cx="295" cy="367" r="18" fill="green" /><circle cx="655" cy="367" r="18" fill="green" /><circle cx="295" cy="583" r="18" fill="green" /><circle cx="655" cy="583" r="18" fill="green" /><circle cx="259" cy="367" r="18" fill="green" /><circle cx="691" cy="367" r="18" fill="green" /><circle cx="259" cy="583" r="18" fill="green" /><circle cx="691" cy="583" r="18" fill="green" /><circle cx="223" cy="367" r="18" fill="green" /><circle cx="727" cy="367" r="18" fill="green" /><circle cx="223" cy="583" r="18" fill="green" /><circle cx="727" cy="583" r="18" fill="green" /><circle cx="187" cy="367" r="18" fill="green" /><circle cx="763" cy="367" r="18" fill="green" /><circle cx="187" cy="583" r="18" fill="green" /><circle cx="763" cy="583" r="18" fill="green" /><circle cx="151" cy="367" r="18" fill="green" /><circle cx="799" cy="367" r="18" fill="green" /><circle cx="151" cy="583" r="18" fill="green" /><circle cx="799" cy="583" r="18" fill="green" /><circle cx="115" cy="367" r="18" fill="green" /><circle cx="835" cy="367" r="18" fill="green" /><circle cx="115" cy="583" r="18" fill="green" /><circle cx="835" cy="583" r="18" fill="green" /><circle cx="79" cy="367" r="18" fill="green" /><circle cx="871" cy="367" r="18" fill="green" /><circle cx="79" cy="583" r="18" fill="green" /><circle cx="871" cy="583" r="18" fill="green" /><circle cx="43" cy="367" r="18" fill="green" /><circle cx="907" cy="367" r="18" fill="green" /><circle cx="43" cy="583" r="18" fill="green" /><circle cx="907" cy="583" r="18" fill="green" /><circle cx="475" cy="331" r="18" fill="green" /><circle cx="475" cy="619" r="18" fill="green" /><circle cx="439" cy="331" r="18" fill="green" /><circle cx="511" cy="331" r="18" fill="green" /><circle cx="439" cy="619" r="18" fill="green" /><circle cx="511" cy="619" r="18" fill="green" /><circle cx="403" cy="331" r="18" fill="green" /><circle cx="547" cy="331" r="18" fill="green" /><circle cx="403" cy="619" r="18" fill="green" /><circle cx="547" cy="619" r="18" fill="green" /><circle cx="367" cy="331" r="18" fill="green" /><circle cx="583" cy="331" r="18" fill="green" /><circle cx="367" cy="619" r="18" fill="green" /><circle cx="583" cy="619" r="18" fill="green" /><circle cx="331" cy="331" r="18" fill="green" /><circle cx="619" cy="331" r="18" fill="green" /><circle cx="331" cy="619" r="18" fill="green" /><circle cx="619" cy="619" r="18" fill="green" /><circle cx="295" cy="331" r="18" fill="green" /><circle cx="655" cy="331" r="18" fill="green" /><circle cx="295" cy="619" r="18" fill="green" /><circle cx="655" cy="619" r="18" fill="green" /><circle cx="259" cy="331" r="18" fill="green" /><circle cx="691" cy="331" r="18" fill="green" /><circle cx="259" cy="619" r="18" fill="green" /><circle cx="691" cy="619" r="18" fill="green" /><circle cx="223" cy="331" r="18" fill="green" /><circle cx="727" cy="331" r="18" fill="green" /><circle cx="223" cy="619" r="18" fill="green" /><circle cx="727" cy="619" r="18" fill="green" /><circle cx="187" cy="331" r="18" fill="green" /><circle cx="763" cy="331" r="18" fill="green" /><circle cx="187" cy="619" r="18" fill="green" /><circle cx="763" cy="619" r="18" fill="green" /><circle cx="151" cy="331" r="18" fill="green" /><circle cx="799" cy="331" r="18" fill="green" /><circle cx="151" cy="619" r="18" fill="green" /><circle cx="799" cy="619" r="18" fill="green" /><circle cx="115" cy="331" r="18" fill="green" /><circle cx="835" cy="331" r="18" fill="green" /><circle cx="115" cy="619" r="18" fill="green" /><circle cx="835" cy="619" r="18" fill="green" /><circle cx="79" cy="331" r="18" fill="green" /><circle cx="871" cy="331" r="18" fill="green" /><circle cx="79" cy="619" r="18" fill="green" /><circle cx="871" cy="619" r="18" fill="green" /><circle cx="43" cy="331" r="18" fill="green" /><circle cx="907" cy="331" r="18" fill="green" /><circle cx="43" cy="619" r="18" fill="green" /><circle cx="907" cy="619" r="18" fill="green" /><circle cx="475" cy="295" r="18" fill="green" /><circle cx="475" cy="655" r="18" fill="green" /><circle cx="439" cy="295" r="18" fill="green" /><circle cx="511" cy="295" r="18" fill="green" /><circle cx="439" cy="655" r="18" fill="green" /><circle cx="511" cy="655" r="18" fill="green" /><circle cx="403" cy="295" r="18" fill="green" /><circle cx="547" cy="295" r="18" fill="green" /><circle cx="403" cy="655" r="18" fill="green" /><circle cx="547" cy="655" r="18" fill="green" /><circle cx="367" cy="295" r="18" fill="green" /><circle cx="583" cy="295" r="18" fill="green" /><circle cx="367" cy="655" r="18" fill="green" /><circle cx="583" cy="655" r="18" fill="green" /><circle cx="331" cy="295" r="18" fill="green" /><circle cx="619" cy="295" r="18" fill="green" /><circle cx="331" cy="655" r="18" fill="green" /><circle cx="619" cy="655" r="18" fill="green" /><circle cx="295" cy="295" r="18" fill="green" /><circle cx="655" cy="295" r="18" fill="green" /><circle cx="295" cy="655" r="18" fill="green" /><circle cx="655" cy="655" r="18" fill="green" /><circle cx="259" cy="295" r="18" fill="green" /><circle cx="691" cy="295" r="18" fill="green" /><circle cx="259" cy="655" r="18" fill="green" /><circle cx="691" cy="655" r="18" fill="green" /><circle cx="223" cy="295" r="18" fill="green" /><circle cx="727" cy="295" r="18" fill="green" /><circle cx="223" cy="655" r="18" fill="green" /><circle cx="727" cy="655" r="18" fill="green" /><circle cx="187" cy="295" r="18" fill="green" /><circle cx="763" cy="295" r="18" fill="green" /><circle cx="187" cy="655" r="18" fill="green" /><circle cx="763" cy="655" r="18" fill="green" /><circle cx="151" cy="295" r="18" fill="green" /><circle cx="799" cy="295" r="18" fill="green" /><circle cx="151" cy="655" r="18" fill="green" /><circle cx="799" cy="655" r="18" fill="green" /><circle cx="115" cy="295" r="18" fill="green" /><circle cx="835" cy="295" r="18" fill="green" /><circle cx="115" cy="655" r="18" fill="green" /><circle cx="835" cy="655" r="18" fill="green" /><circle cx="79" cy="295" r="18" fill="green" /><circle cx="871" cy="295" r="18" fill="green" /><circle cx="79" cy="655" r="18" fill="green" /><circle cx="871" cy="655" r="18" fill="green" /><circle cx="43" cy="295" r="18" fill="green" /><circle cx="907" cy="295" r="18" fill="green" /><circle cx="43" cy="655" r="18" fill="green" /><circle cx="907" cy="655" r="18" fill="green" /><circle cx="475" cy="259" r="18" fill="green" /><circle cx="475" cy="691" r="18" fill="green" /><circle cx="439" cy="259" r="18" fill="green" /><circle cx="511" cy="259" r="18" fill="green" /><circle cx="439" cy="691" r="18" fill="green" /><circle cx="511" cy="691" r="18" fill="green" /><circle cx="403" cy="259" r="18" fill="green" /><circle cx="547" cy="259" r="18" fill="green" /><circle cx="403" cy="691" r="18" fill="green" /><circle cx="547" cy="691" r="18" fill="green" /><circle cx="367" cy="259" r="18" fill="green" /><circle cx="583" cy="259" r="18" fill="green" /><circle cx="367" cy="691" r="18" fill="green" /><circle cx="583" cy="691" r="18" fill="green" /><circle cx="331" cy="259" r="18" fill="green" /><circle cx="619" cy="259" r="18" fill="green" /><circle cx="331" cy="691" r="18" fill="green" /><circle cx="619" cy="691" r="18" fill="green" /><circle cx="295" cy="259" r="18" fill="green" /><circle cx="655" cy="259" r="18" fill="green" /><circle cx="295" cy="691" r="18" fill="green" /><circle cx="655" cy="691" r="18" fill="green" /><circle cx="259" cy="259" r="18" fill="green" /><circle cx="691" cy="259" r="18" fill="green" /><circle cx="259" cy="691" r="18" fill="green" /><circle cx="691" cy="691" r="18" fill="green" /><circle cx="223" cy="259" r="18" fill="green" /><circle cx="727" cy="259" r="18" fill="green" /><circle cx="223" cy="691" r="18" fill="green" /><circle cx="727" cy="691" r="18" fill="green" /><circle cx="187" cy="259" r="18" fill="green" /><circle cx="763" cy="259" r="18" fill="green" /><circle cx="187" cy="691" r="18" fill="green" /><circle cx="763" cy="691" r="18" fill="green" /><circle cx="151" cy="259" r="18" fill="green" /><circle cx="799" cy="259" r="18" fill="green" /><circle cx="151" cy="691" r="18" fill="green" /><circle cx="799" cy="691" r="18" fill="green" /><circle cx="115" cy="259" r="18" fill="green" /><circle cx="835" cy="259" r="18" fill="green" /><circle cx="115" cy="691" r="18" fill="green" /><circle cx="835" cy="691" r="18" fill="green" /><circle cx="79" cy="259" r="18" fill="green" /><circle cx="871" cy="259" r="18" fill="green" /><circle cx="79" cy="691" r="18" fill="green" /><circle cx="871" cy="691" r="18" fill="green" /><circle cx="43" cy="259" r="18" fill="green" /><circle cx="907" cy="259" r="18" fill="green" /><circle cx="43" cy="691" r="18" fill="green" /><circle cx="907" cy="691" r="18" fill="green" /><circle cx="475" cy="223" r="18" fill="green" /><circle cx="475" cy="727" r="18" fill="green" /><circle cx="439" cy="223" r="18" fill="green" /><circle cx="511" cy="223" r="18" fill="green" /><circle cx="439" cy="727" r="18" fill="green" /><circle cx="511" cy="727" r="18" fill="green" /><circle cx="403" cy="223" r="18" fill="green" /><circle cx="547" cy="223" r="18" fill="green" /><circle cx="403" cy="727" r="18" fill="green" /><circle cx="547" cy="727" r="18" fill="green" /><circle cx="367" cy="223" r="18" fill="green" /><circle cx="583" cy="223" r="18" fill="green" /><circle cx="367" cy="727" r="18" fill="green" /><circle cx="583" cy="727" r="18" fill="green" /><circle cx="331" cy="223" r="18" fill="green" /><circle cx="619" cy="223" r="18" fill="green" /><circle cx="331" cy="727" r="18" fill="green" /><circle cx="619" cy="727" r="18" fill="green" /><circle cx="295" cy="223" r="18" fill="green" /><circle cx="655" cy="223" r="18" fill="green" /><circle cx="295" cy="727" r="18" fill="green" /><circle cx="655" cy="727" r="18" fill="green" /><circle cx="259" cy="223" r="18" fill="green" /><circle cx="691" cy="223" r="18" fill="green" /><circle cx="259" cy="727" r="18" fill="green" /><circle cx="691" cy="727" r="18" fill="green" /><circle cx="223" cy="223" r="18" fill="green" /><circle cx="727" cy="223" r="18" fill="green" /><circle cx="223" cy="727" r="18" fill="green" /><circle cx="727" cy="727" r="18" fill="green" /><circle cx="187" cy="223" r="18" fill="green" /><circle cx="763" cy="223" r="18" fill="green" /><circle cx="187" cy="727" r="18" fill="green" /><circle cx="763" cy="727" r="18" fill="green" /><circle cx="151" cy="223" r="18" fill="green" /><circle cx="799" cy="223" r="18" fill="green" /><circle cx="151" cy="727" r="18" fill="green" /><circle cx="799" cy="727" r="18" fill="green" /><circle cx="115" cy="223" r="18" fill="green" /><circle cx="835" cy="223" r="18" fill="green" /><circle cx="115" cy="727" r="18" fill="green" /><circle cx="835" cy="727" r="18" fill="green" /><circle cx="79" cy="223" r="18" fill="green" /><circle cx="871" cy="223" r="18" fill="green" /><circle cx="79" cy="727" r="18" fill="green" /><circle cx="871" cy="727" r="18" fill="green" /><circle cx="43" cy="223" r="18" fill="green" /><circle cx="907" cy="223" r="18" fill="green" /><circle cx="43" cy="727" r="18" fill="green" /><circle cx="907" cy="727" r="18" fill="green" /><circle cx="475" cy="187" r="18" fill="green" /><circle cx="475" cy="763" r="18" fill="green" /><circle cx="439" cy="187" r="18" fill="green" /><circle cx="511" cy="187" r="18" fill="green" /><circle cx="439" cy="763" r="18" fill="green" /><circle cx="511" cy="763" r="18" fill="green" /><circle cx="403" cy="187" r="18" fill="green" /><circle cx="547" cy="187" r="18" fill="green" /><circle cx="403" cy="763" r="18" fill="green" /><circle cx="547" cy="763" r="18" fill="green" /><circle cx="367" cy="187" r="18" fill="green" /><circle cx="583" cy="187" r="18" fill="green" /><circle cx="367" cy="763" r="18" fill="green" /><circle cx="583" cy="763" r="18" fill="green" /><circle cx="331" cy="187" r="18" fill="green" /><circle cx="619" cy="187" r="18" fill="green" /><circle cx="331" cy="763" r="18" fill="green" /><circle cx="619" cy="763" r="18" fill="green" /><circle cx="295" cy="187" r="18" fill="green" /><circle cx="655" cy="187" r="18" fill="green" /><circle cx="295" cy="763" r="18" fill="green" /><circle cx="655" cy="763" r="18" fill="green" /><circle cx="259" cy="187" r="18" fill="green" /><circle cx="691" cy="187" r="18" fill="green" /><circle cx="259" cy="763" r="18" fill="green" /><circle cx="691" cy="763" r="18" fill="green" /><circle cx="223" cy="187" r="18" fill="green" /><circle cx="727" cy="187" r="18" fill="green" /><circle cx="223" cy="763" r="18" fill="green" /><circle cx="727" cy="763" r="18" fill="green" /><circle cx="187" cy="187" r="18" fill="green" /><circle cx="763" cy="187" r="18" fill="green" /><circle cx="187" cy="763" r="18" fill="green" /><circle cx="763" cy="763" r="18" fill="green" /><circle cx="151" cy="187" r="18" fill="green" /><circle cx="799" cy="187" r="18" fill="green" /><circle cx="151" cy="763" r="18" fill="green" /><circle cx="799" cy="763" r="18" fill="green" /><circle cx="115" cy="187" r="18" fill="green" /><circle cx="835" cy="187" r="18" fill="green" /><circle cx="115" cy="763" r="18" fill="green" /><circle cx="835" cy="763" r="18" fill="green" /><circle cx="79" cy="187" r="18" fill="green" /><circle cx="871" cy="187" r="18" fill="green" /><circle cx="79" cy="763" r="18" fill="green" /><circle cx="871" cy="763" r="18" fill="green" /><circle cx="43" cy="187" r="18" fill="green" /><circle cx="907" cy="187" r="18" fill="green" /><circle cx="43" cy="763" r="18" fill="green" /><circle cx="907" cy="763" r="18" fill="green" /><circle cx="475" cy="151" r="18" fill="green" /><circle cx="475" cy="799" r="18" fill="green" /><circle cx="439" cy="151" r="18" fill="green" /><circle cx="511" cy="151" r="18" fill="green" /><circle cx="439" cy="799" r="18" fill="green" /><circle cx="511" cy="799" r="18" fill="green" /><circle cx="403" cy="151" r="18" fill="green" /><circle cx="547" cy="151" r="18" fill="green" /><circle cx="403" cy="799" r="18" fill="green" /><circle cx="547" cy="799" r="18" fill="green" /><circle cx="367" cy="151" r="18" fill="green" /><circle cx="583" cy="151" r="18" fill="green" /><circle cx="367" cy="799" r="18" fill="green" /><circle cx="583" cy="799" r="18" fill="green" /><circle cx="331" cy="151" r="18" fill="green" /><circle cx="619" cy="151" r="18" fill="green" /><circle cx="331" cy="799" r="18" fill="green" /><circle cx="619" cy="799" r="18" fill="green" /><circle cx="295" cy="151" r="18" fill="green" /><circle cx="655" cy="151" r="18" fill="green" /><circle cx="295" cy="799" r="18" fill="green" /><circle cx="655" cy="799" r="18" fill="green" /><circle cx="259" cy="151" r="18" fill="green" /><circle cx="691" cy="151" r="18" fill="green" /><circle cx="259" cy="799" r="18" fill="green" /><circle cx="691" cy="799" r="18" fill="green" /><circle cx="223" cy="151" r="18" fill="green" /><circle cx="727" cy="151" r="18" fill="green" /><circle cx="223" cy="799" r="18" fill="green" /><circle cx="727" cy="799" r="18" fill="green" /><circle cx="187" cy="151" r="18" fill="green" /><circle cx="763" cy="151" r="18" fill="green" /><circle cx="187" cy="799" r="18" fill="green" /><circle cx="763" cy="799" r="18" fill="green" /><circle cx="151" cy="151" r="18" fill="green" /><circle cx="799" cy="151" r="18" fill="green" /><circle cx="151" cy="799" r="18" fill="green" /><circle cx="799" cy="799" r="18" fill="green" /><circle cx="115" cy="151" r="18" fill="green" /><circle cx="835" cy="151" r="18" fill="green" /><circle cx="115" cy="799" r="18" fill="green" /><circle cx="835" cy="799" r="18" fill="green" /><circle cx="79" cy="151" r="18" fill="green" /><circle cx="871" cy="151" r="18" fill="green" /><circle cx="79" cy="799" r="18" fill="green" /><circle cx="871" cy="799" r="18" fill="green" /><circle cx="43" cy="151" r="18" fill="green" /><circle cx="907" cy="151" r="18" fill="green" /><circle cx="43" cy="799" r="18" fill="green" /><circle cx="907" cy="799" r="18" fill="green" /><circle cx="475" cy="115" r="18" fill="green" /><circle cx="475" cy="835" r="18" fill="green" /><circle cx="439" cy="115" r="18" fill="green" /><circle cx="511" cy="115" r="18" fill="green" /><circle cx="439" cy="835" r="18" fill="green" /><circle cx="511" cy="835" r="18" fill="green" /><circle cx="403" cy="115" r="18" fill="green" /><circle cx="547" cy="115" r="18" fill="green" /><circle cx="403" cy="835" r="18" fill="green" /><circle cx="547" cy="835" r="18" fill="green" /><circle cx="367" cy="115" r="18" fill="green" /><circle cx="583" cy="115" r="18" fill="green" /><circle cx="367" cy="835" r="18" fill="green" /><circle cx="583" cy="835" r="18" fill="green" /><circle cx="331" cy="115" r="18" fill="green" /><circle cx="619" cy="115" r="18" fill="green" /><circle cx="331" cy="835" r="18" fill="green" /><circle cx="619" cy="835" r="18" fill="green" /><circle cx="295" cy="115" r="18" fill="green" /><circle cx="655" cy="115" r="18" fill="green" /><circle cx="295" cy="835" r="18" fill="green" /><circle cx="655" cy="835" r="18" fill="green" /><circle cx="259" cy="115" r="18" fill="green" /><circle cx="691" cy="115" r="18" fill="green" /><circle cx="259" cy="835" r="18" fill="green" /><circle cx="691" cy="835" r="18" fill="green" /><circle cx="223" cy="115" r="18" fill="green" /><circle cx="727" cy="115" r="18" fill="green" /><circle cx="223" cy="835" r="18" fill="green" /><circle cx="727" cy="835" r="18" fill="green" /><circle cx="187" cy="115" r="18" fill="green" /><circle cx="763" cy="115" r="18" fill="green" /><circle cx="187" cy="835" r="18" fill="green" /><circle cx="763" cy="835" r="18" fill="green" /><circle cx="151" cy="115" r="18" fill="green" /><circle cx="799" cy="115" r="18" fill="green" /><circle cx="151" cy="835" r="18" fill="green" /><circle cx="799" cy="835" r="18" fill="green" /><circle cx="115" cy="115" r="18" fill="green" /><circle cx="835" cy="115" r="18" fill="green" /><circle cx="115" cy="835" r="18" fill="green" /><circle cx="835" cy="835" r="18" fill="green" /><circle cx="79" cy="115" r="18" fill="green" /><circle cx="871" cy="115" r="18" fill="green" /><circle cx="79" cy="835" r="18" fill="green" /><circle cx="871" cy="835" r="18" fill="green" /><circle cx="43" cy="115" r="18" fill="green" /><circle cx="907" cy="115" r="18" fill="green" /><circle cx="43" cy="835" r="18" fill="green" /><circle cx="907" cy="835" r="18" fill="green" /><circle cx="475" cy="79" r="18" fill="green" /><circle cx="475" cy="871" r="18" fill="green" /><circle cx="439" cy="79" r="18" fill="green" /><circle cx="511" cy="79" r="18" fill="green" /><circle cx="439" cy="871" r="18" fill="green" /><circle cx="511" cy="871" r="18" fill="green" /><circle cx="403" cy="79" r="18" fill="green" /><circle cx="547" cy="79" r="18" fill="green" /><circle cx="403" cy="871" r="18" fill="green" /><circle cx="547" cy="871" r="18" fill="green" /><circle cx="367" cy="79" r="18" fill="green" /><circle cx="583" cy="79" r="18" fill="green" /><circle cx="367" cy="871" r="18" fill="green" /><circle cx="583" cy="871" r="18" fill="green" /><circle cx="331" cy="79" r="18" fill="green" /><circle cx="619" cy="79" r="18" fill="green" /><circle cx="331" cy="871" r="18" fill="green" /><circle cx="619" cy="871" r="18" fill="green" /><circle cx="295" cy="79" r="18" fill="green" /><circle cx="655" cy="79" r="18" fill="green" /><circle cx="295" cy="871" r="18" fill="green" /><circle cx="655" cy="871" r="18" fill="green" /><circle cx="259" cy="79" r="18" fill="green" /><circle cx="691" cy="79" r="18" fill="green" /><circle cx="259" cy="871" r="18" fill="green" /><circle cx="691" cy="871" r="18" fill="green" /><circle cx="223" cy="79" r="18" fill="green" /><circle cx="727" cy="79" r="18" fill="green" /><circle cx="223" cy="871" r="18" fill="green" /><circle cx="727" cy="871" r="18" fill="green" /><circle cx="187" cy="79" r="18" fill="green" /><circle cx="763" cy="79" r="18" fill="green" /><circle cx="187" cy="871" r="18" fill="green" /><circle cx="763" cy="871" r="18" fill="green" /><circle cx="151" cy="79" r="18" fill="green" /><circle cx="799" cy="79" r="18" fill="green" /><circle cx="151" cy="871" r="18" fill="green" /><circle cx="799" cy="871" r="18" fill="green" /><circle cx="115" cy="79" r="18" fill="green" /><circle cx="835" cy="79" r="18" fill="green" /><circle cx="115" cy="871" r="18" fill="green" /><circle cx="835" cy="871" r="18" fill="green" /><circle cx="79" cy="79" r="18" fill="green" /><circle cx="871" cy="79" r="18" fill="green" /><circle cx="79" cy="871" r="18" fill="green" /><circle cx="871" cy="871" r="18" fill="green" /><circle cx="43" cy="79" r="18" fill="green" /><circle cx="907" cy="79" r="18" fill="green" /><circle cx="43" cy="871" r="18" fill="green" /><circle cx="907" cy="871" r="18" fill="green" /><circle cx="475" cy="43" r="18" fill="green" /><circle cx="475" cy="907" r="18" fill="green" /><circle cx="439" cy="43" r="18" fill="green" /><circle cx="511" cy="43" r="18" fill="green" /><circle cx="439" cy="907" r="18" fill="green" /><circle cx="511" cy="907" r="18" fill="green" /><circle cx="403" cy="43" r="18" fill="green" /><circle cx="547" cy="43" r="18" fill="green" /><circle cx="403" cy="907" r="18" fill="green" /><circle cx="547" cy="907" r="18" fill="green" /><circle cx="367" cy="43" r="18" fill="green" /><circle cx="583" cy="43" r="18" fill="green" /><circle cx="367" cy="907" r="18" fill="green" /><circle cx="583" cy="907" r="18" fill="green" /><circle cx="331" cy="43" r="18" fill="green" /><circle cx="619" cy="43" r="18" fill="green" /><circle cx="331" cy="907" r="18" fill="green" /><circle cx="619" cy="907" r="18" fill="green" /><circle cx="295" cy="43" r="18" fill="green" /><circle cx="655" cy="43" r="18" fill="green" /><circle cx="295" cy="907" r="18" fill="green" /><circle cx="655" cy="907" r="18" fill="green" /><circle cx="259" cy="43" r="18" fill="green" /><circle cx="691" cy="43" r="18" fill="green" /><circle cx="259" cy="907" r="18" fill="green" /><circle cx="691" cy="907" r="18" fill="green" /><circle cx="223" cy="43" r="18" fill="green" /><circle cx="727" cy="43" r="18" fill="green" /><circle cx="223" cy="907" r="18" fill="green" /><circle cx="727" cy="907" r="18" fill="green" /><circle cx="187" cy="43" r="18" fill="green" /><circle cx="763" cy="43" r="18" fill="green" /><circle cx="187" cy="907" r="18" fill="green" /><circle cx="763" cy="907" r="18" fill="green" /><circle cx="151" cy="43" r="18" fill="green" /><circle cx="799" cy="43" r="18" fill="green" /><circle cx="151" cy="907" r="18" fill="green" /><circle cx="799" cy="907" r="18" fill="green" /><circle cx="115" cy="43" r="18" fill="green" /><circle cx="835" cy="43" r="18" fill="green" /><circle cx="115" cy="907" r="18" fill="green" /><circle cx="835" cy="907" r="18" fill="green" /><circle cx="79" cy="43" r="18" fill="green" /><circle cx="871" cy="43" r="18" fill="green" /><circle cx="79" cy="907" r="18" fill="green" /><circle cx="871" cy="907" r="18" fill="green" /><circle cx="43" cy="43" r="18" fill="green" /><circle cx="907" cy="43" r="18" fill="green" /><circle cx="43" cy="907" r="18" fill="green" /><circle cx="907" cy="907" r="18" fill="green" /></svg>