<svg version="1.1" baseProfile="full" width="526" height="526" xmlns="http://wwww.w3.org/2000/svg"><polygon points="263,0 0,455.529 526,455.529" fill="red"/><circle cx="31.1769" cy="437.529" r="18" fill="green" /><circle cx="67.1769" cy="437.529" r="18" fill="green" /><circle cx="103.177" cy="437.529" r="18" fill="green" /><circle cx="139.177" cy="437.529" r="18" fill="green" /><circle cx="175.177" cy="437.529" r="18" fill="green" /><circle cx="211.177" cy="437.529" r="18" fill="green" /><circle cx="247.177" cy="437.529" r="18" fill="green" /><circle cx="283.177" cy="437.529" r="18" fill="green" /><circle cx="319.177" cy="437.529" r="18" fill="green" /><circle cx="355.177" cy="437.529" r="18" fill="green" /><circle cx="391.177" cy="437.529" r="18" fill="green" /><circle cx="427.177" cy="437.529" r="18" fill="green" /><circle cx="463.177" cy="437.529" r="18" fill="green" /><circle cx="51.9615" cy="401.529" r="18" fill="green" /><circle cx="87.9615" cy="401.529" r="18" fill="green" /><circle cx="123.962" cy="401.529" r="18" fill="green" /><circle cx="159.962" cy="401.529" r="18" fill="green" /><circle cx="195.962" cy="401.529" r="18" fill="green" /><circle cx="231.962" cy="401.529" r="18" fill="green" /><circle cx="267.962" cy="401.529" r="18" fill="green" /><circle cx="303.962" cy="401.529" r="18" fill="green" /><circle cx="339.962" cy="401.529" r="18" fill="green" /><circle cx="375.962" cy="401.529" r="18" fill="green" /><circle cx="411.962" cy="401.529" r="18" fill="green" /><circle cx="447.962" cy="401.529" r="18" fill="green" /><circle cx="72.7461" cy="365.529" r="18" fill="green" /><circle cx="108.746" cy="365.529" r="18" fill="green" /><circle cx="144.746" cy="365.529" r="18" fill="green" /><circle cx="180.746" cy="365.529" r="18" fill="green" /><circle cx="216.746" cy="365.529" r="18" fill="green" /><circle cx="252.746" cy="365.529" r="18" fill="green" /><circle cx="288.746" cy="365.529" r="18" fill="green" /><circle cx="324.746" cy="365.529" r="18" fill="green" /><circle cx="360.746" cy="365.529" r="18" fill="green" /><circle cx="396.746" cy="365.529" r="18" fill="green" /><circle cx="432.746" cy="365.529" r="18" fill="green" /><circle cx="93.5307" cy="329.529" r="18" fill="green" /><circle cx="129.531" cy="329.529" r="18" fill="green" /><circle cx="165.531" cy="329.529" r="18" fill="green" /><circle cx="201.531" cy="329.529" r="18" fill="green" /><circle cx="237.531" cy="329.529" r="18" fill="green" /><circle cx="273.531" cy="329.529" r="18" fill="green" /><circle cx="309.531" cy="329.529" r="18" fill="green" /><circle cx="345.531" cy="329.529" r="18" fill="green" /><circle cx="381.531" cy="329.529" r="18" fill="green" /><circle cx="417.531" cy="329.529" r="18" fill="green" /><circle cx="114.315" cy="293.529" r="18" fill="green" /><circle cx="150.315" cy="293.529" r="18" fill="green" /><circle cx="186.315" cy="293.529" r="18" fill="green" /><circle cx="222.315" cy="293.529" r="18" fill="green" /><circle cx="258.315" cy="293.529" r="18" fill="green" /><circle cx="294.315" cy="293.529" r="18" fill="green" /><circle cx="330.315" cy="293.529" r="18" fill="green" /><circle cx="366.315" cy="293.529" r="18" fill="green" /><circle cx="402.315" cy="293.529" r="18" fill="green" /><circle cx="135.1" cy="257.529" r="18" fill="green" /><circle cx="171.1" cy="257.529" r="18" fill="green" /><circle cx="207.1" cy="257.529" r="18" fill="green" /><circle cx="243.1" cy="257.529" r="18" fill="green" /><circle cx="279.1" cy="257.529" r="18" fill="green" /><circle cx="315.1" cy="257.529" r="18" fill="green" /><circle cx="351.1" cy="257.529" r="18" fill="green" /><circle cx="387.1" cy="257.529" r="18" fill="green" /><circle cx="155.885" cy="221.529" r="18" fill="green" /><circle cx="191.885" cy="221.529" r="18" fill="green" /><circle cx="227.885" cy="221.529" r="18" fill="green" /><circle cx="263.885" cy="221.529" r="18" fill="green" /><circle cx="299.885" cy="221.529" r="18" fill="green" /><circle cx="335.885" cy="221.529" r="18" fill="green" /><circle cx="176.669" cy="185.529" r="18" fill="green" /><circle cx="212.669" cy="185.529" r="18" fill="green" /><circle cx="248.669" cy="185.529" r="18" fill="green" /><circle cx="284.669" cy="185.529" r="18" fill="green" /><circle cx="320.669" cy="185.529" r="18" fill="green" /><circle cx="197.454" cy="149.529" r="18" fill="green" /><circle cx="233.454" cy="149.529" r="18" fill="green" /><circle cx="269.454" cy="149.529" r="18" fill="green" /><circle cx="305.454" cy="149.529" r="18" fill="green" /><circle cx="218.238" cy="113.529" r="18" fill="green" /><circle cx="254.238" cy="113.529" r="18" fill="green" /><circle cx="290.238" cy="113.529" r="18" fill="green" /><circle cx="239.023" cy="77.5294" r="18" fill="green" /><circle cx="275.023" cy="77.5294" r="18" fill="green" /><circle cx="259.808" cy="41.5294" r="18" fill="green" /></svg>