<svg version="1.1" baseProfile="full" width="526" height="526" xmlns="http://wwww.w3.org/2000/svg"><polygon points="263,0 0,455.529 526,455.529" fill="red"/><polygon points="10,438.209 0,455.529 21,455.529" fill="green"/><polygon points="31,438.209 21,455.529 42,455.529" fill="green"/><polygon points="52,438.209 42,455.529 63,455.529" fill="green"/><polygon points="73,438.209 63,455.529 84,455.529" fill="green"/><polygon points="94,438.209 84,455.529 105,455.529" fill="green"/><polygon points="115,438.209 105,455.529 126,455.529" fill="green"/><polygon points="136,438.209 126,455.529 147,455.529" fill="green"/><polygon points="157,438.209 147,455.529 168,455.529" fill="green"/><polygon points="178,438.209 168,455.529 189,455.529" fill="green"/><polygon points="199,438.209 189,455.529 210,455.529" fill="green"/><polygon points="220,438.209 210,455.529 231,455.529" fill="green"/><polygon points="241,438.209 231,455.529 252,455.529" fill="green"/><polygon points="262,438.209 252,455.529 273,455.529" fill="green"/><polygon points="283,438.209 273,455.529 294,455.529" fill="green"/><polygon points="304,438.209 294,455.529 315,455.529" fill="green"/><polygon points="325,438.209 315,455.529 336,455.529" fill="green"/><polygon points="346,438.209 336,455.529 357,455.529" fill="green"/><polygon points="367,438.209 357,455.529 378,455.529" fill="green"/><polygon points="388,438.209 378,455.529 399,455.529" fill="green"/><polygon points="409,438.209 399,455.529 420,455.529" fill="green"/><polygon points="430,438.209 420,455.529 441,455.529" fill="green"/><polygon points="451,438.209 441,455.529 462,455.529" fill="green"/><polygon points="472,438.209 462,455.529 483,455.529" fill="green"/><polygon points="493,438.209 483,455.529 504,455.529" fill="green"/><polygon points="514,438.209 504,455.529 525,455.529" fill="green"/><polygon points="21,455.529 10,438.209 31,438.209" fill="green"/><polygon points="42,455.529 31,438.209 52,438.209" fill="green"/><polygon points="63,455.529 52,438.209 73,438.209" fill="green"/><polygon points="84,455.529 73,438.209 94,438.209" fill="green"/><polygon points="105,455.529 94,438.209 115,438.209" fill="green"/><polygon points="126,455.529 115,438.209 136,438.209" fill="green"/><polygon points="147,455.529 136,438.209 157,438.209" fill="green"/><polygon points="168,455.529 157,438.209 178,438.209" fill="green"/><polygon points="189,455.529 178,438.209 199,438.209" fill="green"/><polygon points="210,455.529 199,438.209 220,438.209" fill="green"/><polygon points="231,455.529 220,438.209 241,438.209" fill="green"/><polygon points="252,455.529 241,438.209 262,438.209" fill="green"/><polygon points="273,455.529 262,438.209 283,438.209" fill="green"/><polygon points="294,455.529 283,438.209 304,438.209" fill="green"/><polygon points="315,455.529 304,438.209 325,438.209" fill="green"/><polygon points="336,455.529 325,438.209 346,438.209" fill="green"/><polygon points="357,455.529 346,438.209 367,438.209" fill="green"/><polygon points="378,455.529 367,438.209 388,438.209" fill="green"/><polygon points="399,455.529 388,438.209 409,438.209" fill="green"/><polygon points="420,455.529 409,438.209 430,438.209" fill="green"/><polygon points="441,455.529 430,438.209 451,438.209" fill="green"/><polygon points="462,455.529 451,438.209 472,438.209" fill="green"/><polygon points="483,455.529 472,438.209 493,438.209" fill="green"/><polygon points="504,455.529 493,438.209 514,438.209" fill="green"/><polygon points="20,420.888 10,438.209 31,438.209" fill="green"/><polygon points="41,420.888 31,438.209 52,438.209" fill="green"/><polygon points="62,420.888 52,438.209 73,438.209" fill="green"/><polygon points="83,420.888 73,438.209 94,438.209" fill="green"/><polygon points="104,420.888 94,438.209 115,438.209" fill="green"/><polygon points="125,420.888 115,438.209 136,438.209" fill="green"/><polygon points="146,420.888 136,438.209 157,438.209" fill="green"/><polygon points="167,420.888 157,438.209 178,438.209" fill="green"/><polygon points="188,420.888 178,438.209 199,438.209" fill="green"/><polygon points="209,420.888 199,438.209 220,438.209" fill="green"/><polygon points="230,420.888 220,438.209 241,438.209" fill="green"/><polygon points="251,420.888 241,438.209 262,438.209" fill="green"/><polygon points="272,420.888 262,438.209 283,438.209" fill="green"/><polygon points="293,420.888 283,438.209 304,438.209" fill="green"/><polygon points="314,420.888 304,438.209 325,438.209" fill="green"/><polygon points="335,420.888 325,438.209 346,438.209" fill="green"/><polygon points="356,420.888 346,438.209 367,438.209" fill="green"/><polygon points="377,420.888 367,438.209 388,438.209" fill="green"/><polygon points="398,420.888 388,438.209 409,438.209" fill="green"/><polygon points="419,420.888 409,438.209 430,438.209" fill="green"/><polygon points="440,420.888 430,438.209 451,438.209" fill="green"/><polygon points="461,420.888 451,438.209 472,438.209" fill="green"/><polygon points="482,420.888 472,438.209 493,438.209" fill="green"/><polygon points="503,420.888 493,438.209 514,438.209" fill="green"/><polygon points="31,438.209 20,420.888 41,420.888" fill="green"/><polygon points="52,438.209 41,420.888 62,420.888" fill="green"/><polygon points="73,438.209 62,420.888 83,420.888" fill="green"/><polygon points="94,438.209 83,420.888 104,420.888" fill="green"/><polygon points="115,438.209 104,420.888 125,420.888" fill="green"/><polygon points="136,438.209 125,420.888 146,420.888" fill="green"/><polygon points="157,438.209 146,420.888 167,420.888" fill="green"/><polygon points="178,438.209 167,420.888 188,420.888" fill="green"/><polygon points="199,438.209 188,420.888 209,420.888" fill="green"/><polygon points="220,438.209 209,420.888 230,420.888" fill="green"/><polygon points="241,438.209 230,420.888 251,420.888" fill="green"/><polygon points="262,438.209 251,420.888 272,420.888" fill="green"/><polygon points="283,438.209 272,420.888 293,420.888" fill="green"/><polygon points="304,438.209 293,420.888 314,420.888" fill="green"/><polygon points="325,438.209 314,420.888 335,420.888" fill="green"/><polygon points="346,438.209 335,420.888 356,420.888" fill="green"/><polygon points="367,438.209 356,420.888 377,420.888" fill="green"/><polygon points="388,438.209 377,420.888 398,420.888" fill="green"/><polygon points="409,438.209 398,420.888 419,420.888" fill="green"/><polygon points="430,438.209 419,420.888 440,420.888" fill="green"/><polygon points="451,438.209 440,420.888 461,420.888" fill="green"/><polygon points="472,438.209 461,420.888 482,420.888" fill="green"/><polygon points="493,438.209 482,420.888 503,420.888" fill="green"/><polygon points="30,403.568 20,420.888 41,420.888" fill="green"/><polygon points="51,403.568 41,420.888 62,420.888" fill="green"/><polygon points="72,403.568 62,420.888 83,420.888" fill="green"/><polygon points="93,403.568 83,420.888 104,420.888" fill="green"/><polygon points="114,403.568 104,420.888 125,420.888" fill="green"/><polygon points="135,403.568 125,420.888 146,420.888" fill="green"/><polygon points="156,403.568 146,420.888 167,420.888" fill="green"/><polygon points="177,403.568 167,420.888 188,420.888" fill="green"/><polygon points="198,403.568 188,420.888 209,420.888" fill="green"/><polygon points="219,403.568 209,420.888 230,420.888" fill="green"/><polygon points="240,403.568 230,420.888 251,420.888" fill="green"/><polygon points="261,403.568 251,420.888 272,420.888" fill="green"/><polygon points="282,403.568 272,420.888 293,420.888" fill="green"/><polygon points="303,403.568 293,420.888 314,420.888" fill="green"/><polygon points="324,403.568 314,420.888 335,420.888" fill="green"/><polygon points="345,403.568 335,420.888 356,420.888" fill="green"/><polygon points="366,403.568 356,420.888 377,420.888" fill="green"/><polygon points="387,403.568 377,420.888 398,420.888" fill="green"/><polygon points="408,403.568 398,420.888 419,420.888" fill="green"/><polygon points="429,403.568 419,420.888 440,420.888" fill="green"/><polygon points="450,403.568 440,420.888 461,420.888" fill="green"/><polygon points="471,403.568 461,420.888 482,420.888" fill="green"/><polygon points="492,403.568 482,420.888 503,420.888" fill="green"/><polygon points="41,420.888 30,403.568 51,403.568" fill="green"/><polygon points="62,420.888 51,403.568 72,403.568" fill="green"/><polygon points="83,420.888 72,403.568 93,403.568" fill="green"/><polygon points="104,420.888 93,403.568 114,403.568" fill="green"/><polygon points="125,420.888 114,403.568 135,403.568" fill="green"/><polygon points="146,420.888 135,403.568 156,403.568" fill="green"/><polygon points="167,420.888 156,403.568 177,403.568" fill="green"/><polygon points="188,420.888 177,403.568 198,403.568" fill="green"/><polygon points="209,420.888 198,403.568 219,403.568" fill="green"/><polygon points="230,420.888 219,403.568 240,403.568" fill="green"/><polygon points="251,420.888 240,403.568 261,403.568" fill="green"/><polygon points="272,420.888 261,403.568 282,403.568" fill="green"/><polygon points="293,420.888 282,403.568 303,403.568" fill="green"/><polygon points="314,420.888 303,403.568 324,403.568" fill="green"/><polygon points="335,420.888 324,403.568 345,403.568" fill="green"/><polygon points="356,420.888 345,403.568 366,403.568" fill="green"/><polygon points="377,420.888 366,403.568 387,403.568" fill="green"/><polygon points="398,420.888 387,403.568 408,403.568" fill="green"/><polygon points="419,420.888 408,403.568 429,403.568" fill="green"/><polygon points="440,420.888 429,403.568 450,403.568" fill="green"/><polygon points="461,420.888 450,403.568 471,403.568" fill="green"/><polygon points="482,420.888 471,403.568 492,403.568" fill="green"/><polygon points="40,386.247 30,403.568 51,403.568" fill="green"/><polygon points="61,386.247 51,403.568 72,403.568" fill="green"/><polygon points="82,386.247 72,403.568 93,403.568" fill="green"/><polygon points="103,386.247 93,403.568 114,403.568" fill="green"/><polygon points="124,386.247 114,403.568 135,403.568" fill="green"/><polygon points="145,386.247 135,403.568 156,403.568" fill="green"/><polygon points="166,386.247 156,403.568 177,403.568" fill="green"/><polygon points="187,386.247 177,403.568 198,403.568" fill="green"/><polygon points="208,386.247 198,403.568 219,403.568" fill="green"/><polygon points="229,386.247 219,403.568 240,403.568" fill="green"/><polygon points="250,386.247 240,403.568 261,403.568" fill="green"/><polygon points="271,386.247 261,403.568 282,403.568" fill="green"/><polygon points="292,386.247 282,403.568 303,403.568" fill="green"/><polygon points="313,386.247 303,403.568 324,403.568" fill="green"/><polygon points="334,386.247 324,403.568 345,403.568" fill="green"/><polygon points="355,386.247 345,403.568 366,403.568" fill="green"/><polygon points="376,386.247 366,403.568 387,403.568" fill="green"/><polygon points="397,386.247 387,403.568 408,403.568" fill="green"/><polygon points="418,386.247 408,403.568 429,403.568" fill="green"/><polygon points="439,386.247 429,403.568 450,403.568" fill="green"/><polygon points="460,386.247 450,403.568 471,403.568" fill="green"/><polygon points="481,386.247 471,403.568 492,403.568" fill="green"/><polygon points="51,403.568 40,386.247 61,386.247" fill="green"/><polygon points="72,403.568 61,386.247 82,386.247" fill="green"/><polygon points="93,403.568 82,386.247 103,386.247" fill="green"/><polygon points="114,403.568 103,386.247 124,386.247" fill="green"/><polygon points="135,403.568 124,386.247 145,386.247" fill="green"/><polygon points="156,403.568 145,386.247 166,386.247" fill="green"/><polygon points="177,403.568 166,386.247 187,386.247" fill="green"/><polygon points="198,403.568 187,386.247 208,386.247" fill="green"/><polygon points="219,403.568 208,386.247 229,386.247" fill="green"/><polygon points="240,403.568 229,386.247 250,386.247" fill="green"/><polygon points="261,403.568 250,386.247 271,386.247" fill="green"/><polygon points="282,403.568 271,386.247 292,386.247" fill="green"/><polygon points="303,403.568 292,386.247 313,386.247" fill="green"/><polygon points="324,403.568 313,386.247 334,386.247" fill="green"/><polygon points="345,403.568 334,386.247 355,386.247" fill="green"/><polygon points="366,403.568 355,386.247 376,386.247" fill="green"/><polygon points="387,403.568 376,386.247 397,386.247" fill="green"/><polygon points="408,403.568 397,386.247 418,386.247" fill="green"/><polygon points="429,403.568 418,386.247 439,386.247" fill="green"/><polygon points="450,403.568 439,386.247 460,386.247" fill="green"/><polygon points="471,403.568 460,386.247 481,386.247" fill="green"/><polygon points="50,368.927 40,386.247 61,386.247" fill="green"/><polygon points="71,368.927 61,386.247 82,386.247" fill="green"/><polygon points="92,368.927 82,386.247 103,386.247" fill="green"/><polygon points="113,368.927 103,386.247 124,386.247" fill="green"/><polygon points="134,368.927 124,386.247 145,386.247" fill="green"/><polygon points="155,368.927 145,386.247 166,386.247" fill="green"/><polygon points="176,368.927 166,386.247 187,386.247" fill="green"/><polygon points="197,368.927 187,386.247 208,386.247" fill="green"/><polygon points="218,368.927 208,386.247 229,386.247" fill="green"/><polygon points="239,368.927 229,386.247 250,386.247" fill="green"/><polygon points="260,368.927 250,386.247 271,386.247" fill="green"/><polygon points="281,368.927 271,386.247 292,386.247" fill="green"/><polygon points="302,368.927 292,386.247 313,386.247" fill="green"/><polygon points="323,368.927 313,386.247 334,386.247" fill="green"/><polygon points="344,368.927 334,386.247 355,386.247" fill="green"/><polygon points="365,368.927 355,386.247 376,386.247" fill="green"/><polygon points="386,368.927 376,386.247 397,386.247" fill="green"/><polygon points="407,368.927 397,386.247 418,386.247" fill="green"/><polygon points="428,368.927 418,386.247 439,386.247" fill="green"/><polygon points="449,368.927 439,386.247 460,386.247" fill="green"/><polygon points="470,368.927 460,386.247 481,386.247" fill="green"/><polygon points="61,386.247 50,368.927 71,368.927" fill="green"/><polygon points="82,386.247 71,368.927 92,368.927" fill="green"/><polygon points="103,386.247 92,368.927 113,368.927" fill="green"/><polygon points="124,386.247 113,368.927 134,368.927" fill="green"/><polygon points="145,386.247 134,368.927 155,368.927" fill="green"/><polygon points="166,386.247 155,368.927 176,368.927" fill="green"/><polygon points="187,386.247 176,368.927 197,368.927" fill="green"/><polygon points="208,386.247 197,368.927 218,368.927" fill="green"/><polygon points="229,386.247 218,368.927 239,368.927" fill="green"/><polygon points="250,386.247 239,368.927 260,368.927" fill="green"/><polygon points="271,386.247 260,368.927 281,368.927" fill="green"/><polygon points="292,386.247 281,368.927 302,368.927" fill="green"/><polygon points="313,386.247 302,368.927 323,368.927" fill="green"/><polygon points="334,386.247 323,368.927 344,368.927" fill="green"/><polygon points="355,386.247 344,368.927 365,368.927" fill="green"/><polygon points="376,386.247 365,368.927 386,368.927" fill="green"/><polygon points="397,386.247 386,368.927 407,368.927" fill="green"/><polygon points="418,386.247 407,368.927 428,368.927" fill="green"/><polygon points="439,386.247 428,368.927 449,368.927" fill="green"/><polygon points="460,386.247 449,368.927 470,368.927" fill="green"/><polygon points="60,351.606 50,368.927 71,368.927" fill="green"/><polygon points="81,351.606 71,368.927 92,368.927" fill="green"/><polygon points="102,351.606 92,368.927 113,368.927" fill="green"/><polygon points="123,351.606 113,368.927 134,368.927" fill="green"/><polygon points="144,351.606 134,368.927 155,368.927" fill="green"/><polygon points="165,351.606 155,368.927 176,368.927" fill="green"/><polygon points="186,351.606 176,368.927 197,368.927" fill="green"/><polygon points="207,351.606 197,368.927 218,368.927" fill="green"/><polygon points="228,351.606 218,368.927 239,368.927" fill="green"/><polygon points="249,351.606 239,368.927 260,368.927" fill="green"/><polygon points="270,351.606 260,368.927 281,368.927" fill="green"/><polygon points="291,351.606 281,368.927 302,368.927" fill="green"/><polygon points="312,351.606 302,368.927 323,368.927" fill="green"/><polygon points="333,351.606 323,368.927 344,368.927" fill="green"/><polygon points="354,351.606 344,368.927 365,368.927" fill="green"/><polygon points="375,351.606 365,368.927 386,368.927" fill="green"/><polygon points="396,351.606 386,368.927 407,368.927" fill="green"/><polygon points="417,351.606 407,368.927 428,368.927" fill="green"/><polygon points="438,351.606 428,368.927 449,368.927" fill="green"/><polygon points="459,351.606 449,368.927 470,368.927" fill="green"/><polygon points="71,368.927 60,351.606 81,351.606" fill="green"/><polygon points="92,368.927 81,351.606 102,351.606" fill="green"/><polygon points="113,368.927 102,351.606 123,351.606" fill="green"/><polygon points="134,368.927 123,351.606 144,351.606" fill="green"/><polygon points="155,368.927 144,351.606 165,351.606" fill="green"/><polygon points="176,368.927 165,351.606 186,351.606" fill="green"/><polygon points="197,368.927 186,351.606 207,351.606" fill="green"/><polygon points="218,368.927 207,351.606 228,351.606" fill="green"/><polygon points="239,368.927 228,351.606 249,351.606" fill="green"/><polygon points="260,368.927 249,351.606 270,351.606" fill="green"/><polygon points="281,368.927 270,351.606 291,351.606" fill="green"/><polygon points="302,368.927 291,351.606 312,351.606" fill="green"/><polygon points="323,368.927 312,351.606 333,351.606" fill="green"/><polygon points="344,368.927 333,351.606 354,351.606" fill="green"/><polygon points="365,368.927 354,351.606 375,351.606" fill="green"/><polygon points="386,368.927 375,351.606 396,351.606" fill="green"/><polygon points="407,368.927 396,351.606 417,351.606" fill="green"/><polygon points="428,368.927 417,351.606 438,351.606" fill="green"/><polygon points="449,368.927 438,351.606 459,351.606" fill="green"/><polygon points="70,334.286 60,351.606 81,351.606" fill="green"/><polygon points="91,334.286 81,351.606 102,351.606" fill="green"/><polygon points="112,334.286 102,351.606 123,351.606" fill="green"/><polygon points="133,334.286 123,351.606 144,351.606" fill="green"/><polygon points="154,334.286 144,351.606 165,351.606" fill="green"/><polygon points="175,334.286 165,351.606 186,351.606" fill="green"/><polygon points="196,334.286 186,351.606 207,351.606" fill="green"/><polygon points="217,334.286 207,351.606 228,351.606" fill="green"/><polygon points="238,334.286 228,351.606 249,351.606" fill="green"/><polygon points="259,334.286 249,351.606 270,351.606" fill="green"/><polygon points="280,334.286 270,351.606 291,351.606" fill="green"/><polygon points="301,334.286 291,351.606 312,351.606" fill="green"/><polygon points="322,334.286 312,351.606 333,351.606" fill="green"/><polygon points="343,334.286 333,351.606 354,351.606" fill="green"/><polygon points="364,334.286 354,351.606 375,351.606" fill="green"/><polygon points="385,334.286 375,351.606 396,351.606" fill="green"/><polygon points="406,334.286 396,351.606 417,351.606" fill="green"/><polygon points="427,334.286 417,351.606 438,351.606" fill="green"/><polygon points="448,334.286 438,351.606 459,351.606" fill="green"/><polygon points="81,351.606 70,334.286 91,334.286" fill="green"/><polygon points="102,351.606 91,334.286 112,334.286" fill="green"/><polygon points="123,351.606 112,334.286 133,334.286" fill="green"/><polygon points="144,351.606 133,334.286 154,334.286" fill="green"/><polygon points="165,351.606 154,334.286 175,334.286" fill="green"/><polygon points="186,351.606 175,334.286 196,334.286" fill="green"/><polygon points="207,351.606 196,334.286 217,334.286" fill="green"/><polygon points="228,351.606 217,334.286 238,334.286" fill="green"/><polygon points="249,351.606 238,334.286 259,334.286" fill="green"/><polygon points="270,351.606 259,334.286 280,334.286" fill="green"/><polygon points="291,351.606 280,334.286 301,334.286" fill="green"/><polygon points="312,351.606 301,334.286 322,334.286" fill="green"/><polygon points="333,351.606 322,334.286 343,334.286" fill="green"/><polygon points="354,351.606 343,334.286 364,334.286" fill="green"/><polygon points="375,351.606 364,334.286 385,334.286" fill="green"/><polygon points="396,351.606 385,334.286 406,334.286" fill="green"/><polygon points="417,351.606 406,334.286 427,334.286" fill="green"/><polygon points="438,351.606 427,334.286 448,334.286" fill="green"/><polygon points="80,316.965 70,334.286 91,334.286" fill="green"/><polygon points="101,316.965 91,334.286 112,334.286" fill="green"/><polygon points="122,316.965 112,334.286 133,334.286" fill="green"/><polygon points="143,316.965 133,334.286 154,334.286" fill="green"/><polygon points="164,316.965 154,334.286 175,334.286" fill="green"/><polygon points="185,316.965 175,334.286 196,334.286" fill="green"/><polygon points="206,316.965 196,334.286 217,334.286" fill="green"/><polygon points="227,316.965 217,334.286 238,334.286" fill="green"/><polygon points="248,316.965 238,334.286 259,334.286" fill="green"/><polygon points="269,316.965 259,334.286 280,334.286" fill="green"/><polygon points="290,316.965 280,334.286 301,334.286" fill="green"/><polygon points="311,316.965 301,334.286 322,334.286" fill="green"/><polygon points="332,316.965 322,334.286 343,334.286" fill="green"/><polygon points="353,316.965 343,334.286 364,334.286" fill="green"/><polygon points="374,316.965 364,334.286 385,334.286" fill="green"/><polygon points="395,316.965 385,334.286 406,334.286" fill="green"/><polygon points="416,316.965 406,334.286 427,334.286" fill="green"/><polygon points="437,316.965 427,334.286 448,334.286" fill="green"/><polygon points="91,334.286 80,316.965 101,316.965" fill="green"/><polygon points="112,334.286 101,316.965 122,316.965" fill="green"/><polygon points="133,334.286 122,316.965 143,316.965" fill="green"/><polygon points="154,334.286 143,316.965 164,316.965" fill="green"/><polygon points="175,334.286 164,316.965 185,316.965" fill="green"/><polygon points="196,334.286 185,316.965 206,316.965" fill="green"/><polygon points="217,334.286 206,316.965 227,316.965" fill="green"/><polygon points="238,334.286 227,316.965 248,316.965" fill="green"/><polygon points="259,334.286 248,316.965 269,316.965" fill="green"/><polygon points="280,334.286 269,316.965 290,316.965" fill="green"/><polygon points="301,334.286 290,316.965 311,316.965" fill="green"/><polygon points="322,334.286 311,316.965 332,316.965" fill="green"/><polygon points="343,334.286 332,316.965 353,316.965" fill="green"/><polygon points="364,334.286 353,316.965 374,316.965" fill="green"/><polygon points="385,334.286 374,316.965 395,316.965" fill="green"/><polygon points="406,334.286 395,316.965 416,316.965" fill="green"/><polygon points="427,334.286 416,316.965 437,316.965" fill="green"/><polygon points="90,299.645 80,316.965 101,316.965" fill="green"/><polygon points="111,299.645 101,316.965 122,316.965" fill="green"/><polygon points="132,299.645 122,316.965 143,316.965" fill="green"/><polygon points="153,299.645 143,316.965 164,316.965" fill="green"/><polygon points="174,299.645 164,316.965 185,316.965" fill="green"/><polygon points="195,299.645 185,316.965 206,316.965" fill="green"/><polygon points="216,299.645 206,316.965 227,316.965" fill="green"/><polygon points="237,299.645 227,316.965 248,316.965" fill="green"/><polygon points="258,299.645 248,316.965 269,316.965" fill="green"/><polygon points="279,299.645 269,316.965 290,316.965" fill="green"/><polygon points="300,299.645 290,316.965 311,316.965" fill="green"/><polygon points="321,299.645 311,316.965 332,316.965" fill="green"/><polygon points="342,299.645 332,316.965 353,316.965" fill="green"/><polygon points="363,299.645 353,316.965 374,316.965" fill="green"/><polygon points="384,299.645 374,316.965 395,316.965" fill="green"/><polygon points="405,299.645 395,316.965 416,316.965" fill="green"/><polygon points="426,299.645 416,316.965 437,316.965" fill="green"/><polygon points="101,316.965 90,299.645 111,299.645" fill="green"/><polygon points="122,316.965 111,299.645 132,299.645" fill="green"/><polygon points="143,316.965 132,299.645 153,299.645" fill="green"/><polygon points="164,316.965 153,299.645 174,299.645" fill="green"/><polygon points="185,316.965 174,299.645 195,299.645" fill="green"/><polygon points="206,316.965 195,299.645 216,299.645" fill="green"/><polygon points="227,316.965 216,299.645 237,299.645" fill="green"/><polygon points="248,316.965 237,299.645 258,299.645" fill="green"/><polygon points="269,316.965 258,299.645 279,299.645" fill="green"/><polygon points="290,316.965 279,299.645 300,299.645" fill="green"/><polygon points="311,316.965 300,299.645 321,299.645" fill="green"/><polygon points="332,316.965 321,299.645 342,299.645" fill="green"/><polygon points="353,316.965 342,299.645 363,299.645" fill="green"/><polygon points="374,316.965 363,299.645 384,299.645" fill="green"/><polygon points="395,316.965 384,299.645 405,299.645" fill="green"/><polygon points="416,316.965 405,299.645 426,299.645" fill="green"/><polygon points="100,282.324 90,299.645 111,299.645" fill="green"/><polygon points="121,282.324 111,299.645 132,299.645" fill="green"/><polygon points="142,282.324 132,299.645 153,299.645" fill="green"/><polygon points="163,282.324 153,299.645 174,299.645" fill="green"/><polygon points="184,282.324 174,299.645 195,299.645" fill="green"/><polygon points="205,282.324 195,299.645 216,299.645" fill="green"/><polygon points="226,282.324 216,299.645 237,299.645" fill="green"/><polygon points="247,282.324 237,299.645 258,299.645" fill="green"/><polygon points="268,282.324 258,299.645 279,299.645" fill="green"/><polygon points="289,282.324 279,299.645 300,299.645" fill="green"/><polygon points="310,282.324 300,299.645 321,299.645" fill="green"/><polygon points="331,282.324 321,299.645 342,299.645" fill="green"/><polygon points="352,282.324 342,299.645 363,299.645" fill="green"/><polygon points="373,282.324 363,299.645 384,299.645" fill="green"/><polygon points="394,282.324 384,299.645 405,299.645" fill="green"/><polygon points="415,282.324 405,299.645 426,299.645" fill="green"/><polygon points="111,299.645 100,282.324 121,282.324" fill="green"/><polygon points="132,299.645 121,282.324 142,282.324" fill="green"/><polygon points="153,299.645 142,282.324 163,282.324" fill="green"/><polygon points="174,299.645 163,282.324 184,282.324" fill="green"/><polygon points="195,299.645 184,282.324 205,282.324" fill="green"/><polygon points="216,299.645 205,282.324 226,282.324" fill="green"/><polygon points="237,299.645 226,282.324 247,282.324" fill="green"/><polygon points="258,299.645 247,282.324 268,282.324" fill="green"/><polygon points="279,299.645 268,282.324 289,282.324" fill="green"/><polygon points="300,299.645 289,282.324 310,282.324" fill="green"/><polygon points="321,299.645 310,282.324 331,282.324" fill="green"/><polygon points="342,299.645 331,282.324 352,282.324" fill="green"/><polygon points="363,299.645 352,282.324 373,282.324" fill="green"/><polygon points="384,299.645 373,282.324 394,282.324" fill="green"/><polygon points="405,299.645 394,282.324 415,282.324" fill="green"/><polygon points="110,265.004 100,282.324 121,282.324" fill="green"/><polygon points="131,265.004 121,282.324 142,282.324" fill="green"/><polygon points="152,265.004 142,282.324 163,282.324" fill="green"/><polygon points="173,265.004 163,282.324 184,282.324" fill="green"/><polygon points="194,265.004 184,282.324 205,282.324" fill="green"/><polygon points="215,265.004 205,282.324 226,282.324" fill="green"/><polygon points="236,265.004 226,282.324 247,282.324" fill="green"/><polygon points="257,265.004 247,282.324 268,282.324" fill="green"/><polygon points="278,265.004 268,282.324 289,282.324" fill="green"/><polygon points="299,265.004 289,282.324 310,282.324" fill="green"/><polygon points="320,265.004 310,282.324 331,282.324" fill="green"/><polygon points="341,265.004 331,282.324 352,282.324" fill="green"/><polygon points="362,265.004 352,282.324 373,282.324" fill="green"/><polygon points="383,265.004 373,282.324 394,282.324" fill="green"/><polygon points="404,265.004 394,282.324 415,282.324" fill="green"/><polygon points="121,282.324 110,265.004 131,265.004" fill="green"/><polygon points="142,282.324 131,265.004 152,265.004" fill="green"/><polygon points="163,282.324 152,265.004 173,265.004" fill="green"/><polygon points="184,282.324 173,265.004 194,265.004" fill="green"/><polygon points="205,282.324 194,265.004 215,265.004" fill="green"/><polygon points="226,282.324 215,265.004 236,265.004" fill="green"/><polygon points="247,282.324 236,265.004 257,265.004" fill="green"/><polygon points="268,282.324 257,265.004 278,265.004" fill="green"/><polygon points="289,282.324 278,265.004 299,265.004" fill="green"/><polygon points="310,282.324 299,265.004 320,265.004" fill="green"/><polygon points="331,282.324 320,265.004 341,265.004" fill="green"/><polygon points="352,282.324 341,265.004 362,265.004" fill="green"/><polygon points="373,282.324 362,265.004 383,265.004" fill="green"/><polygon points="394,282.324 383,265.004 404,265.004" fill="green"/><polygon points="120,247.683 110,265.004 131,265.004" fill="green"/><polygon points="141,247.683 131,265.004 152,265.004" fill="green"/><polygon points="162,247.683 152,265.004 173,265.004" fill="green"/><polygon points="183,247.683 173,265.004 194,265.004" fill="green"/><polygon points="204,247.683 194,265.004 215,265.004" fill="green"/><polygon points="225,247.683 215,265.004 236,265.004" fill="green"/><polygon points="246,247.683 236,265.004 257,265.004" fill="green"/><polygon points="267,247.683 257,265.004 278,265.004" fill="green"/><polygon points="288,247.683 278,265.004 299,265.004" fill="green"/><polygon points="309,247.683 299,265.004 320,265.004" fill="green"/><polygon points="330,247.683 320,265.004 341,265.004" fill="green"/><polygon points="351,247.683 341,265.004 362,265.004" fill="green"/><polygon points="372,247.683 362,265.004 383,265.004" fill="green"/><polygon points="393,247.683 383,265.004 404,265.004" fill="green"/><polygon points="131,265.004 120,247.683 141,247.683" fill="green"/><polygon points="152,265.004 141,247.683 162,247.683" fill="green"/><polygon points="173,265.004 162,247.683 183,247.683" fill="green"/><polygon points="194,265.004 183,247.683 204,247.683" fill="green"/><polygon points="215,265.004 204,247.683 225,247.683" fill="green"/><polygon points="236,265.004 225,247.683 246,247.683" fill="green"/><polygon points="257,265.004 246,247.683 267,247.683" fill="green"/><polygon points="278,265.004 267,247.683 288,247.683" fill="green"/><polygon points="299,265.004 288,247.683 309,247.683" fill="green"/><polygon points="320,265.004 309,247.683 330,247.683" fill="green"/><polygon points="341,265.004 330,247.683 351,247.683" fill="green"/><polygon points="362,265.004 351,247.683 372,247.683" fill="green"/><polygon points="383,265.004 372,247.683 393,247.683" fill="green"/><polygon points="130,230.363 120,247.683 141,247.683" fill="green"/><polygon points="151,230.363 141,247.683 162,247.683" fill="green"/><polygon points="172,230.363 162,247.683 183,247.683" fill="green"/><polygon points="193,230.363 183,247.683 204,247.683" fill="green"/><polygon points="214,230.363 204,247.683 225,247.683" fill="green"/><polygon points="235,230.363 225,247.683 246,247.683" fill="green"/><polygon points="256,230.363 246,247.683 267,247.683" fill="green"/><polygon points="277,230.363 267,247.683 288,247.683" fill="green"/><polygon points="298,230.363 288,247.683 309,247.683" fill="green"/><polygon points="319,230.363 309,247.683 330,247.683" fill="green"/><polygon points="340,230.363 330,247.683 351,247.683" fill="green"/><polygon points="361,230.363 351,247.683 372,247.683" fill="green"/><polygon points="382,230.363 372,247.683 393,247.683" fill="green"/><polygon points="141,247.683 130,230.363 151,230.363" fill="green"/><polygon points="162,247.683 151,230.363 172,230.363" fill="green"/><polygon points="183,247.683 172,230.363 193,230.363" fill="green"/><polygon points="204,247.683 193,230.363 214,230.363" fill="green"/><polygon points="225,247.683 214,230.363 235,230.363" fill="green"/><polygon points="246,247.683 235,230.363 256,230.363" fill="green"/><polygon points="267,247.683 256,230.363 277,230.363" fill="green"/><polygon points="288,247.683 277,230.363 298,230.363" fill="green"/><polygon points="309,247.683 298,230.363 319,230.363" fill="green"/><polygon points="330,247.683 319,230.363 340,230.363" fill="green"/><polygon points="351,247.683 340,230.363 361,230.363" fill="green"/><polygon points="372,247.683 361,230.363 382,230.363" fill="green"/><polygon points="140,213.042 130,230.363 151,230.363" fill="green"/><polygon points="161,213.042 151,230.363 172,230.363" fill="green"/><polygon points="182,213.042 172,230.363 193,230.363" fill="green"/><polygon points="203,213.042 193,230.363 214,230.363" fill="green"/><polygon points="224,213.042 214,230.363 235,230.363" fill="green"/><polygon points="245,213.042 235,230.363 256,230.363" fill="green"/><polygon points="266,213.042 256,230.363 277,230.363" fill="green"/><polygon points="287,213.042 277,230.363 298,230.363" fill="green"/><polygon points="308,213.042 298,230.363 319,230.363" fill="green"/><polygon points="329,213.042 319,230.363 340,230.363" fill="green"/><polygon points="350,213.042 340,230.363 361,230.363" fill="green"/><polygon points="371,213.042 361,230.363 382,230.363" fill="green"/><polygon points="151,230.363 140,213.042 161,213.042" fill="green"/><polygon points="172,230.363 161,213.042 182,213.042" fill="green"/><polygon points="193,230.363 182,213.042 203,213.042" fill="green"/><polygon points="214,230.363 203,213.042 224,213.042" fill="green"/><polygon points="235,230.363 224,213.042 245,213.042" fill="green"/><polygon points="256,230.363 245,213.042 266,213.042" fill="green"/><polygon points="277,230.363 266,213.042 287,213.042" fill="green"/><polygon points="298,230.363 287,213.042 308,213.042" fill="green"/><polygon points="319,230.363 308,213.042 329,213.042" fill="green"/><polygon points="340,230.363 329,213.042 350,213.042" fill="green"/><polygon points="361,230.363 350,213.042 371,213.042" fill="green"/><polygon points="150,195.722 140,213.042 161,213.042" fill="green"/><polygon points="171,195.722 161,213.042 182,213.042" fill="green"/><polygon points="192,195.722 182,213.042 203,213.042" fill="green"/><polygon points="213,195.722 203,213.042 224,213.042" fill="green"/><polygon points="234,195.722 224,213.042 245,213.042" fill="green"/><polygon points="255,195.722 245,213.042 266,213.042" fill="green"/><polygon points="276,195.722 266,213.042 287,213.042" fill="green"/><polygon points="297,195.722 287,213.042 308,213.042" fill="green"/><polygon points="318,195.722 308,213.042 329,213.042" fill="green"/><polygon points="339,195.722 329,213.042 350,213.042" fill="green"/><polygon points="360,195.722 350,213.042 371,213.042" fill="green"/><polygon points="161,213.042 150,195.722 171,195.722" fill="green"/><polygon points="182,213.042 171,195.722 192,195.722" fill="green"/><polygon points="203,213.042 192,195.722 213,195.722" fill="green"/><polygon points="224,213.042 213,195.722 234,195.722" fill="green"/><polygon points="245,213.042 234,195.722 255,195.722" fill="green"/><polygon points="266,213.042 255,195.722 276,195.722" fill="green"/><polygon points="287,213.042 276,195.722 297,195.722" fill="green"/><polygon points="308,213.042 297,195.722 318,195.722" fill="green"/><polygon points="329,213.042 318,195.722 339,195.722" fill="green"/><polygon points="350,213.042 339,195.722 360,195.722" fill="green"/><polygon points="160,178.401 150,195.722 171,195.722" fill="green"/><polygon points="181,178.401 171,195.722 192,195.722" fill="green"/><polygon points="202,178.401 192,195.722 213,195.722" fill="green"/><polygon points="223,178.401 213,195.722 234,195.722" fill="green"/><polygon points="244,178.401 234,195.722 255,195.722" fill="green"/><polygon points="265,178.401 255,195.722 276,195.722" fill="green"/><polygon points="286,178.401 276,195.722 297,195.722" fill="green"/><polygon points="307,178.401 297,195.722 318,195.722" fill="green"/><polygon points="328,178.401 318,195.722 339,195.722" fill="green"/><polygon points="349,178.401 339,195.722 360,195.722" fill="green"/><polygon points="171,195.722 160,178.401 181,178.401" fill="green"/><polygon points="192,195.722 181,178.401 202,178.401" fill="green"/><polygon points="213,195.722 202,178.401 223,178.401" fill="green"/><polygon points="234,195.722 223,178.401 244,178.401" fill="green"/><polygon points="255,195.722 244,178.401 265,178.401" fill="green"/><polygon points="276,195.722 265,178.401 286,178.401" fill="green"/><polygon points="297,195.722 286,178.401 307,178.401" fill="green"/><polygon points="318,195.722 307,178.401 328,178.401" fill="green"/><polygon points="339,195.722 328,178.401 349,178.401" fill="green"/><polygon points="170,161.081 160,178.401 181,178.401" fill="green"/><polygon points="191,161.081 181,178.401 202,178.401" fill="green"/><polygon points="212,161.081 202,178.401 223,178.401" fill="green"/><polygon points="233,161.081 223,178.401 244,178.401" fill="green"/><polygon points="254,161.081 244,178.401 265,178.401" fill="green"/><polygon points="275,161.081 265,178.401 286,178.401" fill="green"/><polygon points="296,161.081 286,178.401 307,178.401" fill="green"/><polygon points="317,161.081 307,178.401 328,178.401" fill="green"/><polygon points="338,161.081 328,178.401 349,178.401" fill="green"/><polygon points="181,178.401 170,161.081 191,161.081" fill="green"/><polygon points="202,178.401 191,161.081 212,161.081" fill="green"/><polygon points="223,178.401 212,161.081 233,161.081" fill="green"/><polygon points="244,178.401 233,161.081 254,161.081" fill="green"/><polygon points="265,178.401 254,161.081 275,161.081" fill="green"/><polygon points="286,178.401 275,161.081 296,161.081" fill="green"/><polygon points="307,178.401 296,161.081 317,161.081" fill="green"/><polygon points="328,178.401 317,161.081 338,161.081" fill="green"/><polygon points="180,143.76 170,161.081 191,161.081" fill="green"/><polygon points="201,143.76 191,161.081 212,161.081" fill="green"/><polygon points="222,143.76 212,161.081 233,161.081" fill="green"/><polygon points="243,143.76 233,161.081 254,161.081" fill="green"/><polygon points="264,143.76 254,161.081 275,161.081" fill="green"/><polygon points="285,143.76 275,161.081 296,161.081" fill="green"/><polygon points="306,143.76 296,161.081 317,161.081" fill="green"/><polygon points="327,143.76 317,161.081 338,161.081" fill="green"/><polygon points="191,161.081 180,143.76 201,143.76" fill="green"/><polygon points="212,161.081 201,143.76 222,143.76" fill="green"/><polygon points="233,161.081 222,143.76 243,143.76" fill="green"/><polygon points="254,161.081 243,143.76 264,143.76" fill="green"/><polygon points="275,161.081 264,143.76 285,143.76" fill="green"/><polygon points="296,161.081 285,143.76 306,143.76" fill="green"/><polygon points="317,161.081 306,143.76 327,143.76" fill="green"/><polygon points="190,126.44 180,143.76 201,143.76" fill="green"/><polygon points="211,126.44 201,143.76 222,143.76" fill="green"/><polygon points="232,126.44 222,143.76 243,143.76" fill="green"/><polygon points="253,126.44 243,143.76 264,143.76" fill="green"/><polygon points="274,126.44 264,143.76 285,143.76" fill="green"/><polygon points="295,126.44 285,143.76 306,143.76" fill="green"/><polygon points="316,126.44 306,143.76 327,143.76" fill="green"/><polygon points="201,143.76 190,126.44 211,126.44" fill="green"/><polygon points="222,143.76 211,126.44 232,126.44" fill="green"/><polygon points="243,143.76 232,126.44 253,126.44" fill="green"/><polygon points="264,143.76 253,126.44 274,126.44" fill="green"/><polygon points="285,143.76 274,126.44 295,126.44" fill="green"/><polygon points="306,143.76 295,126.44 316,126.44" fill="green"/><polygon points="200,109.119 190,126.44 211,126.44" fill="green"/><polygon points="221,109.119 211,126.44 232,126.44" fill="green"/><polygon points="242,109.119 232,126.44 253,126.44" fill="green"/><polygon points="263,109.119 253,126.44 274,126.44" fill="green"/><polygon points="284,109.119 274,126.44 295,126.44" fill="green"/><polygon points="305,109.119 295,126.44 316,126.44" fill="green"/><polygon points="211,126.44 200,109.119 221,109.119" fill="green"/><polygon points="232,126.44 221,109.119 242,109.119" fill="green"/><polygon points="253,126.44 242,109.119 263,109.119" fill="green"/><polygon points="274,126.44 263,109.119 284,109.119" fill="green"/><polygon points="295,126.44 284,109.119 305,109.119" fill="green"/><polygon points="316,126.44 305,109.119 326,109.119" fill="green"/><polygon points="210,91.7987 200,109.119 221,109.119" fill="green"/><polygon points="231,91.7987 221,109.119 242,109.119" fill="green"/><polygon points="252,91.7987 242,109.119 263,109.119" fill="green"/><polygon points="273,91.7987 263,109.119 284,109.119" fill="green"/><polygon points="294,91.7987 284,109.119 305,109.119" fill="green"/><polygon points="315,91.7987 305,109.119 326,109.119" fill="green"/><polygon points="221,109.119 210,91.7987 231,91.7987" fill="green"/><polygon points="242,109.119 231,91.7987 252,91.7987" fill="green"/><polygon points="263,109.119 252,91.7987 273,91.7987" fill="green"/><polygon points="284,109.119 273,91.7987 294,91.7987" fill="green"/><polygon points="305,109.119 294,91.7987 315,91.7987" fill="green"/><polygon points="220,74.4782 210,91.7987 231,91.7987" fill="green"/><polygon points="241,74.4782 231,91.7987 252,91.7987" fill="green"/><polygon points="262,74.4782 252,91.7987 273,91.7987" fill="green"/><polygon points="283,74.4782 273,91.7987 294,91.7987" fill="green"/><polygon points="304,74.4782 294,91.7987 315,91.7987" fill="green"/><polygon points="231,91.7987 220,74.4782 241,74.4782" fill="green"/><polygon points="252,91.7987 241,74.4782 262,74.4782" fill="green"/><polygon points="273,91.7987 262,74.4782 283,74.4782" fill="green"/><polygon points="294,91.7987 283,74.4782 304,74.4782" fill="green"/><polygon points="230,57.1577 220,74.4782 241,74.4782" fill="green"/><polygon points="251,57.1577 241,74.4782 262,74.4782" fill="green"/><polygon points="272,57.1577 262,74.4782 283,74.4782" fill="green"/><polygon points="293,57.1577 283,74.4782 304,74.4782" fill="green"/><polygon points="241,74.4782 230,57.1577 251,57.1577" fill="green"/><polygon points="262,74.4782 251,57.1577 272,57.1577" fill="green"/><polygon points="283,74.4782 272,57.1577 293,57.1577" fill="green"/><polygon points="240,39.8372 230,57.1577 251,57.1577" fill="green"/><polygon points="261,39.8372 251,57.1577 272,57.1577" fill="green"/><polygon points="282,39.8372 272,57.1577 293,57.1577" fill="green"/><polygon points="251,57.1577 240,39.8372 261,39.8372" fill="green"/><polygon points="272,57.1577 261,39.8372 282,39.8372" fill="green"/><polygon points="250,22.5167 240,39.8372 261,39.8372" fill="green"/><polygon points="271,22.5167 261,39.8372 282,39.8372" fill="green"/><polygon points="261,39.8372 250,22.5167 271,22.5167" fill="green"/><polygon points="260,5.19615 250,22.5167 271,22.5167" fill="green"/></svg>