<svg version="1.1" baseProfile="full" width="300" height="300" xmlns="http://wwww.w3.org/2000/svg"><polygon points="0,0 250,0 250,100 0,100 " fill="red" /><polygon points="50,25 49,26 49,28 49,29 49,31 48,32 48,34 47,35 46,37 46,38 45,39 44,40 43,42 42,43 40,44 39,45 38,46 37,46 35,47 34,48 32,48 31,49 29,49 28,49 26,49 24,49 23,49 21,49 20,49 18,49 17,48 15,48 14,47 12,46 11,46 10,45 9,44 7,43 6,42 5,40 4,39 3,38 3,37 2,35 1,34 1,32 0,31 0,29 0,28 0,26 0,24 0,23 0,21 0,20 0,18 1,17 1,15 2,14 3,12 3,11 4,10 5,9 6,7 7,6 9,5 10,4 11,3 12,3 14,2 15,1 17,1 18,0 20,0 21,0 23,0 25,0 26,0 28,0 29,0 31,0 32,1 34,1 35,2 37,3 38,3 39,4 40,5 42,6 43,7 44,9 45,10 46,11 46,12 47,14 48,15 48,17 49,18 49,20 49,21 49,23 " fill="green" /><polygon points="100,25 99,26 99,28 99,29 99,31 98,32 98,34 97,35 96,37 96,38 95,39 94,40 93,42 92,43 90,44 89,45 88,46 87,46 85,47 84,48 82,48 81,49 79,49 78,49 76,49 74,49 73,49 71,49 70,49 68,49 67,48 65,48 64,47 62,46 61,46 60,45 59,44 57,43 56,42 55,40 54,39 53,38 53,37 52,35 51,34 51,32 50,31 50,29 50,28 50,26 50,24 50,23 50,21 50,20 50,18 51,17 51,15 52,14 53,12 53,11 54,10 55,9 56,7 57,6 59,5 60,4 61,3 62,3 64,2 65,1 67,1 68,0 70,0 71,0 73,0 75,0 76,0 78,0 79,0 81,0 82,1 84,1 85,2 87,3 88,3 89,4 90,5 92,6 93,7 94,9 95,10 96,11 96,12 97,14 98,15 98,17 99,18 99,20 99,21 99,23 " fill="green" /><polygon points="150,25 149,26 149,28 149,29 149,31 148,32 148,34 147,35 146,37 146,38 145,39 144,40 143,42 142,43 140,44 139,45 138,46 137,46 135,47 134,48 132,48 131,49 129,49 128,49 126,49 124,49 123,49 121,49 120,49 118,49 117,48 115,48 114,47 112,46 111,46 110,45 109,44 107,43 106,42 105,40 104,39 103,38 103,37 102,35 101,34 101,32 100,31 100,29 100,28 100,26 100,24 100,23 100,21 100,20 100,18 101,17 101,15 102,14 103,12 103,11 104,10 105,9 106,7 107,6 109,5 110,4 111,3 112,3 114,2 115,1 117,1 118,0 120,0 121,0 123,0 125,0 126,0 128,0 129,0 131,0 132,1 134,1 135,2 137,3 138,3 139,4 140,5 142,6 143,7 144,9 145,10 146,11 146,12 147,14 148,15 148,17 149,18 149,20 149,21 149,23 " fill="green" /><polygon points="200,25 199,26 199,28 199,29 199,31 198,32 198,34 197,35 196,37 196,38 195,39 194,40 193,42 192,43 190,44 189,45 188,46 187,46 185,47 184,48 182,48 181,49 179,49 178,49 176,49 174,49 173,49 171,49 170,49 168,49 167,48 165,48 164,47 162,46 161,46 160,45 159,44 157,43 156,42 155,40 154,39 153,38 153,37 152,35 151,34 151,32 150,31 150,29 150,28 150,26 150,24 150,23 150,21 150,20 150,18 151,17 151,15 152,14 153,12 153,11 154,10 155,9 156,7 157,6 159,5 160,4 161,3 162,3 164,2 165,1 167,1 168,0 170,0 171,0 173,0 175,0 176,0 178,0 179,0 181,0 182,1 184,1 185,2 187,3 188,3 189,4 190,5 192,6 193,7 194,9 195,10 196,11 196,12 197,14 198,15 198,17 199,18 199,20 199,21 199,23 " fill="green" /><polygon points="250,25 249,26 249,28 249,29 249,31 248,32 248,34 247,35 246,37 246,38 245,39 244,40 243,42 242,43 240,44 239,45 238,46 237,46 235,47 234,48 232,48 231,49 229,49 228,49 226,49 224,49 223,49 221,49 220,49 218,49 217,48 215,48 214,47 212,46 211,46 210,45 209,44 207,43 206,42 205,40 204,39 203,38 203,37 202,35 201,34 201,32 200,31 200,29 200,28 200,26 200,24 200,23 200,21 200,20 200,18 201,17 201,15 202,14 203,12 203,11 204,10 205,9 206,7 207,6 209,5 210,4 211,3 212,3 214,2 215,1 217,1 218,0 220,0 221,0 223,0 225,0 226,0 228,0 229,0 231,0 232,1 234,1 235,2 237,3 238,3 239,4 240,5 242,6 243,7 244,9 245,10 246,11 246,12 247,14 248,15 248,17 249,18 249,20 249,21 249,23 " fill="green" /><polygon points="50,75 49,76 49,78 49,79 49,81 48,82 48,84 47,85 46,87 46,88 45,89 44,90 43,92 42,93 40,94 39,95 38,96 37,96 35,97 34,98 32,98 31,99 29,99 28,99 26,99 24,99 23,99 21,99 20,99 18,99 17,98 15,98 14,97 12,96 11,96 10,95 9,94 7,93 6,92 5,90 4,89 3,88 3,87 2,85 1,84 1,82 0,81 0,79 0,78 0,76 0,74 0,73 0,71 0,70 0,68 1,67 1,65 2,64 3,62 3,61 4,60 5,59 6,57 7,56 9,55 10,54 11,53 12,53 14,52 15,51 17,51 18,50 20,50 21,50 23,50 25,50 26,50 28,50 29,50 31,50 32,51 34,51 35,52 37,53 38,53 39,54 40,55 42,56 43,57 44,59 45,60 46,61 46,62 47,64 48,65 48,67 49,68 49,70 49,71 49,73 " fill="green" /><polygon points="100,75 99,76 99,78 99,79 99,81 98,82 98,84 97,85 96,87 96,88 95,89 94,90 93,92 92,93 90,94 89,95 88,96 87,96 85,97 84,98 82,98 81,99 79,99 78,99 76,99 74,99 73,99 71,99 70,99 68,99 67,98 65,98 64,97 62,96 61,96 60,95 59,94 57,93 56,92 55,90 54,89 53,88 53,87 52,85 51,84 51,82 50,81 50,79 50,78 50,76 50,74 50,73 50,71 50,70 50,68 51,67 51,65 52,64 53,62 53,61 54,60 55,59 56,57 57,56 59,55 60,54 61,53 62,53 64,52 65,51 67,51 68,50 70,50 71,50 73,50 75,50 76,50 78,50 79,50 81,50 82,51 84,51 85,52 87,53 88,53 89,54 90,55 92,56 93,57 94,59 95,60 96,61 96,62 97,64 98,65 98,67 99,68 99,70 99,71 99,73 " fill="green" /><polygon points="150,75 149,76 149,78 149,79 149,81 148,82 148,84 147,85 146,87 146,88 145,89 144,90 143,92 142,93 140,94 139,95 138,96 137,96 135,97 134,98 132,98 131,99 129,99 128,99 126,99 124,99 123,99 121,99 120,99 118,99 117,98 115,98 114,97 112,96 111,96 110,95 109,94 107,93 106,92 105,90 104,89 103,88 103,87 102,85 101,84 101,82 100,81 100,79 100,78 100,76 100,74 100,73 100,71 100,70 100,68 101,67 101,65 102,64 103,62 103,61 104,60 105,59 106,57 107,56 109,55 110,54 111,53 112,53 114,52 115,51 117,51 118,50 120,50 121,50 123,50 125,50 126,50 128,50 129,50 131,50 132,51 134,51 135,52 137,53 138,53 139,54 140,55 142,56 143,57 144,59 145,60 146,61 146,62 147,64 148,65 148,67 149,68 149,70 149,71 149,73 " fill="green" /><polygon points="200,75 199,76 199,78 199,79 199,81 198,82 198,84 197,85 196,87 196,88 195,89 194,90 193,92 192,93 190,94 189,95 188,96 187,96 185,97 184,98 182,98 181,99 179,99 178,99 176,99 174,99 173,99 171,99 170,99 168,99 167,98 165,98 164,97 162,96 161,96 160,95 159,94 157,93 156,92 155,90 154,89 153,88 153,87 152,85 151,84 151,82 150,81 150,79 150,78 150,76 150,74 150,73 150,71 150,70 150,68 151,67 151,65 152,64 153,62 153,61 154,60 155,59 156,57 157,56 159,55 160,54 161,53 162,53 164,52 165,51 167,51 168,50 170,50 171,50 173,50 175,50 176,50 178,50 179,50 181,50 182,51 184,51 185,52 187,53 188,53 189,54 190,55 192,56 193,57 194,59 195,60 196,61 196,62 197,64 198,65 198,67 199,68 199,70 199,71 199,73 " fill="green" /><polygon points="250,75 249,76 249,78 249,79 249,81 248,82 248,84 247,85 246,87 246,88 245,89 244,90 243,92 242,93 240,94 239,95 238,96 237,96 235,97 234,98 232,98 231,99 229,99 228,99 226,99 224,99 223,99 221,99 220,99 218,99 217,98 215,98 214,97 212,96 211,96 210,95 209,94 207,93 206,92 205,90 204,89 203,88 203,87 202,85 201,84 201,82 200,81 200,79 200,78 200,76 200,74 200,73 200,71 200,70 200,68 201,67 201,65 202,64 203,62 203,61 204,60 205,59 206,57 207,56 209,55 210,54 211,53 212,53 214,52 215,51 217,51 218,50 220,50 221,50 223,50 225,50 226,50 228,50 229,50 231,50 232,51 234,51 235,52 237,53 238,53 239,54 240,55 242,56 243,57 244,59 245,60 246,61 246,62 247,64 248,65 248,67 249,68 249,70 249,71 249,73 " fill="green" /></svg>