<svg version="1.1" baseProfile="full" width="950" height="950" xmlns="http://wwww.w3.org/2000/svg"><circle cx="475" cy="475" r="475" fill="red" /><rect x="475" y="450" width="43" height="25" fill="green" /><rect x="475" y="425" width="43" height="25" fill="green" /><rect x="475" y="400" width="43" height="25" fill="green" /><rect x="475" y="375" width="43" height="25" fill="green" /><rect x="475" y="350" width="43" height="25" fill="green" /><rect x="475" y="325" width="43" height="25" fill="green" /><rect x="475" y="300" width="43" height="25" fill="green" /><rect x="475" y="275" width="43" height="25" fill="green" /><rect x="475" y="250" width="43" height="25" fill="green" /><rect x="475" y="225" width="43" height="25" fill="green" /><rect x="475" y="200" width="43" height="25" fill="green" /><rect x="475" y="175" width="43" height="25" fill="green" /><rect x="475" y="150" width="43" height="25" fill="green" /><rect x="475" y="125" width="43" height="25" fill="green" /><rect x="475" y="100" width="43" height="25" fill="green" /><rect x="475" y="75" width="43" height="25" fill="green" /><rect x="475" y="50" width="43" height="25" fill="green" /><rect x="475" y="25" width="43" height="25" fill="green" /><rect x="475" y="0" width="43" height="25" fill="green" /><rect x="475" y="475" width="43" height="25" fill="green" /><rect x="475" y="500" width="43" height="25" fill="green" /><rect x="475" y="525" width="43" height="25" fill="green" /><rect x="475" y="550" width="43" height="25" fill="green" /><rect x="475" y="575" width="43" height="25" fill="green" /><rect x="475" y="600" width="43" height="25" fill="green" /><rect x="475" y="625" width="43" height="25" fill="green" /><rect x="475" y="650" width="43" height="25" fill="green" /><rect x="475" y="675" width="43" height="25" fill="green" /><rect x="475" y="700" width="43" height="25" fill="green" /><rect x="475" y="725" width="43" height="25" fill="green" /><rect x="475" y="750" width="43" height="25" fill="green" /><rect x="475" y="775" width="43" height="25" fill="green" /><rect x="475" y="800" width="43" height="25" fill="green" /><rect x="475" y="825" width="43" height="25" fill="green" /><rect x="475" y="850" width="43" height="25" fill="green" /><rect x="475" y="875" width="43" height="25" fill="green" /><rect x="475" y="900" width="43" height="25" fill="green" /><rect x="475" y="925" width="43" height="25" fill="green" /></svg>