<svg version="1.1" baseProfile="full" width="857" height="685" xmlns="http://wwww.w3.org/2000/svg"><rect x="0" y="0" width="857" height="685" fill="red" /><circle cx="18" cy="18" r="18" fill="green" /><circle cx="54" cy="18" r="18" fill="green" /><circle cx="90" cy="18" r="18" fill="green" /><circle cx="126" cy="18" r="18" fill="green" /><circle cx="162" cy="18" r="18" fill="green" /><circle cx="198" cy="18" r="18" fill="green" /><circle cx="234" cy="18" r="18" fill="green" /><circle cx="270" cy="18" r="18" fill="green" /><circle cx="306" cy="18" r="18" fill="green" /><circle cx="342" cy="18" r="18" fill="green" /><circle cx="378" cy="18" r="18" fill="green" /><circle cx="414" cy="18" r="18" fill="green" /><circle cx="450" cy="18" r="18" fill="green" /><circle cx="486" cy="18" r="18" fill="green" /><circle cx="522" cy="18" r="18" fill="green" /><circle cx="558" cy="18" r="18" fill="green" /><circle cx="594" cy="18" r="18" fill="green" /><circle cx="630" cy="18" r="18" fill="green" /><circle cx="666" cy="18" r="18" fill="green" /><circle cx="702" cy="18" r="18" fill="green" /><circle cx="738" cy="18" r="18" fill="green" /><circle cx="774" cy="18" r="18" fill="green" /><circle cx="810" cy="18" r="18" fill="green" /><circle cx="18" cy="54" r="18" fill="green" /><circle cx="54" cy="54" r="18" fill="green" /><circle cx="90" cy="54" r="18" fill="green" /><circle cx="126" cy="54" r="18" fill="green" /><circle cx="162" cy="54" r="18" fill="green" /><circle cx="198" cy="54" r="18" fill="green" /><circle cx="234" cy="54" r="18" fill="green" /><circle cx="270" cy="54" r="18" fill="green" /><circle cx="306" cy="54" r="18" fill="green" /><circle cx="342" cy="54" r="18" fill="green" /><circle cx="378" cy="54" r="18" fill="green" /><circle cx="414" cy="54" r="18" fill="green" /><circle cx="450" cy="54" r="18" fill="green" /><circle cx="486" cy="54" r="18" fill="green" /><circle cx="522" cy="54" r="18" fill="green" /><circle cx="558" cy="54" r="18" fill="green" /><circle cx="594" cy="54" r="18" fill="green" /><circle cx="630" cy="54" r="18" fill="green" /><circle cx="666" cy="54" r="18" fill="green" /><circle cx="702" cy="54" r="18" fill="green" /><circle cx="738" cy="54" r="18" fill="green" /><circle cx="774" cy="54" r="18" fill="green" /><circle cx="810" cy="54" r="18" fill="green" /><circle cx="18" cy="90" r="18" fill="green" /><circle cx="54" cy="90" r="18" fill="green" /><circle cx="90" cy="90" r="18" fill="green" /><circle cx="126" cy="90" r="18" fill="green" /><circle cx="162" cy="90" r="18" fill="green" /><circle cx="198" cy="90" r="18" fill="green" /><circle cx="234" cy="90" r="18" fill="green" /><circle cx="270" cy="90" r="18" fill="green" /><circle cx="306" cy="90" r="18" fill="green" /><circle cx="342" cy="90" r="18" fill="green" /><circle cx="378" cy="90" r="18" fill="green" /><circle cx="414" cy="90" r="18" fill="green" /><circle cx="450" cy="90" r="18" fill="green" /><circle cx="486" cy="90" r="18" fill="green" /><circle cx="522" cy="90" r="18" fill="green" /><circle cx="558" cy="90" r="18" fill="green" /><circle cx="594" cy="90" r="18" fill="green" /><circle cx="630" cy="90" r="18" fill="green" /><circle cx="666" cy="90" r="18" fill="green" /><circle cx="702" cy="90" r="18" fill="green" /><circle cx="738" cy="90" r="18" fill="green" /><circle cx="774" cy="90" r="18" fill="green" /><circle cx="810" cy="90" r="18" fill="green" /><circle cx="18" cy="126" r="18" fill="green" /><circle cx="54" cy="126" r="18" fill="green" /><circle cx="90" cy="126" r="18" fill="green" /><circle cx="126" cy="126" r="18" fill="green" /><circle cx="162" cy="126" r="18" fill="green" /><circle cx="198" cy="126" r="18" fill="green" /><circle cx="234" cy="126" r="18" fill="green" /><circle cx="270" cy="126" r="18" fill="green" /><circle cx="306" cy="126" r="18" fill="green" /><circle cx="342" cy="126" r="18" fill="green" /><circle cx="378" cy="126" r="18" fill="green" /><circle cx="414" cy="126" r="18" fill="green" /><circle cx="450" cy="126" r="18" fill="green" /><circle cx="486" cy="126" r="18" fill="green" /><circle cx="522" cy="126" r="18" fill="green" /><circle cx="558" cy="126" r="18" fill="green" /><circle cx="594" cy="126" r="18" fill="green" /><circle cx="630" cy="126" r="18" fill="green" /><circle cx="666" cy="126" r="18" fill="green" /><circle cx="702" cy="126" r="18" fill="green" /><circle cx="738" cy="126" r="18" fill="green" /><circle cx="774" cy="126" r="18" fill="green" /><circle cx="810" cy="126" r="18" fill="green" /><circle cx="18" cy="162" r="18" fill="green" /><circle cx="54" cy="162" r="18" fill="green" /><circle cx="90" cy="162" r="18" fill="green" /><circle cx="126" cy="162" r="18" fill="green" /><circle cx="162" cy="162" r="18" fill="green" /><circle cx="198" cy="162" r="18" fill="green" /><circle cx="234" cy="162" r="18" fill="green" /><circle cx="270" cy="162" r="18" fill="green" /><circle cx="306" cy="162" r="18" fill="green" /><circle cx="342" cy="162" r="18" fill="green" /><circle cx="378" cy="162" r="18" fill="green" /><circle cx="414" cy="162" r="18" fill="green" /><circle cx="450" cy="162" r="18" fill="green" /><circle cx="486" cy="162" r="18" fill="green" /><circle cx="522" cy="162" r="18" fill="green" /><circle cx="558" cy="162" r="18" fill="green" /><circle cx="594" cy="162" r="18" fill="green" /><circle cx="630" cy="162" r="18" fill="green" /><circle cx="666" cy="162" r="18" fill="green" /><circle cx="702" cy="162" r="18" fill="green" /><circle cx="738" cy="162" r="18" fill="green" /><circle cx="774" cy="162" r="18" fill="green" /><circle cx="810" cy="162" r="18" fill="green" /><circle cx="18" cy="198" r="18" fill="green" /><circle cx="54" cy="198" r="18" fill="green" /><circle cx="90" cy="198" r="18" fill="green" /><circle cx="126" cy="198" r="18" fill="green" /><circle cx="162" cy="198" r="18" fill="green" /><circle cx="198" cy="198" r="18" fill="green" /><circle cx="234" cy="198" r="18" fill="green" /><circle cx="270" cy="198" r="18" fill="green" /><circle cx="306" cy="198" r="18" fill="green" /><circle cx="342" cy="198" r="18" fill="green" /><circle cx="378" cy="198" r="18" fill="green" /><circle cx="414" cy="198" r="18" fill="green" /><circle cx="450" cy="198" r="18" fill="green" /><circle cx="486" cy="198" r="18" fill="green" /><circle cx="522" cy="198" r="18" fill="green" /><circle cx="558" cy="198" r="18" fill="green" /><circle cx="594" cy="198" r="18" fill="green" /><circle cx="630" cy="198" r="18" fill="green" /><circle cx="666" cy="198" r="18" fill="green" /><circle cx="702" cy="198" r="18" fill="green" /><circle cx="738" cy="198" r="18" fill="green" /><circle cx="774" cy="198" r="18" fill="green" /><circle cx="810" cy="198" r="18" fill="green" /><circle cx="18" cy="234" r="18" fill="green" /><circle cx="54" cy="234" r="18" fill="green" /><circle cx="90" cy="234" r="18" fill="green" /><circle cx="126" cy="234" r="18" fill="green" /><circle cx="162" cy="234" r="18" fill="green" /><circle cx="198" cy="234" r="18" fill="green" /><circle cx="234" cy="234" r="18" fill="green" /><circle cx="270" cy="234" r="18" fill="green" /><circle cx="306" cy="234" r="18" fill="green" /><circle cx="342" cy="234" r="18" fill="green" /><circle cx="378" cy="234" r="18" fill="green" /><circle cx="414" cy="234" r="18" fill="green" /><circle cx="450" cy="234" r="18" fill="green" /><circle cx="486" cy="234" r="18" fill="green" /><circle cx="522" cy="234" r="18" fill="green" /><circle cx="558" cy="234" r="18" fill="green" /><circle cx="594" cy="234" r="18" fill="green" /><circle cx="630" cy="234" r="18" fill="green" /><circle cx="666" cy="234" r="18" fill="green" /><circle cx="702" cy="234" r="18" fill="green" /><circle cx="738" cy="234" r="18" fill="green" /><circle cx="774" cy="234" r="18" fill="green" /><circle cx="810" cy="234" r="18" fill="green" /><circle cx="18" cy="270" r="18" fill="green" /><circle cx="54" cy="270" r="18" fill="green" /><circle cx="90" cy="270" r="18" fill="green" /><circle cx="126" cy="270" r="18" fill="green" /><circle cx="162" cy="270" r="18" fill="green" /><circle cx="198" cy="270" r="18" fill="green" /><circle cx="234" cy="270" r="18" fill="green" /><circle cx="270" cy="270" r="18" fill="green" /><circle cx="306" cy="270" r="18" fill="green" /><circle cx="342" cy="270" r="18" fill="green" /><circle cx="378" cy="270" r="18" fill="green" /><circle cx="414" cy="270" r="18" fill="green" /><circle cx="450" cy="270" r="18" fill="green" /><circle cx="486" cy="270" r="18" fill="green" /><circle cx="522" cy="270" r="18" fill="green" /><circle cx="558" cy="270" r="18" fill="green" /><circle cx="594" cy="270" r="18" fill="green" /><circle cx="630" cy="270" r="18" fill="green" /><circle cx="666" cy="270" r="18" fill="green" /><circle cx="702" cy="270" r="18" fill="green" /><circle cx="738" cy="270" r="18" fill="green" /><circle cx="774" cy="270" r="18" fill="green" /><circle cx="810" cy="270" r="18" fill="green" /><circle cx="18" cy="306" r="18" fill="green" /><circle cx="54" cy="306" r="18" fill="green" /><circle cx="90" cy="306" r="18" fill="green" /><circle cx="126" cy="306" r="18" fill="green" /><circle cx="162" cy="306" r="18" fill="green" /><circle cx="198" cy="306" r="18" fill="green" /><circle cx="234" cy="306" r="18" fill="green" /><circle cx="270" cy="306" r="18" fill="green" /><circle cx="306" cy="306" r="18" fill="green" /><circle cx="342" cy="306" r="18" fill="green" /><circle cx="378" cy="306" r="18" fill="green" /><circle cx="414" cy="306" r="18" fill="green" /><circle cx="450" cy="306" r="18" fill="green" /><circle cx="486" cy="306" r="18" fill="green" /><circle cx="522" cy="306" r="18" fill="green" /><circle cx="558" cy="306" r="18" fill="green" /><circle cx="594" cy="306" r="18" fill="green" /><circle cx="630" cy="306" r="18" fill="green" /><circle cx="666" cy="306" r="18" fill="green" /><circle cx="702" cy="306" r="18" fill="green" /><circle cx="738" cy="306" r="18" fill="green" /><circle cx="774" cy="306" r="18" fill="green" /><circle cx="810" cy="306" r="18" fill="green" /><circle cx="18" cy="342" r="18" fill="green" /><circle cx="54" cy="342" r="18" fill="green" /><circle cx="90" cy="342" r="18" fill="green" /><circle cx="126" cy="342" r="18" fill="green" /><circle cx="162" cy="342" r="18" fill="green" /><circle cx="198" cy="342" r="18" fill="green" /><circle cx="234" cy="342" r="18" fill="green" /><circle cx="270" cy="342" r="18" fill="green" /><circle cx="306" cy="342" r="18" fill="green" /><circle cx="342" cy="342" r="18" fill="green" /><circle cx="378" cy="342" r="18" fill="green" /><circle cx="414" cy="342" r="18" fill="green" /><circle cx="450" cy="342" r="18" fill="green" /><circle cx="486" cy="342" r="18" fill="green" /><circle cx="522" cy="342" r="18" fill="green" /><circle cx="558" cy="342" r="18" fill="green" /><circle cx="594" cy="342" r="18" fill="green" /><circle cx="630" cy="342" r="18" fill="green" /><circle cx="666" cy="342" r="18" fill="green" /><circle cx="702" cy="342" r="18" fill="green" /><circle cx="738" cy="342" r="18" fill="green" /><circle cx="774" cy="342" r="18" fill="green" /><circle cx="810" cy="342" r="18" fill="green" /><circle cx="18" cy="378" r="18" fill="green" /><circle cx="54" cy="378" r="18" fill="green" /><circle cx="90" cy="378" r="18" fill="green" /><circle cx="126" cy="378" r="18" fill="green" /><circle cx="162" cy="378" r="18" fill="green" /><circle cx="198" cy="378" r="18" fill="green" /><circle cx="234" cy="378" r="18" fill="green" /><circle cx="270" cy="378" r="18" fill="green" /><circle cx="306" cy="378" r="18" fill="green" /><circle cx="342" cy="378" r="18" fill="green" /><circle cx="378" cy="378" r="18" fill="green" /><circle cx="414" cy="378" r="18" fill="green" /><circle cx="450" cy="378" r="18" fill="green" /><circle cx="486" cy="378" r="18" fill="green" /><circle cx="522" cy="378" r="18" fill="green" /><circle cx="558" cy="378" r="18" fill="green" /><circle cx="594" cy="378" r="18" fill="green" /><circle cx="630" cy="378" r="18" fill="green" /><circle cx="666" cy="378" r="18" fill="green" /><circle cx="702" cy="378" r="18" fill="green" /><circle cx="738" cy="378" r="18" fill="green" /><circle cx="774" cy="378" r="18" fill="green" /><circle cx="810" cy="378" r="18" fill="green" /><circle cx="18" cy="414" r="18" fill="green" /><circle cx="54" cy="414" r="18" fill="green" /><circle cx="90" cy="414" r="18" fill="green" /><circle cx="126" cy="414" r="18" fill="green" /><circle cx="162" cy="414" r="18" fill="green" /><circle cx="198" cy="414" r="18" fill="green" /><circle cx="234" cy="414" r="18" fill="green" /><circle cx="270" cy="414" r="18" fill="green" /><circle cx="306" cy="414" r="18" fill="green" /><circle cx="342" cy="414" r="18" fill="green" /><circle cx="378" cy="414" r="18" fill="green" /><circle cx="414" cy="414" r="18" fill="green" /><circle cx="450" cy="414" r="18" fill="green" /><circle cx="486" cy="414" r="18" fill="green" /><circle cx="522" cy="414" r="18" fill="green" /><circle cx="558" cy="414" r="18" fill="green" /><circle cx="594" cy="414" r="18" fill="green" /><circle cx="630" cy="414" r="18" fill="green" /><circle cx="666" cy="414" r="18" fill="green" /><circle cx="702" cy="414" r="18" fill="green" /><circle cx="738" cy="414" r="18" fill="green" /><circle cx="774" cy="414" r="18" fill="green" /><circle cx="810" cy="414" r="18" fill="green" /><circle cx="18" cy="450" r="18" fill="green" /><circle cx="54" cy="450" r="18" fill="green" /><circle cx="90" cy="450" r="18" fill="green" /><circle cx="126" cy="450" r="18" fill="green" /><circle cx="162" cy="450" r="18" fill="green" /><circle cx="198" cy="450" r="18" fill="green" /><circle cx="234" cy="450" r="18" fill="green" /><circle cx="270" cy="450" r="18" fill="green" /><circle cx="306" cy="450" r="18" fill="green" /><circle cx="342" cy="450" r="18" fill="green" /><circle cx="378" cy="450" r="18" fill="green" /><circle cx="414" cy="450" r="18" fill="green" /><circle cx="450" cy="450" r="18" fill="green" /><circle cx="486" cy="450" r="18" fill="green" /><circle cx="522" cy="450" r="18" fill="green" /><circle cx="558" cy="450" r="18" fill="green" /><circle cx="594" cy="450" r="18" fill="green" /><circle cx="630" cy="450" r="18" fill="green" /><circle cx="666" cy="450" r="18" fill="green" /><circle cx="702" cy="450" r="18" fill="green" /><circle cx="738" cy="450" r="18" fill="green" /><circle cx="774" cy="450" r="18" fill="green" /><circle cx="810" cy="450" r="18" fill="green" /><circle cx="18" cy="486" r="18" fill="green" /><circle cx="54" cy="486" r="18" fill="green" /><circle cx="90" cy="486" r="18" fill="green" /><circle cx="126" cy="486" r="18" fill="green" /><circle cx="162" cy="486" r="18" fill="green" /><circle cx="198" cy="486" r="18" fill="green" /><circle cx="234" cy="486" r="18" fill="green" /><circle cx="270" cy="486" r="18" fill="green" /><circle cx="306" cy="486" r="18" fill="green" /><circle cx="342" cy="486" r="18" fill="green" /><circle cx="378" cy="486" r="18" fill="green" /><circle cx="414" cy="486" r="18" fill="green" /><circle cx="450" cy="486" r="18" fill="green" /><circle cx="486" cy="486" r="18" fill="green" /><circle cx="522" cy="486" r="18" fill="green" /><circle cx="558" cy="486" r="18" fill="green" /><circle cx="594" cy="486" r="18" fill="green" /><circle cx="630" cy="486" r="18" fill="green" /><circle cx="666" cy="486" r="18" fill="green" /><circle cx="702" cy="486" r="18" fill="green" /><circle cx="738" cy="486" r="18" fill="green" /><circle cx="774" cy="486" r="18" fill="green" /><circle cx="810" cy="486" r="18" fill="green" /><circle cx="18" cy="522" r="18" fill="green" /><circle cx="54" cy="522" r="18" fill="green" /><circle cx="90" cy="522" r="18" fill="green" /><circle cx="126" cy="522" r="18" fill="green" /><circle cx="162" cy="522" r="18" fill="green" /><circle cx="198" cy="522" r="18" fill="green" /><circle cx="234" cy="522" r="18" fill="green" /><circle cx="270" cy="522" r="18" fill="green" /><circle cx="306" cy="522" r="18" fill="green" /><circle cx="342" cy="522" r="18" fill="green" /><circle cx="378" cy="522" r="18" fill="green" /><circle cx="414" cy="522" r="18" fill="green" /><circle cx="450" cy="522" r="18" fill="green" /><circle cx="486" cy="522" r="18" fill="green" /><circle cx="522" cy="522" r="18" fill="green" /><circle cx="558" cy="522" r="18" fill="green" /><circle cx="594" cy="522" r="18" fill="green" /><circle cx="630" cy="522" r="18" fill="green" /><circle cx="666" cy="522" r="18" fill="green" /><circle cx="702" cy="522" r="18" fill="green" /><circle cx="738" cy="522" r="18" fill="green" /><circle cx="774" cy="522" r="18" fill="green" /><circle cx="810" cy="522" r="18" fill="green" /><circle cx="18" cy="558" r="18" fill="green" /><circle cx="54" cy="558" r="18" fill="green" /><circle cx="90" cy="558" r="18" fill="green" /><circle cx="126" cy="558" r="18" fill="green" /><circle cx="162" cy="558" r="18" fill="green" /><circle cx="198" cy="558" r="18" fill="green" /><circle cx="234" cy="558" r="18" fill="green" /><circle cx="270" cy="558" r="18" fill="green" /><circle cx="306" cy="558" r="18" fill="green" /><circle cx="342" cy="558" r="18" fill="green" /><circle cx="378" cy="558" r="18" fill="green" /><circle cx="414" cy="558" r="18" fill="green" /><circle cx="450" cy="558" r="18" fill="green" /><circle cx="486" cy="558" r="18" fill="green" /><circle cx="522" cy="558" r="18" fill="green" /><circle cx="558" cy="558" r="18" fill="green" /><circle cx="594" cy="558" r="18" fill="green" /><circle cx="630" cy="558" r="18" fill="green" /><circle cx="666" cy="558" r="18" fill="green" /><circle cx="702" cy="558" r="18" fill="green" /><circle cx="738" cy="558" r="18" fill="green" /><circle cx="774" cy="558" r="18" fill="green" /><circle cx="810" cy="558" r="18" fill="green" /><circle cx="18" cy="594" r="18" fill="green" /><circle cx="54" cy="594" r="18" fill="green" /><circle cx="90" cy="594" r="18" fill="green" /><circle cx="126" cy="594" r="18" fill="green" /><circle cx="162" cy="594" r="18" fill="green" /><circle cx="198" cy="594" r="18" fill="green" /><circle cx="234" cy="594" r="18" fill="green" /><circle cx="270" cy="594" r="18" fill="green" /><circle cx="306" cy="594" r="18" fill="green" /><circle cx="342" cy="594" r="18" fill="green" /><circle cx="378" cy="594" r="18" fill="green" /><circle cx="414" cy="594" r="18" fill="green" /><circle cx="450" cy="594" r="18" fill="green" /><circle cx="486" cy="594" r="18" fill="green" /><circle cx="522" cy="594" r="18" fill="green" /><circle cx="558" cy="594" r="18" fill="green" /><circle cx="594" cy="594" r="18" fill="green" /><circle cx="630" cy="594" r="18" fill="green" /><circle cx="666" cy="594" r="18" fill="green" /><circle cx="702" cy="594" r="18" fill="green" /><circle cx="738" cy="594" r="18" fill="green" /><circle cx="774" cy="594" r="18" fill="green" /><circle cx="810" cy="594" r="18" fill="green" /><circle cx="18" cy="630" r="18" fill="green" /><circle cx="54" cy="630" r="18" fill="green" /><circle cx="90" cy="630" r="18" fill="green" /><circle cx="126" cy="630" r="18" fill="green" /><circle cx="162" cy="630" r="18" fill="green" /><circle cx="198" cy="630" r="18" fill="green" /><circle cx="234" cy="630" r="18" fill="green" /><circle cx="270" cy="630" r="18" fill="green" /><circle cx="306" cy="630" r="18" fill="green" /><circle cx="342" cy="630" r="18" fill="green" /><circle cx="378" cy="630" r="18" fill="green" /><circle cx="414" cy="630" r="18" fill="green" /><circle cx="450" cy="630" r="18" fill="green" /><circle cx="486" cy="630" r="18" fill="green" /><circle cx="522" cy="630" r="18" fill="green" /><circle cx="558" cy="630" r="18" fill="green" /><circle cx="594" cy="630" r="18" fill="green" /><circle cx="630" cy="630" r="18" fill="green" /><circle cx="666" cy="630" r="18" fill="green" /><circle cx="702" cy="630" r="18" fill="green" /><circle cx="738" cy="630" r="18" fill="green" /><circle cx="774" cy="630" r="18" fill="green" /><circle cx="810" cy="630" r="18" fill="green" /><circle cx="18" cy="666" r="18" fill="green" /><circle cx="54" cy="666" r="18" fill="green" /><circle cx="90" cy="666" r="18" fill="green" /><circle cx="126" cy="666" r="18" fill="green" /><circle cx="162" cy="666" r="18" fill="green" /><circle cx="198" cy="666" r="18" fill="green" /><circle cx="234" cy="666" r="18" fill="green" /><circle cx="270" cy="666" r="18" fill="green" /><circle cx="306" cy="666" r="18" fill="green" /><circle cx="342" cy="666" r="18" fill="green" /><circle cx="378" cy="666" r="18" fill="green" /><circle cx="414" cy="666" r="18" fill="green" /><circle cx="450" cy="666" r="18" fill="green" /><circle cx="486" cy="666" r="18" fill="green" /><circle cx="522" cy="666" r="18" fill="green" /><circle cx="558" cy="666" r="18" fill="green" /><circle cx="594" cy="666" r="18" fill="green" /><circle cx="630" cy="666" r="18" fill="green" /><circle cx="666" cy="666" r="18" fill="green" /><circle cx="702" cy="666" r="18" fill="green" /><circle cx="738" cy="666" r="18" fill="green" /><circle cx="774" cy="666" r="18" fill="green" /><circle cx="810" cy="666" r="18" fill="green" /></svg>