<svg version="1.1" baseProfile="full" width="857" height="685" xmlns="http://wwww.w3.org/2000/svg"><rect x="0" y="0" width="857" height="685" fill="red" /><rect x="0" y="0" width="43" height="25" fill="green" /><rect x="43" y="0" width="43" height="25" fill="green" /><rect x="86" y="0" width="43" height="25" fill="green" /><rect x="129" y="0" width="43" height="25" fill="green" /><rect x="172" y="0" width="43" height="25" fill="green" /><rect x="215" y="0" width="43" height="25" fill="green" /><rect x="258" y="0" width="43" height="25" fill="green" /><rect x="301" y="0" width="43" height="25" fill="green" /><rect x="344" y="0" width="43" height="25" fill="green" /><rect x="387" y="0" width="43" height="25" fill="green" /><rect x="430" y="0" width="43" height="25" fill="green" /><rect x="473" y="0" width="43" height="25" fill="green" /><rect x="516" y="0" width="43" height="25" fill="green" /><rect x="559" y="0" width="43" height="25" fill="green" /><rect x="602" y="0" width="43" height="25" fill="green" /><rect x="645" y="0" width="43" height="25" fill="green" /><rect x="688" y="0" width="43" height="25" fill="green" /><rect x="731" y="0" width="43" height="25" fill="green" /><rect x="774" y="0" width="43" height="25" fill="green" /><rect x="0" y="25" width="43" height="25" fill="green" /><rect x="43" y="25" width="43" height="25" fill="green" /><rect x="86" y="25" width="43" height="25" fill="green" /><rect x="129" y="25" width="43" height="25" fill="green" /><rect x="172" y="25" width="43" height="25" fill="green" /><rect x="215" y="25" width="43" height="25" fill="green" /><rect x="258" y="25" width="43" height="25" fill="green" /><rect x="301" y="25" width="43" height="25" fill="green" /><rect x="344" y="25" width="43" height="25" fill="green" /><rect x="387" y="25" width="43" height="25" fill="green" /><rect x="430" y="25" width="43" height="25" fill="green" /><rect x="473" y="25" width="43" height="25" fill="green" /><rect x="516" y="25" width="43" height="25" fill="green" /><rect x="559" y="25" width="43" height="25" fill="green" /><rect x="602" y="25" width="43" height="25" fill="green" /><rect x="645" y="25" width="43" height="25" fill="green" /><rect x="688" y="25" width="43" height="25" fill="green" /><rect x="731" y="25" width="43" height="25" fill="green" /><rect x="774" y="25" width="43" height="25" fill="green" /><rect x="0" y="50" width="43" height="25" fill="green" /><rect x="43" y="50" width="43" height="25" fill="green" /><rect x="86" y="50" width="43" height="25" fill="green" /><rect x="129" y="50" width="43" height="25" fill="green" /><rect x="172" y="50" width="43" height="25" fill="green" /><rect x="215" y="50" width="43" height="25" fill="green" /><rect x="258" y="50" width="43" height="25" fill="green" /><rect x="301" y="50" width="43" height="25" fill="green" /><rect x="344" y="50" width="43" height="25" fill="green" /><rect x="387" y="50" width="43" height="25" fill="green" /><rect x="430" y="50" width="43" height="25" fill="green" /><rect x="473" y="50" width="43" height="25" fill="green" /><rect x="516" y="50" width="43" height="25" fill="green" /><rect x="559" y="50" width="43" height="25" fill="green" /><rect x="602" y="50" width="43" height="25" fill="green" /><rect x="645" y="50" width="43" height="25" fill="green" /><rect x="688" y="50" width="43" height="25" fill="green" /><rect x="731" y="50" width="43" height="25" fill="green" /><rect x="774" y="50" width="43" height="25" fill="green" /><rect x="0" y="75" width="43" height="25" fill="green" /><rect x="43" y="75" width="43" height="25" fill="green" /><rect x="86" y="75" width="43" height="25" fill="green" /><rect x="129" y="75" width="43" height="25" fill="green" /><rect x="172" y="75" width="43" height="25" fill="green" /><rect x="215" y="75" width="43" height="25" fill="green" /><rect x="258" y="75" width="43" height="25" fill="green" /><rect x="301" y="75" width="43" height="25" fill="green" /><rect x="344" y="75" width="43" height="25" fill="green" /><rect x="387" y="75" width="43" height="25" fill="green" /><rect x="430" y="75" width="43" height="25" fill="green" /><rect x="473" y="75" width="43" height="25" fill="green" /><rect x="516" y="75" width="43" height="25" fill="green" /><rect x="559" y="75" width="43" height="25" fill="green" /><rect x="602" y="75" width="43" height="25" fill="green" /><rect x="645" y="75" width="43" height="25" fill="green" /><rect x="688" y="75" width="43" height="25" fill="green" /><rect x="731" y="75" width="43" height="25" fill="green" /><rect x="774" y="75" width="43" height="25" fill="green" /><rect x="0" y="100" width="43" height="25" fill="green" /><rect x="43" y="100" width="43" height="25" fill="green" /><rect x="86" y="100" width="43" height="25" fill="green" /><rect x="129" y="100" width="43" height="25" fill="green" /><rect x="172" y="100" width="43" height="25" fill="green" /><rect x="215" y="100" width="43" height="25" fill="green" /><rect x="258" y="100" width="43" height="25" fill="green" /><rect x="301" y="100" width="43" height="25" fill="green" /><rect x="344" y="100" width="43" height="25" fill="green" /><rect x="387" y="100" width="43" height="25" fill="green" /><rect x="430" y="100" width="43" height="25" fill="green" /><rect x="473" y="100" width="43" height="25" fill="green" /><rect x="516" y="100" width="43" height="25" fill="green" /><rect x="559" y="100" width="43" height="25" fill="green" /><rect x="602" y="100" width="43" height="25" fill="green" /><rect x="645" y="100" width="43" height="25" fill="green" /><rect x="688" y="100" width="43" height="25" fill="green" /><rect x="731" y="100" width="43" height="25" fill="green" /><rect x="774" y="100" width="43" height="25" fill="green" /><rect x="0" y="125" width="43" height="25" fill="green" /><rect x="43" y="125" width="43" height="25" fill="green" /><rect x="86" y="125" width="43" height="25" fill="green" /><rect x="129" y="125" width="43" height="25" fill="green" /><rect x="172" y="125" width="43" height="25" fill="green" /><rect x="215" y="125" width="43" height="25" fill="green" /><rect x="258" y="125" width="43" height="25" fill="green" /><rect x="301" y="125" width="43" height="25" fill="green" /><rect x="344" y="125" width="43" height="25" fill="green" /><rect x="387" y="125" width="43" height="25" fill="green" /><rect x="430" y="125" width="43" height="25" fill="green" /><rect x="473" y="125" width="43" height="25" fill="green" /><rect x="516" y="125" width="43" height="25" fill="green" /><rect x="559" y="125" width="43" height="25" fill="green" /><rect x="602" y="125" width="43" height="25" fill="green" /><rect x="645" y="125" width="43" height="25" fill="green" /><rect x="688" y="125" width="43" height="25" fill="green" /><rect x="731" y="125" width="43" height="25" fill="green" /><rect x="774" y="125" width="43" height="25" fill="green" /><rect x="0" y="150" width="43" height="25" fill="green" /><rect x="43" y="150" width="43" height="25" fill="green" /><rect x="86" y="150" width="43" height="25" fill="green" /><rect x="129" y="150" width="43" height="25" fill="green" /><rect x="172" y="150" width="43" height="25" fill="green" /><rect x="215" y="150" width="43" height="25" fill="green" /><rect x="258" y="150" width="43" height="25" fill="green" /><rect x="301" y="150" width="43" height="25" fill="green" /><rect x="344" y="150" width="43" height="25" fill="green" /><rect x="387" y="150" width="43" height="25" fill="green" /><rect x="430" y="150" width="43" height="25" fill="green" /><rect x="473" y="150" width="43" height="25" fill="green" /><rect x="516" y="150" width="43" height="25" fill="green" /><rect x="559" y="150" width="43" height="25" fill="green" /><rect x="602" y="150" width="43" height="25" fill="green" /><rect x="645" y="150" width="43" height="25" fill="green" /><rect x="688" y="150" width="43" height="25" fill="green" /><rect x="731" y="150" width="43" height="25" fill="green" /><rect x="774" y="150" width="43" height="25" fill="green" /><rect x="0" y="175" width="43" height="25" fill="green" /><rect x="43" y="175" width="43" height="25" fill="green" /><rect x="86" y="175" width="43" height="25" fill="green" /><rect x="129" y="175" width="43" height="25" fill="green" /><rect x="172" y="175" width="43" height="25" fill="green" /><rect x="215" y="175" width="43" height="25" fill="green" /><rect x="258" y="175" width="43" height="25" fill="green" /><rect x="301" y="175" width="43" height="25" fill="green" /><rect x="344" y="175" width="43" height="25" fill="green" /><rect x="387" y="175" width="43" height="25" fill="green" /><rect x="430" y="175" width="43" height="25" fill="green" /><rect x="473" y="175" width="43" height="25" fill="green" /><rect x="516" y="175" width="43" height="25" fill="green" /><rect x="559" y="175" width="43" height="25" fill="green" /><rect x="602" y="175" width="43" height="25" fill="green" /><rect x="645" y="175" width="43" height="25" fill="green" /><rect x="688" y="175" width="43" height="25" fill="green" /><rect x="731" y="175" width="43" height="25" fill="green" /><rect x="774" y="175" width="43" height="25" fill="green" /><rect x="0" y="200" width="43" height="25" fill="green" /><rect x="43" y="200" width="43" height="25" fill="green" /><rect x="86" y="200" width="43" height="25" fill="green" /><rect x="129" y="200" width="43" height="25" fill="green" /><rect x="172" y="200" width="43" height="25" fill="green" /><rect x="215" y="200" width="43" height="25" fill="green" /><rect x="258" y="200" width="43" height="25" fill="green" /><rect x="301" y="200" width="43" height="25" fill="green" /><rect x="344" y="200" width="43" height="25" fill="green" /><rect x="387" y="200" width="43" height="25" fill="green" /><rect x="430" y="200" width="43" height="25" fill="green" /><rect x="473" y="200" width="43" height="25" fill="green" /><rect x="516" y="200" width="43" height="25" fill="green" /><rect x="559" y="200" width="43" height="25" fill="green" /><rect x="602" y="200" width="43" height="25" fill="green" /><rect x="645" y="200" width="43" height="25" fill="green" /><rect x="688" y="200" width="43" height="25" fill="green" /><rect x="731" y="200" width="43" height="25" fill="green" /><rect x="774" y="200" width="43" height="25" fill="green" /><rect x="0" y="225" width="43" height="25" fill="green" /><rect x="43" y="225" width="43" height="25" fill="green" /><rect x="86" y="225" width="43" height="25" fill="green" /><rect x="129" y="225" width="43" height="25" fill="green" /><rect x="172" y="225" width="43" height="25" fill="green" /><rect x="215" y="225" width="43" height="25" fill="green" /><rect x="258" y="225" width="43" height="25" fill="green" /><rect x="301" y="225" width="43" height="25" fill="green" /><rect x="344" y="225" width="43" height="25" fill="green" /><rect x="387" y="225" width="43" height="25" fill="green" /><rect x="430" y="225" width="43" height="25" fill="green" /><rect x="473" y="225" width="43" height="25" fill="green" /><rect x="516" y="225" width="43" height="25" fill="green" /><rect x="559" y="225" width="43" height="25" fill="green" /><rect x="602" y="225" width="43" height="25" fill="green" /><rect x="645" y="225" width="43" height="25" fill="green" /><rect x="688" y="225" width="43" height="25" fill="green" /><rect x="731" y="225" width="43" height="25" fill="green" /><rect x="774" y="225" width="43" height="25" fill="green" /><rect x="0" y="250" width="43" height="25" fill="green" /><rect x="43" y="250" width="43" height="25" fill="green" /><rect x="86" y="250" width="43" height="25" fill="green" /><rect x="129" y="250" width="43" height="25" fill="green" /><rect x="172" y="250" width="43" height="25" fill="green" /><rect x="215" y="250" width="43" height="25" fill="green" /><rect x="258" y="250" width="43" height="25" fill="green" /><rect x="301" y="250" width="43" height="25" fill="green" /><rect x="344" y="250" width="43" height="25" fill="green" /><rect x="387" y="250" width="43" height="25" fill="green" /><rect x="430" y="250" width="43" height="25" fill="green" /><rect x="473" y="250" width="43" height="25" fill="green" /><rect x="516" y="250" width="43" height="25" fill="green" /><rect x="559" y="250" width="43" height="25" fill="green" /><rect x="602" y="250" width="43" height="25" fill="green" /><rect x="645" y="250" width="43" height="25" fill="green" /><rect x="688" y="250" width="43" height="25" fill="green" /><rect x="731" y="250" width="43" height="25" fill="green" /><rect x="774" y="250" width="43" height="25" fill="green" /><rect x="0" y="275" width="43" height="25" fill="green" /><rect x="43" y="275" width="43" height="25" fill="green" /><rect x="86" y="275" width="43" height="25" fill="green" /><rect x="129" y="275" width="43" height="25" fill="green" /><rect x="172" y="275" width="43" height="25" fill="green" /><rect x="215" y="275" width="43" height="25" fill="green" /><rect x="258" y="275" width="43" height="25" fill="green" /><rect x="301" y="275" width="43" height="25" fill="green" /><rect x="344" y="275" width="43" height="25" fill="green" /><rect x="387" y="275" width="43" height="25" fill="green" /><rect x="430" y="275" width="43" height="25" fill="green" /><rect x="473" y="275" width="43" height="25" fill="green" /><rect x="516" y="275" width="43" height="25" fill="green" /><rect x="559" y="275" width="43" height="25" fill="green" /><rect x="602" y="275" width="43" height="25" fill="green" /><rect x="645" y="275" width="43" height="25" fill="green" /><rect x="688" y="275" width="43" height="25" fill="green" /><rect x="731" y="275" width="43" height="25" fill="green" /><rect x="774" y="275" width="43" height="25" fill="green" /><rect x="0" y="300" width="43" height="25" fill="green" /><rect x="43" y="300" width="43" height="25" fill="green" /><rect x="86" y="300" width="43" height="25" fill="green" /><rect x="129" y="300" width="43" height="25" fill="green" /><rect x="172" y="300" width="43" height="25" fill="green" /><rect x="215" y="300" width="43" height="25" fill="green" /><rect x="258" y="300" width="43" height="25" fill="green" /><rect x="301" y="300" width="43" height="25" fill="green" /><rect x="344" y="300" width="43" height="25" fill="green" /><rect x="387" y="300" width="43" height="25" fill="green" /><rect x="430" y="300" width="43" height="25" fill="green" /><rect x="473" y="300" width="43" height="25" fill="green" /><rect x="516" y="300" width="43" height="25" fill="green" /><rect x="559" y="300" width="43" height="25" fill="green" /><rect x="602" y="300" width="43" height="25" fill="green" /><rect x="645" y="300" width="43" height="25" fill="green" /><rect x="688" y="300" width="43" height="25" fill="green" /><rect x="731" y="300" width="43" height="25" fill="green" /><rect x="774" y="300" width="43" height="25" fill="green" /><rect x="0" y="325" width="43" height="25" fill="green" /><rect x="43" y="325" width="43" height="25" fill="green" /><rect x="86" y="325" width="43" height="25" fill="green" /><rect x="129" y="325" width="43" height="25" fill="green" /><rect x="172" y="325" width="43" height="25" fill="green" /><rect x="215" y="325" width="43" height="25" fill="green" /><rect x="258" y="325" width="43" height="25" fill="green" /><rect x="301" y="325" width="43" height="25" fill="green" /><rect x="344" y="325" width="43" height="25" fill="green" /><rect x="387" y="325" width="43" height="25" fill="green" /><rect x="430" y="325" width="43" height="25" fill="green" /><rect x="473" y="325" width="43" height="25" fill="green" /><rect x="516" y="325" width="43" height="25" fill="green" /><rect x="559" y="325" width="43" height="25" fill="green" /><rect x="602" y="325" width="43" height="25" fill="green" /><rect x="645" y="325" width="43" height="25" fill="green" /><rect x="688" y="325" width="43" height="25" fill="green" /><rect x="731" y="325" width="43" height="25" fill="green" /><rect x="774" y="325" width="43" height="25" fill="green" /><rect x="0" y="350" width="43" height="25" fill="green" /><rect x="43" y="350" width="43" height="25" fill="green" /><rect x="86" y="350" width="43" height="25" fill="green" /><rect x="129" y="350" width="43" height="25" fill="green" /><rect x="172" y="350" width="43" height="25" fill="green" /><rect x="215" y="350" width="43" height="25" fill="green" /><rect x="258" y="350" width="43" height="25" fill="green" /><rect x="301" y="350" width="43" height="25" fill="green" /><rect x="344" y="350" width="43" height="25" fill="green" /><rect x="387" y="350" width="43" height="25" fill="green" /><rect x="430" y="350" width="43" height="25" fill="green" /><rect x="473" y="350" width="43" height="25" fill="green" /><rect x="516" y="350" width="43" height="25" fill="green" /><rect x="559" y="350" width="43" height="25" fill="green" /><rect x="602" y="350" width="43" height="25" fill="green" /><rect x="645" y="350" width="43" height="25" fill="green" /><rect x="688" y="350" width="43" height="25" fill="green" /><rect x="731" y="350" width="43" height="25" fill="green" /><rect x="774" y="350" width="43" height="25" fill="green" /><rect x="0" y="375" width="43" height="25" fill="green" /><rect x="43" y="375" width="43" height="25" fill="green" /><rect x="86" y="375" width="43" height="25" fill="green" /><rect x="129" y="375" width="43" height="25" fill="green" /><rect x="172" y="375" width="43" height="25" fill="green" /><rect x="215" y="375" width="43" height="25" fill="green" /><rect x="258" y="375" width="43" height="25" fill="green" /><rect x="301" y="375" width="43" height="25" fill="green" /><rect x="344" y="375" width="43" height="25" fill="green" /><rect x="387" y="375" width="43" height="25" fill="green" /><rect x="430" y="375" width="43" height="25" fill="green" /><rect x="473" y="375" width="43" height="25" fill="green" /><rect x="516" y="375" width="43" height="25" fill="green" /><rect x="559" y="375" width="43" height="25" fill="green" /><rect x="602" y="375" width="43" height="25" fill="green" /><rect x="645" y="375" width="43" height="25" fill="green" /><rect x="688" y="375" width="43" height="25" fill="green" /><rect x="731" y="375" width="43" height="25" fill="green" /><rect x="774" y="375" width="43" height="25" fill="green" /><rect x="0" y="400" width="43" height="25" fill="green" /><rect x="43" y="400" width="43" height="25" fill="green" /><rect x="86" y="400" width="43" height="25" fill="green" /><rect x="129" y="400" width="43" height="25" fill="green" /><rect x="172" y="400" width="43" height="25" fill="green" /><rect x="215" y="400" width="43" height="25" fill="green" /><rect x="258" y="400" width="43" height="25" fill="green" /><rect x="301" y="400" width="43" height="25" fill="green" /><rect x="344" y="400" width="43" height="25" fill="green" /><rect x="387" y="400" width="43" height="25" fill="green" /><rect x="430" y="400" width="43" height="25" fill="green" /><rect x="473" y="400" width="43" height="25" fill="green" /><rect x="516" y="400" width="43" height="25" fill="green" /><rect x="559" y="400" width="43" height="25" fill="green" /><rect x="602" y="400" width="43" height="25" fill="green" /><rect x="645" y="400" width="43" height="25" fill="green" /><rect x="688" y="400" width="43" height="25" fill="green" /><rect x="731" y="400" width="43" height="25" fill="green" /><rect x="774" y="400" width="43" height="25" fill="green" /><rect x="0" y="425" width="43" height="25" fill="green" /><rect x="43" y="425" width="43" height="25" fill="green" /><rect x="86" y="425" width="43" height="25" fill="green" /><rect x="129" y="425" width="43" height="25" fill="green" /><rect x="172" y="425" width="43" height="25" fill="green" /><rect x="215" y="425" width="43" height="25" fill="green" /><rect x="258" y="425" width="43" height="25" fill="green" /><rect x="301" y="425" width="43" height="25" fill="green" /><rect x="344" y="425" width="43" height="25" fill="green" /><rect x="387" y="425" width="43" height="25" fill="green" /><rect x="430" y="425" width="43" height="25" fill="green" /><rect x="473" y="425" width="43" height="25" fill="green" /><rect x="516" y="425" width="43" height="25" fill="green" /><rect x="559" y="425" width="43" height="25" fill="green" /><rect x="602" y="425" width="43" height="25" fill="green" /><rect x="645" y="425" width="43" height="25" fill="green" /><rect x="688" y="425" width="43" height="25" fill="green" /><rect x="731" y="425" width="43" height="25" fill="green" /><rect x="774" y="425" width="43" height="25" fill="green" /><rect x="0" y="450" width="43" height="25" fill="green" /><rect x="43" y="450" width="43" height="25" fill="green" /><rect x="86" y="450" width="43" height="25" fill="green" /><rect x="129" y="450" width="43" height="25" fill="green" /><rect x="172" y="450" width="43" height="25" fill="green" /><rect x="215" y="450" width="43" height="25" fill="green" /><rect x="258" y="450" width="43" height="25" fill="green" /><rect x="301" y="450" width="43" height="25" fill="green" /><rect x="344" y="450" width="43" height="25" fill="green" /><rect x="387" y="450" width="43" height="25" fill="green" /><rect x="430" y="450" width="43" height="25" fill="green" /><rect x="473" y="450" width="43" height="25" fill="green" /><rect x="516" y="450" width="43" height="25" fill="green" /><rect x="559" y="450" width="43" height="25" fill="green" /><rect x="602" y="450" width="43" height="25" fill="green" /><rect x="645" y="450" width="43" height="25" fill="green" /><rect x="688" y="450" width="43" height="25" fill="green" /><rect x="731" y="450" width="43" height="25" fill="green" /><rect x="774" y="450" width="43" height="25" fill="green" /><rect x="0" y="475" width="43" height="25" fill="green" /><rect x="43" y="475" width="43" height="25" fill="green" /><rect x="86" y="475" width="43" height="25" fill="green" /><rect x="129" y="475" width="43" height="25" fill="green" /><rect x="172" y="475" width="43" height="25" fill="green" /><rect x="215" y="475" width="43" height="25" fill="green" /><rect x="258" y="475" width="43" height="25" fill="green" /><rect x="301" y="475" width="43" height="25" fill="green" /><rect x="344" y="475" width="43" height="25" fill="green" /><rect x="387" y="475" width="43" height="25" fill="green" /><rect x="430" y="475" width="43" height="25" fill="green" /><rect x="473" y="475" width="43" height="25" fill="green" /><rect x="516" y="475" width="43" height="25" fill="green" /><rect x="559" y="475" width="43" height="25" fill="green" /><rect x="602" y="475" width="43" height="25" fill="green" /><rect x="645" y="475" width="43" height="25" fill="green" /><rect x="688" y="475" width="43" height="25" fill="green" /><rect x="731" y="475" width="43" height="25" fill="green" /><rect x="774" y="475" width="43" height="25" fill="green" /><rect x="0" y="500" width="43" height="25" fill="green" /><rect x="43" y="500" width="43" height="25" fill="green" /><rect x="86" y="500" width="43" height="25" fill="green" /><rect x="129" y="500" width="43" height="25" fill="green" /><rect x="172" y="500" width="43" height="25" fill="green" /><rect x="215" y="500" width="43" height="25" fill="green" /><rect x="258" y="500" width="43" height="25" fill="green" /><rect x="301" y="500" width="43" height="25" fill="green" /><rect x="344" y="500" width="43" height="25" fill="green" /><rect x="387" y="500" width="43" height="25" fill="green" /><rect x="430" y="500" width="43" height="25" fill="green" /><rect x="473" y="500" width="43" height="25" fill="green" /><rect x="516" y="500" width="43" height="25" fill="green" /><rect x="559" y="500" width="43" height="25" fill="green" /><rect x="602" y="500" width="43" height="25" fill="green" /><rect x="645" y="500" width="43" height="25" fill="green" /><rect x="688" y="500" width="43" height="25" fill="green" /><rect x="731" y="500" width="43" height="25" fill="green" /><rect x="774" y="500" width="43" height="25" fill="green" /><rect x="0" y="525" width="43" height="25" fill="green" /><rect x="43" y="525" width="43" height="25" fill="green" /><rect x="86" y="525" width="43" height="25" fill="green" /><rect x="129" y="525" width="43" height="25" fill="green" /><rect x="172" y="525" width="43" height="25" fill="green" /><rect x="215" y="525" width="43" height="25" fill="green" /><rect x="258" y="525" width="43" height="25" fill="green" /><rect x="301" y="525" width="43" height="25" fill="green" /><rect x="344" y="525" width="43" height="25" fill="green" /><rect x="387" y="525" width="43" height="25" fill="green" /><rect x="430" y="525" width="43" height="25" fill="green" /><rect x="473" y="525" width="43" height="25" fill="green" /><rect x="516" y="525" width="43" height="25" fill="green" /><rect x="559" y="525" width="43" height="25" fill="green" /><rect x="602" y="525" width="43" height="25" fill="green" /><rect x="645" y="525" width="43" height="25" fill="green" /><rect x="688" y="525" width="43" height="25" fill="green" /><rect x="731" y="525" width="43" height="25" fill="green" /><rect x="774" y="525" width="43" height="25" fill="green" /><rect x="0" y="550" width="43" height="25" fill="green" /><rect x="43" y="550" width="43" height="25" fill="green" /><rect x="86" y="550" width="43" height="25" fill="green" /><rect x="129" y="550" width="43" height="25" fill="green" /><rect x="172" y="550" width="43" height="25" fill="green" /><rect x="215" y="550" width="43" height="25" fill="green" /><rect x="258" y="550" width="43" height="25" fill="green" /><rect x="301" y="550" width="43" height="25" fill="green" /><rect x="344" y="550" width="43" height="25" fill="green" /><rect x="387" y="550" width="43" height="25" fill="green" /><rect x="430" y="550" width="43" height="25" fill="green" /><rect x="473" y="550" width="43" height="25" fill="green" /><rect x="516" y="550" width="43" height="25" fill="green" /><rect x="559" y="550" width="43" height="25" fill="green" /><rect x="602" y="550" width="43" height="25" fill="green" /><rect x="645" y="550" width="43" height="25" fill="green" /><rect x="688" y="550" width="43" height="25" fill="green" /><rect x="731" y="550" width="43" height="25" fill="green" /><rect x="774" y="550" width="43" height="25" fill="green" /><rect x="0" y="575" width="43" height="25" fill="green" /><rect x="43" y="575" width="43" height="25" fill="green" /><rect x="86" y="575" width="43" height="25" fill="green" /><rect x="129" y="575" width="43" height="25" fill="green" /><rect x="172" y="575" width="43" height="25" fill="green" /><rect x="215" y="575" width="43" height="25" fill="green" /><rect x="258" y="575" width="43" height="25" fill="green" /><rect x="301" y="575" width="43" height="25" fill="green" /><rect x="344" y="575" width="43" height="25" fill="green" /><rect x="387" y="575" width="43" height="25" fill="green" /><rect x="430" y="575" width="43" height="25" fill="green" /><rect x="473" y="575" width="43" height="25" fill="green" /><rect x="516" y="575" width="43" height="25" fill="green" /><rect x="559" y="575" width="43" height="25" fill="green" /><rect x="602" y="575" width="43" height="25" fill="green" /><rect x="645" y="575" width="43" height="25" fill="green" /><rect x="688" y="575" width="43" height="25" fill="green" /><rect x="731" y="575" width="43" height="25" fill="green" /><rect x="774" y="575" width="43" height="25" fill="green" /><rect x="0" y="600" width="43" height="25" fill="green" /><rect x="43" y="600" width="43" height="25" fill="green" /><rect x="86" y="600" width="43" height="25" fill="green" /><rect x="129" y="600" width="43" height="25" fill="green" /><rect x="172" y="600" width="43" height="25" fill="green" /><rect x="215" y="600" width="43" height="25" fill="green" /><rect x="258" y="600" width="43" height="25" fill="green" /><rect x="301" y="600" width="43" height="25" fill="green" /><rect x="344" y="600" width="43" height="25" fill="green" /><rect x="387" y="600" width="43" height="25" fill="green" /><rect x="430" y="600" width="43" height="25" fill="green" /><rect x="473" y="600" width="43" height="25" fill="green" /><rect x="516" y="600" width="43" height="25" fill="green" /><rect x="559" y="600" width="43" height="25" fill="green" /><rect x="602" y="600" width="43" height="25" fill="green" /><rect x="645" y="600" width="43" height="25" fill="green" /><rect x="688" y="600" width="43" height="25" fill="green" /><rect x="731" y="600" width="43" height="25" fill="green" /><rect x="774" y="600" width="43" height="25" fill="green" /><rect x="0" y="625" width="43" height="25" fill="green" /><rect x="43" y="625" width="43" height="25" fill="green" /><rect x="86" y="625" width="43" height="25" fill="green" /><rect x="129" y="625" width="43" height="25" fill="green" /><rect x="172" y="625" width="43" height="25" fill="green" /><rect x="215" y="625" width="43" height="25" fill="green" /><rect x="258" y="625" width="43" height="25" fill="green" /><rect x="301" y="625" width="43" height="25" fill="green" /><rect x="344" y="625" width="43" height="25" fill="green" /><rect x="387" y="625" width="43" height="25" fill="green" /><rect x="430" y="625" width="43" height="25" fill="green" /><rect x="473" y="625" width="43" height="25" fill="green" /><rect x="516" y="625" width="43" height="25" fill="green" /><rect x="559" y="625" width="43" height="25" fill="green" /><rect x="602" y="625" width="43" height="25" fill="green" /><rect x="645" y="625" width="43" height="25" fill="green" /><rect x="688" y="625" width="43" height="25" fill="green" /><rect x="731" y="625" width="43" height="25" fill="green" /><rect x="774" y="625" width="43" height="25" fill="green" /><rect x="0" y="650" width="43" height="25" fill="green" /><rect x="43" y="650" width="43" height="25" fill="green" /><rect x="86" y="650" width="43" height="25" fill="green" /><rect x="129" y="650" width="43" height="25" fill="green" /><rect x="172" y="650" width="43" height="25" fill="green" /><rect x="215" y="650" width="43" height="25" fill="green" /><rect x="258" y="650" width="43" height="25" fill="green" /><rect x="301" y="650" width="43" height="25" fill="green" /><rect x="344" y="650" width="43" height="25" fill="green" /><rect x="387" y="650" width="43" height="25" fill="green" /><rect x="430" y="650" width="43" height="25" fill="green" /><rect x="473" y="650" width="43" height="25" fill="green" /><rect x="516" y="650" width="43" height="25" fill="green" /><rect x="559" y="650" width="43" height="25" fill="green" /><rect x="602" y="650" width="43" height="25" fill="green" /><rect x="645" y="650" width="43" height="25" fill="green" /><rect x="688" y="650" width="43" height="25" fill="green" /><rect x="731" y="650" width="43" height="25" fill="green" /><rect x="774" y="650" width="43" height="25" fill="green" /></svg>