<svg version="1.1" baseProfile="full" width="800" height="751" xmlns="http://wwww.w3.org/2000/svg">
<rect x="0" y="0" width="800" height="751" fill="red" /><circle cx="59" cy="59" r="59" fill="green" /><circle cx="177" cy="59" r="59" fill="green" /><circle cx="295" cy="59" r="59" fill="green" /><circle cx="413" cy="59" r="59" fill="green" /><circle cx="531" cy="59" r="59" fill="green" /><circle cx="649" cy="59" r="59" fill="green" /><circle cx="59" cy="177" r="59" fill="green" /><circle cx="177" cy="177" r="59" fill="green" /><circle cx="295" cy="177" r="59" fill="green" /><circle cx="413" cy="177" r="59" fill="green" /><circle cx="531" cy="177" r="59" fill="green" /><circle cx="649" cy="177" r="59" fill="green" /><circle cx="59" cy="295" r="59" fill="green" /><circle cx="177" cy="295" r="59" fill="green" /><circle cx="295" cy="295" r="59" fill="green" /><circle cx="413" cy="295" r="59" fill="green" /><circle cx="531" cy="295" r="59" fill="green" /><circle cx="649" cy="295" r="59" fill="green" /><circle cx="59" cy="413" r="59" fill="green" /><circle cx="177" cy="413" r="59" fill="green" /><circle cx="295" cy="413" r="59" fill="green" /><circle cx="413" cy="413" r="59" fill="green" /><circle cx="531" cy="413" r="59" fill="green" /><circle cx="649" cy="413" r="59" fill="green" /><circle cx="59" cy="531" r="59" fill="green" /><circle cx="177" cy="531" r="59" fill="green" /><circle cx="295" cy="531" r="59" fill="green" /><circle cx="413" cy="531" r="59" fill="green" /><circle cx="531" cy="531" r="59" fill="green" /><circle cx="649" cy="531" r="59" fill="green" /><circle cx="59" cy="649" r="59" fill="green" /><circle cx="177" cy="649" r="59" fill="green" /><circle cx="295" cy="649" r="59" fill="green" /><circle cx="413" cy="649" r="59" fill="green" /><circle cx="531" cy="649" r="59" fill="green" /><circle cx="649" cy="649" r="59" fill="green" /></svg>