<svg version="1.1" baseProfile="full" width="950" height="486" xmlns="http://wwww.w3.org/2000/svg">
<rect x="0" y="0" width="950" height="486" fill="red" /><circle cx="25" cy="25" r="25" fill="green" /><circle cx="75" cy="25" r="25" fill="green" /><circle cx="125" cy="25" r="25" fill="green" /><circle cx="175" cy="25" r="25" fill="green" /><circle cx="225" cy="25" r="25" fill="green" /><circle cx="275" cy="25" r="25" fill="green" /><circle cx="325" cy="25" r="25" fill="green" /><circle cx="375" cy="25" r="25" fill="green" /><circle cx="425" cy="25" r="25" fill="green" /><circle cx="475" cy="25" r="25" fill="green" /><circle cx="525" cy="25" r="25" fill="green" /><circle cx="575" cy="25" r="25" fill="green" /><circle cx="625" cy="25" r="25" fill="green" /><circle cx="675" cy="25" r="25" fill="green" /><circle cx="725" cy="25" r="25" fill="green" /><circle cx="775" cy="25" r="25" fill="green" /><circle cx="825" cy="25" r="25" fill="green" /><circle cx="875" cy="25" r="25" fill="green" /><circle cx="925" cy="25" r="25" fill="green" /><circle cx="25" cy="75" r="25" fill="green" /><circle cx="75" cy="75" r="25" fill="green" /><circle cx="125" cy="75" r="25" fill="green" /><circle cx="175" cy="75" r="25" fill="green" /><circle cx="225" cy="75" r="25" fill="green" /><circle cx="275" cy="75" r="25" fill="green" /><circle cx="325" cy="75" r="25" fill="green" /><circle cx="375" cy="75" r="25" fill="green" /><circle cx="425" cy="75" r="25" fill="green" /><circle cx="475" cy="75" r="25" fill="green" /><circle cx="525" cy="75" r="25" fill="green" /><circle cx="575" cy="75" r="25" fill="green" /><circle cx="625" cy="75" r="25" fill="green" /><circle cx="675" cy="75" r="25" fill="green" /><circle cx="725" cy="75" r="25" fill="green" /><circle cx="775" cy="75" r="25" fill="green" /><circle cx="825" cy="75" r="25" fill="green" /><circle cx="875" cy="75" r="25" fill="green" /><circle cx="925" cy="75" r="25" fill="green" /><circle cx="25" cy="125" r="25" fill="green" /><circle cx="75" cy="125" r="25" fill="green" /><circle cx="125" cy="125" r="25" fill="green" /><circle cx="175" cy="125" r="25" fill="green" /><circle cx="225" cy="125" r="25" fill="green" /><circle cx="275" cy="125" r="25" fill="green" /><circle cx="325" cy="125" r="25" fill="green" /><circle cx="375" cy="125" r="25" fill="green" /><circle cx="425" cy="125" r="25" fill="green" /><circle cx="475" cy="125" r="25" fill="green" /><circle cx="525" cy="125" r="25" fill="green" /><circle cx="575" cy="125" r="25" fill="green" /><circle cx="625" cy="125" r="25" fill="green" /><circle cx="675" cy="125" r="25" fill="green" /><circle cx="725" cy="125" r="25" fill="green" /><circle cx="775" cy="125" r="25" fill="green" /><circle cx="825" cy="125" r="25" fill="green" /><circle cx="875" cy="125" r="25" fill="green" /><circle cx="925" cy="125" r="25" fill="green" /><circle cx="25" cy="175" r="25" fill="green" /><circle cx="75" cy="175" r="25" fill="green" /><circle cx="125" cy="175" r="25" fill="green" /><circle cx="175" cy="175" r="25" fill="green" /><circle cx="225" cy="175" r="25" fill="green" /><circle cx="275" cy="175" r="25" fill="green" /><circle cx="325" cy="175" r="25" fill="green" /><circle cx="375" cy="175" r="25" fill="green" /><circle cx="425" cy="175" r="25" fill="green" /><circle cx="475" cy="175" r="25" fill="green" /><circle cx="525" cy="175" r="25" fill="green" /><circle cx="575" cy="175" r="25" fill="green" /><circle cx="625" cy="175" r="25" fill="green" /><circle cx="675" cy="175" r="25" fill="green" /><circle cx="725" cy="175" r="25" fill="green" /><circle cx="775" cy="175" r="25" fill="green" /><circle cx="825" cy="175" r="25" fill="green" /><circle cx="875" cy="175" r="25" fill="green" /><circle cx="925" cy="175" r="25" fill="green" /><circle cx="25" cy="225" r="25" fill="green" /><circle cx="75" cy="225" r="25" fill="green" /><circle cx="125" cy="225" r="25" fill="green" /><circle cx="175" cy="225" r="25" fill="green" /><circle cx="225" cy="225" r="25" fill="green" /><circle cx="275" cy="225" r="25" fill="green" /><circle cx="325" cy="225" r="25" fill="green" /><circle cx="375" cy="225" r="25" fill="green" /><circle cx="425" cy="225" r="25" fill="green" /><circle cx="475" cy="225" r="25" fill="green" /><circle cx="525" cy="225" r="25" fill="green" /><circle cx="575" cy="225" r="25" fill="green" /><circle cx="625" cy="225" r="25" fill="green" /><circle cx="675" cy="225" r="25" fill="green" /><circle cx="725" cy="225" r="25" fill="green" /><circle cx="775" cy="225" r="25" fill="green" /><circle cx="825" cy="225" r="25" fill="green" /><circle cx="875" cy="225" r="25" fill="green" /><circle cx="925" cy="225" r="25" fill="green" /><circle cx="25" cy="275" r="25" fill="green" /><circle cx="75" cy="275" r="25" fill="green" /><circle cx="125" cy="275" r="25" fill="green" /><circle cx="175" cy="275" r="25" fill="green" /><circle cx="225" cy="275" r="25" fill="green" /><circle cx="275" cy="275" r="25" fill="green" /><circle cx="325" cy="275" r="25" fill="green" /><circle cx="375" cy="275" r="25" fill="green" /><circle cx="425" cy="275" r="25" fill="green" /><circle cx="475" cy="275" r="25" fill="green" /><circle cx="525" cy="275" r="25" fill="green" /><circle cx="575" cy="275" r="25" fill="green" /><circle cx="625" cy="275" r="25" fill="green" /><circle cx="675" cy="275" r="25" fill="green" /><circle cx="725" cy="275" r="25" fill="green" /><circle cx="775" cy="275" r="25" fill="green" /><circle cx="825" cy="275" r="25" fill="green" /><circle cx="875" cy="275" r="25" fill="green" /><circle cx="925" cy="275" r="25" fill="green" /><circle cx="25" cy="325" r="25" fill="green" /><circle cx="75" cy="325" r="25" fill="green" /><circle cx="125" cy="325" r="25" fill="green" /><circle cx="175" cy="325" r="25" fill="green" /><circle cx="225" cy="325" r="25" fill="green" /><circle cx="275" cy="325" r="25" fill="green" /><circle cx="325" cy="325" r="25" fill="green" /><circle cx="375" cy="325" r="25" fill="green" /><circle cx="425" cy="325" r="25" fill="green" /><circle cx="475" cy="325" r="25" fill="green" /><circle cx="525" cy="325" r="25" fill="green" /><circle cx="575" cy="325" r="25" fill="green" /><circle cx="625" cy="325" r="25" fill="green" /><circle cx="675" cy="325" r="25" fill="green" /><circle cx="725" cy="325" r="25" fill="green" /><circle cx="775" cy="325" r="25" fill="green" /><circle cx="825" cy="325" r="25" fill="green" /><circle cx="875" cy="325" r="25" fill="green" /><circle cx="925" cy="325" r="25" fill="green" /><circle cx="25" cy="375" r="25" fill="green" /><circle cx="75" cy="375" r="25" fill="green" /><circle cx="125" cy="375" r="25" fill="green" /><circle cx="175" cy="375" r="25" fill="green" /><circle cx="225" cy="375" r="25" fill="green" /><circle cx="275" cy="375" r="25" fill="green" /><circle cx="325" cy="375" r="25" fill="green" /><circle cx="375" cy="375" r="25" fill="green" /><circle cx="425" cy="375" r="25" fill="green" /><circle cx="475" cy="375" r="25" fill="green" /><circle cx="525" cy="375" r="25" fill="green" /><circle cx="575" cy="375" r="25" fill="green" /><circle cx="625" cy="375" r="25" fill="green" /><circle cx="675" cy="375" r="25" fill="green" /><circle cx="725" cy="375" r="25" fill="green" /><circle cx="775" cy="375" r="25" fill="green" /><circle cx="825" cy="375" r="25" fill="green" /><circle cx="875" cy="375" r="25" fill="green" /><circle cx="925" cy="375" r="25" fill="green" /><circle cx="25" cy="425" r="25" fill="green" /><circle cx="75" cy="425" r="25" fill="green" /><circle cx="125" cy="425" r="25" fill="green" /><circle cx="175" cy="425" r="25" fill="green" /><circle cx="225" cy="425" r="25" fill="green" /><circle cx="275" cy="425" r="25" fill="green" /><circle cx="325" cy="425" r="25" fill="green" /><circle cx="375" cy="425" r="25" fill="green" /><circle cx="425" cy="425" r="25" fill="green" /><circle cx="475" cy="425" r="25" fill="green" /><circle cx="525" cy="425" r="25" fill="green" /><circle cx="575" cy="425" r="25" fill="green" /><circle cx="625" cy="425" r="25" fill="green" /><circle cx="675" cy="425" r="25" fill="green" /><circle cx="725" cy="425" r="25" fill="green" /><circle cx="775" cy="425" r="25" fill="green" /><circle cx="825" cy="425" r="25" fill="green" /><circle cx="875" cy="425" r="25" fill="green" /><circle cx="925" cy="425" r="25" fill="green" /></svg>