<svg version="1.1" baseProfile="full" width="1058" height="1058" xmlns="http://wwww.w3.org/2000/svg">
<polygon points="529,0 0,916.255 1058,916.255" fill="red" /><rect x="32.909" y="859.255" width="103" height="57" fill="green" /><rect x="135.909" y="859.255" width="103" height="57" fill="green" /><rect x="238.909" y="859.255" width="103" height="57" fill="green" /><rect x="341.909" y="859.255" width="103" height="57" fill="green" /><rect x="444.909" y="859.255" width="103" height="57" fill="green" /><rect x="547.909" y="859.255" width="103" height="57" fill="green" /><rect x="650.909" y="859.255" width="103" height="57" fill="green" /><rect x="753.909" y="859.255" width="103" height="57" fill="green" /><rect x="856.909" y="859.255" width="103" height="57" fill="green" /><rect x="65.8179" y="802.255" width="103" height="57" fill="green" /><rect x="168.818" y="802.255" width="103" height="57" fill="green" /><rect x="271.818" y="802.255" width="103" height="57" fill="green" /><rect x="374.818" y="802.255" width="103" height="57" fill="green" /><rect x="477.818" y="802.255" width="103" height="57" fill="green" /><rect x="580.818" y="802.255" width="103" height="57" fill="green" /><rect x="683.818" y="802.255" width="103" height="57" fill="green" /><rect x="786.818" y="802.255" width="103" height="57" fill="green" /><rect x="98.7269" y="745.255" width="103" height="57" fill="green" /><rect x="201.727" y="745.255" width="103" height="57" fill="green" /><rect x="304.727" y="745.255" width="103" height="57" fill="green" /><rect x="407.727" y="745.255" width="103" height="57" fill="green" /><rect x="510.727" y="745.255" width="103" height="57" fill="green" /><rect x="613.727" y="745.255" width="103" height="57" fill="green" /><rect x="716.727" y="745.255" width="103" height="57" fill="green" /><rect x="819.727" y="745.255" width="103" height="57" fill="green" /><rect x="131.636" y="688.255" width="103" height="57" fill="green" /><rect x="234.636" y="688.255" width="103" height="57" fill="green" /><rect x="337.636" y="688.255" width="103" height="57" fill="green" /><rect x="440.636" y="688.255" width="103" height="57" fill="green" /><rect x="543.636" y="688.255" width="103" height="57" fill="green" /><rect x="646.636" y="688.255" width="103" height="57" fill="green" /><rect x="749.636" y="688.255" width="103" height="57" fill="green" /><rect x="164.545" y="631.255" width="103" height="57" fill="green" /><rect x="267.545" y="631.255" width="103" height="57" fill="green" /><rect x="370.545" y="631.255" width="103" height="57" fill="green" /><rect x="473.545" y="631.255" width="103" height="57" fill="green" /><rect x="576.545" y="631.255" width="103" height="57" fill="green" /><rect x="679.545" y="631.255" width="103" height="57" fill="green" /><rect x="782.545" y="631.255" width="103" height="57" fill="green" /><rect x="197.454" y="574.255" width="103" height="57" fill="green" /><rect x="300.454" y="574.255" width="103" height="57" fill="green" /><rect x="403.454" y="574.255" width="103" height="57" fill="green" /><rect x="506.454" y="574.255" width="103" height="57" fill="green" /><rect x="609.454" y="574.255" width="103" height="57" fill="green" /><rect x="712.454" y="574.255" width="103" height="57" fill="green" /><rect x="230.363" y="517.255" width="103" height="57" fill="green" /><rect x="333.363" y="517.255" width="103" height="57" fill="green" /><rect x="436.363" y="517.255" width="103" height="57" fill="green" /><rect x="539.363" y="517.255" width="103" height="57" fill="green" /><rect x="642.363" y="517.255" width="103" height="57" fill="green" /><rect x="263.272" y="460.255" width="103" height="57" fill="green" /><rect x="366.272" y="460.255" width="103" height="57" fill="green" /><rect x="469.272" y="460.255" width="103" height="57" fill="green" /><rect x="572.272" y="460.255" width="103" height="57" fill="green" /><rect x="675.272" y="460.255" width="103" height="57" fill="green" /><rect x="296.181" y="403.255" width="103" height="57" fill="green" /><rect x="399.181" y="403.255" width="103" height="57" fill="green" /><rect x="502.181" y="403.255" width="103" height="57" fill="green" /><rect x="605.181" y="403.255" width="103" height="57" fill="green" /><rect x="329.09" y="346.255" width="103" height="57" fill="green" /><rect x="432.09" y="346.255" width="103" height="57" fill="green" /><rect x="535.09" y="346.255" width="103" height="57" fill="green" /><rect x="361.999" y="289.255" width="103" height="57" fill="green" /><rect x="464.999" y="289.255" width="103" height="57" fill="green" /><rect x="567.999" y="289.255" width="103" height="57" fill="green" /><rect x="394.908" y="232.255" width="103" height="57" fill="green" /><rect x="497.908" y="232.255" width="103" height="57" fill="green" /><rect x="427.817" y="175.255" width="103" height="57" fill="green" /><rect x="460.726" y="118.255" width="103" height="57" fill="green" /></svg>