<svg version="1.1" baseProfile="full" width="1000" height="1000" xmlns="http://wwww.w3.org/2000/svg">
<polygon points="500,0 0,866.025 1000,866.025" fill="red" /><rect x="25.9808" y="821.025" width="50" height="45" fill="green" /><rect x="75.9808" y="821.025" width="50" height="45" fill="green" /><rect x="125.981" y="821.025" width="50" height="45" fill="green" /><rect x="175.981" y="821.025" width="50" height="45" fill="green" /><rect x="225.981" y="821.025" width="50" height="45" fill="green" /><rect x="275.981" y="821.025" width="50" height="45" fill="green" /><rect x="325.981" y="821.025" width="50" height="45" fill="green" /><rect x="375.981" y="821.025" width="50" height="45" fill="green" /><rect x="425.981" y="821.025" width="50" height="45" fill="green" /><rect x="475.981" y="821.025" width="50" height="45" fill="green" /><rect x="525.981" y="821.025" width="50" height="45" fill="green" /><rect x="575.981" y="821.025" width="50" height="45" fill="green" /><rect x="625.981" y="821.025" width="50" height="45" fill="green" /><rect x="675.981" y="821.025" width="50" height="45" fill="green" /><rect x="725.981" y="821.025" width="50" height="45" fill="green" /><rect x="775.981" y="821.025" width="50" height="45" fill="green" /><rect x="825.981" y="821.025" width="50" height="45" fill="green" /><rect x="875.981" y="821.025" width="50" height="45" fill="green" /><rect x="51.9615" y="776.025" width="50" height="45" fill="green" /><rect x="101.962" y="776.025" width="50" height="45" fill="green" /><rect x="151.962" y="776.025" width="50" height="45" fill="green" /><rect x="201.962" y="776.025" width="50" height="45" fill="green" /><rect x="251.962" y="776.025" width="50" height="45" fill="green" /><rect x="301.962" y="776.025" width="50" height="45" fill="green" /><rect x="351.962" y="776.025" width="50" height="45" fill="green" /><rect x="401.962" y="776.025" width="50" height="45" fill="green" /><rect x="451.962" y="776.025" width="50" height="45" fill="green" /><rect x="501.962" y="776.025" width="50" height="45" fill="green" /><rect x="551.962" y="776.025" width="50" height="45" fill="green" /><rect x="601.962" y="776.025" width="50" height="45" fill="green" /><rect x="651.962" y="776.025" width="50" height="45" fill="green" /><rect x="701.962" y="776.025" width="50" height="45" fill="green" /><rect x="751.962" y="776.025" width="50" height="45" fill="green" /><rect x="801.962" y="776.025" width="50" height="45" fill="green" /><rect x="851.962" y="776.025" width="50" height="45" fill="green" /><rect x="77.9423" y="731.025" width="50" height="45" fill="green" /><rect x="127.942" y="731.025" width="50" height="45" fill="green" /><rect x="177.942" y="731.025" width="50" height="45" fill="green" /><rect x="227.942" y="731.025" width="50" height="45" fill="green" /><rect x="277.942" y="731.025" width="50" height="45" fill="green" /><rect x="327.942" y="731.025" width="50" height="45" fill="green" /><rect x="377.942" y="731.025" width="50" height="45" fill="green" /><rect x="427.942" y="731.025" width="50" height="45" fill="green" /><rect x="477.942" y="731.025" width="50" height="45" fill="green" /><rect x="527.942" y="731.025" width="50" height="45" fill="green" /><rect x="577.942" y="731.025" width="50" height="45" fill="green" /><rect x="627.942" y="731.025" width="50" height="45" fill="green" /><rect x="677.942" y="731.025" width="50" height="45" fill="green" /><rect x="727.942" y="731.025" width="50" height="45" fill="green" /><rect x="777.942" y="731.025" width="50" height="45" fill="green" /><rect x="827.942" y="731.025" width="50" height="45" fill="green" /><rect x="103.923" y="686.025" width="50" height="45" fill="green" /><rect x="153.923" y="686.025" width="50" height="45" fill="green" /><rect x="203.923" y="686.025" width="50" height="45" fill="green" /><rect x="253.923" y="686.025" width="50" height="45" fill="green" /><rect x="303.923" y="686.025" width="50" height="45" fill="green" /><rect x="353.923" y="686.025" width="50" height="45" fill="green" /><rect x="403.923" y="686.025" width="50" height="45" fill="green" /><rect x="453.923" y="686.025" width="50" height="45" fill="green" /><rect x="503.923" y="686.025" width="50" height="45" fill="green" /><rect x="553.923" y="686.025" width="50" height="45" fill="green" /><rect x="603.923" y="686.025" width="50" height="45" fill="green" /><rect x="653.923" y="686.025" width="50" height="45" fill="green" /><rect x="703.923" y="686.025" width="50" height="45" fill="green" /><rect x="753.923" y="686.025" width="50" height="45" fill="green" /><rect x="803.923" y="686.025" width="50" height="45" fill="green" /><rect x="129.904" y="641.025" width="50" height="45" fill="green" /><rect x="179.904" y="641.025" width="50" height="45" fill="green" /><rect x="229.904" y="641.025" width="50" height="45" fill="green" /><rect x="279.904" y="641.025" width="50" height="45" fill="green" /><rect x="329.904" y="641.025" width="50" height="45" fill="green" /><rect x="379.904" y="641.025" width="50" height="45" fill="green" /><rect x="429.904" y="641.025" width="50" height="45" fill="green" /><rect x="479.904" y="641.025" width="50" height="45" fill="green" /><rect x="529.904" y="641.025" width="50" height="45" fill="green" /><rect x="579.904" y="641.025" width="50" height="45" fill="green" /><rect x="629.904" y="641.025" width="50" height="45" fill="green" /><rect x="679.904" y="641.025" width="50" height="45" fill="green" /><rect x="729.904" y="641.025" width="50" height="45" fill="green" /><rect x="779.904" y="641.025" width="50" height="45" fill="green" /><rect x="155.885" y="596.025" width="50" height="45" fill="green" /><rect x="205.885" y="596.025" width="50" height="45" fill="green" /><rect x="255.885" y="596.025" width="50" height="45" fill="green" /><rect x="305.885" y="596.025" width="50" height="45" fill="green" /><rect x="355.885" y="596.025" width="50" height="45" fill="green" /><rect x="405.885" y="596.025" width="50" height="45" fill="green" /><rect x="455.885" y="596.025" width="50" height="45" fill="green" /><rect x="505.885" y="596.025" width="50" height="45" fill="green" /><rect x="555.885" y="596.025" width="50" height="45" fill="green" /><rect x="605.885" y="596.025" width="50" height="45" fill="green" /><rect x="655.885" y="596.025" width="50" height="45" fill="green" /><rect x="705.885" y="596.025" width="50" height="45" fill="green" /><rect x="755.885" y="596.025" width="50" height="45" fill="green" /><rect x="181.865" y="551.025" width="50" height="45" fill="green" /><rect x="231.865" y="551.025" width="50" height="45" fill="green" /><rect x="281.865" y="551.025" width="50" height="45" fill="green" /><rect x="331.865" y="551.025" width="50" height="45" fill="green" /><rect x="381.865" y="551.025" width="50" height="45" fill="green" /><rect x="431.865" y="551.025" width="50" height="45" fill="green" /><rect x="481.865" y="551.025" width="50" height="45" fill="green" /><rect x="531.865" y="551.025" width="50" height="45" fill="green" /><rect x="581.865" y="551.025" width="50" height="45" fill="green" /><rect x="631.865" y="551.025" width="50" height="45" fill="green" /><rect x="681.865" y="551.025" width="50" height="45" fill="green" /><rect x="731.865" y="551.025" width="50" height="45" fill="green" /><rect x="207.846" y="506.025" width="50" height="45" fill="green" /><rect x="257.846" y="506.025" width="50" height="45" fill="green" /><rect x="307.846" y="506.025" width="50" height="45" fill="green" /><rect x="357.846" y="506.025" width="50" height="45" fill="green" /><rect x="407.846" y="506.025" width="50" height="45" fill="green" /><rect x="457.846" y="506.025" width="50" height="45" fill="green" /><rect x="507.846" y="506.025" width="50" height="45" fill="green" /><rect x="557.846" y="506.025" width="50" height="45" fill="green" /><rect x="607.846" y="506.025" width="50" height="45" fill="green" /><rect x="657.846" y="506.025" width="50" height="45" fill="green" /><rect x="707.846" y="506.025" width="50" height="45" fill="green" /><rect x="233.827" y="461.025" width="50" height="45" fill="green" /><rect x="283.827" y="461.025" width="50" height="45" fill="green" /><rect x="333.827" y="461.025" width="50" height="45" fill="green" /><rect x="383.827" y="461.025" width="50" height="45" fill="green" /><rect x="433.827" y="461.025" width="50" height="45" fill="green" /><rect x="483.827" y="461.025" width="50" height="45" fill="green" /><rect x="533.827" y="461.025" width="50" height="45" fill="green" /><rect x="583.827" y="461.025" width="50" height="45" fill="green" /><rect x="633.827" y="461.025" width="50" height="45" fill="green" /><rect x="683.827" y="461.025" width="50" height="45" fill="green" /><rect x="259.808" y="416.025" width="50" height="45" fill="green" /><rect x="309.808" y="416.025" width="50" height="45" fill="green" /><rect x="359.808" y="416.025" width="50" height="45" fill="green" /><rect x="409.808" y="416.025" width="50" height="45" fill="green" /><rect x="459.808" y="416.025" width="50" height="45" fill="green" /><rect x="509.808" y="416.025" width="50" height="45" fill="green" /><rect x="559.808" y="416.025" width="50" height="45" fill="green" /><rect x="609.808" y="416.025" width="50" height="45" fill="green" /><rect x="659.808" y="416.025" width="50" height="45" fill="green" /><rect x="285.788" y="371.025" width="50" height="45" fill="green" /><rect x="335.788" y="371.025" width="50" height="45" fill="green" /><rect x="385.788" y="371.025" width="50" height="45" fill="green" /><rect x="435.788" y="371.025" width="50" height="45" fill="green" /><rect x="485.788" y="371.025" width="50" height="45" fill="green" /><rect x="535.788" y="371.025" width="50" height="45" fill="green" /><rect x="585.788" y="371.025" width="50" height="45" fill="green" /><rect x="635.788" y="371.025" width="50" height="45" fill="green" /><rect x="311.769" y="326.025" width="50" height="45" fill="green" /><rect x="361.769" y="326.025" width="50" height="45" fill="green" /><rect x="411.769" y="326.025" width="50" height="45" fill="green" /><rect x="461.769" y="326.025" width="50" height="45" fill="green" /><rect x="511.769" y="326.025" width="50" height="45" fill="green" /><rect x="561.769" y="326.025" width="50" height="45" fill="green" /><rect x="611.769" y="326.025" width="50" height="45" fill="green" /><rect x="337.75" y="281.025" width="50" height="45" fill="green" /><rect x="387.75" y="281.025" width="50" height="45" fill="green" /><rect x="437.75" y="281.025" width="50" height="45" fill="green" /><rect x="487.75" y="281.025" width="50" height="45" fill="green" /><rect x="537.75" y="281.025" width="50" height="45" fill="green" /><rect x="587.75" y="281.025" width="50" height="45" fill="green" /><rect x="363.731" y="236.025" width="50" height="45" fill="green" /><rect x="413.731" y="236.025" width="50" height="45" fill="green" /><rect x="463.731" y="236.025" width="50" height="45" fill="green" /><rect x="513.731" y="236.025" width="50" height="45" fill="green" /><rect x="563.731" y="236.025" width="50" height="45" fill="green" /><rect x="389.711" y="191.025" width="50" height="45" fill="green" /><rect x="439.711" y="191.025" width="50" height="45" fill="green" /><rect x="489.711" y="191.025" width="50" height="45" fill="green" /><rect x="539.711" y="191.025" width="50" height="45" fill="green" /><rect x="415.692" y="146.025" width="50" height="45" fill="green" /><rect x="465.692" y="146.025" width="50" height="45" fill="green" /><rect x="515.692" y="146.025" width="50" height="45" fill="green" /><rect x="441.673" y="101.025" width="50" height="45" fill="green" /><rect x="491.673" y="101.025" width="50" height="45" fill="green" /><rect x="467.654" y="56.0254" width="50" height="45" fill="green" /></svg>