<svg version="1.1" baseProfile="full" width="37" height="37" xmlns="http://wwww.w3.org/2000/svg">
<polygon points="18,0 0,31.1769 37,31.1769" fill="red" /><rect x="1.73205" y="28.1769" width="4" height="3" fill="green" /><rect x="5.73205" y="28.1769" width="4" height="3" fill="green" /><rect x="9.73205" y="28.1769" width="4" height="3" fill="green" /><rect x="13.7321" y="28.1769" width="4" height="3" fill="green" /><rect x="17.7321" y="28.1769" width="4" height="3" fill="green" /><rect x="21.7321" y="28.1769" width="4" height="3" fill="green" /><rect x="25.7321" y="28.1769" width="4" height="3" fill="green" /><rect x="3.4641" y="25.1769" width="4" height="3" fill="green" /><rect x="7.4641" y="25.1769" width="4" height="3" fill="green" /><rect x="11.4641" y="25.1769" width="4" height="3" fill="green" /><rect x="15.4641" y="25.1769" width="4" height="3" fill="green" /><rect x="19.4641" y="25.1769" width="4" height="3" fill="green" /><rect x="23.4641" y="25.1769" width="4" height="3" fill="green" /><rect x="27.4641" y="25.1769" width="4" height="3" fill="green" /><rect x="5.19615" y="22.1769" width="4" height="3" fill="green" /><rect x="9.19615" y="22.1769" width="4" height="3" fill="green" /><rect x="13.1962" y="22.1769" width="4" height="3" fill="green" /><rect x="17.1962" y="22.1769" width="4" height="3" fill="green" /><rect x="21.1962" y="22.1769" width="4" height="3" fill="green" /><rect x="25.1962" y="22.1769" width="4" height="3" fill="green" /><rect x="6.9282" y="19.1769" width="4" height="3" fill="green" /><rect x="10.9282" y="19.1769" width="4" height="3" fill="green" /><rect x="14.9282" y="19.1769" width="4" height="3" fill="green" /><rect x="18.9282" y="19.1769" width="4" height="3" fill="green" /><rect x="22.9282" y="19.1769" width="4" height="3" fill="green" /><rect x="8.66025" y="16.1769" width="4" height="3" fill="green" /><rect x="12.6603" y="16.1769" width="4" height="3" fill="green" /><rect x="16.6603" y="16.1769" width="4" height="3" fill="green" /><rect x="20.6603" y="16.1769" width="4" height="3" fill="green" /><rect x="10.3923" y="13.1769" width="4" height="3" fill="green" /><rect x="14.3923" y="13.1769" width="4" height="3" fill="green" /><rect x="18.3923" y="13.1769" width="4" height="3" fill="green" /><rect x="12.1244" y="10.1769" width="4" height="3" fill="green" /><rect x="16.1244" y="10.1769" width="4" height="3" fill="green" /><rect x="13.8564" y="7.17691" width="4" height="3" fill="green" /><rect x="15.5885" y="4.17691" width="4" height="3" fill="green" /></svg>