<svg version="1.1" baseProfile="full" width="1505" height="700" xmlns="http://wwww.w3.org/2000/svg">
<rect x="0" y="0" width="1505" height="700" fill="red" /><rect x="0" y="0" width="100" height="50" fill="green" /><rect x="100" y="0" width="100" height="50" fill="green" /><rect x="200" y="0" width="100" height="50" fill="green" /><rect x="300" y="0" width="100" height="50" fill="green" /><rect x="400" y="0" width="100" height="50" fill="green" /><rect x="500" y="0" width="100" height="50" fill="green" /><rect x="600" y="0" width="100" height="50" fill="green" /><rect x="700" y="0" width="100" height="50" fill="green" /><rect x="800" y="0" width="100" height="50" fill="green" /><rect x="900" y="0" width="100" height="50" fill="green" /><rect x="1000" y="0" width="100" height="50" fill="green" /><rect x="1100" y="0" width="100" height="50" fill="green" /><rect x="1200" y="0" width="100" height="50" fill="green" /><rect x="1300" y="0" width="100" height="50" fill="green" /><rect x="1400" y="0" width="100" height="50" fill="green" /><rect x="0" y="50" width="100" height="50" fill="green" /><rect x="100" y="50" width="100" height="50" fill="green" /><rect x="200" y="50" width="100" height="50" fill="green" /><rect x="300" y="50" width="100" height="50" fill="green" /><rect x="400" y="50" width="100" height="50" fill="green" /><rect x="500" y="50" width="100" height="50" fill="green" /><rect x="600" y="50" width="100" height="50" fill="green" /><rect x="700" y="50" width="100" height="50" fill="green" /><rect x="800" y="50" width="100" height="50" fill="green" /><rect x="900" y="50" width="100" height="50" fill="green" /><rect x="1000" y="50" width="100" height="50" fill="green" /><rect x="1100" y="50" width="100" height="50" fill="green" /><rect x="1200" y="50" width="100" height="50" fill="green" /><rect x="1300" y="50" width="100" height="50" fill="green" /><rect x="1400" y="50" width="100" height="50" fill="green" /><rect x="0" y="100" width="100" height="50" fill="green" /><rect x="100" y="100" width="100" height="50" fill="green" /><rect x="200" y="100" width="100" height="50" fill="green" /><rect x="300" y="100" width="100" height="50" fill="green" /><rect x="400" y="100" width="100" height="50" fill="green" /><rect x="500" y="100" width="100" height="50" fill="green" /><rect x="600" y="100" width="100" height="50" fill="green" /><rect x="700" y="100" width="100" height="50" fill="green" /><rect x="800" y="100" width="100" height="50" fill="green" /><rect x="900" y="100" width="100" height="50" fill="green" /><rect x="1000" y="100" width="100" height="50" fill="green" /><rect x="1100" y="100" width="100" height="50" fill="green" /><rect x="1200" y="100" width="100" height="50" fill="green" /><rect x="1300" y="100" width="100" height="50" fill="green" /><rect x="1400" y="100" width="100" height="50" fill="green" /><rect x="0" y="150" width="100" height="50" fill="green" /><rect x="100" y="150" width="100" height="50" fill="green" /><rect x="200" y="150" width="100" height="50" fill="green" /><rect x="300" y="150" width="100" height="50" fill="green" /><rect x="400" y="150" width="100" height="50" fill="green" /><rect x="500" y="150" width="100" height="50" fill="green" /><rect x="600" y="150" width="100" height="50" fill="green" /><rect x="700" y="150" width="100" height="50" fill="green" /><rect x="800" y="150" width="100" height="50" fill="green" /><rect x="900" y="150" width="100" height="50" fill="green" /><rect x="1000" y="150" width="100" height="50" fill="green" /><rect x="1100" y="150" width="100" height="50" fill="green" /><rect x="1200" y="150" width="100" height="50" fill="green" /><rect x="1300" y="150" width="100" height="50" fill="green" /><rect x="1400" y="150" width="100" height="50" fill="green" /><rect x="0" y="200" width="100" height="50" fill="green" /><rect x="100" y="200" width="100" height="50" fill="green" /><rect x="200" y="200" width="100" height="50" fill="green" /><rect x="300" y="200" width="100" height="50" fill="green" /><rect x="400" y="200" width="100" height="50" fill="green" /><rect x="500" y="200" width="100" height="50" fill="green" /><rect x="600" y="200" width="100" height="50" fill="green" /><rect x="700" y="200" width="100" height="50" fill="green" /><rect x="800" y="200" width="100" height="50" fill="green" /><rect x="900" y="200" width="100" height="50" fill="green" /><rect x="1000" y="200" width="100" height="50" fill="green" /><rect x="1100" y="200" width="100" height="50" fill="green" /><rect x="1200" y="200" width="100" height="50" fill="green" /><rect x="1300" y="200" width="100" height="50" fill="green" /><rect x="1400" y="200" width="100" height="50" fill="green" /><rect x="0" y="250" width="100" height="50" fill="green" /><rect x="100" y="250" width="100" height="50" fill="green" /><rect x="200" y="250" width="100" height="50" fill="green" /><rect x="300" y="250" width="100" height="50" fill="green" /><rect x="400" y="250" width="100" height="50" fill="green" /><rect x="500" y="250" width="100" height="50" fill="green" /><rect x="600" y="250" width="100" height="50" fill="green" /><rect x="700" y="250" width="100" height="50" fill="green" /><rect x="800" y="250" width="100" height="50" fill="green" /><rect x="900" y="250" width="100" height="50" fill="green" /><rect x="1000" y="250" width="100" height="50" fill="green" /><rect x="1100" y="250" width="100" height="50" fill="green" /><rect x="1200" y="250" width="100" height="50" fill="green" /><rect x="1300" y="250" width="100" height="50" fill="green" /><rect x="1400" y="250" width="100" height="50" fill="green" /><rect x="0" y="300" width="100" height="50" fill="green" /><rect x="100" y="300" width="100" height="50" fill="green" /><rect x="200" y="300" width="100" height="50" fill="green" /><rect x="300" y="300" width="100" height="50" fill="green" /><rect x="400" y="300" width="100" height="50" fill="green" /><rect x="500" y="300" width="100" height="50" fill="green" /><rect x="600" y="300" width="100" height="50" fill="green" /><rect x="700" y="300" width="100" height="50" fill="green" /><rect x="800" y="300" width="100" height="50" fill="green" /><rect x="900" y="300" width="100" height="50" fill="green" /><rect x="1000" y="300" width="100" height="50" fill="green" /><rect x="1100" y="300" width="100" height="50" fill="green" /><rect x="1200" y="300" width="100" height="50" fill="green" /><rect x="1300" y="300" width="100" height="50" fill="green" /><rect x="1400" y="300" width="100" height="50" fill="green" /><rect x="0" y="350" width="100" height="50" fill="green" /><rect x="100" y="350" width="100" height="50" fill="green" /><rect x="200" y="350" width="100" height="50" fill="green" /><rect x="300" y="350" width="100" height="50" fill="green" /><rect x="400" y="350" width="100" height="50" fill="green" /><rect x="500" y="350" width="100" height="50" fill="green" /><rect x="600" y="350" width="100" height="50" fill="green" /><rect x="700" y="350" width="100" height="50" fill="green" /><rect x="800" y="350" width="100" height="50" fill="green" /><rect x="900" y="350" width="100" height="50" fill="green" /><rect x="1000" y="350" width="100" height="50" fill="green" /><rect x="1100" y="350" width="100" height="50" fill="green" /><rect x="1200" y="350" width="100" height="50" fill="green" /><rect x="1300" y="350" width="100" height="50" fill="green" /><rect x="1400" y="350" width="100" height="50" fill="green" /><rect x="0" y="400" width="100" height="50" fill="green" /><rect x="100" y="400" width="100" height="50" fill="green" /><rect x="200" y="400" width="100" height="50" fill="green" /><rect x="300" y="400" width="100" height="50" fill="green" /><rect x="400" y="400" width="100" height="50" fill="green" /><rect x="500" y="400" width="100" height="50" fill="green" /><rect x="600" y="400" width="100" height="50" fill="green" /><rect x="700" y="400" width="100" height="50" fill="green" /><rect x="800" y="400" width="100" height="50" fill="green" /><rect x="900" y="400" width="100" height="50" fill="green" /><rect x="1000" y="400" width="100" height="50" fill="green" /><rect x="1100" y="400" width="100" height="50" fill="green" /><rect x="1200" y="400" width="100" height="50" fill="green" /><rect x="1300" y="400" width="100" height="50" fill="green" /><rect x="1400" y="400" width="100" height="50" fill="green" /><rect x="0" y="450" width="100" height="50" fill="green" /><rect x="100" y="450" width="100" height="50" fill="green" /><rect x="200" y="450" width="100" height="50" fill="green" /><rect x="300" y="450" width="100" height="50" fill="green" /><rect x="400" y="450" width="100" height="50" fill="green" /><rect x="500" y="450" width="100" height="50" fill="green" /><rect x="600" y="450" width="100" height="50" fill="green" /><rect x="700" y="450" width="100" height="50" fill="green" /><rect x="800" y="450" width="100" height="50" fill="green" /><rect x="900" y="450" width="100" height="50" fill="green" /><rect x="1000" y="450" width="100" height="50" fill="green" /><rect x="1100" y="450" width="100" height="50" fill="green" /><rect x="1200" y="450" width="100" height="50" fill="green" /><rect x="1300" y="450" width="100" height="50" fill="green" /><rect x="1400" y="450" width="100" height="50" fill="green" /><rect x="0" y="500" width="100" height="50" fill="green" /><rect x="100" y="500" width="100" height="50" fill="green" /><rect x="200" y="500" width="100" height="50" fill="green" /><rect x="300" y="500" width="100" height="50" fill="green" /><rect x="400" y="500" width="100" height="50" fill="green" /><rect x="500" y="500" width="100" height="50" fill="green" /><rect x="600" y="500" width="100" height="50" fill="green" /><rect x="700" y="500" width="100" height="50" fill="green" /><rect x="800" y="500" width="100" height="50" fill="green" /><rect x="900" y="500" width="100" height="50" fill="green" /><rect x="1000" y="500" width="100" height="50" fill="green" /><rect x="1100" y="500" width="100" height="50" fill="green" /><rect x="1200" y="500" width="100" height="50" fill="green" /><rect x="1300" y="500" width="100" height="50" fill="green" /><rect x="1400" y="500" width="100" height="50" fill="green" /><rect x="0" y="550" width="100" height="50" fill="green" /><rect x="100" y="550" width="100" height="50" fill="green" /><rect x="200" y="550" width="100" height="50" fill="green" /><rect x="300" y="550" width="100" height="50" fill="green" /><rect x="400" y="550" width="100" height="50" fill="green" /><rect x="500" y="550" width="100" height="50" fill="green" /><rect x="600" y="550" width="100" height="50" fill="green" /><rect x="700" y="550" width="100" height="50" fill="green" /><rect x="800" y="550" width="100" height="50" fill="green" /><rect x="900" y="550" width="100" height="50" fill="green" /><rect x="1000" y="550" width="100" height="50" fill="green" /><rect x="1100" y="550" width="100" height="50" fill="green" /><rect x="1200" y="550" width="100" height="50" fill="green" /><rect x="1300" y="550" width="100" height="50" fill="green" /><rect x="1400" y="550" width="100" height="50" fill="green" /><rect x="0" y="600" width="100" height="50" fill="green" /><rect x="100" y="600" width="100" height="50" fill="green" /><rect x="200" y="600" width="100" height="50" fill="green" /><rect x="300" y="600" width="100" height="50" fill="green" /><rect x="400" y="600" width="100" height="50" fill="green" /><rect x="500" y="600" width="100" height="50" fill="green" /><rect x="600" y="600" width="100" height="50" fill="green" /><rect x="700" y="600" width="100" height="50" fill="green" /><rect x="800" y="600" width="100" height="50" fill="green" /><rect x="900" y="600" width="100" height="50" fill="green" /><rect x="1000" y="600" width="100" height="50" fill="green" /><rect x="1100" y="600" width="100" height="50" fill="green" /><rect x="1200" y="600" width="100" height="50" fill="green" /><rect x="1300" y="600" width="100" height="50" fill="green" /><rect x="1400" y="600" width="100" height="50" fill="green" /><rect x="0" y="650" width="100" height="50" fill="green" /><rect x="100" y="650" width="100" height="50" fill="green" /><rect x="200" y="650" width="100" height="50" fill="green" /><rect x="300" y="650" width="100" height="50" fill="green" /><rect x="400" y="650" width="100" height="50" fill="green" /><rect x="500" y="650" width="100" height="50" fill="green" /><rect x="600" y="650" width="100" height="50" fill="green" /><rect x="700" y="650" width="100" height="50" fill="green" /><rect x="800" y="650" width="100" height="50" fill="green" /><rect x="900" y="650" width="100" height="50" fill="green" /><rect x="1000" y="650" width="100" height="50" fill="green" /><rect x="1100" y="650" width="100" height="50" fill="green" /><rect x="1200" y="650" width="100" height="50" fill="green" /><rect x="1300" y="650" width="100" height="50" fill="green" /><rect x="1400" y="650" width="100" height="50" fill="green" /></svg>