<svg version="1.1" baseProfile="full" width="549" height="328" xmlns="http://wwww.w3.org/2000/svg">
<rect x="0" y="0" width="549" height="328" fill="red" /><rect x="0" y="0" width="57" height="33" fill="green" /><rect x="57" y="0" width="57" height="33" fill="green" /><rect x="114" y="0" width="57" height="33" fill="green" /><rect x="171" y="0" width="57" height="33" fill="green" /><rect x="228" y="0" width="57" height="33" fill="green" /><rect x="285" y="0" width="57" height="33" fill="green" /><rect x="342" y="0" width="57" height="33" fill="green" /><rect x="399" y="0" width="57" height="33" fill="green" /><rect x="456" y="0" width="57" height="33" fill="green" /><rect x="0" y="33" width="57" height="33" fill="green" /><rect x="57" y="33" width="57" height="33" fill="green" /><rect x="114" y="33" width="57" height="33" fill="green" /><rect x="171" y="33" width="57" height="33" fill="green" /><rect x="228" y="33" width="57" height="33" fill="green" /><rect x="285" y="33" width="57" height="33" fill="green" /><rect x="342" y="33" width="57" height="33" fill="green" /><rect x="399" y="33" width="57" height="33" fill="green" /><rect x="456" y="33" width="57" height="33" fill="green" /><rect x="0" y="66" width="57" height="33" fill="green" /><rect x="57" y="66" width="57" height="33" fill="green" /><rect x="114" y="66" width="57" height="33" fill="green" /><rect x="171" y="66" width="57" height="33" fill="green" /><rect x="228" y="66" width="57" height="33" fill="green" /><rect x="285" y="66" width="57" height="33" fill="green" /><rect x="342" y="66" width="57" height="33" fill="green" /><rect x="399" y="66" width="57" height="33" fill="green" /><rect x="456" y="66" width="57" height="33" fill="green" /><rect x="0" y="99" width="57" height="33" fill="green" /><rect x="57" y="99" width="57" height="33" fill="green" /><rect x="114" y="99" width="57" height="33" fill="green" /><rect x="171" y="99" width="57" height="33" fill="green" /><rect x="228" y="99" width="57" height="33" fill="green" /><rect x="285" y="99" width="57" height="33" fill="green" /><rect x="342" y="99" width="57" height="33" fill="green" /><rect x="399" y="99" width="57" height="33" fill="green" /><rect x="456" y="99" width="57" height="33" fill="green" /><rect x="0" y="132" width="57" height="33" fill="green" /><rect x="57" y="132" width="57" height="33" fill="green" /><rect x="114" y="132" width="57" height="33" fill="green" /><rect x="171" y="132" width="57" height="33" fill="green" /><rect x="228" y="132" width="57" height="33" fill="green" /><rect x="285" y="132" width="57" height="33" fill="green" /><rect x="342" y="132" width="57" height="33" fill="green" /><rect x="399" y="132" width="57" height="33" fill="green" /><rect x="456" y="132" width="57" height="33" fill="green" /><rect x="0" y="165" width="57" height="33" fill="green" /><rect x="57" y="165" width="57" height="33" fill="green" /><rect x="114" y="165" width="57" height="33" fill="green" /><rect x="171" y="165" width="57" height="33" fill="green" /><rect x="228" y="165" width="57" height="33" fill="green" /><rect x="285" y="165" width="57" height="33" fill="green" /><rect x="342" y="165" width="57" height="33" fill="green" /><rect x="399" y="165" width="57" height="33" fill="green" /><rect x="456" y="165" width="57" height="33" fill="green" /><rect x="0" y="198" width="57" height="33" fill="green" /><rect x="57" y="198" width="57" height="33" fill="green" /><rect x="114" y="198" width="57" height="33" fill="green" /><rect x="171" y="198" width="57" height="33" fill="green" /><rect x="228" y="198" width="57" height="33" fill="green" /><rect x="285" y="198" width="57" height="33" fill="green" /><rect x="342" y="198" width="57" height="33" fill="green" /><rect x="399" y="198" width="57" height="33" fill="green" /><rect x="456" y="198" width="57" height="33" fill="green" /><rect x="0" y="231" width="57" height="33" fill="green" /><rect x="57" y="231" width="57" height="33" fill="green" /><rect x="114" y="231" width="57" height="33" fill="green" /><rect x="171" y="231" width="57" height="33" fill="green" /><rect x="228" y="231" width="57" height="33" fill="green" /><rect x="285" y="231" width="57" height="33" fill="green" /><rect x="342" y="231" width="57" height="33" fill="green" /><rect x="399" y="231" width="57" height="33" fill="green" /><rect x="456" y="231" width="57" height="33" fill="green" /><rect x="0" y="264" width="57" height="33" fill="green" /><rect x="57" y="264" width="57" height="33" fill="green" /><rect x="114" y="264" width="57" height="33" fill="green" /><rect x="171" y="264" width="57" height="33" fill="green" /><rect x="228" y="264" width="57" height="33" fill="green" /><rect x="285" y="264" width="57" height="33" fill="green" /><rect x="342" y="264" width="57" height="33" fill="green" /><rect x="399" y="264" width="57" height="33" fill="green" /><rect x="456" y="264" width="57" height="33" fill="green" /></svg>