<svg version="1.1" baseProfile="full" width="23" height="23" xmlns="http://wwww.w3.org/2000/svg">
<polygon points="11,0 0,19.0526 23,19.0526" fill="red" /><polygon points="3,13.8564 0,19.0526 7,19.0526" fill="green"/><polygon points="10,13.8564 7,19.0526 14,19.0526" fill="green"/><polygon points="17,13.8564 14,19.0526 21,19.0526" fill="green"/><polygon points="7,19.0526 3,13.8564 10,13.8564" fill="green"/><polygon points="14,19.0526 10,13.8564 17,13.8564" fill="green"/><polygon points="6,8.66025 3,13.8564 10,13.8564" fill="green"/><polygon points="13,8.66025 10,13.8564 17,13.8564" fill="green"/><polygon points="10,13.8564 6,8.66025 13,8.66025" fill="green"/><polygon points="9,3.4641 6,8.66025 13,8.66025" fill="green"/></svg>