<svg version="1.1" baseProfile="full" width="1050" height="1050" xmlns="http://wwww.w3.org/2000/svg">
<polygon points="525,0 0,909.327 1050,909.327" fill="red" /><polygon points="48,826.188 0,909.327 97,909.327" fill="green"/><polygon points="145,826.188 97,909.327 194,909.327" fill="green"/><polygon points="242,826.188 194,909.327 291,909.327" fill="green"/><polygon points="339,826.188 291,909.327 388,909.327" fill="green"/><polygon points="436,826.188 388,909.327 485,909.327" fill="green"/><polygon points="533,826.188 485,909.327 582,909.327" fill="green"/><polygon points="630,826.188 582,909.327 679,909.327" fill="green"/><polygon points="727,826.188 679,909.327 776,909.327" fill="green"/><polygon points="824,826.188 776,909.327 873,909.327" fill="green"/><polygon points="921,826.188 873,909.327 970,909.327" fill="green"/><polygon points="97,909.327 48,826.188 145,826.188" fill="green"/><polygon points="194,909.327 145,826.188 242,826.188" fill="green"/><polygon points="291,909.327 242,826.188 339,826.188" fill="green"/><polygon points="388,909.327 339,826.188 436,826.188" fill="green"/><polygon points="485,909.327 436,826.188 533,826.188" fill="green"/><polygon points="582,909.327 533,826.188 630,826.188" fill="green"/><polygon points="679,909.327 630,826.188 727,826.188" fill="green"/><polygon points="776,909.327 727,826.188 824,826.188" fill="green"/><polygon points="873,909.327 824,826.188 921,826.188" fill="green"/><polygon points="96,743.05 48,826.188 145,826.188" fill="green"/><polygon points="193,743.05 145,826.188 242,826.188" fill="green"/><polygon points="290,743.05 242,826.188 339,826.188" fill="green"/><polygon points="387,743.05 339,826.188 436,826.188" fill="green"/><polygon points="484,743.05 436,826.188 533,826.188" fill="green"/><polygon points="581,743.05 533,826.188 630,826.188" fill="green"/><polygon points="678,743.05 630,826.188 727,826.188" fill="green"/><polygon points="775,743.05 727,826.188 824,826.188" fill="green"/><polygon points="872,743.05 824,826.188 921,826.188" fill="green"/><polygon points="145,826.188 96,743.05 193,743.05" fill="green"/><polygon points="242,826.188 193,743.05 290,743.05" fill="green"/><polygon points="339,826.188 290,743.05 387,743.05" fill="green"/><polygon points="436,826.188 387,743.05 484,743.05" fill="green"/><polygon points="533,826.188 484,743.05 581,743.05" fill="green"/><polygon points="630,826.188 581,743.05 678,743.05" fill="green"/><polygon points="727,826.188 678,743.05 775,743.05" fill="green"/><polygon points="824,826.188 775,743.05 872,743.05" fill="green"/><polygon points="144,659.911 96,743.05 193,743.05" fill="green"/><polygon points="241,659.911 193,743.05 290,743.05" fill="green"/><polygon points="338,659.911 290,743.05 387,743.05" fill="green"/><polygon points="435,659.911 387,743.05 484,743.05" fill="green"/><polygon points="532,659.911 484,743.05 581,743.05" fill="green"/><polygon points="629,659.911 581,743.05 678,743.05" fill="green"/><polygon points="726,659.911 678,743.05 775,743.05" fill="green"/><polygon points="823,659.911 775,743.05 872,743.05" fill="green"/><polygon points="193,743.05 144,659.911 241,659.911" fill="green"/><polygon points="290,743.05 241,659.911 338,659.911" fill="green"/><polygon points="387,743.05 338,659.911 435,659.911" fill="green"/><polygon points="484,743.05 435,659.911 532,659.911" fill="green"/><polygon points="581,743.05 532,659.911 629,659.911" fill="green"/><polygon points="678,743.05 629,659.911 726,659.911" fill="green"/><polygon points="775,743.05 726,659.911 823,659.911" fill="green"/><polygon points="192,576.773 144,659.911 241,659.911" fill="green"/><polygon points="289,576.773 241,659.911 338,659.911" fill="green"/><polygon points="386,576.773 338,659.911 435,659.911" fill="green"/><polygon points="483,576.773 435,659.911 532,659.911" fill="green"/><polygon points="580,576.773 532,659.911 629,659.911" fill="green"/><polygon points="677,576.773 629,659.911 726,659.911" fill="green"/><polygon points="774,576.773 726,659.911 823,659.911" fill="green"/><polygon points="241,659.911 192,576.773 289,576.773" fill="green"/><polygon points="338,659.911 289,576.773 386,576.773" fill="green"/><polygon points="435,659.911 386,576.773 483,576.773" fill="green"/><polygon points="532,659.911 483,576.773 580,576.773" fill="green"/><polygon points="629,659.911 580,576.773 677,576.773" fill="green"/><polygon points="726,659.911 677,576.773 774,576.773" fill="green"/><polygon points="240,493.634 192,576.773 289,576.773" fill="green"/><polygon points="337,493.634 289,576.773 386,576.773" fill="green"/><polygon points="434,493.634 386,576.773 483,576.773" fill="green"/><polygon points="531,493.634 483,576.773 580,576.773" fill="green"/><polygon points="628,493.634 580,576.773 677,576.773" fill="green"/><polygon points="725,493.634 677,576.773 774,576.773" fill="green"/><polygon points="289,576.773 240,493.634 337,493.634" fill="green"/><polygon points="386,576.773 337,493.634 434,493.634" fill="green"/><polygon points="483,576.773 434,493.634 531,493.634" fill="green"/><polygon points="580,576.773 531,493.634 628,493.634" fill="green"/><polygon points="677,576.773 628,493.634 725,493.634" fill="green"/><polygon points="288,410.496 240,493.634 337,493.634" fill="green"/><polygon points="385,410.496 337,493.634 434,493.634" fill="green"/><polygon points="482,410.496 434,493.634 531,493.634" fill="green"/><polygon points="579,410.496 531,493.634 628,493.634" fill="green"/><polygon points="676,410.496 628,493.634 725,493.634" fill="green"/><polygon points="337,493.634 288,410.496 385,410.496" fill="green"/><polygon points="434,493.634 385,410.496 482,410.496" fill="green"/><polygon points="531,493.634 482,410.496 579,410.496" fill="green"/><polygon points="628,493.634 579,410.496 676,410.496" fill="green"/><polygon points="336,327.358 288,410.496 385,410.496" fill="green"/><polygon points="433,327.358 385,410.496 482,410.496" fill="green"/><polygon points="530,327.358 482,410.496 579,410.496" fill="green"/><polygon points="627,327.358 579,410.496 676,410.496" fill="green"/><polygon points="385,410.496 336,327.358 433,327.358" fill="green"/><polygon points="482,410.496 433,327.358 530,327.358" fill="green"/><polygon points="579,410.496 530,327.358 627,327.358" fill="green"/><polygon points="384,244.219 336,327.358 433,327.358" fill="green"/><polygon points="481,244.219 433,327.358 530,327.358" fill="green"/><polygon points="578,244.219 530,327.358 627,327.358" fill="green"/><polygon points="433,327.358 384,244.219 481,244.219" fill="green"/><polygon points="530,327.358 481,244.219 578,244.219" fill="green"/><polygon points="432,161.081 384,244.219 481,244.219" fill="green"/><polygon points="529,161.081 481,244.219 578,244.219" fill="green"/><polygon points="481,244.219 432,161.081 529,161.081" fill="green"/><polygon points="480,77.9423 432,161.081 529,161.081" fill="green"/></svg>