<svg version="1.1" baseProfile="full" width="1000" height="700" xmlns="http://wwww.w3.org/2000/svg">
<rect x="0" y="0" width="1000" height="700" fill="red" /><polygon points="22,38 0,0 45,0" fill="green"/><polygon points="67,38 45,0 90,0" fill="green"/><polygon points="112,38 90,0 135,0" fill="green"/><polygon points="157,38 135,0 180,0" fill="green"/><polygon points="202,38 180,0 225,0" fill="green"/><polygon points="247,38 225,0 270,0" fill="green"/><polygon points="292,38 270,0 315,0" fill="green"/><polygon points="337,38 315,0 360,0" fill="green"/><polygon points="382,38 360,0 405,0" fill="green"/><polygon points="427,38 405,0 450,0" fill="green"/><polygon points="472,38 450,0 495,0" fill="green"/><polygon points="517,38 495,0 540,0" fill="green"/><polygon points="562,38 540,0 585,0" fill="green"/><polygon points="607,38 585,0 630,0" fill="green"/><polygon points="652,38 630,0 675,0" fill="green"/><polygon points="697,38 675,0 720,0" fill="green"/><polygon points="742,38 720,0 765,0" fill="green"/><polygon points="787,38 765,0 810,0" fill="green"/><polygon points="832,38 810,0 855,0" fill="green"/><polygon points="877,38 855,0 900,0" fill="green"/><polygon points="922,38 900,0 945,0" fill="green"/><polygon points="967,38 945,0 990,0" fill="green"/><polygon points="45,0 22,38 67,38" fill="green"/><polygon points="90,0 67,38 112,38" fill="green"/><polygon points="135,0 112,38 157,38" fill="green"/><polygon points="180,0 157,38 202,38" fill="green"/><polygon points="225,0 202,38 247,38" fill="green"/><polygon points="270,0 247,38 292,38" fill="green"/><polygon points="315,0 292,38 337,38" fill="green"/><polygon points="360,0 337,38 382,38" fill="green"/><polygon points="405,0 382,38 427,38" fill="green"/><polygon points="450,0 427,38 472,38" fill="green"/><polygon points="495,0 472,38 517,38" fill="green"/><polygon points="540,0 517,38 562,38" fill="green"/><polygon points="585,0 562,38 607,38" fill="green"/><polygon points="630,0 607,38 652,38" fill="green"/><polygon points="675,0 652,38 697,38" fill="green"/><polygon points="720,0 697,38 742,38" fill="green"/><polygon points="765,0 742,38 787,38" fill="green"/><polygon points="810,0 787,38 832,38" fill="green"/><polygon points="855,0 832,38 877,38" fill="green"/><polygon points="900,0 877,38 922,38" fill="green"/><polygon points="945,0 922,38 967,38" fill="green"/><polygon points="22,76 0,38 45,38" fill="green"/><polygon points="67,76 45,38 90,38" fill="green"/><polygon points="112,76 90,38 135,38" fill="green"/><polygon points="157,76 135,38 180,38" fill="green"/><polygon points="202,76 180,38 225,38" fill="green"/><polygon points="247,76 225,38 270,38" fill="green"/><polygon points="292,76 270,38 315,38" fill="green"/><polygon points="337,76 315,38 360,38" fill="green"/><polygon points="382,76 360,38 405,38" fill="green"/><polygon points="427,76 405,38 450,38" fill="green"/><polygon points="472,76 450,38 495,38" fill="green"/><polygon points="517,76 495,38 540,38" fill="green"/><polygon points="562,76 540,38 585,38" fill="green"/><polygon points="607,76 585,38 630,38" fill="green"/><polygon points="652,76 630,38 675,38" fill="green"/><polygon points="697,76 675,38 720,38" fill="green"/><polygon points="742,76 720,38 765,38" fill="green"/><polygon points="787,76 765,38 810,38" fill="green"/><polygon points="832,76 810,38 855,38" fill="green"/><polygon points="877,76 855,38 900,38" fill="green"/><polygon points="922,76 900,38 945,38" fill="green"/><polygon points="967,76 945,38 990,38" fill="green"/><polygon points="45,38 22,76 67,76" fill="green"/><polygon points="90,38 67,76 112,76" fill="green"/><polygon points="135,38 112,76 157,76" fill="green"/><polygon points="180,38 157,76 202,76" fill="green"/><polygon points="225,38 202,76 247,76" fill="green"/><polygon points="270,38 247,76 292,76" fill="green"/><polygon points="315,38 292,76 337,76" fill="green"/><polygon points="360,38 337,76 382,76" fill="green"/><polygon points="405,38 382,76 427,76" fill="green"/><polygon points="450,38 427,76 472,76" fill="green"/><polygon points="495,38 472,76 517,76" fill="green"/><polygon points="540,38 517,76 562,76" fill="green"/><polygon points="585,38 562,76 607,76" fill="green"/><polygon points="630,38 607,76 652,76" fill="green"/><polygon points="675,38 652,76 697,76" fill="green"/><polygon points="720,38 697,76 742,76" fill="green"/><polygon points="765,38 742,76 787,76" fill="green"/><polygon points="810,38 787,76 832,76" fill="green"/><polygon points="855,38 832,76 877,76" fill="green"/><polygon points="900,38 877,76 922,76" fill="green"/><polygon points="945,38 922,76 967,76" fill="green"/><polygon points="22,114 0,76 45,76" fill="green"/><polygon points="67,114 45,76 90,76" fill="green"/><polygon points="112,114 90,76 135,76" fill="green"/><polygon points="157,114 135,76 180,76" fill="green"/><polygon points="202,114 180,76 225,76" fill="green"/><polygon points="247,114 225,76 270,76" fill="green"/><polygon points="292,114 270,76 315,76" fill="green"/><polygon points="337,114 315,76 360,76" fill="green"/><polygon points="382,114 360,76 405,76" fill="green"/><polygon points="427,114 405,76 450,76" fill="green"/><polygon points="472,114 450,76 495,76" fill="green"/><polygon points="517,114 495,76 540,76" fill="green"/><polygon points="562,114 540,76 585,76" fill="green"/><polygon points="607,114 585,76 630,76" fill="green"/><polygon points="652,114 630,76 675,76" fill="green"/><polygon points="697,114 675,76 720,76" fill="green"/><polygon points="742,114 720,76 765,76" fill="green"/><polygon points="787,114 765,76 810,76" fill="green"/><polygon points="832,114 810,76 855,76" fill="green"/><polygon points="877,114 855,76 900,76" fill="green"/><polygon points="922,114 900,76 945,76" fill="green"/><polygon points="967,114 945,76 990,76" fill="green"/><polygon points="45,76 22,114 67,114" fill="green"/><polygon points="90,76 67,114 112,114" fill="green"/><polygon points="135,76 112,114 157,114" fill="green"/><polygon points="180,76 157,114 202,114" fill="green"/><polygon points="225,76 202,114 247,114" fill="green"/><polygon points="270,76 247,114 292,114" fill="green"/><polygon points="315,76 292,114 337,114" fill="green"/><polygon points="360,76 337,114 382,114" fill="green"/><polygon points="405,76 382,114 427,114" fill="green"/><polygon points="450,76 427,114 472,114" fill="green"/><polygon points="495,76 472,114 517,114" fill="green"/><polygon points="540,76 517,114 562,114" fill="green"/><polygon points="585,76 562,114 607,114" fill="green"/><polygon points="630,76 607,114 652,114" fill="green"/><polygon points="675,76 652,114 697,114" fill="green"/><polygon points="720,76 697,114 742,114" fill="green"/><polygon points="765,76 742,114 787,114" fill="green"/><polygon points="810,76 787,114 832,114" fill="green"/><polygon points="855,76 832,114 877,114" fill="green"/><polygon points="900,76 877,114 922,114" fill="green"/><polygon points="945,76 922,114 967,114" fill="green"/><polygon points="22,152 0,114 45,114" fill="green"/><polygon points="67,152 45,114 90,114" fill="green"/><polygon points="112,152 90,114 135,114" fill="green"/><polygon points="157,152 135,114 180,114" fill="green"/><polygon points="202,152 180,114 225,114" fill="green"/><polygon points="247,152 225,114 270,114" fill="green"/><polygon points="292,152 270,114 315,114" fill="green"/><polygon points="337,152 315,114 360,114" fill="green"/><polygon points="382,152 360,114 405,114" fill="green"/><polygon points="427,152 405,114 450,114" fill="green"/><polygon points="472,152 450,114 495,114" fill="green"/><polygon points="517,152 495,114 540,114" fill="green"/><polygon points="562,152 540,114 585,114" fill="green"/><polygon points="607,152 585,114 630,114" fill="green"/><polygon points="652,152 630,114 675,114" fill="green"/><polygon points="697,152 675,114 720,114" fill="green"/><polygon points="742,152 720,114 765,114" fill="green"/><polygon points="787,152 765,114 810,114" fill="green"/><polygon points="832,152 810,114 855,114" fill="green"/><polygon points="877,152 855,114 900,114" fill="green"/><polygon points="922,152 900,114 945,114" fill="green"/><polygon points="967,152 945,114 990,114" fill="green"/><polygon points="45,114 22,152 67,152" fill="green"/><polygon points="90,114 67,152 112,152" fill="green"/><polygon points="135,114 112,152 157,152" fill="green"/><polygon points="180,114 157,152 202,152" fill="green"/><polygon points="225,114 202,152 247,152" fill="green"/><polygon points="270,114 247,152 292,152" fill="green"/><polygon points="315,114 292,152 337,152" fill="green"/><polygon points="360,114 337,152 382,152" fill="green"/><polygon points="405,114 382,152 427,152" fill="green"/><polygon points="450,114 427,152 472,152" fill="green"/><polygon points="495,114 472,152 517,152" fill="green"/><polygon points="540,114 517,152 562,152" fill="green"/><polygon points="585,114 562,152 607,152" fill="green"/><polygon points="630,114 607,152 652,152" fill="green"/><polygon points="675,114 652,152 697,152" fill="green"/><polygon points="720,114 697,152 742,152" fill="green"/><polygon points="765,114 742,152 787,152" fill="green"/><polygon points="810,114 787,152 832,152" fill="green"/><polygon points="855,114 832,152 877,152" fill="green"/><polygon points="900,114 877,152 922,152" fill="green"/><polygon points="945,114 922,152 967,152" fill="green"/><polygon points="22,190 0,152 45,152" fill="green"/><polygon points="67,190 45,152 90,152" fill="green"/><polygon points="112,190 90,152 135,152" fill="green"/><polygon points="157,190 135,152 180,152" fill="green"/><polygon points="202,190 180,152 225,152" fill="green"/><polygon points="247,190 225,152 270,152" fill="green"/><polygon points="292,190 270,152 315,152" fill="green"/><polygon points="337,190 315,152 360,152" fill="green"/><polygon points="382,190 360,152 405,152" fill="green"/><polygon points="427,190 405,152 450,152" fill="green"/><polygon points="472,190 450,152 495,152" fill="green"/><polygon points="517,190 495,152 540,152" fill="green"/><polygon points="562,190 540,152 585,152" fill="green"/><polygon points="607,190 585,152 630,152" fill="green"/><polygon points="652,190 630,152 675,152" fill="green"/><polygon points="697,190 675,152 720,152" fill="green"/><polygon points="742,190 720,152 765,152" fill="green"/><polygon points="787,190 765,152 810,152" fill="green"/><polygon points="832,190 810,152 855,152" fill="green"/><polygon points="877,190 855,152 900,152" fill="green"/><polygon points="922,190 900,152 945,152" fill="green"/><polygon points="967,190 945,152 990,152" fill="green"/><polygon points="45,152 22,190 67,190" fill="green"/><polygon points="90,152 67,190 112,190" fill="green"/><polygon points="135,152 112,190 157,190" fill="green"/><polygon points="180,152 157,190 202,190" fill="green"/><polygon points="225,152 202,190 247,190" fill="green"/><polygon points="270,152 247,190 292,190" fill="green"/><polygon points="315,152 292,190 337,190" fill="green"/><polygon points="360,152 337,190 382,190" fill="green"/><polygon points="405,152 382,190 427,190" fill="green"/><polygon points="450,152 427,190 472,190" fill="green"/><polygon points="495,152 472,190 517,190" fill="green"/><polygon points="540,152 517,190 562,190" fill="green"/><polygon points="585,152 562,190 607,190" fill="green"/><polygon points="630,152 607,190 652,190" fill="green"/><polygon points="675,152 652,190 697,190" fill="green"/><polygon points="720,152 697,190 742,190" fill="green"/><polygon points="765,152 742,190 787,190" fill="green"/><polygon points="810,152 787,190 832,190" fill="green"/><polygon points="855,152 832,190 877,190" fill="green"/><polygon points="900,152 877,190 922,190" fill="green"/><polygon points="945,152 922,190 967,190" fill="green"/><polygon points="22,228 0,190 45,190" fill="green"/><polygon points="67,228 45,190 90,190" fill="green"/><polygon points="112,228 90,190 135,190" fill="green"/><polygon points="157,228 135,190 180,190" fill="green"/><polygon points="202,228 180,190 225,190" fill="green"/><polygon points="247,228 225,190 270,190" fill="green"/><polygon points="292,228 270,190 315,190" fill="green"/><polygon points="337,228 315,190 360,190" fill="green"/><polygon points="382,228 360,190 405,190" fill="green"/><polygon points="427,228 405,190 450,190" fill="green"/><polygon points="472,228 450,190 495,190" fill="green"/><polygon points="517,228 495,190 540,190" fill="green"/><polygon points="562,228 540,190 585,190" fill="green"/><polygon points="607,228 585,190 630,190" fill="green"/><polygon points="652,228 630,190 675,190" fill="green"/><polygon points="697,228 675,190 720,190" fill="green"/><polygon points="742,228 720,190 765,190" fill="green"/><polygon points="787,228 765,190 810,190" fill="green"/><polygon points="832,228 810,190 855,190" fill="green"/><polygon points="877,228 855,190 900,190" fill="green"/><polygon points="922,228 900,190 945,190" fill="green"/><polygon points="967,228 945,190 990,190" fill="green"/><polygon points="45,190 22,228 67,228" fill="green"/><polygon points="90,190 67,228 112,228" fill="green"/><polygon points="135,190 112,228 157,228" fill="green"/><polygon points="180,190 157,228 202,228" fill="green"/><polygon points="225,190 202,228 247,228" fill="green"/><polygon points="270,190 247,228 292,228" fill="green"/><polygon points="315,190 292,228 337,228" fill="green"/><polygon points="360,190 337,228 382,228" fill="green"/><polygon points="405,190 382,228 427,228" fill="green"/><polygon points="450,190 427,228 472,228" fill="green"/><polygon points="495,190 472,228 517,228" fill="green"/><polygon points="540,190 517,228 562,228" fill="green"/><polygon points="585,190 562,228 607,228" fill="green"/><polygon points="630,190 607,228 652,228" fill="green"/><polygon points="675,190 652,228 697,228" fill="green"/><polygon points="720,190 697,228 742,228" fill="green"/><polygon points="765,190 742,228 787,228" fill="green"/><polygon points="810,190 787,228 832,228" fill="green"/><polygon points="855,190 832,228 877,228" fill="green"/><polygon points="900,190 877,228 922,228" fill="green"/><polygon points="945,190 922,228 967,228" fill="green"/><polygon points="22,266 0,228 45,228" fill="green"/><polygon points="67,266 45,228 90,228" fill="green"/><polygon points="112,266 90,228 135,228" fill="green"/><polygon points="157,266 135,228 180,228" fill="green"/><polygon points="202,266 180,228 225,228" fill="green"/><polygon points="247,266 225,228 270,228" fill="green"/><polygon points="292,266 270,228 315,228" fill="green"/><polygon points="337,266 315,228 360,228" fill="green"/><polygon points="382,266 360,228 405,228" fill="green"/><polygon points="427,266 405,228 450,228" fill="green"/><polygon points="472,266 450,228 495,228" fill="green"/><polygon points="517,266 495,228 540,228" fill="green"/><polygon points="562,266 540,228 585,228" fill="green"/><polygon points="607,266 585,228 630,228" fill="green"/><polygon points="652,266 630,228 675,228" fill="green"/><polygon points="697,266 675,228 720,228" fill="green"/><polygon points="742,266 720,228 765,228" fill="green"/><polygon points="787,266 765,228 810,228" fill="green"/><polygon points="832,266 810,228 855,228" fill="green"/><polygon points="877,266 855,228 900,228" fill="green"/><polygon points="922,266 900,228 945,228" fill="green"/><polygon points="967,266 945,228 990,228" fill="green"/><polygon points="45,228 22,266 67,266" fill="green"/><polygon points="90,228 67,266 112,266" fill="green"/><polygon points="135,228 112,266 157,266" fill="green"/><polygon points="180,228 157,266 202,266" fill="green"/><polygon points="225,228 202,266 247,266" fill="green"/><polygon points="270,228 247,266 292,266" fill="green"/><polygon points="315,228 292,266 337,266" fill="green"/><polygon points="360,228 337,266 382,266" fill="green"/><polygon points="405,228 382,266 427,266" fill="green"/><polygon points="450,228 427,266 472,266" fill="green"/><polygon points="495,228 472,266 517,266" fill="green"/><polygon points="540,228 517,266 562,266" fill="green"/><polygon points="585,228 562,266 607,266" fill="green"/><polygon points="630,228 607,266 652,266" fill="green"/><polygon points="675,228 652,266 697,266" fill="green"/><polygon points="720,228 697,266 742,266" fill="green"/><polygon points="765,228 742,266 787,266" fill="green"/><polygon points="810,228 787,266 832,266" fill="green"/><polygon points="855,228 832,266 877,266" fill="green"/><polygon points="900,228 877,266 922,266" fill="green"/><polygon points="945,228 922,266 967,266" fill="green"/><polygon points="22,304 0,266 45,266" fill="green"/><polygon points="67,304 45,266 90,266" fill="green"/><polygon points="112,304 90,266 135,266" fill="green"/><polygon points="157,304 135,266 180,266" fill="green"/><polygon points="202,304 180,266 225,266" fill="green"/><polygon points="247,304 225,266 270,266" fill="green"/><polygon points="292,304 270,266 315,266" fill="green"/><polygon points="337,304 315,266 360,266" fill="green"/><polygon points="382,304 360,266 405,266" fill="green"/><polygon points="427,304 405,266 450,266" fill="green"/><polygon points="472,304 450,266 495,266" fill="green"/><polygon points="517,304 495,266 540,266" fill="green"/><polygon points="562,304 540,266 585,266" fill="green"/><polygon points="607,304 585,266 630,266" fill="green"/><polygon points="652,304 630,266 675,266" fill="green"/><polygon points="697,304 675,266 720,266" fill="green"/><polygon points="742,304 720,266 765,266" fill="green"/><polygon points="787,304 765,266 810,266" fill="green"/><polygon points="832,304 810,266 855,266" fill="green"/><polygon points="877,304 855,266 900,266" fill="green"/><polygon points="922,304 900,266 945,266" fill="green"/><polygon points="967,304 945,266 990,266" fill="green"/><polygon points="45,266 22,304 67,304" fill="green"/><polygon points="90,266 67,304 112,304" fill="green"/><polygon points="135,266 112,304 157,304" fill="green"/><polygon points="180,266 157,304 202,304" fill="green"/><polygon points="225,266 202,304 247,304" fill="green"/><polygon points="270,266 247,304 292,304" fill="green"/><polygon points="315,266 292,304 337,304" fill="green"/><polygon points="360,266 337,304 382,304" fill="green"/><polygon points="405,266 382,304 427,304" fill="green"/><polygon points="450,266 427,304 472,304" fill="green"/><polygon points="495,266 472,304 517,304" fill="green"/><polygon points="540,266 517,304 562,304" fill="green"/><polygon points="585,266 562,304 607,304" fill="green"/><polygon points="630,266 607,304 652,304" fill="green"/><polygon points="675,266 652,304 697,304" fill="green"/><polygon points="720,266 697,304 742,304" fill="green"/><polygon points="765,266 742,304 787,304" fill="green"/><polygon points="810,266 787,304 832,304" fill="green"/><polygon points="855,266 832,304 877,304" fill="green"/><polygon points="900,266 877,304 922,304" fill="green"/><polygon points="945,266 922,304 967,304" fill="green"/><polygon points="22,342 0,304 45,304" fill="green"/><polygon points="67,342 45,304 90,304" fill="green"/><polygon points="112,342 90,304 135,304" fill="green"/><polygon points="157,342 135,304 180,304" fill="green"/><polygon points="202,342 180,304 225,304" fill="green"/><polygon points="247,342 225,304 270,304" fill="green"/><polygon points="292,342 270,304 315,304" fill="green"/><polygon points="337,342 315,304 360,304" fill="green"/><polygon points="382,342 360,304 405,304" fill="green"/><polygon points="427,342 405,304 450,304" fill="green"/><polygon points="472,342 450,304 495,304" fill="green"/><polygon points="517,342 495,304 540,304" fill="green"/><polygon points="562,342 540,304 585,304" fill="green"/><polygon points="607,342 585,304 630,304" fill="green"/><polygon points="652,342 630,304 675,304" fill="green"/><polygon points="697,342 675,304 720,304" fill="green"/><polygon points="742,342 720,304 765,304" fill="green"/><polygon points="787,342 765,304 810,304" fill="green"/><polygon points="832,342 810,304 855,304" fill="green"/><polygon points="877,342 855,304 900,304" fill="green"/><polygon points="922,342 900,304 945,304" fill="green"/><polygon points="967,342 945,304 990,304" fill="green"/><polygon points="45,304 22,342 67,342" fill="green"/><polygon points="90,304 67,342 112,342" fill="green"/><polygon points="135,304 112,342 157,342" fill="green"/><polygon points="180,304 157,342 202,342" fill="green"/><polygon points="225,304 202,342 247,342" fill="green"/><polygon points="270,304 247,342 292,342" fill="green"/><polygon points="315,304 292,342 337,342" fill="green"/><polygon points="360,304 337,342 382,342" fill="green"/><polygon points="405,304 382,342 427,342" fill="green"/><polygon points="450,304 427,342 472,342" fill="green"/><polygon points="495,304 472,342 517,342" fill="green"/><polygon points="540,304 517,342 562,342" fill="green"/><polygon points="585,304 562,342 607,342" fill="green"/><polygon points="630,304 607,342 652,342" fill="green"/><polygon points="675,304 652,342 697,342" fill="green"/><polygon points="720,304 697,342 742,342" fill="green"/><polygon points="765,304 742,342 787,342" fill="green"/><polygon points="810,304 787,342 832,342" fill="green"/><polygon points="855,304 832,342 877,342" fill="green"/><polygon points="900,304 877,342 922,342" fill="green"/><polygon points="945,304 922,342 967,342" fill="green"/><polygon points="22,380 0,342 45,342" fill="green"/><polygon points="67,380 45,342 90,342" fill="green"/><polygon points="112,380 90,342 135,342" fill="green"/><polygon points="157,380 135,342 180,342" fill="green"/><polygon points="202,380 180,342 225,342" fill="green"/><polygon points="247,380 225,342 270,342" fill="green"/><polygon points="292,380 270,342 315,342" fill="green"/><polygon points="337,380 315,342 360,342" fill="green"/><polygon points="382,380 360,342 405,342" fill="green"/><polygon points="427,380 405,342 450,342" fill="green"/><polygon points="472,380 450,342 495,342" fill="green"/><polygon points="517,380 495,342 540,342" fill="green"/><polygon points="562,380 540,342 585,342" fill="green"/><polygon points="607,380 585,342 630,342" fill="green"/><polygon points="652,380 630,342 675,342" fill="green"/><polygon points="697,380 675,342 720,342" fill="green"/><polygon points="742,380 720,342 765,342" fill="green"/><polygon points="787,380 765,342 810,342" fill="green"/><polygon points="832,380 810,342 855,342" fill="green"/><polygon points="877,380 855,342 900,342" fill="green"/><polygon points="922,380 900,342 945,342" fill="green"/><polygon points="967,380 945,342 990,342" fill="green"/><polygon points="45,342 22,380 67,380" fill="green"/><polygon points="90,342 67,380 112,380" fill="green"/><polygon points="135,342 112,380 157,380" fill="green"/><polygon points="180,342 157,380 202,380" fill="green"/><polygon points="225,342 202,380 247,380" fill="green"/><polygon points="270,342 247,380 292,380" fill="green"/><polygon points="315,342 292,380 337,380" fill="green"/><polygon points="360,342 337,380 382,380" fill="green"/><polygon points="405,342 382,380 427,380" fill="green"/><polygon points="450,342 427,380 472,380" fill="green"/><polygon points="495,342 472,380 517,380" fill="green"/><polygon points="540,342 517,380 562,380" fill="green"/><polygon points="585,342 562,380 607,380" fill="green"/><polygon points="630,342 607,380 652,380" fill="green"/><polygon points="675,342 652,380 697,380" fill="green"/><polygon points="720,342 697,380 742,380" fill="green"/><polygon points="765,342 742,380 787,380" fill="green"/><polygon points="810,342 787,380 832,380" fill="green"/><polygon points="855,342 832,380 877,380" fill="green"/><polygon points="900,342 877,380 922,380" fill="green"/><polygon points="945,342 922,380 967,380" fill="green"/><polygon points="22,418 0,380 45,380" fill="green"/><polygon points="67,418 45,380 90,380" fill="green"/><polygon points="112,418 90,380 135,380" fill="green"/><polygon points="157,418 135,380 180,380" fill="green"/><polygon points="202,418 180,380 225,380" fill="green"/><polygon points="247,418 225,380 270,380" fill="green"/><polygon points="292,418 270,380 315,380" fill="green"/><polygon points="337,418 315,380 360,380" fill="green"/><polygon points="382,418 360,380 405,380" fill="green"/><polygon points="427,418 405,380 450,380" fill="green"/><polygon points="472,418 450,380 495,380" fill="green"/><polygon points="517,418 495,380 540,380" fill="green"/><polygon points="562,418 540,380 585,380" fill="green"/><polygon points="607,418 585,380 630,380" fill="green"/><polygon points="652,418 630,380 675,380" fill="green"/><polygon points="697,418 675,380 720,380" fill="green"/><polygon points="742,418 720,380 765,380" fill="green"/><polygon points="787,418 765,380 810,380" fill="green"/><polygon points="832,418 810,380 855,380" fill="green"/><polygon points="877,418 855,380 900,380" fill="green"/><polygon points="922,418 900,380 945,380" fill="green"/><polygon points="967,418 945,380 990,380" fill="green"/><polygon points="45,380 22,418 67,418" fill="green"/><polygon points="90,380 67,418 112,418" fill="green"/><polygon points="135,380 112,418 157,418" fill="green"/><polygon points="180,380 157,418 202,418" fill="green"/><polygon points="225,380 202,418 247,418" fill="green"/><polygon points="270,380 247,418 292,418" fill="green"/><polygon points="315,380 292,418 337,418" fill="green"/><polygon points="360,380 337,418 382,418" fill="green"/><polygon points="405,380 382,418 427,418" fill="green"/><polygon points="450,380 427,418 472,418" fill="green"/><polygon points="495,380 472,418 517,418" fill="green"/><polygon points="540,380 517,418 562,418" fill="green"/><polygon points="585,380 562,418 607,418" fill="green"/><polygon points="630,380 607,418 652,418" fill="green"/><polygon points="675,380 652,418 697,418" fill="green"/><polygon points="720,380 697,418 742,418" fill="green"/><polygon points="765,380 742,418 787,418" fill="green"/><polygon points="810,380 787,418 832,418" fill="green"/><polygon points="855,380 832,418 877,418" fill="green"/><polygon points="900,380 877,418 922,418" fill="green"/><polygon points="945,380 922,418 967,418" fill="green"/><polygon points="22,456 0,418 45,418" fill="green"/><polygon points="67,456 45,418 90,418" fill="green"/><polygon points="112,456 90,418 135,418" fill="green"/><polygon points="157,456 135,418 180,418" fill="green"/><polygon points="202,456 180,418 225,418" fill="green"/><polygon points="247,456 225,418 270,418" fill="green"/><polygon points="292,456 270,418 315,418" fill="green"/><polygon points="337,456 315,418 360,418" fill="green"/><polygon points="382,456 360,418 405,418" fill="green"/><polygon points="427,456 405,418 450,418" fill="green"/><polygon points="472,456 450,418 495,418" fill="green"/><polygon points="517,456 495,418 540,418" fill="green"/><polygon points="562,456 540,418 585,418" fill="green"/><polygon points="607,456 585,418 630,418" fill="green"/><polygon points="652,456 630,418 675,418" fill="green"/><polygon points="697,456 675,418 720,418" fill="green"/><polygon points="742,456 720,418 765,418" fill="green"/><polygon points="787,456 765,418 810,418" fill="green"/><polygon points="832,456 810,418 855,418" fill="green"/><polygon points="877,456 855,418 900,418" fill="green"/><polygon points="922,456 900,418 945,418" fill="green"/><polygon points="967,456 945,418 990,418" fill="green"/><polygon points="45,418 22,456 67,456" fill="green"/><polygon points="90,418 67,456 112,456" fill="green"/><polygon points="135,418 112,456 157,456" fill="green"/><polygon points="180,418 157,456 202,456" fill="green"/><polygon points="225,418 202,456 247,456" fill="green"/><polygon points="270,418 247,456 292,456" fill="green"/><polygon points="315,418 292,456 337,456" fill="green"/><polygon points="360,418 337,456 382,456" fill="green"/><polygon points="405,418 382,456 427,456" fill="green"/><polygon points="450,418 427,456 472,456" fill="green"/><polygon points="495,418 472,456 517,456" fill="green"/><polygon points="540,418 517,456 562,456" fill="green"/><polygon points="585,418 562,456 607,456" fill="green"/><polygon points="630,418 607,456 652,456" fill="green"/><polygon points="675,418 652,456 697,456" fill="green"/><polygon points="720,418 697,456 742,456" fill="green"/><polygon points="765,418 742,456 787,456" fill="green"/><polygon points="810,418 787,456 832,456" fill="green"/><polygon points="855,418 832,456 877,456" fill="green"/><polygon points="900,418 877,456 922,456" fill="green"/><polygon points="945,418 922,456 967,456" fill="green"/><polygon points="22,494 0,456 45,456" fill="green"/><polygon points="67,494 45,456 90,456" fill="green"/><polygon points="112,494 90,456 135,456" fill="green"/><polygon points="157,494 135,456 180,456" fill="green"/><polygon points="202,494 180,456 225,456" fill="green"/><polygon points="247,494 225,456 270,456" fill="green"/><polygon points="292,494 270,456 315,456" fill="green"/><polygon points="337,494 315,456 360,456" fill="green"/><polygon points="382,494 360,456 405,456" fill="green"/><polygon points="427,494 405,456 450,456" fill="green"/><polygon points="472,494 450,456 495,456" fill="green"/><polygon points="517,494 495,456 540,456" fill="green"/><polygon points="562,494 540,456 585,456" fill="green"/><polygon points="607,494 585,456 630,456" fill="green"/><polygon points="652,494 630,456 675,456" fill="green"/><polygon points="697,494 675,456 720,456" fill="green"/><polygon points="742,494 720,456 765,456" fill="green"/><polygon points="787,494 765,456 810,456" fill="green"/><polygon points="832,494 810,456 855,456" fill="green"/><polygon points="877,494 855,456 900,456" fill="green"/><polygon points="922,494 900,456 945,456" fill="green"/><polygon points="967,494 945,456 990,456" fill="green"/><polygon points="45,456 22,494 67,494" fill="green"/><polygon points="90,456 67,494 112,494" fill="green"/><polygon points="135,456 112,494 157,494" fill="green"/><polygon points="180,456 157,494 202,494" fill="green"/><polygon points="225,456 202,494 247,494" fill="green"/><polygon points="270,456 247,494 292,494" fill="green"/><polygon points="315,456 292,494 337,494" fill="green"/><polygon points="360,456 337,494 382,494" fill="green"/><polygon points="405,456 382,494 427,494" fill="green"/><polygon points="450,456 427,494 472,494" fill="green"/><polygon points="495,456 472,494 517,494" fill="green"/><polygon points="540,456 517,494 562,494" fill="green"/><polygon points="585,456 562,494 607,494" fill="green"/><polygon points="630,456 607,494 652,494" fill="green"/><polygon points="675,456 652,494 697,494" fill="green"/><polygon points="720,456 697,494 742,494" fill="green"/><polygon points="765,456 742,494 787,494" fill="green"/><polygon points="810,456 787,494 832,494" fill="green"/><polygon points="855,456 832,494 877,494" fill="green"/><polygon points="900,456 877,494 922,494" fill="green"/><polygon points="945,456 922,494 967,494" fill="green"/><polygon points="22,532 0,494 45,494" fill="green"/><polygon points="67,532 45,494 90,494" fill="green"/><polygon points="112,532 90,494 135,494" fill="green"/><polygon points="157,532 135,494 180,494" fill="green"/><polygon points="202,532 180,494 225,494" fill="green"/><polygon points="247,532 225,494 270,494" fill="green"/><polygon points="292,532 270,494 315,494" fill="green"/><polygon points="337,532 315,494 360,494" fill="green"/><polygon points="382,532 360,494 405,494" fill="green"/><polygon points="427,532 405,494 450,494" fill="green"/><polygon points="472,532 450,494 495,494" fill="green"/><polygon points="517,532 495,494 540,494" fill="green"/><polygon points="562,532 540,494 585,494" fill="green"/><polygon points="607,532 585,494 630,494" fill="green"/><polygon points="652,532 630,494 675,494" fill="green"/><polygon points="697,532 675,494 720,494" fill="green"/><polygon points="742,532 720,494 765,494" fill="green"/><polygon points="787,532 765,494 810,494" fill="green"/><polygon points="832,532 810,494 855,494" fill="green"/><polygon points="877,532 855,494 900,494" fill="green"/><polygon points="922,532 900,494 945,494" fill="green"/><polygon points="967,532 945,494 990,494" fill="green"/><polygon points="45,494 22,532 67,532" fill="green"/><polygon points="90,494 67,532 112,532" fill="green"/><polygon points="135,494 112,532 157,532" fill="green"/><polygon points="180,494 157,532 202,532" fill="green"/><polygon points="225,494 202,532 247,532" fill="green"/><polygon points="270,494 247,532 292,532" fill="green"/><polygon points="315,494 292,532 337,532" fill="green"/><polygon points="360,494 337,532 382,532" fill="green"/><polygon points="405,494 382,532 427,532" fill="green"/><polygon points="450,494 427,532 472,532" fill="green"/><polygon points="495,494 472,532 517,532" fill="green"/><polygon points="540,494 517,532 562,532" fill="green"/><polygon points="585,494 562,532 607,532" fill="green"/><polygon points="630,494 607,532 652,532" fill="green"/><polygon points="675,494 652,532 697,532" fill="green"/><polygon points="720,494 697,532 742,532" fill="green"/><polygon points="765,494 742,532 787,532" fill="green"/><polygon points="810,494 787,532 832,532" fill="green"/><polygon points="855,494 832,532 877,532" fill="green"/><polygon points="900,494 877,532 922,532" fill="green"/><polygon points="945,494 922,532 967,532" fill="green"/><polygon points="22,570 0,532 45,532" fill="green"/><polygon points="67,570 45,532 90,532" fill="green"/><polygon points="112,570 90,532 135,532" fill="green"/><polygon points="157,570 135,532 180,532" fill="green"/><polygon points="202,570 180,532 225,532" fill="green"/><polygon points="247,570 225,532 270,532" fill="green"/><polygon points="292,570 270,532 315,532" fill="green"/><polygon points="337,570 315,532 360,532" fill="green"/><polygon points="382,570 360,532 405,532" fill="green"/><polygon points="427,570 405,532 450,532" fill="green"/><polygon points="472,570 450,532 495,532" fill="green"/><polygon points="517,570 495,532 540,532" fill="green"/><polygon points="562,570 540,532 585,532" fill="green"/><polygon points="607,570 585,532 630,532" fill="green"/><polygon points="652,570 630,532 675,532" fill="green"/><polygon points="697,570 675,532 720,532" fill="green"/><polygon points="742,570 720,532 765,532" fill="green"/><polygon points="787,570 765,532 810,532" fill="green"/><polygon points="832,570 810,532 855,532" fill="green"/><polygon points="877,570 855,532 900,532" fill="green"/><polygon points="922,570 900,532 945,532" fill="green"/><polygon points="967,570 945,532 990,532" fill="green"/><polygon points="45,532 22,570 67,570" fill="green"/><polygon points="90,532 67,570 112,570" fill="green"/><polygon points="135,532 112,570 157,570" fill="green"/><polygon points="180,532 157,570 202,570" fill="green"/><polygon points="225,532 202,570 247,570" fill="green"/><polygon points="270,532 247,570 292,570" fill="green"/><polygon points="315,532 292,570 337,570" fill="green"/><polygon points="360,532 337,570 382,570" fill="green"/><polygon points="405,532 382,570 427,570" fill="green"/><polygon points="450,532 427,570 472,570" fill="green"/><polygon points="495,532 472,570 517,570" fill="green"/><polygon points="540,532 517,570 562,570" fill="green"/><polygon points="585,532 562,570 607,570" fill="green"/><polygon points="630,532 607,570 652,570" fill="green"/><polygon points="675,532 652,570 697,570" fill="green"/><polygon points="720,532 697,570 742,570" fill="green"/><polygon points="765,532 742,570 787,570" fill="green"/><polygon points="810,532 787,570 832,570" fill="green"/><polygon points="855,532 832,570 877,570" fill="green"/><polygon points="900,532 877,570 922,570" fill="green"/><polygon points="945,532 922,570 967,570" fill="green"/><polygon points="22,608 0,570 45,570" fill="green"/><polygon points="67,608 45,570 90,570" fill="green"/><polygon points="112,608 90,570 135,570" fill="green"/><polygon points="157,608 135,570 180,570" fill="green"/><polygon points="202,608 180,570 225,570" fill="green"/><polygon points="247,608 225,570 270,570" fill="green"/><polygon points="292,608 270,570 315,570" fill="green"/><polygon points="337,608 315,570 360,570" fill="green"/><polygon points="382,608 360,570 405,570" fill="green"/><polygon points="427,608 405,570 450,570" fill="green"/><polygon points="472,608 450,570 495,570" fill="green"/><polygon points="517,608 495,570 540,570" fill="green"/><polygon points="562,608 540,570 585,570" fill="green"/><polygon points="607,608 585,570 630,570" fill="green"/><polygon points="652,608 630,570 675,570" fill="green"/><polygon points="697,608 675,570 720,570" fill="green"/><polygon points="742,608 720,570 765,570" fill="green"/><polygon points="787,608 765,570 810,570" fill="green"/><polygon points="832,608 810,570 855,570" fill="green"/><polygon points="877,608 855,570 900,570" fill="green"/><polygon points="922,608 900,570 945,570" fill="green"/><polygon points="967,608 945,570 990,570" fill="green"/><polygon points="45,570 22,608 67,608" fill="green"/><polygon points="90,570 67,608 112,608" fill="green"/><polygon points="135,570 112,608 157,608" fill="green"/><polygon points="180,570 157,608 202,608" fill="green"/><polygon points="225,570 202,608 247,608" fill="green"/><polygon points="270,570 247,608 292,608" fill="green"/><polygon points="315,570 292,608 337,608" fill="green"/><polygon points="360,570 337,608 382,608" fill="green"/><polygon points="405,570 382,608 427,608" fill="green"/><polygon points="450,570 427,608 472,608" fill="green"/><polygon points="495,570 472,608 517,608" fill="green"/><polygon points="540,570 517,608 562,608" fill="green"/><polygon points="585,570 562,608 607,608" fill="green"/><polygon points="630,570 607,608 652,608" fill="green"/><polygon points="675,570 652,608 697,608" fill="green"/><polygon points="720,570 697,608 742,608" fill="green"/><polygon points="765,570 742,608 787,608" fill="green"/><polygon points="810,570 787,608 832,608" fill="green"/><polygon points="855,570 832,608 877,608" fill="green"/><polygon points="900,570 877,608 922,608" fill="green"/><polygon points="945,570 922,608 967,608" fill="green"/><polygon points="22,646 0,608 45,608" fill="green"/><polygon points="67,646 45,608 90,608" fill="green"/><polygon points="112,646 90,608 135,608" fill="green"/><polygon points="157,646 135,608 180,608" fill="green"/><polygon points="202,646 180,608 225,608" fill="green"/><polygon points="247,646 225,608 270,608" fill="green"/><polygon points="292,646 270,608 315,608" fill="green"/><polygon points="337,646 315,608 360,608" fill="green"/><polygon points="382,646 360,608 405,608" fill="green"/><polygon points="427,646 405,608 450,608" fill="green"/><polygon points="472,646 450,608 495,608" fill="green"/><polygon points="517,646 495,608 540,608" fill="green"/><polygon points="562,646 540,608 585,608" fill="green"/><polygon points="607,646 585,608 630,608" fill="green"/><polygon points="652,646 630,608 675,608" fill="green"/><polygon points="697,646 675,608 720,608" fill="green"/><polygon points="742,646 720,608 765,608" fill="green"/><polygon points="787,646 765,608 810,608" fill="green"/><polygon points="832,646 810,608 855,608" fill="green"/><polygon points="877,646 855,608 900,608" fill="green"/><polygon points="922,646 900,608 945,608" fill="green"/><polygon points="967,646 945,608 990,608" fill="green"/><polygon points="45,608 22,646 67,646" fill="green"/><polygon points="90,608 67,646 112,646" fill="green"/><polygon points="135,608 112,646 157,646" fill="green"/><polygon points="180,608 157,646 202,646" fill="green"/><polygon points="225,608 202,646 247,646" fill="green"/><polygon points="270,608 247,646 292,646" fill="green"/><polygon points="315,608 292,646 337,646" fill="green"/><polygon points="360,608 337,646 382,646" fill="green"/><polygon points="405,608 382,646 427,646" fill="green"/><polygon points="450,608 427,646 472,646" fill="green"/><polygon points="495,608 472,646 517,646" fill="green"/><polygon points="540,608 517,646 562,646" fill="green"/><polygon points="585,608 562,646 607,646" fill="green"/><polygon points="630,608 607,646 652,646" fill="green"/><polygon points="675,608 652,646 697,646" fill="green"/><polygon points="720,608 697,646 742,646" fill="green"/><polygon points="765,608 742,646 787,646" fill="green"/><polygon points="810,608 787,646 832,646" fill="green"/><polygon points="855,608 832,646 877,646" fill="green"/><polygon points="900,608 877,646 922,646" fill="green"/><polygon points="945,608 922,646 967,646" fill="green"/><polygon points="22,684 0,646 45,646" fill="green"/><polygon points="67,684 45,646 90,646" fill="green"/><polygon points="112,684 90,646 135,646" fill="green"/><polygon points="157,684 135,646 180,646" fill="green"/><polygon points="202,684 180,646 225,646" fill="green"/><polygon points="247,684 225,646 270,646" fill="green"/><polygon points="292,684 270,646 315,646" fill="green"/><polygon points="337,684 315,646 360,646" fill="green"/><polygon points="382,684 360,646 405,646" fill="green"/><polygon points="427,684 405,646 450,646" fill="green"/><polygon points="472,684 450,646 495,646" fill="green"/><polygon points="517,684 495,646 540,646" fill="green"/><polygon points="562,684 540,646 585,646" fill="green"/><polygon points="607,684 585,646 630,646" fill="green"/><polygon points="652,684 630,646 675,646" fill="green"/><polygon points="697,684 675,646 720,646" fill="green"/><polygon points="742,684 720,646 765,646" fill="green"/><polygon points="787,684 765,646 810,646" fill="green"/><polygon points="832,684 810,646 855,646" fill="green"/><polygon points="877,684 855,646 900,646" fill="green"/><polygon points="922,684 900,646 945,646" fill="green"/><polygon points="967,684 945,646 990,646" fill="green"/><polygon points="45,646 22,684 67,684" fill="green"/><polygon points="90,646 67,684 112,684" fill="green"/><polygon points="135,646 112,684 157,684" fill="green"/><polygon points="180,646 157,684 202,684" fill="green"/><polygon points="225,646 202,684 247,684" fill="green"/><polygon points="270,646 247,684 292,684" fill="green"/><polygon points="315,646 292,684 337,684" fill="green"/><polygon points="360,646 337,684 382,684" fill="green"/><polygon points="405,646 382,684 427,684" fill="green"/><polygon points="450,646 427,684 472,684" fill="green"/><polygon points="495,646 472,684 517,684" fill="green"/><polygon points="540,646 517,684 562,684" fill="green"/><polygon points="585,646 562,684 607,684" fill="green"/><polygon points="630,646 607,684 652,684" fill="green"/><polygon points="675,646 652,684 697,684" fill="green"/><polygon points="720,646 697,684 742,684" fill="green"/><polygon points="765,646 742,684 787,684" fill="green"/><polygon points="810,646 787,684 832,684" fill="green"/><polygon points="855,646 832,684 877,684" fill="green"/><polygon points="900,646 877,684 922,684" fill="green"/><polygon points="945,646 922,684 967,684" fill="green"/></svg>