<svg version="1.1" baseProfile="full" width="1536" height="1536" xmlns="http://wwww.w3.org/2000/svg">
<polygon points="768,0 0,1330.22 1536,1330.22" fill="red" /><polygon points="44,1254 0,1330.22 89,1330.22" fill="green"/><polygon points="133,1254 89,1330.22 178,1330.22" fill="green"/><polygon points="222,1254 178,1330.22 267,1330.22" fill="green"/><polygon points="311,1254 267,1330.22 356,1330.22" fill="green"/><polygon points="400,1254 356,1330.22 445,1330.22" fill="green"/><polygon points="489,1254 445,1330.22 534,1330.22" fill="green"/><polygon points="578,1254 534,1330.22 623,1330.22" fill="green"/><polygon points="667,1254 623,1330.22 712,1330.22" fill="green"/><polygon points="756,1254 712,1330.22 801,1330.22" fill="green"/><polygon points="845,1254 801,1330.22 890,1330.22" fill="green"/><polygon points="934,1254 890,1330.22 979,1330.22" fill="green"/><polygon points="1023,1254 979,1330.22 1068,1330.22" fill="green"/><polygon points="1112,1254 1068,1330.22 1157,1330.22" fill="green"/><polygon points="1201,1254 1157,1330.22 1246,1330.22" fill="green"/><polygon points="1290,1254 1246,1330.22 1335,1330.22" fill="green"/><polygon points="1379,1254 1335,1330.22 1424,1330.22" fill="green"/><polygon points="1468,1254 1424,1330.22 1513,1330.22" fill="green"/><polygon points="89,1330.22 44,1254 133,1254" fill="green"/><polygon points="178,1330.22 133,1254 222,1254" fill="green"/><polygon points="267,1330.22 222,1254 311,1254" fill="green"/><polygon points="356,1330.22 311,1254 400,1254" fill="green"/><polygon points="445,1330.22 400,1254 489,1254" fill="green"/><polygon points="534,1330.22 489,1254 578,1254" fill="green"/><polygon points="623,1330.22 578,1254 667,1254" fill="green"/><polygon points="712,1330.22 667,1254 756,1254" fill="green"/><polygon points="801,1330.22 756,1254 845,1254" fill="green"/><polygon points="890,1330.22 845,1254 934,1254" fill="green"/><polygon points="979,1330.22 934,1254 1023,1254" fill="green"/><polygon points="1068,1330.22 1023,1254 1112,1254" fill="green"/><polygon points="1157,1330.22 1112,1254 1201,1254" fill="green"/><polygon points="1246,1330.22 1201,1254 1290,1254" fill="green"/><polygon points="1335,1330.22 1290,1254 1379,1254" fill="green"/><polygon points="1424,1330.22 1379,1254 1468,1254" fill="green"/><polygon points="88,1177.79 44,1254 133,1254" fill="green"/><polygon points="177,1177.79 133,1254 222,1254" fill="green"/><polygon points="266,1177.79 222,1254 311,1254" fill="green"/><polygon points="355,1177.79 311,1254 400,1254" fill="green"/><polygon points="444,1177.79 400,1254 489,1254" fill="green"/><polygon points="533,1177.79 489,1254 578,1254" fill="green"/><polygon points="622,1177.79 578,1254 667,1254" fill="green"/><polygon points="711,1177.79 667,1254 756,1254" fill="green"/><polygon points="800,1177.79 756,1254 845,1254" fill="green"/><polygon points="889,1177.79 845,1254 934,1254" fill="green"/><polygon points="978,1177.79 934,1254 1023,1254" fill="green"/><polygon points="1067,1177.79 1023,1254 1112,1254" fill="green"/><polygon points="1156,1177.79 1112,1254 1201,1254" fill="green"/><polygon points="1245,1177.79 1201,1254 1290,1254" fill="green"/><polygon points="1334,1177.79 1290,1254 1379,1254" fill="green"/><polygon points="1423,1177.79 1379,1254 1468,1254" fill="green"/><polygon points="133,1254 88,1177.79 177,1177.79" fill="green"/><polygon points="222,1254 177,1177.79 266,1177.79" fill="green"/><polygon points="311,1254 266,1177.79 355,1177.79" fill="green"/><polygon points="400,1254 355,1177.79 444,1177.79" fill="green"/><polygon points="489,1254 444,1177.79 533,1177.79" fill="green"/><polygon points="578,1254 533,1177.79 622,1177.79" fill="green"/><polygon points="667,1254 622,1177.79 711,1177.79" fill="green"/><polygon points="756,1254 711,1177.79 800,1177.79" fill="green"/><polygon points="845,1254 800,1177.79 889,1177.79" fill="green"/><polygon points="934,1254 889,1177.79 978,1177.79" fill="green"/><polygon points="1023,1254 978,1177.79 1067,1177.79" fill="green"/><polygon points="1112,1254 1067,1177.79 1156,1177.79" fill="green"/><polygon points="1201,1254 1156,1177.79 1245,1177.79" fill="green"/><polygon points="1290,1254 1245,1177.79 1334,1177.79" fill="green"/><polygon points="1379,1254 1334,1177.79 1423,1177.79" fill="green"/><polygon points="132,1101.58 88,1177.79 177,1177.79" fill="green"/><polygon points="221,1101.58 177,1177.79 266,1177.79" fill="green"/><polygon points="310,1101.58 266,1177.79 355,1177.79" fill="green"/><polygon points="399,1101.58 355,1177.79 444,1177.79" fill="green"/><polygon points="488,1101.58 444,1177.79 533,1177.79" fill="green"/><polygon points="577,1101.58 533,1177.79 622,1177.79" fill="green"/><polygon points="666,1101.58 622,1177.79 711,1177.79" fill="green"/><polygon points="755,1101.58 711,1177.79 800,1177.79" fill="green"/><polygon points="844,1101.58 800,1177.79 889,1177.79" fill="green"/><polygon points="933,1101.58 889,1177.79 978,1177.79" fill="green"/><polygon points="1022,1101.58 978,1177.79 1067,1177.79" fill="green"/><polygon points="1111,1101.58 1067,1177.79 1156,1177.79" fill="green"/><polygon points="1200,1101.58 1156,1177.79 1245,1177.79" fill="green"/><polygon points="1289,1101.58 1245,1177.79 1334,1177.79" fill="green"/><polygon points="1378,1101.58 1334,1177.79 1423,1177.79" fill="green"/><polygon points="177,1177.79 132,1101.58 221,1101.58" fill="green"/><polygon points="266,1177.79 221,1101.58 310,1101.58" fill="green"/><polygon points="355,1177.79 310,1101.58 399,1101.58" fill="green"/><polygon points="444,1177.79 399,1101.58 488,1101.58" fill="green"/><polygon points="533,1177.79 488,1101.58 577,1101.58" fill="green"/><polygon points="622,1177.79 577,1101.58 666,1101.58" fill="green"/><polygon points="711,1177.79 666,1101.58 755,1101.58" fill="green"/><polygon points="800,1177.79 755,1101.58 844,1101.58" fill="green"/><polygon points="889,1177.79 844,1101.58 933,1101.58" fill="green"/><polygon points="978,1177.79 933,1101.58 1022,1101.58" fill="green"/><polygon points="1067,1177.79 1022,1101.58 1111,1101.58" fill="green"/><polygon points="1156,1177.79 1111,1101.58 1200,1101.58" fill="green"/><polygon points="1245,1177.79 1200,1101.58 1289,1101.58" fill="green"/><polygon points="1334,1177.79 1289,1101.58 1378,1101.58" fill="green"/><polygon points="176,1025.37 132,1101.58 221,1101.58" fill="green"/><polygon points="265,1025.37 221,1101.58 310,1101.58" fill="green"/><polygon points="354,1025.37 310,1101.58 399,1101.58" fill="green"/><polygon points="443,1025.37 399,1101.58 488,1101.58" fill="green"/><polygon points="532,1025.37 488,1101.58 577,1101.58" fill="green"/><polygon points="621,1025.37 577,1101.58 666,1101.58" fill="green"/><polygon points="710,1025.37 666,1101.58 755,1101.58" fill="green"/><polygon points="799,1025.37 755,1101.58 844,1101.58" fill="green"/><polygon points="888,1025.37 844,1101.58 933,1101.58" fill="green"/><polygon points="977,1025.37 933,1101.58 1022,1101.58" fill="green"/><polygon points="1066,1025.37 1022,1101.58 1111,1101.58" fill="green"/><polygon points="1155,1025.37 1111,1101.58 1200,1101.58" fill="green"/><polygon points="1244,1025.37 1200,1101.58 1289,1101.58" fill="green"/><polygon points="1333,1025.37 1289,1101.58 1378,1101.58" fill="green"/><polygon points="221,1101.58 176,1025.37 265,1025.37" fill="green"/><polygon points="310,1101.58 265,1025.37 354,1025.37" fill="green"/><polygon points="399,1101.58 354,1025.37 443,1025.37" fill="green"/><polygon points="488,1101.58 443,1025.37 532,1025.37" fill="green"/><polygon points="577,1101.58 532,1025.37 621,1025.37" fill="green"/><polygon points="666,1101.58 621,1025.37 710,1025.37" fill="green"/><polygon points="755,1101.58 710,1025.37 799,1025.37" fill="green"/><polygon points="844,1101.58 799,1025.37 888,1025.37" fill="green"/><polygon points="933,1101.58 888,1025.37 977,1025.37" fill="green"/><polygon points="1022,1101.58 977,1025.37 1066,1025.37" fill="green"/><polygon points="1111,1101.58 1066,1025.37 1155,1025.37" fill="green"/><polygon points="1200,1101.58 1155,1025.37 1244,1025.37" fill="green"/><polygon points="1289,1101.58 1244,1025.37 1333,1025.37" fill="green"/><polygon points="220,949.164 176,1025.37 265,1025.37" fill="green"/><polygon points="309,949.164 265,1025.37 354,1025.37" fill="green"/><polygon points="398,949.164 354,1025.37 443,1025.37" fill="green"/><polygon points="487,949.164 443,1025.37 532,1025.37" fill="green"/><polygon points="576,949.164 532,1025.37 621,1025.37" fill="green"/><polygon points="665,949.164 621,1025.37 710,1025.37" fill="green"/><polygon points="754,949.164 710,1025.37 799,1025.37" fill="green"/><polygon points="843,949.164 799,1025.37 888,1025.37" fill="green"/><polygon points="932,949.164 888,1025.37 977,1025.37" fill="green"/><polygon points="1021,949.164 977,1025.37 1066,1025.37" fill="green"/><polygon points="1110,949.164 1066,1025.37 1155,1025.37" fill="green"/><polygon points="1199,949.164 1155,1025.37 1244,1025.37" fill="green"/><polygon points="1288,949.164 1244,1025.37 1333,1025.37" fill="green"/><polygon points="265,1025.37 220,949.164 309,949.164" fill="green"/><polygon points="354,1025.37 309,949.164 398,949.164" fill="green"/><polygon points="443,1025.37 398,949.164 487,949.164" fill="green"/><polygon points="532,1025.37 487,949.164 576,949.164" fill="green"/><polygon points="621,1025.37 576,949.164 665,949.164" fill="green"/><polygon points="710,1025.37 665,949.164 754,949.164" fill="green"/><polygon points="799,1025.37 754,949.164 843,949.164" fill="green"/><polygon points="888,1025.37 843,949.164 932,949.164" fill="green"/><polygon points="977,1025.37 932,949.164 1021,949.164" fill="green"/><polygon points="1066,1025.37 1021,949.164 1110,949.164" fill="green"/><polygon points="1155,1025.37 1110,949.164 1199,949.164" fill="green"/><polygon points="1244,1025.37 1199,949.164 1288,949.164" fill="green"/><polygon points="264,872.954 220,949.164 309,949.164" fill="green"/><polygon points="353,872.954 309,949.164 398,949.164" fill="green"/><polygon points="442,872.954 398,949.164 487,949.164" fill="green"/><polygon points="531,872.954 487,949.164 576,949.164" fill="green"/><polygon points="620,872.954 576,949.164 665,949.164" fill="green"/><polygon points="709,872.954 665,949.164 754,949.164" fill="green"/><polygon points="798,872.954 754,949.164 843,949.164" fill="green"/><polygon points="887,872.954 843,949.164 932,949.164" fill="green"/><polygon points="976,872.954 932,949.164 1021,949.164" fill="green"/><polygon points="1065,872.954 1021,949.164 1110,949.164" fill="green"/><polygon points="1154,872.954 1110,949.164 1199,949.164" fill="green"/><polygon points="1243,872.954 1199,949.164 1288,949.164" fill="green"/><polygon points="309,949.164 264,872.954 353,872.954" fill="green"/><polygon points="398,949.164 353,872.954 442,872.954" fill="green"/><polygon points="487,949.164 442,872.954 531,872.954" fill="green"/><polygon points="576,949.164 531,872.954 620,872.954" fill="green"/><polygon points="665,949.164 620,872.954 709,872.954" fill="green"/><polygon points="754,949.164 709,872.954 798,872.954" fill="green"/><polygon points="843,949.164 798,872.954 887,872.954" fill="green"/><polygon points="932,949.164 887,872.954 976,872.954" fill="green"/><polygon points="1021,949.164 976,872.954 1065,872.954" fill="green"/><polygon points="1110,949.164 1065,872.954 1154,872.954" fill="green"/><polygon points="1199,949.164 1154,872.954 1243,872.954" fill="green"/><polygon points="308,796.743 264,872.954 353,872.954" fill="green"/><polygon points="397,796.743 353,872.954 442,872.954" fill="green"/><polygon points="486,796.743 442,872.954 531,872.954" fill="green"/><polygon points="575,796.743 531,872.954 620,872.954" fill="green"/><polygon points="664,796.743 620,872.954 709,872.954" fill="green"/><polygon points="753,796.743 709,872.954 798,872.954" fill="green"/><polygon points="842,796.743 798,872.954 887,872.954" fill="green"/><polygon points="931,796.743 887,872.954 976,872.954" fill="green"/><polygon points="1020,796.743 976,872.954 1065,872.954" fill="green"/><polygon points="1109,796.743 1065,872.954 1154,872.954" fill="green"/><polygon points="1198,796.743 1154,872.954 1243,872.954" fill="green"/><polygon points="353,872.954 308,796.743 397,796.743" fill="green"/><polygon points="442,872.954 397,796.743 486,796.743" fill="green"/><polygon points="531,872.954 486,796.743 575,796.743" fill="green"/><polygon points="620,872.954 575,796.743 664,796.743" fill="green"/><polygon points="709,872.954 664,796.743 753,796.743" fill="green"/><polygon points="798,872.954 753,796.743 842,796.743" fill="green"/><polygon points="887,872.954 842,796.743 931,796.743" fill="green"/><polygon points="976,872.954 931,796.743 1020,796.743" fill="green"/><polygon points="1065,872.954 1020,796.743 1109,796.743" fill="green"/><polygon points="1154,872.954 1109,796.743 1198,796.743" fill="green"/><polygon points="352,720.533 308,796.743 397,796.743" fill="green"/><polygon points="441,720.533 397,796.743 486,796.743" fill="green"/><polygon points="530,720.533 486,796.743 575,796.743" fill="green"/><polygon points="619,720.533 575,796.743 664,796.743" fill="green"/><polygon points="708,720.533 664,796.743 753,796.743" fill="green"/><polygon points="797,720.533 753,796.743 842,796.743" fill="green"/><polygon points="886,720.533 842,796.743 931,796.743" fill="green"/><polygon points="975,720.533 931,796.743 1020,796.743" fill="green"/><polygon points="1064,720.533 1020,796.743 1109,796.743" fill="green"/><polygon points="1153,720.533 1109,796.743 1198,796.743" fill="green"/><polygon points="397,796.743 352,720.533 441,720.533" fill="green"/><polygon points="486,796.743 441,720.533 530,720.533" fill="green"/><polygon points="575,796.743 530,720.533 619,720.533" fill="green"/><polygon points="664,796.743 619,720.533 708,720.533" fill="green"/><polygon points="753,796.743 708,720.533 797,720.533" fill="green"/><polygon points="842,796.743 797,720.533 886,720.533" fill="green"/><polygon points="931,796.743 886,720.533 975,720.533" fill="green"/><polygon points="1020,796.743 975,720.533 1064,720.533" fill="green"/><polygon points="1109,796.743 1064,720.533 1153,720.533" fill="green"/><polygon points="396,644.323 352,720.533 441,720.533" fill="green"/><polygon points="485,644.323 441,720.533 530,720.533" fill="green"/><polygon points="574,644.323 530,720.533 619,720.533" fill="green"/><polygon points="663,644.323 619,720.533 708,720.533" fill="green"/><polygon points="752,644.323 708,720.533 797,720.533" fill="green"/><polygon points="841,644.323 797,720.533 886,720.533" fill="green"/><polygon points="930,644.323 886,720.533 975,720.533" fill="green"/><polygon points="1019,644.323 975,720.533 1064,720.533" fill="green"/><polygon points="1108,644.323 1064,720.533 1153,720.533" fill="green"/><polygon points="441,720.533 396,644.323 485,644.323" fill="green"/><polygon points="530,720.533 485,644.323 574,644.323" fill="green"/><polygon points="619,720.533 574,644.323 663,644.323" fill="green"/><polygon points="708,720.533 663,644.323 752,644.323" fill="green"/><polygon points="797,720.533 752,644.323 841,644.323" fill="green"/><polygon points="886,720.533 841,644.323 930,644.323" fill="green"/><polygon points="975,720.533 930,644.323 1019,644.323" fill="green"/><polygon points="1064,720.533 1019,644.323 1108,644.323" fill="green"/><polygon points="440,568.113 396,644.323 485,644.323" fill="green"/><polygon points="529,568.113 485,644.323 574,644.323" fill="green"/><polygon points="618,568.113 574,644.323 663,644.323" fill="green"/><polygon points="707,568.113 663,644.323 752,644.323" fill="green"/><polygon points="796,568.113 752,644.323 841,644.323" fill="green"/><polygon points="885,568.113 841,644.323 930,644.323" fill="green"/><polygon points="974,568.113 930,644.323 1019,644.323" fill="green"/><polygon points="1063,568.113 1019,644.323 1108,644.323" fill="green"/><polygon points="485,644.323 440,568.113 529,568.113" fill="green"/><polygon points="574,644.323 529,568.113 618,568.113" fill="green"/><polygon points="663,644.323 618,568.113 707,568.113" fill="green"/><polygon points="752,644.323 707,568.113 796,568.113" fill="green"/><polygon points="841,644.323 796,568.113 885,568.113" fill="green"/><polygon points="930,644.323 885,568.113 974,568.113" fill="green"/><polygon points="1019,644.323 974,568.113 1063,568.113" fill="green"/><polygon points="484,491.902 440,568.113 529,568.113" fill="green"/><polygon points="573,491.902 529,568.113 618,568.113" fill="green"/><polygon points="662,491.902 618,568.113 707,568.113" fill="green"/><polygon points="751,491.902 707,568.113 796,568.113" fill="green"/><polygon points="840,491.902 796,568.113 885,568.113" fill="green"/><polygon points="929,491.902 885,568.113 974,568.113" fill="green"/><polygon points="1018,491.902 974,568.113 1063,568.113" fill="green"/><polygon points="529,568.113 484,491.902 573,491.902" fill="green"/><polygon points="618,568.113 573,491.902 662,491.902" fill="green"/><polygon points="707,568.113 662,491.902 751,491.902" fill="green"/><polygon points="796,568.113 751,491.902 840,491.902" fill="green"/><polygon points="885,568.113 840,491.902 929,491.902" fill="green"/><polygon points="974,568.113 929,491.902 1018,491.902" fill="green"/><polygon points="528,415.692 484,491.902 573,491.902" fill="green"/><polygon points="617,415.692 573,491.902 662,491.902" fill="green"/><polygon points="706,415.692 662,491.902 751,491.902" fill="green"/><polygon points="795,415.692 751,491.902 840,491.902" fill="green"/><polygon points="884,415.692 840,491.902 929,491.902" fill="green"/><polygon points="973,415.692 929,491.902 1018,491.902" fill="green"/><polygon points="573,491.902 528,415.692 617,415.692" fill="green"/><polygon points="662,491.902 617,415.692 706,415.692" fill="green"/><polygon points="751,491.902 706,415.692 795,415.692" fill="green"/><polygon points="840,491.902 795,415.692 884,415.692" fill="green"/><polygon points="929,491.902 884,415.692 973,415.692" fill="green"/><polygon points="572,339.482 528,415.692 617,415.692" fill="green"/><polygon points="661,339.482 617,415.692 706,415.692" fill="green"/><polygon points="750,339.482 706,415.692 795,415.692" fill="green"/><polygon points="839,339.482 795,415.692 884,415.692" fill="green"/><polygon points="928,339.482 884,415.692 973,415.692" fill="green"/><polygon points="617,415.692 572,339.482 661,339.482" fill="green"/><polygon points="706,415.692 661,339.482 750,339.482" fill="green"/><polygon points="795,415.692 750,339.482 839,339.482" fill="green"/><polygon points="884,415.692 839,339.482 928,339.482" fill="green"/><polygon points="616,263.272 572,339.482 661,339.482" fill="green"/><polygon points="705,263.272 661,339.482 750,339.482" fill="green"/><polygon points="794,263.272 750,339.482 839,339.482" fill="green"/><polygon points="883,263.272 839,339.482 928,339.482" fill="green"/><polygon points="661,339.482 616,263.272 705,263.272" fill="green"/><polygon points="750,339.482 705,263.272 794,263.272" fill="green"/><polygon points="839,339.482 794,263.272 883,263.272" fill="green"/><polygon points="660,187.061 616,263.272 705,263.272" fill="green"/><polygon points="749,187.061 705,263.272 794,263.272" fill="green"/><polygon points="838,187.061 794,263.272 883,263.272" fill="green"/><polygon points="705,263.272 660,187.061 749,187.061" fill="green"/><polygon points="794,263.272 749,187.061 838,187.061" fill="green"/><polygon points="704,110.851 660,187.061 749,187.061" fill="green"/><polygon points="793,110.851 749,187.061 838,187.061" fill="green"/><polygon points="749,187.061 704,110.851 793,110.851" fill="green"/><polygon points="748,34.641 704,110.851 793,110.851" fill="green"/></svg>