<svg version="1.1" baseProfile="full" width="526" height="526" xmlns="http://wwww.w3.org/2000/svg"><polygon points="263,0 0,455.529 526,455.529" fill="red" /><polygon points="10,438 0,455 21,455 " fill="green" /><polygon points="31,438 21,455 42,455 " fill="green" /><polygon points="52,438 42,455 63,455 " fill="green" /><polygon points="73,438 63,455 84,455 " fill="green" /><polygon points="94,438 84,455 105,455 " fill="green" /><polygon points="115,438 105,455 126,455 " fill="green" /><polygon points="136,438 126,455 147,455 " fill="green" /><polygon points="157,438 147,455 168,455 " fill="green" /><polygon points="178,438 168,455 189,455 " fill="green" /><polygon points="199,438 189,455 210,455 " fill="green" /><polygon points="220,438 210,455 231,455 " fill="green" /><polygon points="241,438 231,455 252,455 " fill="green" /><polygon points="262,438 252,455 273,455 " fill="green" /><polygon points="283,438 273,455 294,455 " fill="green" /><polygon points="304,438 294,455 315,455 " fill="green" /><polygon points="325,438 315,455 336,455 " fill="green" /><polygon points="346,438 336,455 357,455 " fill="green" /><polygon points="367,438 357,455 378,455 " fill="green" /><polygon points="388,438 378,455 399,455 " fill="green" /><polygon points="409,438 399,455 420,455 " fill="green" /><polygon points="430,438 420,455 441,455 " fill="green" /><polygon points="451,438 441,455 462,455 " fill="green" /><polygon points="472,438 462,455 483,455 " fill="green" /><polygon points="493,438 483,455 504,455 " fill="green" /><polygon points="21,455 10,438 31,438 " fill="green" /><polygon points="42,455 31,438 52,438 " fill="green" /><polygon points="63,455 52,438 73,438 " fill="green" /><polygon points="84,455 73,438 94,438 " fill="green" /><polygon points="105,455 94,438 115,438 " fill="green" /><polygon points="126,455 115,438 136,438 " fill="green" /><polygon points="147,455 136,438 157,438 " fill="green" /><polygon points="168,455 157,438 178,438 " fill="green" /><polygon points="189,455 178,438 199,438 " fill="green" /><polygon points="210,455 199,438 220,438 " fill="green" /><polygon points="231,455 220,438 241,438 " fill="green" /><polygon points="252,455 241,438 262,438 " fill="green" /><polygon points="273,455 262,438 283,438 " fill="green" /><polygon points="294,455 283,438 304,438 " fill="green" /><polygon points="315,455 304,438 325,438 " fill="green" /><polygon points="336,455 325,438 346,438 " fill="green" /><polygon points="357,455 346,438 367,438 " fill="green" /><polygon points="378,455 367,438 388,438 " fill="green" /><polygon points="399,455 388,438 409,438 " fill="green" /><polygon points="420,455 409,438 430,438 " fill="green" /><polygon points="441,455 430,438 451,438 " fill="green" /><polygon points="462,455 451,438 472,438 " fill="green" /><polygon points="483,455 472,438 493,438 " fill="green" /><polygon points="504,455 493,438 514,438 " fill="green" /><polygon points="20,420 10,438 31,438 " fill="green" /><polygon points="41,420 31,438 52,438 " fill="green" /><polygon points="62,420 52,438 73,438 " fill="green" /><polygon points="83,420 73,438 94,438 " fill="green" /><polygon points="104,420 94,438 115,438 " fill="green" /><polygon points="125,420 115,438 136,438 " fill="green" /><polygon points="146,420 136,438 157,438 " fill="green" /><polygon points="167,420 157,438 178,438 " fill="green" /><polygon points="188,420 178,438 199,438 " fill="green" /><polygon points="209,420 199,438 220,438 " fill="green" /><polygon points="230,420 220,438 241,438 " fill="green" /><polygon points="251,420 241,438 262,438 " fill="green" /><polygon points="272,420 262,438 283,438 " fill="green" /><polygon points="293,420 283,438 304,438 " fill="green" /><polygon points="314,420 304,438 325,438 " fill="green" /><polygon points="335,420 325,438 346,438 " fill="green" /><polygon points="356,420 346,438 367,438 " fill="green" /><polygon points="377,420 367,438 388,438 " fill="green" /><polygon points="398,420 388,438 409,438 " fill="green" /><polygon points="419,420 409,438 430,438 " fill="green" /><polygon points="440,420 430,438 451,438 " fill="green" /><polygon points="461,420 451,438 472,438 " fill="green" /><polygon points="482,420 472,438 493,438 " fill="green" /><polygon points="503,420 493,438 514,438 " fill="green" /><polygon points="31,438 20,420 41,420 " fill="green" /><polygon points="52,438 41,420 62,420 " fill="green" /><polygon points="73,438 62,420 83,420 " fill="green" /><polygon points="94,438 83,420 104,420 " fill="green" /><polygon points="115,438 104,420 125,420 " fill="green" /><polygon points="136,438 125,420 146,420 " fill="green" /><polygon points="157,438 146,420 167,420 " fill="green" /><polygon points="178,438 167,420 188,420 " fill="green" /><polygon points="199,438 188,420 209,420 " fill="green" /><polygon points="220,438 209,420 230,420 " fill="green" /><polygon points="241,438 230,420 251,420 " fill="green" /><polygon points="262,438 251,420 272,420 " fill="green" /><polygon points="283,438 272,420 293,420 " fill="green" /><polygon points="304,438 293,420 314,420 " fill="green" /><polygon points="325,438 314,420 335,420 " fill="green" /><polygon points="346,438 335,420 356,420 " fill="green" /><polygon points="367,438 356,420 377,420 " fill="green" /><polygon points="388,438 377,420 398,420 " fill="green" /><polygon points="409,438 398,420 419,420 " fill="green" /><polygon points="430,438 419,420 440,420 " fill="green" /><polygon points="451,438 440,420 461,420 " fill="green" /><polygon points="472,438 461,420 482,420 " fill="green" /><polygon points="493,438 482,420 503,420 " fill="green" /><polygon points="30,403 20,420 41,420 " fill="green" /><polygon points="51,403 41,420 62,420 " fill="green" /><polygon points="72,403 62,420 83,420 " fill="green" /><polygon points="93,403 83,420 104,420 " fill="green" /><polygon points="114,403 104,420 125,420 " fill="green" /><polygon points="135,403 125,420 146,420 " fill="green" /><polygon points="156,403 146,420 167,420 " fill="green" /><polygon points="177,403 167,420 188,420 " fill="green" /><polygon points="198,403 188,420 209,420 " fill="green" /><polygon points="219,403 209,420 230,420 " fill="green" /><polygon points="240,403 230,420 251,420 " fill="green" /><polygon points="261,403 251,420 272,420 " fill="green" /><polygon points="282,403 272,420 293,420 " fill="green" /><polygon points="303,403 293,420 314,420 " fill="green" /><polygon points="324,403 314,420 335,420 " fill="green" /><polygon points="345,403 335,420 356,420 " fill="green" /><polygon points="366,403 356,420 377,420 " fill="green" /><polygon points="387,403 377,420 398,420 " fill="green" /><polygon points="408,403 398,420 419,420 " fill="green" /><polygon points="429,403 419,420 440,420 " fill="green" /><polygon points="450,403 440,420 461,420 " fill="green" /><polygon points="471,403 461,420 482,420 " fill="green" /><polygon points="492,403 482,420 503,420 " fill="green" /><polygon points="41,420 30,403 51,403 " fill="green" /><polygon points="62,420 51,403 72,403 " fill="green" /><polygon points="83,420 72,403 93,403 " fill="green" /><polygon points="104,420 93,403 114,403 " fill="green" /><polygon points="125,420 114,403 135,403 " fill="green" /><polygon points="146,420 135,403 156,403 " fill="green" /><polygon points="167,420 156,403 177,403 " fill="green" /><polygon points="188,420 177,403 198,403 " fill="green" /><polygon points="209,420 198,403 219,403 " fill="green" /><polygon points="230,420 219,403 240,403 " fill="green" /><polygon points="251,420 240,403 261,403 " fill="green" /><polygon points="272,420 261,403 282,403 " fill="green" /><polygon points="293,420 282,403 303,403 " fill="green" /><polygon points="314,420 303,403 324,403 " fill="green" /><polygon points="335,420 324,403 345,403 " fill="green" /><polygon points="356,420 345,403 366,403 " fill="green" /><polygon points="377,420 366,403 387,403 " fill="green" /><polygon points="398,420 387,403 408,403 " fill="green" /><polygon points="419,420 408,403 429,403 " fill="green" /><polygon points="440,420 429,403 450,403 " fill="green" /><polygon points="461,420 450,403 471,403 " fill="green" /><polygon points="482,420 471,403 492,403 " fill="green" /><polygon points="40,386 30,403 51,403 " fill="green" /><polygon points="61,386 51,403 72,403 " fill="green" /><polygon points="82,386 72,403 93,403 " fill="green" /><polygon points="103,386 93,403 114,403 " fill="green" /><polygon points="124,386 114,403 135,403 " fill="green" /><polygon points="145,386 135,403 156,403 " fill="green" /><polygon points="166,386 156,403 177,403 " fill="green" /><polygon points="187,386 177,403 198,403 " fill="green" /><polygon points="208,386 198,403 219,403 " fill="green" /><polygon points="229,386 219,403 240,403 " fill="green" /><polygon points="250,386 240,403 261,403 " fill="green" /><polygon points="271,386 261,403 282,403 " fill="green" /><polygon points="292,386 282,403 303,403 " fill="green" /><polygon points="313,386 303,403 324,403 " fill="green" /><polygon points="334,386 324,403 345,403 " fill="green" /><polygon points="355,386 345,403 366,403 " fill="green" /><polygon points="376,386 366,403 387,403 " fill="green" /><polygon points="397,386 387,403 408,403 " fill="green" /><polygon points="418,386 408,403 429,403 " fill="green" /><polygon points="439,386 429,403 450,403 " fill="green" /><polygon points="460,386 450,403 471,403 " fill="green" /><polygon points="481,386 471,403 492,403 " fill="green" /><polygon points="51,403 40,386 61,386 " fill="green" /><polygon points="72,403 61,386 82,386 " fill="green" /><polygon points="93,403 82,386 103,386 " fill="green" /><polygon points="114,403 103,386 124,386 " fill="green" /><polygon points="135,403 124,386 145,386 " fill="green" /><polygon points="156,403 145,386 166,386 " fill="green" /><polygon points="177,403 166,386 187,386 " fill="green" /><polygon points="198,403 187,386 208,386 " fill="green" /><polygon points="219,403 208,386 229,386 " fill="green" /><polygon points="240,403 229,386 250,386 " fill="green" /><polygon points="261,403 250,386 271,386 " fill="green" /><polygon points="282,403 271,386 292,386 " fill="green" /><polygon points="303,403 292,386 313,386 " fill="green" /><polygon points="324,403 313,386 334,386 " fill="green" /><polygon points="345,403 334,386 355,386 " fill="green" /><polygon points="366,403 355,386 376,386 " fill="green" /><polygon points="387,403 376,386 397,386 " fill="green" /><polygon points="408,403 397,386 418,386 " fill="green" /><polygon points="429,403 418,386 439,386 " fill="green" /><polygon points="450,403 439,386 460,386 " fill="green" /><polygon points="471,403 460,386 481,386 " fill="green" /><polygon points="50,368 40,386 61,386 " fill="green" /><polygon points="71,368 61,386 82,386 " fill="green" /><polygon points="92,368 82,386 103,386 " fill="green" /><polygon points="113,368 103,386 124,386 " fill="green" /><polygon points="134,368 124,386 145,386 " fill="green" /><polygon points="155,368 145,386 166,386 " fill="green" /><polygon points="176,368 166,386 187,386 " fill="green" /><polygon points="197,368 187,386 208,386 " fill="green" /><polygon points="218,368 208,386 229,386 " fill="green" /><polygon points="239,368 229,386 250,386 " fill="green" /><polygon points="260,368 250,386 271,386 " fill="green" /><polygon points="281,368 271,386 292,386 " fill="green" /><polygon points="302,368 292,386 313,386 " fill="green" /><polygon points="323,368 313,386 334,386 " fill="green" /><polygon points="344,368 334,386 355,386 " fill="green" /><polygon points="365,368 355,386 376,386 " fill="green" /><polygon points="386,368 376,386 397,386 " fill="green" /><polygon points="407,368 397,386 418,386 " fill="green" /><polygon points="428,368 418,386 439,386 " fill="green" /><polygon points="449,368 439,386 460,386 " fill="green" /><polygon points="470,368 460,386 481,386 " fill="green" /><polygon points="61,386 50,368 71,368 " fill="green" /><polygon points="82,386 71,368 92,368 " fill="green" /><polygon points="103,386 92,368 113,368 " fill="green" /><polygon points="124,386 113,368 134,368 " fill="green" /><polygon points="145,386 134,368 155,368 " fill="green" /><polygon points="166,386 155,368 176,368 " fill="green" /><polygon points="187,386 176,368 197,368 " fill="green" /><polygon points="208,386 197,368 218,368 " fill="green" /><polygon points="229,386 218,368 239,368 " fill="green" /><polygon points="250,386 239,368 260,368 " fill="green" /><polygon points="271,386 260,368 281,368 " fill="green" /><polygon points="292,386 281,368 302,368 " fill="green" /><polygon points="313,386 302,368 323,368 " fill="green" /><polygon points="334,386 323,368 344,368 " fill="green" /><polygon points="355,386 344,368 365,368 " fill="green" /><polygon points="376,386 365,368 386,368 " fill="green" /><polygon points="397,386 386,368 407,368 " fill="green" /><polygon points="418,386 407,368 428,368 " fill="green" /><polygon points="439,386 428,368 449,368 " fill="green" /><polygon points="460,386 449,368 470,368 " fill="green" /><polygon points="60,351 50,368 71,368 " fill="green" /><polygon points="81,351 71,368 92,368 " fill="green" /><polygon points="102,351 92,368 113,368 " fill="green" /><polygon points="123,351 113,368 134,368 " fill="green" /><polygon points="144,351 134,368 155,368 " fill="green" /><polygon points="165,351 155,368 176,368 " fill="green" /><polygon points="186,351 176,368 197,368 " fill="green" /><polygon points="207,351 197,368 218,368 " fill="green" /><polygon points="228,351 218,368 239,368 " fill="green" /><polygon points="249,351 239,368 260,368 " fill="green" /><polygon points="270,351 260,368 281,368 " fill="green" /><polygon points="291,351 281,368 302,368 " fill="green" /><polygon points="312,351 302,368 323,368 " fill="green" /><polygon points="333,351 323,368 344,368 " fill="green" /><polygon points="354,351 344,368 365,368 " fill="green" /><polygon points="375,351 365,368 386,368 " fill="green" /><polygon points="396,351 386,368 407,368 " fill="green" /><polygon points="417,351 407,368 428,368 " fill="green" /><polygon points="438,351 428,368 449,368 " fill="green" /><polygon points="459,351 449,368 470,368 " fill="green" /><polygon points="71,368 60,351 81,351 " fill="green" /><polygon points="92,368 81,351 102,351 " fill="green" /><polygon points="113,368 102,351 123,351 " fill="green" /><polygon points="134,368 123,351 144,351 " fill="green" /><polygon points="155,368 144,351 165,351 " fill="green" /><polygon points="176,368 165,351 186,351 " fill="green" /><polygon points="197,368 186,351 207,351 " fill="green" /><polygon points="218,368 207,351 228,351 " fill="green" /><polygon points="239,368 228,351 249,351 " fill="green" /><polygon points="260,368 249,351 270,351 " fill="green" /><polygon points="281,368 270,351 291,351 " fill="green" /><polygon points="302,368 291,351 312,351 " fill="green" /><polygon points="323,368 312,351 333,351 " fill="green" /><polygon points="344,368 333,351 354,351 " fill="green" /><polygon points="365,368 354,351 375,351 " fill="green" /><polygon points="386,368 375,351 396,351 " fill="green" /><polygon points="407,368 396,351 417,351 " fill="green" /><polygon points="428,368 417,351 438,351 " fill="green" /><polygon points="449,368 438,351 459,351 " fill="green" /><polygon points="70,334 60,351 81,351 " fill="green" /><polygon points="91,334 81,351 102,351 " fill="green" /><polygon points="112,334 102,351 123,351 " fill="green" /><polygon points="133,334 123,351 144,351 " fill="green" /><polygon points="154,334 144,351 165,351 " fill="green" /><polygon points="175,334 165,351 186,351 " fill="green" /><polygon points="196,334 186,351 207,351 " fill="green" /><polygon points="217,334 207,351 228,351 " fill="green" /><polygon points="238,334 228,351 249,351 " fill="green" /><polygon points="259,334 249,351 270,351 " fill="green" /><polygon points="280,334 270,351 291,351 " fill="green" /><polygon points="301,334 291,351 312,351 " fill="green" /><polygon points="322,334 312,351 333,351 " fill="green" /><polygon points="343,334 333,351 354,351 " fill="green" /><polygon points="364,334 354,351 375,351 " fill="green" /><polygon points="385,334 375,351 396,351 " fill="green" /><polygon points="406,334 396,351 417,351 " fill="green" /><polygon points="427,334 417,351 438,351 " fill="green" /><polygon points="448,334 438,351 459,351 " fill="green" /><polygon points="81,351 70,334 91,334 " fill="green" /><polygon points="102,351 91,334 112,334 " fill="green" /><polygon points="123,351 112,334 133,334 " fill="green" /><polygon points="144,351 133,334 154,334 " fill="green" /><polygon points="165,351 154,334 175,334 " fill="green" /><polygon points="186,351 175,334 196,334 " fill="green" /><polygon points="207,351 196,334 217,334 " fill="green" /><polygon points="228,351 217,334 238,334 " fill="green" /><polygon points="249,351 238,334 259,334 " fill="green" /><polygon points="270,351 259,334 280,334 " fill="green" /><polygon points="291,351 280,334 301,334 " fill="green" /><polygon points="312,351 301,334 322,334 " fill="green" /><polygon points="333,351 322,334 343,334 " fill="green" /><polygon points="354,351 343,334 364,334 " fill="green" /><polygon points="375,351 364,334 385,334 " fill="green" /><polygon points="396,351 385,334 406,334 " fill="green" /><polygon points="417,351 406,334 427,334 " fill="green" /><polygon points="438,351 427,334 448,334 " fill="green" /><polygon points="80,316 70,334 91,334 " fill="green" /><polygon points="101,316 91,334 112,334 " fill="green" /><polygon points="122,316 112,334 133,334 " fill="green" /><polygon points="143,316 133,334 154,334 " fill="green" /><polygon points="164,316 154,334 175,334 " fill="green" /><polygon points="185,316 175,334 196,334 " fill="green" /><polygon points="206,316 196,334 217,334 " fill="green" /><polygon points="227,316 217,334 238,334 " fill="green" /><polygon points="248,316 238,334 259,334 " fill="green" /><polygon points="269,316 259,334 280,334 " fill="green" /><polygon points="290,316 280,334 301,334 " fill="green" /><polygon points="311,316 301,334 322,334 " fill="green" /><polygon points="332,316 322,334 343,334 " fill="green" /><polygon points="353,316 343,334 364,334 " fill="green" /><polygon points="374,316 364,334 385,334 " fill="green" /><polygon points="395,316 385,334 406,334 " fill="green" /><polygon points="416,316 406,334 427,334 " fill="green" /><polygon points="437,316 427,334 448,334 " fill="green" /><polygon points="91,334 80,316 101,316 " fill="green" /><polygon points="112,334 101,316 122,316 " fill="green" /><polygon points="133,334 122,316 143,316 " fill="green" /><polygon points="154,334 143,316 164,316 " fill="green" /><polygon points="175,334 164,316 185,316 " fill="green" /><polygon points="196,334 185,316 206,316 " fill="green" /><polygon points="217,334 206,316 227,316 " fill="green" /><polygon points="238,334 227,316 248,316 " fill="green" /><polygon points="259,334 248,316 269,316 " fill="green" /><polygon points="280,334 269,316 290,316 " fill="green" /><polygon points="301,334 290,316 311,316 " fill="green" /><polygon points="322,334 311,316 332,316 " fill="green" /><polygon points="343,334 332,316 353,316 " fill="green" /><polygon points="364,334 353,316 374,316 " fill="green" /><polygon points="385,334 374,316 395,316 " fill="green" /><polygon points="406,334 395,316 416,316 " fill="green" /><polygon points="427,334 416,316 437,316 " fill="green" /><polygon points="90,299 80,316 101,316 " fill="green" /><polygon points="111,299 101,316 122,316 " fill="green" /><polygon points="132,299 122,316 143,316 " fill="green" /><polygon points="153,299 143,316 164,316 " fill="green" /><polygon points="174,299 164,316 185,316 " fill="green" /><polygon points="195,299 185,316 206,316 " fill="green" /><polygon points="216,299 206,316 227,316 " fill="green" /><polygon points="237,299 227,316 248,316 " fill="green" /><polygon points="258,299 248,316 269,316 " fill="green" /><polygon points="279,299 269,316 290,316 " fill="green" /><polygon points="300,299 290,316 311,316 " fill="green" /><polygon points="321,299 311,316 332,316 " fill="green" /><polygon points="342,299 332,316 353,316 " fill="green" /><polygon points="363,299 353,316 374,316 " fill="green" /><polygon points="384,299 374,316 395,316 " fill="green" /><polygon points="405,299 395,316 416,316 " fill="green" /><polygon points="426,299 416,316 437,316 " fill="green" /><polygon points="101,316 90,299 111,299 " fill="green" /><polygon points="122,316 111,299 132,299 " fill="green" /><polygon points="143,316 132,299 153,299 " fill="green" /><polygon points="164,316 153,299 174,299 " fill="green" /><polygon points="185,316 174,299 195,299 " fill="green" /><polygon points="206,316 195,299 216,299 " fill="green" /><polygon points="227,316 216,299 237,299 " fill="green" /><polygon points="248,316 237,299 258,299 " fill="green" /><polygon points="269,316 258,299 279,299 " fill="green" /><polygon points="290,316 279,299 300,299 " fill="green" /><polygon points="311,316 300,299 321,299 " fill="green" /><polygon points="332,316 321,299 342,299 " fill="green" /><polygon points="353,316 342,299 363,299 " fill="green" /><polygon points="374,316 363,299 384,299 " fill="green" /><polygon points="395,316 384,299 405,299 " fill="green" /><polygon points="416,316 405,299 426,299 " fill="green" /><polygon points="100,282 90,299 111,299 " fill="green" /><polygon points="121,282 111,299 132,299 " fill="green" /><polygon points="142,282 132,299 153,299 " fill="green" /><polygon points="163,282 153,299 174,299 " fill="green" /><polygon points="184,282 174,299 195,299 " fill="green" /><polygon points="205,282 195,299 216,299 " fill="green" /><polygon points="226,282 216,299 237,299 " fill="green" /><polygon points="247,282 237,299 258,299 " fill="green" /><polygon points="268,282 258,299 279,299 " fill="green" /><polygon points="289,282 279,299 300,299 " fill="green" /><polygon points="310,282 300,299 321,299 " fill="green" /><polygon points="331,282 321,299 342,299 " fill="green" /><polygon points="352,282 342,299 363,299 " fill="green" /><polygon points="373,282 363,299 384,299 " fill="green" /><polygon points="394,282 384,299 405,299 " fill="green" /><polygon points="415,282 405,299 426,299 " fill="green" /><polygon points="111,299 100,282 121,282 " fill="green" /><polygon points="132,299 121,282 142,282 " fill="green" /><polygon points="153,299 142,282 163,282 " fill="green" /><polygon points="174,299 163,282 184,282 " fill="green" /><polygon points="195,299 184,282 205,282 " fill="green" /><polygon points="216,299 205,282 226,282 " fill="green" /><polygon points="237,299 226,282 247,282 " fill="green" /><polygon points="258,299 247,282 268,282 " fill="green" /><polygon points="279,299 268,282 289,282 " fill="green" /><polygon points="300,299 289,282 310,282 " fill="green" /><polygon points="321,299 310,282 331,282 " fill="green" /><polygon points="342,299 331,282 352,282 " fill="green" /><polygon points="363,299 352,282 373,282 " fill="green" /><polygon points="384,299 373,282 394,282 " fill="green" /><polygon points="405,299 394,282 415,282 " fill="green" /><polygon points="110,265 100,282 121,282 " fill="green" /><polygon points="131,265 121,282 142,282 " fill="green" /><polygon points="152,265 142,282 163,282 " fill="green" /><polygon points="173,265 163,282 184,282 " fill="green" /><polygon points="194,265 184,282 205,282 " fill="green" /><polygon points="215,265 205,282 226,282 " fill="green" /><polygon points="236,265 226,282 247,282 " fill="green" /><polygon points="257,265 247,282 268,282 " fill="green" /><polygon points="278,265 268,282 289,282 " fill="green" /><polygon points="299,265 289,282 310,282 " fill="green" /><polygon points="320,265 310,282 331,282 " fill="green" /><polygon points="341,265 331,282 352,282 " fill="green" /><polygon points="362,265 352,282 373,282 " fill="green" /><polygon points="383,265 373,282 394,282 " fill="green" /><polygon points="404,265 394,282 415,282 " fill="green" /><polygon points="121,282 110,265 131,265 " fill="green" /><polygon points="142,282 131,265 152,265 " fill="green" /><polygon points="163,282 152,265 173,265 " fill="green" /><polygon points="184,282 173,265 194,265 " fill="green" /><polygon points="205,282 194,265 215,265 " fill="green" /><polygon points="226,282 215,265 236,265 " fill="green" /><polygon points="247,282 236,265 257,265 " fill="green" /><polygon points="268,282 257,265 278,265 " fill="green" /><polygon points="289,282 278,265 299,265 " fill="green" /><polygon points="310,282 299,265 320,265 " fill="green" /><polygon points="331,282 320,265 341,265 " fill="green" /><polygon points="352,282 341,265 362,265 " fill="green" /><polygon points="373,282 362,265 383,265 " fill="green" /><polygon points="394,282 383,265 404,265 " fill="green" /><polygon points="120,247 110,265 131,265 " fill="green" /><polygon points="141,247 131,265 152,265 " fill="green" /><polygon points="162,247 152,265 173,265 " fill="green" /><polygon points="183,247 173,265 194,265 " fill="green" /><polygon points="204,247 194,265 215,265 " fill="green" /><polygon points="225,247 215,265 236,265 " fill="green" /><polygon points="246,247 236,265 257,265 " fill="green" /><polygon points="267,247 257,265 278,265 " fill="green" /><polygon points="288,247 278,265 299,265 " fill="green" /><polygon points="309,247 299,265 320,265 " fill="green" /><polygon points="330,247 320,265 341,265 " fill="green" /><polygon points="351,247 341,265 362,265 " fill="green" /><polygon points="372,247 362,265 383,265 " fill="green" /><polygon points="393,247 383,265 404,265 " fill="green" /><polygon points="131,265 120,247 141,247 " fill="green" /><polygon points="152,265 141,247 162,247 " fill="green" /><polygon points="173,265 162,247 183,247 " fill="green" /><polygon points="194,265 183,247 204,247 " fill="green" /><polygon points="215,265 204,247 225,247 " fill="green" /><polygon points="236,265 225,247 246,247 " fill="green" /><polygon points="257,265 246,247 267,247 " fill="green" /><polygon points="278,265 267,247 288,247 " fill="green" /><polygon points="299,265 288,247 309,247 " fill="green" /><polygon points="320,265 309,247 330,247 " fill="green" /><polygon points="341,265 330,247 351,247 " fill="green" /><polygon points="362,265 351,247 372,247 " fill="green" /><polygon points="383,265 372,247 393,247 " fill="green" /><polygon points="130,230 120,247 141,247 " fill="green" /><polygon points="151,230 141,247 162,247 " fill="green" /><polygon points="172,230 162,247 183,247 " fill="green" /><polygon points="193,230 183,247 204,247 " fill="green" /><polygon points="214,230 204,247 225,247 " fill="green" /><polygon points="235,230 225,247 246,247 " fill="green" /><polygon points="256,230 246,247 267,247 " fill="green" /><polygon points="277,230 267,247 288,247 " fill="green" /><polygon points="298,230 288,247 309,247 " fill="green" /><polygon points="319,230 309,247 330,247 " fill="green" /><polygon points="340,230 330,247 351,247 " fill="green" /><polygon points="361,230 351,247 372,247 " fill="green" /><polygon points="382,230 372,247 393,247 " fill="green" /><polygon points="141,247 130,230 151,230 " fill="green" /><polygon points="162,247 151,230 172,230 " fill="green" /><polygon points="183,247 172,230 193,230 " fill="green" /><polygon points="204,247 193,230 214,230 " fill="green" /><polygon points="225,247 214,230 235,230 " fill="green" /><polygon points="246,247 235,230 256,230 " fill="green" /><polygon points="267,247 256,230 277,230 " fill="green" /><polygon points="288,247 277,230 298,230 " fill="green" /><polygon points="309,247 298,230 319,230 " fill="green" /><polygon points="330,247 319,230 340,230 " fill="green" /><polygon points="351,247 340,230 361,230 " fill="green" /><polygon points="372,247 361,230 382,230 " fill="green" /><polygon points="140,213 130,230 151,230 " fill="green" /><polygon points="161,213 151,230 172,230 " fill="green" /><polygon points="182,213 172,230 193,230 " fill="green" /><polygon points="203,213 193,230 214,230 " fill="green" /><polygon points="224,213 214,230 235,230 " fill="green" /><polygon points="245,213 235,230 256,230 " fill="green" /><polygon points="266,213 256,230 277,230 " fill="green" /><polygon points="287,213 277,230 298,230 " fill="green" /><polygon points="308,213 298,230 319,230 " fill="green" /><polygon points="329,213 319,230 340,230 " fill="green" /><polygon points="350,213 340,230 361,230 " fill="green" /><polygon points="371,213 361,230 382,230 " fill="green" /><polygon points="151,230 140,213 161,213 " fill="green" /><polygon points="172,230 161,213 182,213 " fill="green" /><polygon points="193,230 182,213 203,213 " fill="green" /><polygon points="214,230 203,213 224,213 " fill="green" /><polygon points="235,230 224,213 245,213 " fill="green" /><polygon points="256,230 245,213 266,213 " fill="green" /><polygon points="277,230 266,213 287,213 " fill="green" /><polygon points="298,230 287,213 308,213 " fill="green" /><polygon points="319,230 308,213 329,213 " fill="green" /><polygon points="340,230 329,213 350,213 " fill="green" /><polygon points="361,230 350,213 371,213 " fill="green" /><polygon points="150,195 140,213 161,213 " fill="green" /><polygon points="171,195 161,213 182,213 " fill="green" /><polygon points="192,195 182,213 203,213 " fill="green" /><polygon points="213,195 203,213 224,213 " fill="green" /><polygon points="234,195 224,213 245,213 " fill="green" /><polygon points="255,195 245,213 266,213 " fill="green" /><polygon points="276,195 266,213 287,213 " fill="green" /><polygon points="297,195 287,213 308,213 " fill="green" /><polygon points="318,195 308,213 329,213 " fill="green" /><polygon points="339,195 329,213 350,213 " fill="green" /><polygon points="360,195 350,213 371,213 " fill="green" /><polygon points="161,213 150,195 171,195 " fill="green" /><polygon points="182,213 171,195 192,195 " fill="green" /><polygon points="203,213 192,195 213,195 " fill="green" /><polygon points="224,213 213,195 234,195 " fill="green" /><polygon points="245,213 234,195 255,195 " fill="green" /><polygon points="266,213 255,195 276,195 " fill="green" /><polygon points="287,213 276,195 297,195 " fill="green" /><polygon points="308,213 297,195 318,195 " fill="green" /><polygon points="329,213 318,195 339,195 " fill="green" /><polygon points="350,213 339,195 360,195 " fill="green" /><polygon points="160,178 150,195 171,195 " fill="green" /><polygon points="181,178 171,195 192,195 " fill="green" /><polygon points="202,178 192,195 213,195 " fill="green" /><polygon points="223,178 213,195 234,195 " fill="green" /><polygon points="244,178 234,195 255,195 " fill="green" /><polygon points="265,178 255,195 276,195 " fill="green" /><polygon points="286,178 276,195 297,195 " fill="green" /><polygon points="307,178 297,195 318,195 " fill="green" /><polygon points="328,178 318,195 339,195 " fill="green" /><polygon points="349,178 339,195 360,195 " fill="green" /><polygon points="171,195 160,178 181,178 " fill="green" /><polygon points="192,195 181,178 202,178 " fill="green" /><polygon points="213,195 202,178 223,178 " fill="green" /><polygon points="234,195 223,178 244,178 " fill="green" /><polygon points="255,195 244,178 265,178 " fill="green" /><polygon points="276,195 265,178 286,178 " fill="green" /><polygon points="297,195 286,178 307,178 " fill="green" /><polygon points="318,195 307,178 328,178 " fill="green" /><polygon points="339,195 328,178 349,178 " fill="green" /><polygon points="170,161 160,178 181,178 " fill="green" /><polygon points="191,161 181,178 202,178 " fill="green" /><polygon points="212,161 202,178 223,178 " fill="green" /><polygon points="233,161 223,178 244,178 " fill="green" /><polygon points="254,161 244,178 265,178 " fill="green" /><polygon points="275,161 265,178 286,178 " fill="green" /><polygon points="296,161 286,178 307,178 " fill="green" /><polygon points="317,161 307,178 328,178 " fill="green" /><polygon points="338,161 328,178 349,178 " fill="green" /><polygon points="181,178 170,161 191,161 " fill="green" /><polygon points="202,178 191,161 212,161 " fill="green" /><polygon points="223,178 212,161 233,161 " fill="green" /><polygon points="244,178 233,161 254,161 " fill="green" /><polygon points="265,178 254,161 275,161 " fill="green" /><polygon points="286,178 275,161 296,161 " fill="green" /><polygon points="307,178 296,161 317,161 " fill="green" /><polygon points="328,178 317,161 338,161 " fill="green" /><polygon points="180,143 170,161 191,161 " fill="green" /><polygon points="201,143 191,161 212,161 " fill="green" /><polygon points="222,143 212,161 233,161 " fill="green" /><polygon points="243,143 233,161 254,161 " fill="green" /><polygon points="264,143 254,161 275,161 " fill="green" /><polygon points="285,143 275,161 296,161 " fill="green" /><polygon points="306,143 296,161 317,161 " fill="green" /><polygon points="327,143 317,161 338,161 " fill="green" /><polygon points="191,161 180,143 201,143 " fill="green" /><polygon points="212,161 201,143 222,143 " fill="green" /><polygon points="233,161 222,143 243,143 " fill="green" /><polygon points="254,161 243,143 264,143 " fill="green" /><polygon points="275,161 264,143 285,143 " fill="green" /><polygon points="296,161 285,143 306,143 " fill="green" /><polygon points="317,161 306,143 327,143 " fill="green" /><polygon points="190,126 180,143 201,143 " fill="green" /><polygon points="211,126 201,143 222,143 " fill="green" /><polygon points="232,126 222,143 243,143 " fill="green" /><polygon points="253,126 243,143 264,143 " fill="green" /><polygon points="274,126 264,143 285,143 " fill="green" /><polygon points="295,126 285,143 306,143 " fill="green" /><polygon points="316,126 306,143 327,143 " fill="green" /><polygon points="201,143 190,126 211,126 " fill="green" /><polygon points="222,143 211,126 232,126 " fill="green" /><polygon points="243,143 232,126 253,126 " fill="green" /><polygon points="264,143 253,126 274,126 " fill="green" /><polygon points="285,143 274,126 295,126 " fill="green" /><polygon points="306,143 295,126 316,126 " fill="green" /><polygon points="200,109 190,126 211,126 " fill="green" /><polygon points="221,109 211,126 232,126 " fill="green" /><polygon points="242,109 232,126 253,126 " fill="green" /><polygon points="263,109 253,126 274,126 " fill="green" /><polygon points="284,109 274,126 295,126 " fill="green" /><polygon points="305,109 295,126 316,126 " fill="green" /><polygon points="211,126 200,109 221,109 " fill="green" /><polygon points="232,126 221,109 242,109 " fill="green" /><polygon points="253,126 242,109 263,109 " fill="green" /><polygon points="274,126 263,109 284,109 " fill="green" /><polygon points="295,126 284,109 305,109 " fill="green" /><polygon points="210,91 200,109 221,109 " fill="green" /><polygon points="231,91 221,109 242,109 " fill="green" /><polygon points="252,91 242,109 263,109 " fill="green" /><polygon points="273,91 263,109 284,109 " fill="green" /><polygon points="294,91 284,109 305,109 " fill="green" /><polygon points="221,109 210,91 231,91 " fill="green" /><polygon points="242,109 231,91 252,91 " fill="green" /><polygon points="263,109 252,91 273,91 " fill="green" /><polygon points="284,109 273,91 294,91 " fill="green" /><polygon points="220,74 210,91 231,91 " fill="green" /><polygon points="241,74 231,91 252,91 " fill="green" /><polygon points="262,74 252,91 273,91 " fill="green" /><polygon points="283,74 273,91 294,91 " fill="green" /><polygon points="231,91 220,74 241,74 " fill="green" /><polygon points="252,91 241,74 262,74 " fill="green" /><polygon points="273,91 262,74 283,74 " fill="green" /><polygon points="294,91 283,74 304,74 " fill="green" /><polygon points="230,57 220,74 241,74 " fill="green" /><polygon points="251,57 241,74 262,74 " fill="green" /><polygon points="272,57 262,74 283,74 " fill="green" /><polygon points="293,57 283,74 304,74 " fill="green" /><polygon points="241,74 230,57 251,57 " fill="green" /><polygon points="262,74 251,57 272,57 " fill="green" /><polygon points="283,74 272,57 293,57 " fill="green" /><polygon points="240,39 230,57 251,57 " fill="green" /><polygon points="261,39 251,57 272,57 " fill="green" /><polygon points="282,39 272,57 293,57 " fill="green" /><polygon points="251,57 240,39 261,39 " fill="green" /><polygon points="272,57 261,39 282,39 " fill="green" /><polygon points="250,22 240,39 261,39 " fill="green" /><polygon points="271,22 261,39 282,39 " fill="green" /><polygon points="261,39 250,22 271,22 " fill="green" /><polygon points="260,5 250,22 271,22 " fill="green" /></svg>