<svg version="1.1" baseProfile="full" width="526" height="526" xmlns="http://wwww.w3.org/2000/svg"><polygon points="263,0 0,455.529 526,455.529" fill="red" /><polygon points="49,437 49,438 49,439 48,441 48,442 48,443 47,444 47,445 46,446 45,447 45,448 44,449 43,450 42,451 41,452 40,452 39,453 38,453 37,454 36,454 35,455 34,455 32,455 31,455 30,455 29,455 27,455 26,454 25,454 24,454 23,453 22,453 21,452 20,451 19,451 18,450 17,449 16,448 16,447 15,446 14,445 14,444 14,443 13,441 13,440 13,439 13,438 13,437 13,435 13,434 13,433 13,432 14,431 14,430 15,429 15,428 16,426 17,426 18,425 18,424 19,423 20,422 21,422 22,421 24,421 25,420 26,420 27,419 28,419 29,419 31,419 32,419 33,419 34,419 35,420 37,420 38,420 39,421 40,422 41,422 42,423 43,424 44,425 44,425 45,426 46,427 46,428 47,429 47,431 48,432 48,433 48,434 49,435 49,437 49,438 49,439 48,440 48,441 48,442 47,444 " fill="green" /><polygon points="85,437 85,438 85,439 84,441 84,442 84,443 83,444 83,445 82,446 81,447 81,448 80,449 79,450 78,451 77,452 76,452 75,453 74,453 73,454 72,454 71,455 70,455 68,455 67,455 66,455 65,455 63,455 62,454 61,454 60,454 59,453 58,453 57,452 56,451 55,451 54,450 53,449 52,448 52,447 51,446 50,445 50,444 50,443 49,441 49,440 49,439 49,438 49,437 49,435 49,434 49,433 49,432 50,431 50,430 51,429 51,428 52,426 53,426 54,425 54,424 55,423 56,422 57,422 58,421 60,421 61,420 62,420 63,419 64,419 65,419 67,419 68,419 69,419 70,419 71,420 73,420 74,420 75,421 76,422 77,422 78,423 79,424 80,425 80,425 81,426 82,427 82,428 83,429 83,431 84,432 84,433 84,434 85,435 85,437 85,438 85,439 84,440 84,441 84,442 83,444 " fill="green" /><polygon points="121,437 121,438 121,439 120,441 120,442 120,443 119,444 119,445 118,446 117,447 117,448 116,449 115,450 114,451 113,452 112,452 111,453 110,453 109,454 108,454 107,455 106,455 104,455 103,455 102,455 101,455 99,455 98,454 97,454 96,454 95,453 94,453 93,452 92,451 91,451 90,450 89,449 88,448 88,447 87,446 86,445 86,444 86,443 85,441 85,440 85,439 85,438 85,437 85,435 85,434 85,433 85,432 86,431 86,430 87,429 87,428 88,426 89,426 90,425 90,424 91,423 92,422 93,422 94,421 96,421 97,420 98,420 99,419 100,419 101,419 103,419 104,419 105,419 106,419 107,420 109,420 110,420 111,421 112,422 113,422 114,423 115,424 116,425 116,425 117,426 118,427 118,428 119,429 119,431 120,432 120,433 120,434 121,435 121,437 121,438 121,439 120,440 120,441 120,442 119,444 " fill="green" /><polygon points="157,437 157,438 157,439 156,441 156,442 156,443 155,444 155,445 154,446 153,447 153,448 152,449 151,450 150,451 149,452 148,452 147,453 146,453 145,454 144,454 143,455 142,455 140,455 139,455 138,455 137,455 135,455 134,454 133,454 132,454 131,453 130,453 129,452 128,451 127,451 126,450 125,449 124,448 124,447 123,446 122,445 122,444 122,443 121,441 121,440 121,439 121,438 121,437 121,435 121,434 121,433 121,432 122,431 122,430 123,429 123,428 124,426 125,426 126,425 126,424 127,423 128,422 129,422 130,421 132,421 133,420 134,420 135,419 136,419 137,419 139,419 140,419 141,419 142,419 143,420 145,420 146,420 147,421 148,422 149,422 150,423 151,424 152,425 152,425 153,426 154,427 154,428 155,429 155,431 156,432 156,433 156,434 157,435 157,437 157,438 157,439 156,440 156,441 156,442 155,444 " fill="green" /><polygon points="193,437 193,438 193,439 192,441 192,442 192,443 191,444 191,445 190,446 189,447 189,448 188,449 187,450 186,451 185,452 184,452 183,453 182,453 181,454 180,454 179,455 178,455 176,455 175,455 174,455 173,455 171,455 170,454 169,454 168,454 167,453 166,453 165,452 164,451 163,451 162,450 161,449 160,448 160,447 159,446 158,445 158,444 158,443 157,441 157,440 157,439 157,438 157,437 157,435 157,434 157,433 157,432 158,431 158,430 159,429 159,428 160,426 161,426 162,425 162,424 163,423 164,422 165,422 166,421 168,421 169,420 170,420 171,419 172,419 173,419 175,419 176,419 177,419 178,419 179,420 181,420 182,420 183,421 184,422 185,422 186,423 187,424 188,425 188,425 189,426 190,427 190,428 191,429 191,431 192,432 192,433 192,434 193,435 193,437 193,438 193,439 192,440 192,441 192,442 191,444 " fill="green" /><polygon points="229,437 229,438 229,439 228,441 228,442 228,443 227,444 227,445 226,446 225,447 225,448 224,449 223,450 222,451 221,452 220,452 219,453 218,453 217,454 216,454 215,455 214,455 212,455 211,455 210,455 209,455 207,455 206,454 205,454 204,454 203,453 202,453 201,452 200,451 199,451 198,450 197,449 196,448 196,447 195,446 194,445 194,444 194,443 193,441 193,440 193,439 193,438 193,437 193,435 193,434 193,433 193,432 194,431 194,430 195,429 195,428 196,426 197,426 198,425 198,424 199,423 200,422 201,422 202,421 204,421 205,420 206,420 207,419 208,419 209,419 211,419 212,419 213,419 214,419 215,420 217,420 218,420 219,421 220,422 221,422 222,423 223,424 224,425 224,425 225,426 226,427 226,428 227,429 227,431 228,432 228,433 228,434 229,435 229,437 229,438 229,439 228,440 228,441 228,442 227,444 " fill="green" /><polygon points="265,437 265,438 265,439 264,441 264,442 264,443 263,444 263,445 262,446 261,447 261,448 260,449 259,450 258,451 257,452 256,452 255,453 254,453 253,454 252,454 251,455 250,455 248,455 247,455 246,455 245,455 243,455 242,454 241,454 240,454 239,453 238,453 237,452 236,451 235,451 234,450 233,449 232,448 232,447 231,446 230,445 230,444 230,443 229,441 229,440 229,439 229,438 229,437 229,435 229,434 229,433 229,432 230,431 230,430 231,429 231,428 232,426 233,426 234,425 234,424 235,423 236,422 237,422 238,421 240,421 241,420 242,420 243,419 244,419 245,419 247,419 248,419 249,419 250,419 251,420 253,420 254,420 255,421 256,422 257,422 258,423 259,424 260,425 260,425 261,426 262,427 262,428 263,429 263,431 264,432 264,433 264,434 265,435 265,437 265,438 265,439 264,440 264,441 264,442 263,444 " fill="green" /><polygon points="301,437 301,438 301,439 300,441 300,442 300,443 299,444 299,445 298,446 297,447 297,448 296,449 295,450 294,451 293,452 292,452 291,453 290,453 289,454 288,454 287,455 286,455 284,455 283,455 282,455 281,455 279,455 278,454 277,454 276,454 275,453 274,453 273,452 272,451 271,451 270,450 269,449 268,448 268,447 267,446 266,445 266,444 266,443 265,441 265,440 265,439 265,438 265,437 265,435 265,434 265,433 265,432 266,431 266,430 267,429 267,428 268,426 269,426 270,425 270,424 271,423 272,422 273,422 274,421 276,421 277,420 278,420 279,419 280,419 281,419 283,419 284,419 285,419 286,419 287,420 289,420 290,420 291,421 292,422 293,422 294,423 295,424 296,425 296,425 297,426 298,427 298,428 299,429 299,431 300,432 300,433 300,434 301,435 301,437 301,438 301,439 300,440 300,441 300,442 299,444 " fill="green" /><polygon points="337,437 337,438 337,439 336,441 336,442 336,443 335,444 335,445 334,446 333,447 333,448 332,449 331,450 330,451 329,452 328,452 327,453 326,453 325,454 324,454 323,455 322,455 320,455 319,455 318,455 317,455 315,455 314,454 313,454 312,454 311,453 310,453 309,452 308,451 307,451 306,450 305,449 304,448 304,447 303,446 302,445 302,444 302,443 301,441 301,440 301,439 301,438 301,437 301,435 301,434 301,433 301,432 302,431 302,430 303,429 303,428 304,426 305,426 306,425 306,424 307,423 308,422 309,422 310,421 312,421 313,420 314,420 315,419 316,419 317,419 319,419 320,419 321,419 322,419 323,420 325,420 326,420 327,421 328,422 329,422 330,423 331,424 332,425 332,425 333,426 334,427 334,428 335,429 335,431 336,432 336,433 336,434 337,435 337,437 337,438 337,439 336,440 336,441 336,442 335,444 " fill="green" /><polygon points="373,437 373,438 373,439 372,441 372,442 372,443 371,444 371,445 370,446 369,447 369,448 368,449 367,450 366,451 365,452 364,452 363,453 362,453 361,454 360,454 359,455 358,455 356,455 355,455 354,455 353,455 351,455 350,454 349,454 348,454 347,453 346,453 345,452 344,451 343,451 342,450 341,449 340,448 340,447 339,446 338,445 338,444 338,443 337,441 337,440 337,439 337,438 337,437 337,435 337,434 337,433 337,432 338,431 338,430 339,429 339,428 340,426 341,426 342,425 342,424 343,423 344,422 345,422 346,421 348,421 349,420 350,420 351,419 352,419 353,419 355,419 356,419 357,419 358,419 359,420 361,420 362,420 363,421 364,422 365,422 366,423 367,424 368,425 368,425 369,426 370,427 370,428 371,429 371,431 372,432 372,433 372,434 373,435 373,437 373,438 373,439 372,440 372,441 372,442 371,444 " fill="green" /><polygon points="409,437 409,438 409,439 408,441 408,442 408,443 407,444 407,445 406,446 405,447 405,448 404,449 403,450 402,451 401,452 400,452 399,453 398,453 397,454 396,454 395,455 394,455 392,455 391,455 390,455 389,455 387,455 386,454 385,454 384,454 383,453 382,453 381,452 380,451 379,451 378,450 377,449 376,448 376,447 375,446 374,445 374,444 374,443 373,441 373,440 373,439 373,438 373,437 373,435 373,434 373,433 373,432 374,431 374,430 375,429 375,428 376,426 377,426 378,425 378,424 379,423 380,422 381,422 382,421 384,421 385,420 386,420 387,419 388,419 389,419 391,419 392,419 393,419 394,419 395,420 397,420 398,420 399,421 400,422 401,422 402,423 403,424 404,425 404,425 405,426 406,427 406,428 407,429 407,431 408,432 408,433 408,434 409,435 409,437 409,438 409,439 408,440 408,441 408,442 407,444 " fill="green" /><polygon points="445,437 445,438 445,439 444,441 444,442 444,443 443,444 443,445 442,446 441,447 441,448 440,449 439,450 438,451 437,452 436,452 435,453 434,453 433,454 432,454 431,455 430,455 428,455 427,455 426,455 425,455 423,455 422,454 421,454 420,454 419,453 418,453 417,452 416,451 415,451 414,450 413,449 412,448 412,447 411,446 410,445 410,444 410,443 409,441 409,440 409,439 409,438 409,437 409,435 409,434 409,433 409,432 410,431 410,430 411,429 411,428 412,426 413,426 414,425 414,424 415,423 416,422 417,422 418,421 420,421 421,420 422,420 423,419 424,419 425,419 427,419 428,419 429,419 430,419 431,420 433,420 434,420 435,421 436,422 437,422 438,423 439,424 440,425 440,425 441,426 442,427 442,428 443,429 443,431 444,432 444,433 444,434 445,435 445,437 445,438 445,439 444,440 444,441 444,442 443,444 " fill="green" /><polygon points="481,437 481,438 481,439 480,441 480,442 480,443 479,444 479,445 478,446 477,447 477,448 476,449 475,450 474,451 473,452 472,452 471,453 470,453 469,454 468,454 467,455 466,455 464,455 463,455 462,455 461,455 459,455 458,454 457,454 456,454 455,453 454,453 453,452 452,451 451,451 450,450 449,449 448,448 448,447 447,446 446,445 446,444 446,443 445,441 445,440 445,439 445,438 445,437 445,435 445,434 445,433 445,432 446,431 446,430 447,429 447,428 448,426 449,426 450,425 450,424 451,423 452,422 453,422 454,421 456,421 457,420 458,420 459,419 460,419 461,419 463,419 464,419 465,419 466,419 467,420 469,420 470,420 471,421 472,422 473,422 474,423 475,424 476,425 476,425 477,426 478,427 478,428 479,429 479,431 480,432 480,433 480,434 481,435 481,437 481,438 481,439 480,440 480,441 480,442 479,444 " fill="green" /><polygon points="69,401 69,402 69,403 69,405 69,406 68,407 68,408 68,409 67,410 66,411 66,412 65,413 64,414 63,415 62,416 61,416 60,417 59,417 58,418 57,418 55,419 54,419 53,419 52,419 51,419 49,419 48,419 47,418 46,418 45,418 44,417 43,417 42,416 41,415 40,415 39,414 38,413 37,412 36,411 36,410 35,409 35,408 34,407 34,405 34,404 34,403 33,402 33,401 34,399 34,398 34,397 34,396 35,395 35,394 36,393 36,392 37,390 38,390 38,389 39,388 40,387 41,386 42,386 43,385 44,385 45,384 47,384 48,383 49,383 50,383 51,383 53,383 54,383 55,383 56,384 57,384 58,384 60,385 61,386 62,386 63,387 64,388 64,389 65,389 66,390 67,391 67,392 68,393 68,395 69,396 69,397 69,398 69,399 69,401 69,402 69,403 69,404 69,405 69,406 68,408 " fill="green" /><polygon points="105,401 105,402 105,403 105,405 105,406 104,407 104,408 104,409 103,410 102,411 102,412 101,413 100,414 99,415 98,416 97,416 96,417 95,417 94,418 93,418 91,419 90,419 89,419 88,419 87,419 85,419 84,419 83,418 82,418 81,418 80,417 79,417 78,416 77,415 76,415 75,414 74,413 73,412 72,411 72,410 71,409 71,408 70,407 70,405 70,404 70,403 69,402 69,401 70,399 70,398 70,397 70,396 71,395 71,394 72,393 72,392 73,390 74,390 74,389 75,388 76,387 77,386 78,386 79,385 80,385 81,384 83,384 84,383 85,383 86,383 87,383 89,383 90,383 91,383 92,384 93,384 94,384 96,385 97,386 98,386 99,387 100,388 100,389 101,389 102,390 103,391 103,392 104,393 104,395 105,396 105,397 105,398 105,399 105,401 105,402 105,403 105,404 105,405 105,406 104,408 " fill="green" /><polygon points="141,401 141,402 141,403 141,405 141,406 140,407 140,408 140,409 139,410 138,411 138,412 137,413 136,414 135,415 134,416 133,416 132,417 131,417 130,418 129,418 127,419 126,419 125,419 124,419 123,419 121,419 120,419 119,418 118,418 117,418 116,417 115,417 114,416 113,415 112,415 111,414 110,413 109,412 108,411 108,410 107,409 107,408 106,407 106,405 106,404 106,403 105,402 105,401 106,399 106,398 106,397 106,396 107,395 107,394 108,393 108,392 109,390 110,390 110,389 111,388 112,387 113,386 114,386 115,385 116,385 117,384 119,384 120,383 121,383 122,383 123,383 125,383 126,383 127,383 128,384 129,384 130,384 132,385 133,386 134,386 135,387 136,388 136,389 137,389 138,390 139,391 139,392 140,393 140,395 141,396 141,397 141,398 141,399 141,401 141,402 141,403 141,404 141,405 141,406 140,408 " fill="green" /><polygon points="177,401 177,402 177,403 177,405 177,406 176,407 176,408 176,409 175,410 174,411 174,412 173,413 172,414 171,415 170,416 169,416 168,417 167,417 166,418 165,418 163,419 162,419 161,419 160,419 159,419 157,419 156,419 155,418 154,418 153,418 152,417 151,417 150,416 149,415 148,415 147,414 146,413 145,412 144,411 144,410 143,409 143,408 142,407 142,405 142,404 142,403 141,402 141,401 142,399 142,398 142,397 142,396 143,395 143,394 144,393 144,392 145,390 146,390 146,389 147,388 148,387 149,386 150,386 151,385 152,385 153,384 155,384 156,383 157,383 158,383 159,383 161,383 162,383 163,383 164,384 165,384 166,384 168,385 169,386 170,386 171,387 172,388 172,389 173,389 174,390 175,391 175,392 176,393 176,395 177,396 177,397 177,398 177,399 177,401 177,402 177,403 177,404 177,405 177,406 176,408 " fill="green" /><polygon points="213,401 213,402 213,403 213,405 213,406 212,407 212,408 212,409 211,410 210,411 210,412 209,413 208,414 207,415 206,416 205,416 204,417 203,417 202,418 201,418 199,419 198,419 197,419 196,419 195,419 193,419 192,419 191,418 190,418 189,418 188,417 187,417 186,416 185,415 184,415 183,414 182,413 181,412 180,411 180,410 179,409 179,408 178,407 178,405 178,404 178,403 177,402 177,401 178,399 178,398 178,397 178,396 179,395 179,394 180,393 180,392 181,390 182,390 182,389 183,388 184,387 185,386 186,386 187,385 188,385 189,384 191,384 192,383 193,383 194,383 195,383 197,383 198,383 199,383 200,384 201,384 202,384 204,385 205,386 206,386 207,387 208,388 208,389 209,389 210,390 211,391 211,392 212,393 212,395 213,396 213,397 213,398 213,399 213,401 213,402 213,403 213,404 213,405 213,406 212,408 " fill="green" /><polygon points="249,401 249,402 249,403 249,405 249,406 248,407 248,408 248,409 247,410 246,411 246,412 245,413 244,414 243,415 242,416 241,416 240,417 239,417 238,418 237,418 235,419 234,419 233,419 232,419 231,419 229,419 228,419 227,418 226,418 225,418 224,417 223,417 222,416 221,415 220,415 219,414 218,413 217,412 216,411 216,410 215,409 215,408 214,407 214,405 214,404 214,403 213,402 213,401 214,399 214,398 214,397 214,396 215,395 215,394 216,393 216,392 217,390 218,390 218,389 219,388 220,387 221,386 222,386 223,385 224,385 225,384 227,384 228,383 229,383 230,383 231,383 233,383 234,383 235,383 236,384 237,384 238,384 240,385 241,386 242,386 243,387 244,388 244,389 245,389 246,390 247,391 247,392 248,393 248,395 249,396 249,397 249,398 249,399 249,401 249,402 249,403 249,404 249,405 249,406 248,408 " fill="green" /><polygon points="285,401 285,402 285,403 285,405 285,406 284,407 284,408 284,409 283,410 282,411 282,412 281,413 280,414 279,415 278,416 277,416 276,417 275,417 274,418 273,418 271,419 270,419 269,419 268,419 267,419 265,419 264,419 263,418 262,418 261,418 260,417 259,417 258,416 257,415 256,415 255,414 254,413 253,412 252,411 252,410 251,409 251,408 250,407 250,405 250,404 250,403 249,402 249,401 250,399 250,398 250,397 250,396 251,395 251,394 252,393 252,392 253,390 254,390 254,389 255,388 256,387 257,386 258,386 259,385 260,385 261,384 263,384 264,383 265,383 266,383 267,383 269,383 270,383 271,383 272,384 273,384 274,384 276,385 277,386 278,386 279,387 280,388 280,389 281,389 282,390 283,391 283,392 284,393 284,395 285,396 285,397 285,398 285,399 285,401 285,402 285,403 285,404 285,405 285,406 284,408 " fill="green" /><polygon points="321,401 321,402 321,403 321,405 321,406 320,407 320,408 320,409 319,410 318,411 318,412 317,413 316,414 315,415 314,416 313,416 312,417 311,417 310,418 309,418 307,419 306,419 305,419 304,419 303,419 301,419 300,419 299,418 298,418 297,418 296,417 295,417 294,416 293,415 292,415 291,414 290,413 289,412 288,411 288,410 287,409 287,408 286,407 286,405 286,404 286,403 285,402 285,401 286,399 286,398 286,397 286,396 287,395 287,394 288,393 288,392 289,390 290,390 290,389 291,388 292,387 293,386 294,386 295,385 296,385 297,384 299,384 300,383 301,383 302,383 303,383 305,383 306,383 307,383 308,384 309,384 310,384 312,385 313,386 314,386 315,387 316,388 316,389 317,389 318,390 319,391 319,392 320,393 320,395 321,396 321,397 321,398 321,399 321,401 321,402 321,403 321,404 321,405 321,406 320,408 " fill="green" /><polygon points="357,401 357,402 357,403 357,405 357,406 356,407 356,408 356,409 355,410 354,411 354,412 353,413 352,414 351,415 350,416 349,416 348,417 347,417 346,418 345,418 343,419 342,419 341,419 340,419 339,419 337,419 336,419 335,418 334,418 333,418 332,417 331,417 330,416 329,415 328,415 327,414 326,413 325,412 324,411 324,410 323,409 323,408 322,407 322,405 322,404 322,403 321,402 321,401 322,399 322,398 322,397 322,396 323,395 323,394 324,393 324,392 325,390 326,390 326,389 327,388 328,387 329,386 330,386 331,385 332,385 333,384 335,384 336,383 337,383 338,383 339,383 341,383 342,383 343,383 344,384 345,384 346,384 348,385 349,386 350,386 351,387 352,388 352,389 353,389 354,390 355,391 355,392 356,393 356,395 357,396 357,397 357,398 357,399 357,401 357,402 357,403 357,404 357,405 357,406 356,408 " fill="green" /><polygon points="393,401 393,402 393,403 393,405 393,406 392,407 392,408 392,409 391,410 390,411 390,412 389,413 388,414 387,415 386,416 385,416 384,417 383,417 382,418 381,418 379,419 378,419 377,419 376,419 375,419 373,419 372,419 371,418 370,418 369,418 368,417 367,417 366,416 365,415 364,415 363,414 362,413 361,412 360,411 360,410 359,409 359,408 358,407 358,405 358,404 358,403 357,402 357,401 358,399 358,398 358,397 358,396 359,395 359,394 360,393 360,392 361,390 362,390 362,389 363,388 364,387 365,386 366,386 367,385 368,385 369,384 371,384 372,383 373,383 374,383 375,383 377,383 378,383 379,383 380,384 381,384 382,384 384,385 385,386 386,386 387,387 388,388 388,389 389,389 390,390 391,391 391,392 392,393 392,395 393,396 393,397 393,398 393,399 393,401 393,402 393,403 393,404 393,405 393,406 392,408 " fill="green" /><polygon points="429,401 429,402 429,403 429,405 429,406 428,407 428,408 428,409 427,410 426,411 426,412 425,413 424,414 423,415 422,416 421,416 420,417 419,417 418,418 417,418 415,419 414,419 413,419 412,419 411,419 409,419 408,419 407,418 406,418 405,418 404,417 403,417 402,416 401,415 400,415 399,414 398,413 397,412 396,411 396,410 395,409 395,408 394,407 394,405 394,404 394,403 393,402 393,401 394,399 394,398 394,397 394,396 395,395 395,394 396,393 396,392 397,390 398,390 398,389 399,388 400,387 401,386 402,386 403,385 404,385 405,384 407,384 408,383 409,383 410,383 411,383 413,383 414,383 415,383 416,384 417,384 418,384 420,385 421,386 422,386 423,387 424,388 424,389 425,389 426,390 427,391 427,392 428,393 428,395 429,396 429,397 429,398 429,399 429,401 429,402 429,403 429,404 429,405 429,406 428,408 " fill="green" /><polygon points="465,401 465,402 465,403 465,405 465,406 464,407 464,408 464,409 463,410 462,411 462,412 461,413 460,414 459,415 458,416 457,416 456,417 455,417 454,418 453,418 451,419 450,419 449,419 448,419 447,419 445,419 444,419 443,418 442,418 441,418 440,417 439,417 438,416 437,415 436,415 435,414 434,413 433,412 432,411 432,410 431,409 431,408 430,407 430,405 430,404 430,403 429,402 429,401 430,399 430,398 430,397 430,396 431,395 431,394 432,393 432,392 433,390 434,390 434,389 435,388 436,387 437,386 438,386 439,385 440,385 441,384 443,384 444,383 445,383 446,383 447,383 449,383 450,383 451,383 452,384 453,384 454,384 456,385 457,386 458,386 459,387 460,388 460,389 461,389 462,390 463,391 463,392 464,393 464,395 465,396 465,397 465,398 465,399 465,401 465,402 465,403 465,404 465,405 465,406 464,408 " fill="green" /><polygon points="90,365 90,366 90,367 90,369 90,370 89,371 89,372 88,373 88,374 87,375 86,376 86,377 85,378 84,379 83,380 82,380 81,381 80,381 79,382 77,382 76,383 75,383 74,383 73,383 71,383 70,383 69,383 68,382 67,382 66,382 64,381 63,381 62,380 61,379 60,379 60,378 59,377 58,376 57,375 57,374 56,373 56,372 55,371 55,369 55,368 54,367 54,366 54,365 54,363 54,362 55,361 55,360 55,359 56,358 56,357 57,356 58,354 58,354 59,353 60,352 61,351 62,350 63,350 64,349 65,349 66,348 67,348 69,347 70,347 71,347 72,347 73,347 75,347 76,347 77,348 78,348 79,348 80,349 81,350 82,350 83,351 84,352 85,353 86,353 87,354 87,355 88,356 89,357 89,359 89,360 90,361 90,362 90,363 90,365 90,366 90,367 90,368 90,369 89,370 89,372 " fill="green" /><polygon points="126,365 126,366 126,367 126,369 126,370 125,371 125,372 124,373 124,374 123,375 122,376 122,377 121,378 120,379 119,380 118,380 117,381 116,381 115,382 113,382 112,383 111,383 110,383 109,383 107,383 106,383 105,383 104,382 103,382 102,382 100,381 99,381 98,380 97,379 96,379 96,378 95,377 94,376 93,375 93,374 92,373 92,372 91,371 91,369 91,368 90,367 90,366 90,365 90,363 90,362 91,361 91,360 91,359 92,358 92,357 93,356 94,354 94,354 95,353 96,352 97,351 98,350 99,350 100,349 101,349 102,348 103,348 105,347 106,347 107,347 108,347 109,347 111,347 112,347 113,348 114,348 115,348 116,349 117,350 118,350 119,351 120,352 121,353 122,353 123,354 123,355 124,356 125,357 125,359 125,360 126,361 126,362 126,363 126,365 126,366 126,367 126,368 126,369 125,370 125,372 " fill="green" /><polygon points="162,365 162,366 162,367 162,369 162,370 161,371 161,372 160,373 160,374 159,375 158,376 158,377 157,378 156,379 155,380 154,380 153,381 152,381 151,382 149,382 148,383 147,383 146,383 145,383 143,383 142,383 141,383 140,382 139,382 138,382 136,381 135,381 134,380 133,379 132,379 132,378 131,377 130,376 129,375 129,374 128,373 128,372 127,371 127,369 127,368 126,367 126,366 126,365 126,363 126,362 127,361 127,360 127,359 128,358 128,357 129,356 130,354 130,354 131,353 132,352 133,351 134,350 135,350 136,349 137,349 138,348 139,348 141,347 142,347 143,347 144,347 145,347 147,347 148,347 149,348 150,348 151,348 152,349 153,350 154,350 155,351 156,352 157,353 158,353 159,354 159,355 160,356 161,357 161,359 161,360 162,361 162,362 162,363 162,365 162,366 162,367 162,368 162,369 161,370 161,372 " fill="green" /><polygon points="198,365 198,366 198,367 198,369 198,370 197,371 197,372 196,373 196,374 195,375 194,376 194,377 193,378 192,379 191,380 190,380 189,381 188,381 187,382 185,382 184,383 183,383 182,383 181,383 179,383 178,383 177,383 176,382 175,382 174,382 172,381 171,381 170,380 169,379 168,379 168,378 167,377 166,376 165,375 165,374 164,373 164,372 163,371 163,369 163,368 162,367 162,366 162,365 162,363 162,362 163,361 163,360 163,359 164,358 164,357 165,356 166,354 166,354 167,353 168,352 169,351 170,350 171,350 172,349 173,349 174,348 175,348 177,347 178,347 179,347 180,347 181,347 183,347 184,347 185,348 186,348 187,348 188,349 189,350 190,350 191,351 192,352 193,353 194,353 195,354 195,355 196,356 197,357 197,359 197,360 198,361 198,362 198,363 198,365 198,366 198,367 198,368 198,369 197,370 197,372 " fill="green" /><polygon points="234,365 234,366 234,367 234,369 234,370 233,371 233,372 232,373 232,374 231,375 230,376 230,377 229,378 228,379 227,380 226,380 225,381 224,381 223,382 221,382 220,383 219,383 218,383 217,383 215,383 214,383 213,383 212,382 211,382 210,382 208,381 207,381 206,380 205,379 204,379 204,378 203,377 202,376 201,375 201,374 200,373 200,372 199,371 199,369 199,368 198,367 198,366 198,365 198,363 198,362 199,361 199,360 199,359 200,358 200,357 201,356 202,354 202,354 203,353 204,352 205,351 206,350 207,350 208,349 209,349 210,348 211,348 213,347 214,347 215,347 216,347 217,347 219,347 220,347 221,348 222,348 223,348 224,349 225,350 226,350 227,351 228,352 229,353 230,353 231,354 231,355 232,356 233,357 233,359 233,360 234,361 234,362 234,363 234,365 234,366 234,367 234,368 234,369 233,370 233,372 " fill="green" /><polygon points="270,365 270,366 270,367 270,369 270,370 269,371 269,372 268,373 268,374 267,375 266,376 266,377 265,378 264,379 263,380 262,380 261,381 260,381 259,382 257,382 256,383 255,383 254,383 253,383 251,383 250,383 249,383 248,382 247,382 246,382 244,381 243,381 242,380 241,379 240,379 240,378 239,377 238,376 237,375 237,374 236,373 236,372 235,371 235,369 235,368 234,367 234,366 234,365 234,363 234,362 235,361 235,360 235,359 236,358 236,357 237,356 238,354 238,354 239,353 240,352 241,351 242,350 243,350 244,349 245,349 246,348 247,348 249,347 250,347 251,347 252,347 253,347 255,347 256,347 257,348 258,348 259,348 260,349 261,350 262,350 263,351 264,352 265,353 266,353 267,354 267,355 268,356 269,357 269,359 269,360 270,361 270,362 270,363 270,365 270,366 270,367 270,368 270,369 269,370 269,372 " fill="green" /><polygon points="306,365 306,366 306,367 306,369 306,370 305,371 305,372 304,373 304,374 303,375 302,376 302,377 301,378 300,379 299,380 298,380 297,381 296,381 295,382 293,382 292,383 291,383 290,383 289,383 287,383 286,383 285,383 284,382 283,382 282,382 280,381 279,381 278,380 277,379 276,379 276,378 275,377 274,376 273,375 273,374 272,373 272,372 271,371 271,369 271,368 270,367 270,366 270,365 270,363 270,362 271,361 271,360 271,359 272,358 272,357 273,356 274,354 274,354 275,353 276,352 277,351 278,350 279,350 280,349 281,349 282,348 283,348 285,347 286,347 287,347 288,347 289,347 291,347 292,347 293,348 294,348 295,348 296,349 297,350 298,350 299,351 300,352 301,353 302,353 303,354 303,355 304,356 305,357 305,359 305,360 306,361 306,362 306,363 306,365 306,366 306,367 306,368 306,369 305,370 305,372 " fill="green" /><polygon points="342,365 342,366 342,367 342,369 342,370 341,371 341,372 340,373 340,374 339,375 338,376 338,377 337,378 336,379 335,380 334,380 333,381 332,381 331,382 329,382 328,383 327,383 326,383 325,383 323,383 322,383 321,383 320,382 319,382 318,382 316,381 315,381 314,380 313,379 312,379 312,378 311,377 310,376 309,375 309,374 308,373 308,372 307,371 307,369 307,368 306,367 306,366 306,365 306,363 306,362 307,361 307,360 307,359 308,358 308,357 309,356 310,354 310,354 311,353 312,352 313,351 314,350 315,350 316,349 317,349 318,348 319,348 321,347 322,347 323,347 324,347 325,347 327,347 328,347 329,348 330,348 331,348 332,349 333,350 334,350 335,351 336,352 337,353 338,353 339,354 339,355 340,356 341,357 341,359 341,360 342,361 342,362 342,363 342,365 342,366 342,367 342,368 342,369 341,370 341,372 " fill="green" /><polygon points="378,365 378,366 378,367 378,369 378,370 377,371 377,372 376,373 376,374 375,375 374,376 374,377 373,378 372,379 371,380 370,380 369,381 368,381 367,382 365,382 364,383 363,383 362,383 361,383 359,383 358,383 357,383 356,382 355,382 354,382 352,381 351,381 350,380 349,379 348,379 348,378 347,377 346,376 345,375 345,374 344,373 344,372 343,371 343,369 343,368 342,367 342,366 342,365 342,363 342,362 343,361 343,360 343,359 344,358 344,357 345,356 346,354 346,354 347,353 348,352 349,351 350,350 351,350 352,349 353,349 354,348 355,348 357,347 358,347 359,347 360,347 361,347 363,347 364,347 365,348 366,348 367,348 368,349 369,350 370,350 371,351 372,352 373,353 374,353 375,354 375,355 376,356 377,357 377,359 377,360 378,361 378,362 378,363 378,365 378,366 378,367 378,368 378,369 377,370 377,372 " fill="green" /><polygon points="414,365 414,366 414,367 414,369 414,370 413,371 413,372 412,373 412,374 411,375 410,376 410,377 409,378 408,379 407,380 406,380 405,381 404,381 403,382 401,382 400,383 399,383 398,383 397,383 395,383 394,383 393,383 392,382 391,382 390,382 388,381 387,381 386,380 385,379 384,379 384,378 383,377 382,376 381,375 381,374 380,373 380,372 379,371 379,369 379,368 378,367 378,366 378,365 378,363 378,362 379,361 379,360 379,359 380,358 380,357 381,356 382,354 382,354 383,353 384,352 385,351 386,350 387,350 388,349 389,349 390,348 391,348 393,347 394,347 395,347 396,347 397,347 399,347 400,347 401,348 402,348 403,348 404,349 405,350 406,350 407,351 408,352 409,353 410,353 411,354 411,355 412,356 413,357 413,359 413,360 414,361 414,362 414,363 414,365 414,366 414,367 414,368 414,369 413,370 413,372 " fill="green" /><polygon points="450,365 450,366 450,367 450,369 450,370 449,371 449,372 448,373 448,374 447,375 446,376 446,377 445,378 444,379 443,380 442,380 441,381 440,381 439,382 437,382 436,383 435,383 434,383 433,383 431,383 430,383 429,383 428,382 427,382 426,382 424,381 423,381 422,380 421,379 420,379 420,378 419,377 418,376 417,375 417,374 416,373 416,372 415,371 415,369 415,368 414,367 414,366 414,365 414,363 414,362 415,361 415,360 415,359 416,358 416,357 417,356 418,354 418,354 419,353 420,352 421,351 422,350 423,350 424,349 425,349 426,348 427,348 429,347 430,347 431,347 432,347 433,347 435,347 436,347 437,348 438,348 439,348 440,349 441,350 442,350 443,351 444,352 445,353 446,353 447,354 447,355 448,356 449,357 449,359 449,360 450,361 450,362 450,363 450,365 450,366 450,367 450,368 450,369 449,370 449,372 " fill="green" /><polygon points="111,329 111,330 111,331 111,333 110,334 110,335 110,336 109,337 108,338 108,339 107,340 106,341 105,342 105,343 104,344 103,344 102,345 100,345 99,346 98,346 97,347 96,347 95,347 93,347 92,347 91,347 90,347 89,346 87,346 86,346 85,345 84,345 83,344 82,343 81,343 80,342 80,341 79,340 78,339 77,338 77,337 76,336 76,335 76,333 75,332 75,331 75,330 75,329 75,327 75,326 75,325 76,324 76,323 77,322 77,321 78,320 78,318 79,318 80,317 81,316 82,315 83,314 84,314 85,313 86,313 87,312 88,312 89,311 91,311 92,311 93,311 94,311 95,311 97,311 98,312 99,312 100,312 101,313 102,314 103,314 104,315 105,316 106,317 107,317 108,318 108,319 109,320 109,321 110,323 110,324 111,325 111,326 111,327 111,329 111,330 111,331 111,332 111,333 110,334 110,336 " fill="green" /><polygon points="147,329 147,330 147,331 147,333 146,334 146,335 146,336 145,337 144,338 144,339 143,340 142,341 141,342 141,343 140,344 139,344 138,345 136,345 135,346 134,346 133,347 132,347 131,347 129,347 128,347 127,347 126,347 125,346 123,346 122,346 121,345 120,345 119,344 118,343 117,343 116,342 116,341 115,340 114,339 113,338 113,337 112,336 112,335 112,333 111,332 111,331 111,330 111,329 111,327 111,326 111,325 112,324 112,323 113,322 113,321 114,320 114,318 115,318 116,317 117,316 118,315 119,314 120,314 121,313 122,313 123,312 124,312 125,311 127,311 128,311 129,311 130,311 131,311 133,311 134,312 135,312 136,312 137,313 138,314 139,314 140,315 141,316 142,317 143,317 144,318 144,319 145,320 145,321 146,323 146,324 147,325 147,326 147,327 147,329 147,330 147,331 147,332 147,333 146,334 146,336 " fill="green" /><polygon points="183,329 183,330 183,331 183,333 182,334 182,335 182,336 181,337 180,338 180,339 179,340 178,341 177,342 177,343 176,344 175,344 174,345 172,345 171,346 170,346 169,347 168,347 167,347 165,347 164,347 163,347 162,347 161,346 159,346 158,346 157,345 156,345 155,344 154,343 153,343 152,342 152,341 151,340 150,339 149,338 149,337 148,336 148,335 148,333 147,332 147,331 147,330 147,329 147,327 147,326 147,325 148,324 148,323 149,322 149,321 150,320 150,318 151,318 152,317 153,316 154,315 155,314 156,314 157,313 158,313 159,312 160,312 161,311 163,311 164,311 165,311 166,311 167,311 169,311 170,312 171,312 172,312 173,313 174,314 175,314 176,315 177,316 178,317 179,317 180,318 180,319 181,320 181,321 182,323 182,324 183,325 183,326 183,327 183,329 183,330 183,331 183,332 183,333 182,334 182,336 " fill="green" /><polygon points="219,329 219,330 219,331 219,333 218,334 218,335 218,336 217,337 216,338 216,339 215,340 214,341 213,342 213,343 212,344 211,344 210,345 208,345 207,346 206,346 205,347 204,347 203,347 201,347 200,347 199,347 198,347 197,346 195,346 194,346 193,345 192,345 191,344 190,343 189,343 188,342 188,341 187,340 186,339 185,338 185,337 184,336 184,335 184,333 183,332 183,331 183,330 183,329 183,327 183,326 183,325 184,324 184,323 185,322 185,321 186,320 186,318 187,318 188,317 189,316 190,315 191,314 192,314 193,313 194,313 195,312 196,312 197,311 199,311 200,311 201,311 202,311 203,311 205,311 206,312 207,312 208,312 209,313 210,314 211,314 212,315 213,316 214,317 215,317 216,318 216,319 217,320 217,321 218,323 218,324 219,325 219,326 219,327 219,329 219,330 219,331 219,332 219,333 218,334 218,336 " fill="green" /><polygon points="255,329 255,330 255,331 255,333 254,334 254,335 254,336 253,337 252,338 252,339 251,340 250,341 249,342 249,343 248,344 247,344 246,345 244,345 243,346 242,346 241,347 240,347 239,347 237,347 236,347 235,347 234,347 233,346 231,346 230,346 229,345 228,345 227,344 226,343 225,343 224,342 224,341 223,340 222,339 221,338 221,337 220,336 220,335 220,333 219,332 219,331 219,330 219,329 219,327 219,326 219,325 220,324 220,323 221,322 221,321 222,320 222,318 223,318 224,317 225,316 226,315 227,314 228,314 229,313 230,313 231,312 232,312 233,311 235,311 236,311 237,311 238,311 239,311 241,311 242,312 243,312 244,312 245,313 246,314 247,314 248,315 249,316 250,317 251,317 252,318 252,319 253,320 253,321 254,323 254,324 255,325 255,326 255,327 255,329 255,330 255,331 255,332 255,333 254,334 254,336 " fill="green" /><polygon points="291,329 291,330 291,331 291,333 290,334 290,335 290,336 289,337 288,338 288,339 287,340 286,341 285,342 285,343 284,344 283,344 282,345 280,345 279,346 278,346 277,347 276,347 275,347 273,347 272,347 271,347 270,347 269,346 267,346 266,346 265,345 264,345 263,344 262,343 261,343 260,342 260,341 259,340 258,339 257,338 257,337 256,336 256,335 256,333 255,332 255,331 255,330 255,329 255,327 255,326 255,325 256,324 256,323 257,322 257,321 258,320 258,318 259,318 260,317 261,316 262,315 263,314 264,314 265,313 266,313 267,312 268,312 269,311 271,311 272,311 273,311 274,311 275,311 277,311 278,312 279,312 280,312 281,313 282,314 283,314 284,315 285,316 286,317 287,317 288,318 288,319 289,320 289,321 290,323 290,324 291,325 291,326 291,327 291,329 291,330 291,331 291,332 291,333 290,334 290,336 " fill="green" /><polygon points="327,329 327,330 327,331 327,333 326,334 326,335 326,336 325,337 324,338 324,339 323,340 322,341 321,342 321,343 320,344 319,344 318,345 316,345 315,346 314,346 313,347 312,347 311,347 309,347 308,347 307,347 306,347 305,346 303,346 302,346 301,345 300,345 299,344 298,343 297,343 296,342 296,341 295,340 294,339 293,338 293,337 292,336 292,335 292,333 291,332 291,331 291,330 291,329 291,327 291,326 291,325 292,324 292,323 293,322 293,321 294,320 294,318 295,318 296,317 297,316 298,315 299,314 300,314 301,313 302,313 303,312 304,312 305,311 307,311 308,311 309,311 310,311 311,311 313,311 314,312 315,312 316,312 317,313 318,314 319,314 320,315 321,316 322,317 323,317 324,318 324,319 325,320 325,321 326,323 326,324 327,325 327,326 327,327 327,329 327,330 327,331 327,332 327,333 326,334 326,336 " fill="green" /><polygon points="363,329 363,330 363,331 363,333 362,334 362,335 362,336 361,337 360,338 360,339 359,340 358,341 357,342 357,343 356,344 355,344 354,345 352,345 351,346 350,346 349,347 348,347 347,347 345,347 344,347 343,347 342,347 341,346 339,346 338,346 337,345 336,345 335,344 334,343 333,343 332,342 332,341 331,340 330,339 329,338 329,337 328,336 328,335 328,333 327,332 327,331 327,330 327,329 327,327 327,326 327,325 328,324 328,323 329,322 329,321 330,320 330,318 331,318 332,317 333,316 334,315 335,314 336,314 337,313 338,313 339,312 340,312 341,311 343,311 344,311 345,311 346,311 347,311 349,311 350,312 351,312 352,312 353,313 354,314 355,314 356,315 357,316 358,317 359,317 360,318 360,319 361,320 361,321 362,323 362,324 363,325 363,326 363,327 363,329 363,330 363,331 363,332 363,333 362,334 362,336 " fill="green" /><polygon points="399,329 399,330 399,331 399,333 398,334 398,335 398,336 397,337 396,338 396,339 395,340 394,341 393,342 393,343 392,344 391,344 390,345 388,345 387,346 386,346 385,347 384,347 383,347 381,347 380,347 379,347 378,347 377,346 375,346 374,346 373,345 372,345 371,344 370,343 369,343 368,342 368,341 367,340 366,339 365,338 365,337 364,336 364,335 364,333 363,332 363,331 363,330 363,329 363,327 363,326 363,325 364,324 364,323 365,322 365,321 366,320 366,318 367,318 368,317 369,316 370,315 371,314 372,314 373,313 374,313 375,312 376,312 377,311 379,311 380,311 381,311 382,311 383,311 385,311 386,312 387,312 388,312 389,313 390,314 391,314 392,315 393,316 394,317 395,317 396,318 396,319 397,320 397,321 398,323 398,324 399,325 399,326 399,327 399,329 399,330 399,331 399,332 399,333 398,334 398,336 " fill="green" /><polygon points="435,329 435,330 435,331 435,333 434,334 434,335 434,336 433,337 432,338 432,339 431,340 430,341 429,342 429,343 428,344 427,344 426,345 424,345 423,346 422,346 421,347 420,347 419,347 417,347 416,347 415,347 414,347 413,346 411,346 410,346 409,345 408,345 407,344 406,343 405,343 404,342 404,341 403,340 402,339 401,338 401,337 400,336 400,335 400,333 399,332 399,331 399,330 399,329 399,327 399,326 399,325 400,324 400,323 401,322 401,321 402,320 402,318 403,318 404,317 405,316 406,315 407,314 408,314 409,313 410,313 411,312 412,312 413,311 415,311 416,311 417,311 418,311 419,311 421,311 422,312 423,312 424,312 425,313 426,314 427,314 428,315 429,316 430,317 431,317 432,318 432,319 433,320 433,321 434,323 434,324 435,325 435,326 435,327 435,329 435,330 435,331 435,332 435,333 434,334 434,336 " fill="green" /><polygon points="132,293 132,294 132,295 131,297 131,298 131,299 130,300 130,301 129,302 129,303 128,304 127,305 126,306 125,307 124,308 123,308 122,309 121,309 120,310 119,310 118,311 117,311 115,311 114,311 113,311 112,311 111,311 109,310 108,310 107,310 106,309 105,309 104,308 103,307 102,307 101,306 100,305 100,304 99,303 98,302 98,301 97,300 97,299 96,297 96,296 96,295 96,294 96,293 96,291 96,290 96,289 97,288 97,287 97,286 98,285 99,284 99,282 100,282 101,281 102,280 103,279 104,278 105,278 106,277 107,277 108,276 109,276 110,275 111,275 113,275 114,275 115,275 116,275 117,275 119,276 120,276 121,276 122,277 123,278 124,278 125,279 126,280 127,281 128,281 128,282 129,283 130,284 130,285 131,287 131,288 131,289 132,290 132,291 132,293 132,294 132,295 132,296 131,297 131,298 131,300 " fill="green" /><polygon points="168,293 168,294 168,295 167,297 167,298 167,299 166,300 166,301 165,302 165,303 164,304 163,305 162,306 161,307 160,308 159,308 158,309 157,309 156,310 155,310 154,311 153,311 151,311 150,311 149,311 148,311 147,311 145,310 144,310 143,310 142,309 141,309 140,308 139,307 138,307 137,306 136,305 136,304 135,303 134,302 134,301 133,300 133,299 132,297 132,296 132,295 132,294 132,293 132,291 132,290 132,289 133,288 133,287 133,286 134,285 135,284 135,282 136,282 137,281 138,280 139,279 140,278 141,278 142,277 143,277 144,276 145,276 146,275 147,275 149,275 150,275 151,275 152,275 153,275 155,276 156,276 157,276 158,277 159,278 160,278 161,279 162,280 163,281 164,281 164,282 165,283 166,284 166,285 167,287 167,288 167,289 168,290 168,291 168,293 168,294 168,295 168,296 167,297 167,298 167,300 " fill="green" /><polygon points="204,293 204,294 204,295 203,297 203,298 203,299 202,300 202,301 201,302 201,303 200,304 199,305 198,306 197,307 196,308 195,308 194,309 193,309 192,310 191,310 190,311 189,311 187,311 186,311 185,311 184,311 183,311 181,310 180,310 179,310 178,309 177,309 176,308 175,307 174,307 173,306 172,305 172,304 171,303 170,302 170,301 169,300 169,299 168,297 168,296 168,295 168,294 168,293 168,291 168,290 168,289 169,288 169,287 169,286 170,285 171,284 171,282 172,282 173,281 174,280 175,279 176,278 177,278 178,277 179,277 180,276 181,276 182,275 183,275 185,275 186,275 187,275 188,275 189,275 191,276 192,276 193,276 194,277 195,278 196,278 197,279 198,280 199,281 200,281 200,282 201,283 202,284 202,285 203,287 203,288 203,289 204,290 204,291 204,293 204,294 204,295 204,296 203,297 203,298 203,300 " fill="green" /><polygon points="240,293 240,294 240,295 239,297 239,298 239,299 238,300 238,301 237,302 237,303 236,304 235,305 234,306 233,307 232,308 231,308 230,309 229,309 228,310 227,310 226,311 225,311 223,311 222,311 221,311 220,311 219,311 217,310 216,310 215,310 214,309 213,309 212,308 211,307 210,307 209,306 208,305 208,304 207,303 206,302 206,301 205,300 205,299 204,297 204,296 204,295 204,294 204,293 204,291 204,290 204,289 205,288 205,287 205,286 206,285 207,284 207,282 208,282 209,281 210,280 211,279 212,278 213,278 214,277 215,277 216,276 217,276 218,275 219,275 221,275 222,275 223,275 224,275 225,275 227,276 228,276 229,276 230,277 231,278 232,278 233,279 234,280 235,281 236,281 236,282 237,283 238,284 238,285 239,287 239,288 239,289 240,290 240,291 240,293 240,294 240,295 240,296 239,297 239,298 239,300 " fill="green" /><polygon points="276,293 276,294 276,295 275,297 275,298 275,299 274,300 274,301 273,302 273,303 272,304 271,305 270,306 269,307 268,308 267,308 266,309 265,309 264,310 263,310 262,311 261,311 259,311 258,311 257,311 256,311 255,311 253,310 252,310 251,310 250,309 249,309 248,308 247,307 246,307 245,306 244,305 244,304 243,303 242,302 242,301 241,300 241,299 240,297 240,296 240,295 240,294 240,293 240,291 240,290 240,289 241,288 241,287 241,286 242,285 243,284 243,282 244,282 245,281 246,280 247,279 248,278 249,278 250,277 251,277 252,276 253,276 254,275 255,275 257,275 258,275 259,275 260,275 261,275 263,276 264,276 265,276 266,277 267,278 268,278 269,279 270,280 271,281 272,281 272,282 273,283 274,284 274,285 275,287 275,288 275,289 276,290 276,291 276,293 276,294 276,295 276,296 275,297 275,298 275,300 " fill="green" /><polygon points="312,293 312,294 312,295 311,297 311,298 311,299 310,300 310,301 309,302 309,303 308,304 307,305 306,306 305,307 304,308 303,308 302,309 301,309 300,310 299,310 298,311 297,311 295,311 294,311 293,311 292,311 291,311 289,310 288,310 287,310 286,309 285,309 284,308 283,307 282,307 281,306 280,305 280,304 279,303 278,302 278,301 277,300 277,299 276,297 276,296 276,295 276,294 276,293 276,291 276,290 276,289 277,288 277,287 277,286 278,285 279,284 279,282 280,282 281,281 282,280 283,279 284,278 285,278 286,277 287,277 288,276 289,276 290,275 291,275 293,275 294,275 295,275 296,275 297,275 299,276 300,276 301,276 302,277 303,278 304,278 305,279 306,280 307,281 308,281 308,282 309,283 310,284 310,285 311,287 311,288 311,289 312,290 312,291 312,293 312,294 312,295 312,296 311,297 311,298 311,300 " fill="green" /><polygon points="348,293 348,294 348,295 347,297 347,298 347,299 346,300 346,301 345,302 345,303 344,304 343,305 342,306 341,307 340,308 339,308 338,309 337,309 336,310 335,310 334,311 333,311 331,311 330,311 329,311 328,311 327,311 325,310 324,310 323,310 322,309 321,309 320,308 319,307 318,307 317,306 316,305 316,304 315,303 314,302 314,301 313,300 313,299 312,297 312,296 312,295 312,294 312,293 312,291 312,290 312,289 313,288 313,287 313,286 314,285 315,284 315,282 316,282 317,281 318,280 319,279 320,278 321,278 322,277 323,277 324,276 325,276 326,275 327,275 329,275 330,275 331,275 332,275 333,275 335,276 336,276 337,276 338,277 339,278 340,278 341,279 342,280 343,281 344,281 344,282 345,283 346,284 346,285 347,287 347,288 347,289 348,290 348,291 348,293 348,294 348,295 348,296 347,297 347,298 347,300 " fill="green" /><polygon points="384,293 384,294 384,295 383,297 383,298 383,299 382,300 382,301 381,302 381,303 380,304 379,305 378,306 377,307 376,308 375,308 374,309 373,309 372,310 371,310 370,311 369,311 367,311 366,311 365,311 364,311 363,311 361,310 360,310 359,310 358,309 357,309 356,308 355,307 354,307 353,306 352,305 352,304 351,303 350,302 350,301 349,300 349,299 348,297 348,296 348,295 348,294 348,293 348,291 348,290 348,289 349,288 349,287 349,286 350,285 351,284 351,282 352,282 353,281 354,280 355,279 356,278 357,278 358,277 359,277 360,276 361,276 362,275 363,275 365,275 366,275 367,275 368,275 369,275 371,276 372,276 373,276 374,277 375,278 376,278 377,279 378,280 379,281 380,281 380,282 381,283 382,284 382,285 383,287 383,288 383,289 384,290 384,291 384,293 384,294 384,295 384,296 383,297 383,298 383,300 " fill="green" /><polygon points="420,293 420,294 420,295 419,297 419,298 419,299 418,300 418,301 417,302 417,303 416,304 415,305 414,306 413,307 412,308 411,308 410,309 409,309 408,310 407,310 406,311 405,311 403,311 402,311 401,311 400,311 399,311 397,310 396,310 395,310 394,309 393,309 392,308 391,307 390,307 389,306 388,305 388,304 387,303 386,302 386,301 385,300 385,299 384,297 384,296 384,295 384,294 384,293 384,291 384,290 384,289 385,288 385,287 385,286 386,285 387,284 387,282 388,282 389,281 390,280 391,279 392,278 393,278 394,277 395,277 396,276 397,276 398,275 399,275 401,275 402,275 403,275 404,275 405,275 407,276 408,276 409,276 410,277 411,278 412,278 413,279 414,280 415,281 416,281 416,282 417,283 418,284 418,285 419,287 419,288 419,289 420,290 420,291 420,293 420,294 420,295 420,296 419,297 419,298 419,300 " fill="green" /><polygon points="153,257 153,258 152,259 152,261 152,262 152,263 151,264 151,265 150,266 149,267 149,268 148,269 147,270 146,271 145,272 144,272 143,273 142,273 141,274 140,274 139,275 137,275 136,275 135,275 134,275 133,275 131,275 130,274 129,274 128,274 127,273 126,273 125,272 124,271 123,271 122,270 121,269 120,268 120,267 119,266 118,265 118,264 117,263 117,261 117,260 117,259 117,258 117,257 117,255 117,254 117,253 117,252 118,251 118,250 119,249 119,248 120,246 121,246 122,245 122,244 123,243 124,242 125,242 126,241 127,241 129,240 130,240 131,239 132,239 133,239 135,239 136,239 137,239 138,239 139,240 140,240 142,240 143,241 144,242 145,242 146,243 147,244 148,245 148,245 149,246 150,247 150,248 151,249 151,251 152,252 152,253 152,254 153,255 153,257 153,258 152,259 152,260 152,261 152,262 151,264 " fill="green" /><polygon points="189,257 189,258 188,259 188,261 188,262 188,263 187,264 187,265 186,266 185,267 185,268 184,269 183,270 182,271 181,272 180,272 179,273 178,273 177,274 176,274 175,275 173,275 172,275 171,275 170,275 169,275 167,275 166,274 165,274 164,274 163,273 162,273 161,272 160,271 159,271 158,270 157,269 156,268 156,267 155,266 154,265 154,264 153,263 153,261 153,260 153,259 153,258 153,257 153,255 153,254 153,253 153,252 154,251 154,250 155,249 155,248 156,246 157,246 158,245 158,244 159,243 160,242 161,242 162,241 163,241 165,240 166,240 167,239 168,239 169,239 171,239 172,239 173,239 174,239 175,240 176,240 178,240 179,241 180,242 181,242 182,243 183,244 184,245 184,245 185,246 186,247 186,248 187,249 187,251 188,252 188,253 188,254 189,255 189,257 189,258 188,259 188,260 188,261 188,262 187,264 " fill="green" /><polygon points="225,257 225,258 224,259 224,261 224,262 224,263 223,264 223,265 222,266 221,267 221,268 220,269 219,270 218,271 217,272 216,272 215,273 214,273 213,274 212,274 211,275 209,275 208,275 207,275 206,275 205,275 203,275 202,274 201,274 200,274 199,273 198,273 197,272 196,271 195,271 194,270 193,269 192,268 192,267 191,266 190,265 190,264 189,263 189,261 189,260 189,259 189,258 189,257 189,255 189,254 189,253 189,252 190,251 190,250 191,249 191,248 192,246 193,246 194,245 194,244 195,243 196,242 197,242 198,241 199,241 201,240 202,240 203,239 204,239 205,239 207,239 208,239 209,239 210,239 211,240 212,240 214,240 215,241 216,242 217,242 218,243 219,244 220,245 220,245 221,246 222,247 222,248 223,249 223,251 224,252 224,253 224,254 225,255 225,257 225,258 224,259 224,260 224,261 224,262 223,264 " fill="green" /><polygon points="261,257 261,258 260,259 260,261 260,262 260,263 259,264 259,265 258,266 257,267 257,268 256,269 255,270 254,271 253,272 252,272 251,273 250,273 249,274 248,274 247,275 245,275 244,275 243,275 242,275 241,275 239,275 238,274 237,274 236,274 235,273 234,273 233,272 232,271 231,271 230,270 229,269 228,268 228,267 227,266 226,265 226,264 225,263 225,261 225,260 225,259 225,258 225,257 225,255 225,254 225,253 225,252 226,251 226,250 227,249 227,248 228,246 229,246 230,245 230,244 231,243 232,242 233,242 234,241 235,241 237,240 238,240 239,239 240,239 241,239 243,239 244,239 245,239 246,239 247,240 248,240 250,240 251,241 252,242 253,242 254,243 255,244 256,245 256,245 257,246 258,247 258,248 259,249 259,251 260,252 260,253 260,254 261,255 261,257 261,258 260,259 260,260 260,261 260,262 259,264 " fill="green" /><polygon points="297,257 297,258 296,259 296,261 296,262 296,263 295,264 295,265 294,266 293,267 293,268 292,269 291,270 290,271 289,272 288,272 287,273 286,273 285,274 284,274 283,275 281,275 280,275 279,275 278,275 277,275 275,275 274,274 273,274 272,274 271,273 270,273 269,272 268,271 267,271 266,270 265,269 264,268 264,267 263,266 262,265 262,264 261,263 261,261 261,260 261,259 261,258 261,257 261,255 261,254 261,253 261,252 262,251 262,250 263,249 263,248 264,246 265,246 266,245 266,244 267,243 268,242 269,242 270,241 271,241 273,240 274,240 275,239 276,239 277,239 279,239 280,239 281,239 282,239 283,240 284,240 286,240 287,241 288,242 289,242 290,243 291,244 292,245 292,245 293,246 294,247 294,248 295,249 295,251 296,252 296,253 296,254 297,255 297,257 297,258 296,259 296,260 296,261 296,262 295,264 " fill="green" /><polygon points="333,257 333,258 332,259 332,261 332,262 332,263 331,264 331,265 330,266 329,267 329,268 328,269 327,270 326,271 325,272 324,272 323,273 322,273 321,274 320,274 319,275 317,275 316,275 315,275 314,275 313,275 311,275 310,274 309,274 308,274 307,273 306,273 305,272 304,271 303,271 302,270 301,269 300,268 300,267 299,266 298,265 298,264 297,263 297,261 297,260 297,259 297,258 297,257 297,255 297,254 297,253 297,252 298,251 298,250 299,249 299,248 300,246 301,246 302,245 302,244 303,243 304,242 305,242 306,241 307,241 309,240 310,240 311,239 312,239 313,239 315,239 316,239 317,239 318,239 319,240 320,240 322,240 323,241 324,242 325,242 326,243 327,244 328,245 328,245 329,246 330,247 330,248 331,249 331,251 332,252 332,253 332,254 333,255 333,257 333,258 332,259 332,260 332,261 332,262 331,264 " fill="green" /><polygon points="369,257 369,258 368,259 368,261 368,262 368,263 367,264 367,265 366,266 365,267 365,268 364,269 363,270 362,271 361,272 360,272 359,273 358,273 357,274 356,274 355,275 353,275 352,275 351,275 350,275 349,275 347,275 346,274 345,274 344,274 343,273 342,273 341,272 340,271 339,271 338,270 337,269 336,268 336,267 335,266 334,265 334,264 333,263 333,261 333,260 333,259 333,258 333,257 333,255 333,254 333,253 333,252 334,251 334,250 335,249 335,248 336,246 337,246 338,245 338,244 339,243 340,242 341,242 342,241 343,241 345,240 346,240 347,239 348,239 349,239 351,239 352,239 353,239 354,239 355,240 356,240 358,240 359,241 360,242 361,242 362,243 363,244 364,245 364,245 365,246 366,247 366,248 367,249 367,251 368,252 368,253 368,254 369,255 369,257 369,258 368,259 368,260 368,261 368,262 367,264 " fill="green" /><polygon points="405,257 405,258 404,259 404,261 404,262 404,263 403,264 403,265 402,266 401,267 401,268 400,269 399,270 398,271 397,272 396,272 395,273 394,273 393,274 392,274 391,275 389,275 388,275 387,275 386,275 385,275 383,275 382,274 381,274 380,274 379,273 378,273 377,272 376,271 375,271 374,270 373,269 372,268 372,267 371,266 370,265 370,264 369,263 369,261 369,260 369,259 369,258 369,257 369,255 369,254 369,253 369,252 370,251 370,250 371,249 371,248 372,246 373,246 374,245 374,244 375,243 376,242 377,242 378,241 379,241 381,240 382,240 383,239 384,239 385,239 387,239 388,239 389,239 390,239 391,240 392,240 394,240 395,241 396,242 397,242 398,243 399,244 400,245 400,245 401,246 402,247 402,248 403,249 403,251 404,252 404,253 404,254 405,255 405,257 405,258 404,259 404,260 404,261 404,262 403,264 " fill="green" /><polygon points="173,221 173,222 173,223 173,225 173,226 172,227 172,228 171,229 171,230 170,231 169,232 169,233 168,234 167,235 166,236 165,236 164,237 163,237 162,238 161,238 159,239 158,239 157,239 156,239 155,239 153,239 152,239 151,238 150,238 149,238 148,237 147,237 145,236 145,235 144,235 143,234 142,233 141,232 140,231 140,230 139,229 139,228 138,227 138,225 138,224 138,223 137,222 137,221 137,219 138,218 138,217 138,216 139,215 139,214 140,213 140,212 141,210 142,210 142,209 143,208 144,207 145,206 146,206 147,205 148,205 149,204 151,204 152,203 153,203 154,203 155,203 157,203 158,203 159,203 160,204 161,204 162,204 163,205 165,206 166,206 167,207 167,208 168,209 169,209 170,210 171,211 171,212 172,213 172,215 173,216 173,217 173,218 173,219 173,221 173,222 173,223 173,224 173,225 173,226 172,228 " fill="green" /><polygon points="209,221 209,222 209,223 209,225 209,226 208,227 208,228 207,229 207,230 206,231 205,232 205,233 204,234 203,235 202,236 201,236 200,237 199,237 198,238 197,238 195,239 194,239 193,239 192,239 191,239 189,239 188,239 187,238 186,238 185,238 184,237 183,237 181,236 181,235 180,235 179,234 178,233 177,232 176,231 176,230 175,229 175,228 174,227 174,225 174,224 174,223 173,222 173,221 173,219 174,218 174,217 174,216 175,215 175,214 176,213 176,212 177,210 178,210 178,209 179,208 180,207 181,206 182,206 183,205 184,205 185,204 187,204 188,203 189,203 190,203 191,203 193,203 194,203 195,203 196,204 197,204 198,204 199,205 201,206 202,206 203,207 203,208 204,209 205,209 206,210 207,211 207,212 208,213 208,215 209,216 209,217 209,218 209,219 209,221 209,222 209,223 209,224 209,225 209,226 208,228 " fill="green" /><polygon points="245,221 245,222 245,223 245,225 245,226 244,227 244,228 243,229 243,230 242,231 241,232 241,233 240,234 239,235 238,236 237,236 236,237 235,237 234,238 233,238 231,239 230,239 229,239 228,239 227,239 225,239 224,239 223,238 222,238 221,238 220,237 219,237 217,236 217,235 216,235 215,234 214,233 213,232 212,231 212,230 211,229 211,228 210,227 210,225 210,224 210,223 209,222 209,221 209,219 210,218 210,217 210,216 211,215 211,214 212,213 212,212 213,210 214,210 214,209 215,208 216,207 217,206 218,206 219,205 220,205 221,204 223,204 224,203 225,203 226,203 227,203 229,203 230,203 231,203 232,204 233,204 234,204 235,205 237,206 238,206 239,207 239,208 240,209 241,209 242,210 243,211 243,212 244,213 244,215 245,216 245,217 245,218 245,219 245,221 245,222 245,223 245,224 245,225 245,226 244,228 " fill="green" /><polygon points="281,221 281,222 281,223 281,225 281,226 280,227 280,228 279,229 279,230 278,231 277,232 277,233 276,234 275,235 274,236 273,236 272,237 271,237 270,238 269,238 267,239 266,239 265,239 264,239 263,239 261,239 260,239 259,238 258,238 257,238 256,237 255,237 253,236 253,235 252,235 251,234 250,233 249,232 248,231 248,230 247,229 247,228 246,227 246,225 246,224 246,223 245,222 245,221 245,219 246,218 246,217 246,216 247,215 247,214 248,213 248,212 249,210 250,210 250,209 251,208 252,207 253,206 254,206 255,205 256,205 257,204 259,204 260,203 261,203 262,203 263,203 265,203 266,203 267,203 268,204 269,204 270,204 271,205 273,206 274,206 275,207 275,208 276,209 277,209 278,210 279,211 279,212 280,213 280,215 281,216 281,217 281,218 281,219 281,221 281,222 281,223 281,224 281,225 281,226 280,228 " fill="green" /><polygon points="317,221 317,222 317,223 317,225 317,226 316,227 316,228 315,229 315,230 314,231 313,232 313,233 312,234 311,235 310,236 309,236 308,237 307,237 306,238 305,238 303,239 302,239 301,239 300,239 299,239 297,239 296,239 295,238 294,238 293,238 292,237 291,237 289,236 289,235 288,235 287,234 286,233 285,232 284,231 284,230 283,229 283,228 282,227 282,225 282,224 282,223 281,222 281,221 281,219 282,218 282,217 282,216 283,215 283,214 284,213 284,212 285,210 286,210 286,209 287,208 288,207 289,206 290,206 291,205 292,205 293,204 295,204 296,203 297,203 298,203 299,203 301,203 302,203 303,203 304,204 305,204 306,204 307,205 309,206 310,206 311,207 311,208 312,209 313,209 314,210 315,211 315,212 316,213 316,215 317,216 317,217 317,218 317,219 317,221 317,222 317,223 317,224 317,225 317,226 316,228 " fill="green" /><polygon points="353,221 353,222 353,223 353,225 353,226 352,227 352,228 351,229 351,230 350,231 349,232 349,233 348,234 347,235 346,236 345,236 344,237 343,237 342,238 341,238 339,239 338,239 337,239 336,239 335,239 333,239 332,239 331,238 330,238 329,238 328,237 327,237 325,236 325,235 324,235 323,234 322,233 321,232 320,231 320,230 319,229 319,228 318,227 318,225 318,224 318,223 317,222 317,221 317,219 318,218 318,217 318,216 319,215 319,214 320,213 320,212 321,210 322,210 322,209 323,208 324,207 325,206 326,206 327,205 328,205 329,204 331,204 332,203 333,203 334,203 335,203 337,203 338,203 339,203 340,204 341,204 342,204 343,205 345,206 346,206 347,207 347,208 348,209 349,209 350,210 351,211 351,212 352,213 352,215 353,216 353,217 353,218 353,219 353,221 353,222 353,223 353,224 353,225 353,226 352,228 " fill="green" /><polygon points="194,185 194,186 194,187 194,189 194,190 193,191 193,192 192,193 192,194 191,195 190,196 189,197 189,198 188,199 187,200 186,200 185,201 184,201 183,202 181,202 180,203 179,203 178,203 177,203 175,203 174,203 173,203 172,202 171,202 169,202 168,201 167,201 166,200 165,199 164,199 163,198 163,197 162,196 161,195 161,194 160,193 159,192 159,191 159,189 158,188 158,187 158,186 158,185 158,183 158,182 159,181 159,180 159,179 160,178 160,177 161,176 162,174 162,174 163,173 164,172 165,171 166,170 167,170 168,169 169,169 170,168 171,168 172,167 174,167 175,167 176,167 177,167 179,167 180,167 181,168 182,168 183,168 184,169 185,170 186,170 187,171 188,172 189,173 190,173 191,174 191,175 192,176 193,177 193,179 193,180 194,181 194,182 194,183 194,185 194,186 194,187 194,188 194,189 193,190 193,192 " fill="green" /><polygon points="230,185 230,186 230,187 230,189 230,190 229,191 229,192 228,193 228,194 227,195 226,196 225,197 225,198 224,199 223,200 222,200 221,201 220,201 219,202 217,202 216,203 215,203 214,203 213,203 211,203 210,203 209,203 208,202 207,202 205,202 204,201 203,201 202,200 201,199 200,199 199,198 199,197 198,196 197,195 197,194 196,193 195,192 195,191 195,189 194,188 194,187 194,186 194,185 194,183 194,182 195,181 195,180 195,179 196,178 196,177 197,176 198,174 198,174 199,173 200,172 201,171 202,170 203,170 204,169 205,169 206,168 207,168 208,167 210,167 211,167 212,167 213,167 215,167 216,167 217,168 218,168 219,168 220,169 221,170 222,170 223,171 224,172 225,173 226,173 227,174 227,175 228,176 229,177 229,179 229,180 230,181 230,182 230,183 230,185 230,186 230,187 230,188 230,189 229,190 229,192 " fill="green" /><polygon points="266,185 266,186 266,187 266,189 266,190 265,191 265,192 264,193 264,194 263,195 262,196 261,197 261,198 260,199 259,200 258,200 257,201 256,201 255,202 253,202 252,203 251,203 250,203 249,203 247,203 246,203 245,203 244,202 243,202 241,202 240,201 239,201 238,200 237,199 236,199 235,198 235,197 234,196 233,195 233,194 232,193 231,192 231,191 231,189 230,188 230,187 230,186 230,185 230,183 230,182 231,181 231,180 231,179 232,178 232,177 233,176 234,174 234,174 235,173 236,172 237,171 238,170 239,170 240,169 241,169 242,168 243,168 244,167 246,167 247,167 248,167 249,167 251,167 252,167 253,168 254,168 255,168 256,169 257,170 258,170 259,171 260,172 261,173 262,173 263,174 263,175 264,176 265,177 265,179 265,180 266,181 266,182 266,183 266,185 266,186 266,187 266,188 266,189 265,190 265,192 " fill="green" /><polygon points="302,185 302,186 302,187 302,189 302,190 301,191 301,192 300,193 300,194 299,195 298,196 297,197 297,198 296,199 295,200 294,200 293,201 292,201 291,202 289,202 288,203 287,203 286,203 285,203 283,203 282,203 281,203 280,202 279,202 277,202 276,201 275,201 274,200 273,199 272,199 271,198 271,197 270,196 269,195 269,194 268,193 267,192 267,191 267,189 266,188 266,187 266,186 266,185 266,183 266,182 267,181 267,180 267,179 268,178 268,177 269,176 270,174 270,174 271,173 272,172 273,171 274,170 275,170 276,169 277,169 278,168 279,168 280,167 282,167 283,167 284,167 285,167 287,167 288,167 289,168 290,168 291,168 292,169 293,170 294,170 295,171 296,172 297,173 298,173 299,174 299,175 300,176 301,177 301,179 301,180 302,181 302,182 302,183 302,185 302,186 302,187 302,188 302,189 301,190 301,192 " fill="green" /><polygon points="338,185 338,186 338,187 338,189 338,190 337,191 337,192 336,193 336,194 335,195 334,196 333,197 333,198 332,199 331,200 330,200 329,201 328,201 327,202 325,202 324,203 323,203 322,203 321,203 319,203 318,203 317,203 316,202 315,202 313,202 312,201 311,201 310,200 309,199 308,199 307,198 307,197 306,196 305,195 305,194 304,193 303,192 303,191 303,189 302,188 302,187 302,186 302,185 302,183 302,182 303,181 303,180 303,179 304,178 304,177 305,176 306,174 306,174 307,173 308,172 309,171 310,170 311,170 312,169 313,169 314,168 315,168 316,167 318,167 319,167 320,167 321,167 323,167 324,167 325,168 326,168 327,168 328,169 329,170 330,170 331,171 332,172 333,173 334,173 335,174 335,175 336,176 337,177 337,179 337,180 338,181 338,182 338,183 338,185 338,186 338,187 338,188 338,189 337,190 337,192 " fill="green" /><polygon points="215,149 215,150 215,151 215,153 214,154 214,155 214,156 213,157 212,158 212,159 211,160 210,161 209,162 209,163 208,164 207,164 205,165 204,165 203,166 202,166 201,167 200,167 199,167 197,167 196,167 195,167 194,167 193,166 191,166 190,166 189,165 188,165 187,164 186,163 185,163 184,162 183,161 183,160 182,159 181,158 181,157 180,156 180,155 180,153 179,152 179,151 179,150 179,149 179,147 179,146 179,145 180,144 180,143 181,142 181,141 182,140 182,138 183,138 184,137 185,136 186,135 187,134 188,134 189,133 190,133 191,132 192,132 193,131 194,131 196,131 197,131 198,131 199,131 200,131 202,132 203,132 204,132 205,133 206,134 207,134 208,135 209,136 210,137 211,137 211,138 212,139 213,140 213,141 214,143 214,144 214,145 215,146 215,147 215,149 215,150 215,151 215,152 214,153 214,154 214,156 " fill="green" /><polygon points="251,149 251,150 251,151 251,153 250,154 250,155 250,156 249,157 248,158 248,159 247,160 246,161 245,162 245,163 244,164 243,164 241,165 240,165 239,166 238,166 237,167 236,167 235,167 233,167 232,167 231,167 230,167 229,166 227,166 226,166 225,165 224,165 223,164 222,163 221,163 220,162 219,161 219,160 218,159 217,158 217,157 216,156 216,155 216,153 215,152 215,151 215,150 215,149 215,147 215,146 215,145 216,144 216,143 217,142 217,141 218,140 218,138 219,138 220,137 221,136 222,135 223,134 224,134 225,133 226,133 227,132 228,132 229,131 230,131 232,131 233,131 234,131 235,131 236,131 238,132 239,132 240,132 241,133 242,134 243,134 244,135 245,136 246,137 247,137 247,138 248,139 249,140 249,141 250,143 250,144 250,145 251,146 251,147 251,149 251,150 251,151 251,152 250,153 250,154 250,156 " fill="green" /><polygon points="287,149 287,150 287,151 287,153 286,154 286,155 286,156 285,157 284,158 284,159 283,160 282,161 281,162 281,163 280,164 279,164 277,165 276,165 275,166 274,166 273,167 272,167 271,167 269,167 268,167 267,167 266,167 265,166 263,166 262,166 261,165 260,165 259,164 258,163 257,163 256,162 255,161 255,160 254,159 253,158 253,157 252,156 252,155 252,153 251,152 251,151 251,150 251,149 251,147 251,146 251,145 252,144 252,143 253,142 253,141 254,140 254,138 255,138 256,137 257,136 258,135 259,134 260,134 261,133 262,133 263,132 264,132 265,131 266,131 268,131 269,131 270,131 271,131 272,131 274,132 275,132 276,132 277,133 278,134 279,134 280,135 281,136 282,137 283,137 283,138 284,139 285,140 285,141 286,143 286,144 286,145 287,146 287,147 287,149 287,150 287,151 287,152 286,153 286,154 286,156 " fill="green" /><polygon points="323,149 323,150 323,151 323,153 322,154 322,155 322,156 321,157 320,158 320,159 319,160 318,161 317,162 317,163 316,164 315,164 313,165 312,165 311,166 310,166 309,167 308,167 307,167 305,167 304,167 303,167 302,167 301,166 299,166 298,166 297,165 296,165 295,164 294,163 293,163 292,162 291,161 291,160 290,159 289,158 289,157 288,156 288,155 288,153 287,152 287,151 287,150 287,149 287,147 287,146 287,145 288,144 288,143 289,142 289,141 290,140 290,138 291,138 292,137 293,136 294,135 295,134 296,134 297,133 298,133 299,132 300,132 301,131 302,131 304,131 305,131 306,131 307,131 308,131 310,132 311,132 312,132 313,133 314,134 315,134 316,135 317,136 318,137 319,137 319,138 320,139 321,140 321,141 322,143 322,144 322,145 323,146 323,147 323,149 323,150 323,151 323,152 322,153 322,154 322,156 " fill="green" /><polygon points="236,113 236,114 236,115 235,117 235,118 235,119 234,120 234,121 233,122 233,123 232,124 231,125 230,126 229,127 228,128 227,128 226,129 225,129 224,130 223,130 222,131 221,131 219,131 218,131 217,131 216,131 215,131 213,130 212,130 211,130 210,129 209,129 208,128 207,127 206,127 205,126 204,125 203,124 203,123 202,122 202,121 201,120 201,119 200,117 200,116 200,115 200,114 200,113 200,111 200,110 200,109 200,108 201,107 201,106 202,105 202,104 203,102 204,102 205,101 206,100 206,99 207,98 208,98 210,97 211,97 212,96 213,96 214,95 215,95 216,95 218,95 219,95 220,95 221,95 222,96 224,96 225,96 226,97 227,98 228,98 229,99 230,100 231,101 231,101 232,102 233,103 234,104 234,105 235,107 235,108 235,109 236,110 236,111 236,113 236,114 236,115 235,116 235,117 235,118 234,120 " fill="green" /><polygon points="272,113 272,114 272,115 271,117 271,118 271,119 270,120 270,121 269,122 269,123 268,124 267,125 266,126 265,127 264,128 263,128 262,129 261,129 260,130 259,130 258,131 257,131 255,131 254,131 253,131 252,131 251,131 249,130 248,130 247,130 246,129 245,129 244,128 243,127 242,127 241,126 240,125 239,124 239,123 238,122 238,121 237,120 237,119 236,117 236,116 236,115 236,114 236,113 236,111 236,110 236,109 236,108 237,107 237,106 238,105 238,104 239,102 240,102 241,101 242,100 242,99 243,98 244,98 246,97 247,97 248,96 249,96 250,95 251,95 252,95 254,95 255,95 256,95 257,95 258,96 260,96 261,96 262,97 263,98 264,98 265,99 266,100 267,101 267,101 268,102 269,103 270,104 270,105 271,107 271,108 271,109 272,110 272,111 272,113 272,114 272,115 271,116 271,117 271,118 270,120 " fill="green" /><polygon points="308,113 308,114 308,115 307,117 307,118 307,119 306,120 306,121 305,122 305,123 304,124 303,125 302,126 301,127 300,128 299,128 298,129 297,129 296,130 295,130 294,131 293,131 291,131 290,131 289,131 288,131 287,131 285,130 284,130 283,130 282,129 281,129 280,128 279,127 278,127 277,126 276,125 275,124 275,123 274,122 274,121 273,120 273,119 272,117 272,116 272,115 272,114 272,113 272,111 272,110 272,109 272,108 273,107 273,106 274,105 274,104 275,102 276,102 277,101 278,100 278,99 279,98 280,98 282,97 283,97 284,96 285,96 286,95 287,95 288,95 290,95 291,95 292,95 293,95 294,96 296,96 297,96 298,97 299,98 300,98 301,99 302,100 303,101 303,101 304,102 305,103 306,104 306,105 307,107 307,108 307,109 308,110 308,111 308,113 308,114 308,115 307,116 307,117 307,118 306,120 " fill="green" /><polygon points="257,77 256,78 256,79 256,81 256,82 256,83 255,84 255,85 254,86 253,87 253,88 252,89 251,90 250,91 249,92 248,92 247,93 246,93 245,94 244,94 243,95 241,95 240,95 239,95 238,95 237,95 235,95 234,94 233,94 232,94 231,93 230,93 229,92 228,91 227,91 226,90 225,89 224,88 224,87 223,86 222,85 222,84 221,83 221,81 221,80 221,79 221,78 221,77 221,75 221,74 221,73 221,72 222,71 222,70 223,69 223,68 224,66 225,66 225,65 226,64 227,63 228,62 229,62 230,61 231,61 233,60 234,60 235,59 236,59 237,59 238,59 240,59 241,59 242,59 243,60 244,60 246,60 247,61 248,62 249,62 250,63 251,64 251,65 252,65 253,66 254,67 254,68 255,69 255,71 256,72 256,73 256,74 256,75 257,77 257,78 256,79 256,80 256,81 256,82 255,84 " fill="green" /><polygon points="293,77 292,78 292,79 292,81 292,82 292,83 291,84 291,85 290,86 289,87 289,88 288,89 287,90 286,91 285,92 284,92 283,93 282,93 281,94 280,94 279,95 277,95 276,95 275,95 274,95 273,95 271,95 270,94 269,94 268,94 267,93 266,93 265,92 264,91 263,91 262,90 261,89 260,88 260,87 259,86 258,85 258,84 257,83 257,81 257,80 257,79 257,78 257,77 257,75 257,74 257,73 257,72 258,71 258,70 259,69 259,68 260,66 261,66 261,65 262,64 263,63 264,62 265,62 266,61 267,61 269,60 270,60 271,59 272,59 273,59 274,59 276,59 277,59 278,59 279,60 280,60 282,60 283,61 284,62 285,62 286,63 287,64 287,65 288,65 289,66 290,67 290,68 291,69 291,71 292,72 292,73 292,74 292,75 293,77 293,78 292,79 292,80 292,81 292,82 291,84 " fill="green" /><polygon points="277,41 277,42 277,43 277,45 277,46 276,47 276,48 275,49 275,50 274,51 273,52 273,53 272,54 271,55 270,56 269,56 268,57 267,57 266,58 265,58 263,59 262,59 261,59 260,59 259,59 257,59 256,59 255,58 254,58 253,58 252,57 250,57 249,56 248,55 247,55 247,54 246,53 245,52 244,51 244,50 243,49 243,48 242,47 242,45 242,44 241,43 241,42 241,41 241,39 242,38 242,37 242,36 242,35 243,34 243,33 244,32 245,30 245,30 246,29 247,28 248,27 249,26 250,26 251,25 252,25 253,24 254,24 256,23 257,23 258,23 259,23 260,23 262,23 263,23 264,24 265,24 266,24 267,25 268,26 269,26 270,27 271,28 272,29 273,29 274,30 274,31 275,32 276,33 276,35 277,36 277,37 277,38 277,39 277,41 277,42 277,43 277,44 277,45 276,46 276,48 " fill="green" /></svg>