<svg version="1.1" baseProfile="full" width="950" height="950" xmlns="http://wwww.w3.org/2000/svg"><circle cx="475" cy="475" r="475" fill="red" /><polygon points="475,450 518,450 518,475 475,475 " fill="green" /><polygon points="475,425 518,425 518,450 475,450 " fill="green" /><polygon points="475,400 518,400 518,425 475,425 " fill="green" /><polygon points="475,375 518,375 518,400 475,400 " fill="green" /><polygon points="475,350 518,350 518,375 475,375 " fill="green" /><polygon points="475,325 518,325 518,350 475,350 " fill="green" /><polygon points="475,300 518,300 518,325 475,325 " fill="green" /><polygon points="475,275 518,275 518,300 475,300 " fill="green" /><polygon points="475,250 518,250 518,275 475,275 " fill="green" /><polygon points="475,225 518,225 518,250 475,250 " fill="green" /><polygon points="475,200 518,200 518,225 475,225 " fill="green" /><polygon points="475,175 518,175 518,200 475,200 " fill="green" /><polygon points="475,150 518,150 518,175 475,175 " fill="green" /><polygon points="475,125 518,125 518,150 475,150 " fill="green" /><polygon points="475,100 518,100 518,125 475,125 " fill="green" /><polygon points="475,75 518,75 518,100 475,100 " fill="green" /><polygon points="475,50 518,50 518,75 475,75 " fill="green" /><polygon points="475,25 518,25 518,50 475,50 " fill="green" /><polygon points="475,0 518,0 518,25 475,25 " fill="green" /><polygon points="475,475 518,475 518,500 475,500 " fill="green" /><polygon points="475,500 518,500 518,525 475,525 " fill="green" /><polygon points="475,525 518,525 518,550 475,550 " fill="green" /><polygon points="475,550 518,550 518,575 475,575 " fill="green" /><polygon points="475,575 518,575 518,600 475,600 " fill="green" /><polygon points="475,600 518,600 518,625 475,625 " fill="green" /><polygon points="475,625 518,625 518,650 475,650 " fill="green" /><polygon points="475,650 518,650 518,675 475,675 " fill="green" /><polygon points="475,675 518,675 518,700 475,700 " fill="green" /><polygon points="475,700 518,700 518,725 475,725 " fill="green" /><polygon points="475,725 518,725 518,750 475,750 " fill="green" /><polygon points="475,750 518,750 518,775 475,775 " fill="green" /><polygon points="475,775 518,775 518,800 475,800 " fill="green" /><polygon points="475,800 518,800 518,825 475,825 " fill="green" /><polygon points="475,825 518,825 518,850 475,850 " fill="green" /><polygon points="475,850 518,850 518,875 475,875 " fill="green" /><polygon points="475,875 518,875 518,900 475,900 " fill="green" /><polygon points="475,900 518,900 518,925 475,925 " fill="green" /><polygon points="475,925 518,925 518,950 475,950 " fill="green" /></svg>