<svg version="1.1" baseProfile="full" width="526" height="526" xmlns="http://wwww.w3.org/2000/svg"><polygon points="263,0 0,455.529 526,455.529" fill="red" /><polygon points="14,430 57,430 57,455 14,455 " fill="green" /><polygon points="57,430 100,430 100,455 57,455 " fill="green" /><polygon points="100,430 143,430 143,455 100,455 " fill="green" /><polygon points="143,430 186,430 186,455 143,455 " fill="green" /><polygon points="186,430 229,430 229,455 186,455 " fill="green" /><polygon points="229,430 272,430 272,455 229,455 " fill="green" /><polygon points="272,430 315,430 315,455 272,455 " fill="green" /><polygon points="315,430 358,430 358,455 315,455 " fill="green" /><polygon points="358,430 401,430 401,455 358,455 " fill="green" /><polygon points="401,430 444,430 444,455 401,455 " fill="green" /><polygon points="444,430 487,430 487,455 444,455 " fill="green" /><polygon points="28,405 71,405 71,430 28,430 " fill="green" /><polygon points="71,405 114,405 114,430 71,430 " fill="green" /><polygon points="114,405 157,405 157,430 114,430 " fill="green" /><polygon points="157,405 200,405 200,430 157,430 " fill="green" /><polygon points="200,405 243,405 243,430 200,430 " fill="green" /><polygon points="243,405 286,405 286,430 243,430 " fill="green" /><polygon points="286,405 329,405 329,430 286,430 " fill="green" /><polygon points="329,405 372,405 372,430 329,430 " fill="green" /><polygon points="372,405 415,405 415,430 372,430 " fill="green" /><polygon points="415,405 458,405 458,430 415,430 " fill="green" /><polygon points="43,380 86,380 86,405 43,405 " fill="green" /><polygon points="86,380 129,380 129,405 86,405 " fill="green" /><polygon points="129,380 172,380 172,405 129,405 " fill="green" /><polygon points="172,380 215,380 215,405 172,405 " fill="green" /><polygon points="215,380 258,380 258,405 215,405 " fill="green" /><polygon points="258,380 301,380 301,405 258,405 " fill="green" /><polygon points="301,380 344,380 344,405 301,405 " fill="green" /><polygon points="344,380 387,380 387,405 344,405 " fill="green" /><polygon points="387,380 430,380 430,405 387,405 " fill="green" /><polygon points="430,380 473,380 473,405 430,405 " fill="green" /><polygon points="57,355 100,355 100,380 57,380 " fill="green" /><polygon points="100,355 143,355 143,380 100,380 " fill="green" /><polygon points="143,355 186,355 186,380 143,380 " fill="green" /><polygon points="186,355 229,355 229,380 186,380 " fill="green" /><polygon points="229,355 272,355 272,380 229,380 " fill="green" /><polygon points="272,355 315,355 315,380 272,380 " fill="green" /><polygon points="315,355 358,355 358,380 315,380 " fill="green" /><polygon points="358,355 401,355 401,380 358,380 " fill="green" /><polygon points="401,355 444,355 444,380 401,380 " fill="green" /><polygon points="72,330 115,330 115,355 72,355 " fill="green" /><polygon points="115,330 158,330 158,355 115,355 " fill="green" /><polygon points="158,330 201,330 201,355 158,355 " fill="green" /><polygon points="201,330 244,330 244,355 201,355 " fill="green" /><polygon points="244,330 287,330 287,355 244,355 " fill="green" /><polygon points="287,330 330,330 330,355 287,355 " fill="green" /><polygon points="330,330 373,330 373,355 330,355 " fill="green" /><polygon points="373,330 416,330 416,355 373,355 " fill="green" /><polygon points="86,305 129,305 129,330 86,330 " fill="green" /><polygon points="129,305 172,305 172,330 129,330 " fill="green" /><polygon points="172,305 215,305 215,330 172,330 " fill="green" /><polygon points="215,305 258,305 258,330 215,330 " fill="green" /><polygon points="258,305 301,305 301,330 258,330 " fill="green" /><polygon points="301,305 344,305 344,330 301,330 " fill="green" /><polygon points="344,305 387,305 387,330 344,330 " fill="green" /><polygon points="387,305 430,305 430,330 387,330 " fill="green" /><polygon points="101,280 144,280 144,305 101,305 " fill="green" /><polygon points="144,280 187,280 187,305 144,305 " fill="green" /><polygon points="187,280 230,280 230,305 187,305 " fill="green" /><polygon points="230,280 273,280 273,305 230,305 " fill="green" /><polygon points="273,280 316,280 316,305 273,305 " fill="green" /><polygon points="316,280 359,280 359,305 316,305 " fill="green" /><polygon points="359,280 402,280 402,305 359,305 " fill="green" /><polygon points="115,255 158,255 158,280 115,280 " fill="green" /><polygon points="158,255 201,255 201,280 158,280 " fill="green" /><polygon points="201,255 244,255 244,280 201,280 " fill="green" /><polygon points="244,255 287,255 287,280 244,280 " fill="green" /><polygon points="287,255 330,255 330,280 287,280 " fill="green" /><polygon points="330,255 373,255 373,280 330,280 " fill="green" /><polygon points="129,230 172,230 172,255 129,255 " fill="green" /><polygon points="172,230 215,230 215,255 172,255 " fill="green" /><polygon points="215,230 258,230 258,255 215,255 " fill="green" /><polygon points="258,230 301,230 301,255 258,255 " fill="green" /><polygon points="301,230 344,230 344,255 301,255 " fill="green" /><polygon points="344,230 387,230 387,255 344,255 " fill="green" /><polygon points="144,205 187,205 187,230 144,230 " fill="green" /><polygon points="187,205 230,205 230,230 187,230 " fill="green" /><polygon points="230,205 273,205 273,230 230,230 " fill="green" /><polygon points="273,205 316,205 316,230 273,230 " fill="green" /><polygon points="316,205 359,205 359,230 316,230 " fill="green" /><polygon points="158,180 201,180 201,205 158,205 " fill="green" /><polygon points="201,180 244,180 244,205 201,205 " fill="green" /><polygon points="244,180 287,180 287,205 244,205 " fill="green" /><polygon points="287,180 330,180 330,205 287,205 " fill="green" /><polygon points="173,155 216,155 216,180 173,180 " fill="green" /><polygon points="216,155 259,155 259,180 216,180 " fill="green" /><polygon points="259,155 302,155 302,180 259,180 " fill="green" /><polygon points="302,155 345,155 345,180 302,180 " fill="green" /><polygon points="187,130 230,130 230,155 187,155 " fill="green" /><polygon points="230,130 273,130 273,155 230,155 " fill="green" /><polygon points="273,130 316,130 316,155 273,155 " fill="green" /><polygon points="202,105 245,105 245,130 202,130 " fill="green" /><polygon points="245,105 288,105 288,130 245,130 " fill="green" /><polygon points="216,80 259,80 259,105 216,105 " fill="green" /><polygon points="259,80 302,80 302,105 259,105 " fill="green" /><polygon points="230,55 273,55 273,80 230,80 " fill="green" /></svg>