<svg version="1.1" baseProfile="full" width="1000" height="998" xmlns="http://wwww.w3.org/2000/svg"><polygon points="500,250 499,266 497,283 494,300 491,316 485,332 479,348 472,363 464,378 455,392 445,405 434,418 422,430 410,441 397,452 383,461 368,470 353,477 338,483 322,489 305,493 289,496 272,498 255,499 239,499 222,498 205,496 189,492 173,487 157,482 141,475 127,467 112,458 98,449 85,438 73,427 62,414 51,401 41,388 32,373 25,359 18,343 12,327 7,311 4,295 1,278 0,261 0,245 0,228 2,211 6,195 10,178 15,162 22,147 29,132 37,117 47,103 57,90 68,77 80,66 93,55 106,45 120,35 135,27 150,20 166,14 182,9 198,5 215,2 232,0 248,0 265,0 282,2 299,4 315,8 331,13 347,19 362,26 377,34 391,43 404,53 417,64 429,76 441,88 451,102 460,115 469,130 477,145 483,160 489,176 493,193 496,209 498,226 499,242 499,259 498,276 496,293 492,309 488,325 482,341 " fill="red" /></svg>