<svg version="1.1" baseProfile="full" width="857" height="685" xmlns="http://wwww.w3.org/2000/svg"><rect x="0" y="0" width="857" height="685" fill="red" /><polygon points="0,0 43,0 43,25 0,25 " fill="green" /><polygon points="43,0 86,0 86,25 43,25 " fill="green" /><polygon points="86,0 129,0 129,25 86,25 " fill="green" /><polygon points="129,0 172,0 172,25 129,25 " fill="green" /><polygon points="172,0 215,0 215,25 172,25 " fill="green" /><polygon points="215,0 258,0 258,25 215,25 " fill="green" /><polygon points="258,0 301,0 301,25 258,25 " fill="green" /><polygon points="301,0 344,0 344,25 301,25 " fill="green" /><polygon points="344,0 387,0 387,25 344,25 " fill="green" /><polygon points="387,0 430,0 430,25 387,25 " fill="green" /><polygon points="430,0 473,0 473,25 430,25 " fill="green" /><polygon points="473,0 516,0 516,25 473,25 " fill="green" /><polygon points="516,0 559,0 559,25 516,25 " fill="green" /><polygon points="559,0 602,0 602,25 559,25 " fill="green" /><polygon points="602,0 645,0 645,25 602,25 " fill="green" /><polygon points="645,0 688,0 688,25 645,25 " fill="green" /><polygon points="688,0 731,0 731,25 688,25 " fill="green" /><polygon points="731,0 774,0 774,25 731,25 " fill="green" /><polygon points="774,0 817,0 817,25 774,25 " fill="green" /><polygon points="0,25 43,25 43,50 0,50 " fill="green" /><polygon points="43,25 86,25 86,50 43,50 " fill="green" /><polygon points="86,25 129,25 129,50 86,50 " fill="green" /><polygon points="129,25 172,25 172,50 129,50 " fill="green" /><polygon points="172,25 215,25 215,50 172,50 " fill="green" /><polygon points="215,25 258,25 258,50 215,50 " fill="green" /><polygon points="258,25 301,25 301,50 258,50 " fill="green" /><polygon points="301,25 344,25 344,50 301,50 " fill="green" /><polygon points="344,25 387,25 387,50 344,50 " fill="green" /><polygon points="387,25 430,25 430,50 387,50 " fill="green" /><polygon points="430,25 473,25 473,50 430,50 " fill="green" /><polygon points="473,25 516,25 516,50 473,50 " fill="green" /><polygon points="516,25 559,25 559,50 516,50 " fill="green" /><polygon points="559,25 602,25 602,50 559,50 " fill="green" /><polygon points="602,25 645,25 645,50 602,50 " fill="green" /><polygon points="645,25 688,25 688,50 645,50 " fill="green" /><polygon points="688,25 731,25 731,50 688,50 " fill="green" /><polygon points="731,25 774,25 774,50 731,50 " fill="green" /><polygon points="774,25 817,25 817,50 774,50 " fill="green" /><polygon points="0,50 43,50 43,75 0,75 " fill="green" /><polygon points="43,50 86,50 86,75 43,75 " fill="green" /><polygon points="86,50 129,50 129,75 86,75 " fill="green" /><polygon points="129,50 172,50 172,75 129,75 " fill="green" /><polygon points="172,50 215,50 215,75 172,75 " fill="green" /><polygon points="215,50 258,50 258,75 215,75 " fill="green" /><polygon points="258,50 301,50 301,75 258,75 " fill="green" /><polygon points="301,50 344,50 344,75 301,75 " fill="green" /><polygon points="344,50 387,50 387,75 344,75 " fill="green" /><polygon points="387,50 430,50 430,75 387,75 " fill="green" /><polygon points="430,50 473,50 473,75 430,75 " fill="green" /><polygon points="473,50 516,50 516,75 473,75 " fill="green" /><polygon points="516,50 559,50 559,75 516,75 " fill="green" /><polygon points="559,50 602,50 602,75 559,75 " fill="green" /><polygon points="602,50 645,50 645,75 602,75 " fill="green" /><polygon points="645,50 688,50 688,75 645,75 " fill="green" /><polygon points="688,50 731,50 731,75 688,75 " fill="green" /><polygon points="731,50 774,50 774,75 731,75 " fill="green" /><polygon points="774,50 817,50 817,75 774,75 " fill="green" /><polygon points="0,75 43,75 43,100 0,100 " fill="green" /><polygon points="43,75 86,75 86,100 43,100 " fill="green" /><polygon points="86,75 129,75 129,100 86,100 " fill="green" /><polygon points="129,75 172,75 172,100 129,100 " fill="green" /><polygon points="172,75 215,75 215,100 172,100 " fill="green" /><polygon points="215,75 258,75 258,100 215,100 " fill="green" /><polygon points="258,75 301,75 301,100 258,100 " fill="green" /><polygon points="301,75 344,75 344,100 301,100 " fill="green" /><polygon points="344,75 387,75 387,100 344,100 " fill="green" /><polygon points="387,75 430,75 430,100 387,100 " fill="green" /><polygon points="430,75 473,75 473,100 430,100 " fill="green" /><polygon points="473,75 516,75 516,100 473,100 " fill="green" /><polygon points="516,75 559,75 559,100 516,100 " fill="green" /><polygon points="559,75 602,75 602,100 559,100 " fill="green" /><polygon points="602,75 645,75 645,100 602,100 " fill="green" /><polygon points="645,75 688,75 688,100 645,100 " fill="green" /><polygon points="688,75 731,75 731,100 688,100 " fill="green" /><polygon points="731,75 774,75 774,100 731,100 " fill="green" /><polygon points="774,75 817,75 817,100 774,100 " fill="green" /><polygon points="0,100 43,100 43,125 0,125 " fill="green" /><polygon points="43,100 86,100 86,125 43,125 " fill="green" /><polygon points="86,100 129,100 129,125 86,125 " fill="green" /><polygon points="129,100 172,100 172,125 129,125 " fill="green" /><polygon points="172,100 215,100 215,125 172,125 " fill="green" /><polygon points="215,100 258,100 258,125 215,125 " fill="green" /><polygon points="258,100 301,100 301,125 258,125 " fill="green" /><polygon points="301,100 344,100 344,125 301,125 " fill="green" /><polygon points="344,100 387,100 387,125 344,125 " fill="green" /><polygon points="387,100 430,100 430,125 387,125 " fill="green" /><polygon points="430,100 473,100 473,125 430,125 " fill="green" /><polygon points="473,100 516,100 516,125 473,125 " fill="green" /><polygon points="516,100 559,100 559,125 516,125 " fill="green" /><polygon points="559,100 602,100 602,125 559,125 " fill="green" /><polygon points="602,100 645,100 645,125 602,125 " fill="green" /><polygon points="645,100 688,100 688,125 645,125 " fill="green" /><polygon points="688,100 731,100 731,125 688,125 " fill="green" /><polygon points="731,100 774,100 774,125 731,125 " fill="green" /><polygon points="774,100 817,100 817,125 774,125 " fill="green" /><polygon points="0,125 43,125 43,150 0,150 " fill="green" /><polygon points="43,125 86,125 86,150 43,150 " fill="green" /><polygon points="86,125 129,125 129,150 86,150 " fill="green" /><polygon points="129,125 172,125 172,150 129,150 " fill="green" /><polygon points="172,125 215,125 215,150 172,150 " fill="green" /><polygon points="215,125 258,125 258,150 215,150 " fill="green" /><polygon points="258,125 301,125 301,150 258,150 " fill="green" /><polygon points="301,125 344,125 344,150 301,150 " fill="green" /><polygon points="344,125 387,125 387,150 344,150 " fill="green" /><polygon points="387,125 430,125 430,150 387,150 " fill="green" /><polygon points="430,125 473,125 473,150 430,150 " fill="green" /><polygon points="473,125 516,125 516,150 473,150 " fill="green" /><polygon points="516,125 559,125 559,150 516,150 " fill="green" /><polygon points="559,125 602,125 602,150 559,150 " fill="green" /><polygon points="602,125 645,125 645,150 602,150 " fill="green" /><polygon points="645,125 688,125 688,150 645,150 " fill="green" /><polygon points="688,125 731,125 731,150 688,150 " fill="green" /><polygon points="731,125 774,125 774,150 731,150 " fill="green" /><polygon points="774,125 817,125 817,150 774,150 " fill="green" /><polygon points="0,150 43,150 43,175 0,175 " fill="green" /><polygon points="43,150 86,150 86,175 43,175 " fill="green" /><polygon points="86,150 129,150 129,175 86,175 " fill="green" /><polygon points="129,150 172,150 172,175 129,175 " fill="green" /><polygon points="172,150 215,150 215,175 172,175 " fill="green" /><polygon points="215,150 258,150 258,175 215,175 " fill="green" /><polygon points="258,150 301,150 301,175 258,175 " fill="green" /><polygon points="301,150 344,150 344,175 301,175 " fill="green" /><polygon points="344,150 387,150 387,175 344,175 " fill="green" /><polygon points="387,150 430,150 430,175 387,175 " fill="green" /><polygon points="430,150 473,150 473,175 430,175 " fill="green" /><polygon points="473,150 516,150 516,175 473,175 " fill="green" /><polygon points="516,150 559,150 559,175 516,175 " fill="green" /><polygon points="559,150 602,150 602,175 559,175 " fill="green" /><polygon points="602,150 645,150 645,175 602,175 " fill="green" /><polygon points="645,150 688,150 688,175 645,175 " fill="green" /><polygon points="688,150 731,150 731,175 688,175 " fill="green" /><polygon points="731,150 774,150 774,175 731,175 " fill="green" /><polygon points="774,150 817,150 817,175 774,175 " fill="green" /><polygon points="0,175 43,175 43,200 0,200 " fill="green" /><polygon points="43,175 86,175 86,200 43,200 " fill="green" /><polygon points="86,175 129,175 129,200 86,200 " fill="green" /><polygon points="129,175 172,175 172,200 129,200 " fill="green" /><polygon points="172,175 215,175 215,200 172,200 " fill="green" /><polygon points="215,175 258,175 258,200 215,200 " fill="green" /><polygon points="258,175 301,175 301,200 258,200 " fill="green" /><polygon points="301,175 344,175 344,200 301,200 " fill="green" /><polygon points="344,175 387,175 387,200 344,200 " fill="green" /><polygon points="387,175 430,175 430,200 387,200 " fill="green" /><polygon points="430,175 473,175 473,200 430,200 " fill="green" /><polygon points="473,175 516,175 516,200 473,200 " fill="green" /><polygon points="516,175 559,175 559,200 516,200 " fill="green" /><polygon points="559,175 602,175 602,200 559,200 " fill="green" /><polygon points="602,175 645,175 645,200 602,200 " fill="green" /><polygon points="645,175 688,175 688,200 645,200 " fill="green" /><polygon points="688,175 731,175 731,200 688,200 " fill="green" /><polygon points="731,175 774,175 774,200 731,200 " fill="green" /><polygon points="774,175 817,175 817,200 774,200 " fill="green" /><polygon points="0,200 43,200 43,225 0,225 " fill="green" /><polygon points="43,200 86,200 86,225 43,225 " fill="green" /><polygon points="86,200 129,200 129,225 86,225 " fill="green" /><polygon points="129,200 172,200 172,225 129,225 " fill="green" /><polygon points="172,200 215,200 215,225 172,225 " fill="green" /><polygon points="215,200 258,200 258,225 215,225 " fill="green" /><polygon points="258,200 301,200 301,225 258,225 " fill="green" /><polygon points="301,200 344,200 344,225 301,225 " fill="green" /><polygon points="344,200 387,200 387,225 344,225 " fill="green" /><polygon points="387,200 430,200 430,225 387,225 " fill="green" /><polygon points="430,200 473,200 473,225 430,225 " fill="green" /><polygon points="473,200 516,200 516,225 473,225 " fill="green" /><polygon points="516,200 559,200 559,225 516,225 " fill="green" /><polygon points="559,200 602,200 602,225 559,225 " fill="green" /><polygon points="602,200 645,200 645,225 602,225 " fill="green" /><polygon points="645,200 688,200 688,225 645,225 " fill="green" /><polygon points="688,200 731,200 731,225 688,225 " fill="green" /><polygon points="731,200 774,200 774,225 731,225 " fill="green" /><polygon points="774,200 817,200 817,225 774,225 " fill="green" /><polygon points="0,225 43,225 43,250 0,250 " fill="green" /><polygon points="43,225 86,225 86,250 43,250 " fill="green" /><polygon points="86,225 129,225 129,250 86,250 " fill="green" /><polygon points="129,225 172,225 172,250 129,250 " fill="green" /><polygon points="172,225 215,225 215,250 172,250 " fill="green" /><polygon points="215,225 258,225 258,250 215,250 " fill="green" /><polygon points="258,225 301,225 301,250 258,250 " fill="green" /><polygon points="301,225 344,225 344,250 301,250 " fill="green" /><polygon points="344,225 387,225 387,250 344,250 " fill="green" /><polygon points="387,225 430,225 430,250 387,250 " fill="green" /><polygon points="430,225 473,225 473,250 430,250 " fill="green" /><polygon points="473,225 516,225 516,250 473,250 " fill="green" /><polygon points="516,225 559,225 559,250 516,250 " fill="green" /><polygon points="559,225 602,225 602,250 559,250 " fill="green" /><polygon points="602,225 645,225 645,250 602,250 " fill="green" /><polygon points="645,225 688,225 688,250 645,250 " fill="green" /><polygon points="688,225 731,225 731,250 688,250 " fill="green" /><polygon points="731,225 774,225 774,250 731,250 " fill="green" /><polygon points="774,225 817,225 817,250 774,250 " fill="green" /><polygon points="0,250 43,250 43,275 0,275 " fill="green" /><polygon points="43,250 86,250 86,275 43,275 " fill="green" /><polygon points="86,250 129,250 129,275 86,275 " fill="green" /><polygon points="129,250 172,250 172,275 129,275 " fill="green" /><polygon points="172,250 215,250 215,275 172,275 " fill="green" /><polygon points="215,250 258,250 258,275 215,275 " fill="green" /><polygon points="258,250 301,250 301,275 258,275 " fill="green" /><polygon points="301,250 344,250 344,275 301,275 " fill="green" /><polygon points="344,250 387,250 387,275 344,275 " fill="green" /><polygon points="387,250 430,250 430,275 387,275 " fill="green" /><polygon points="430,250 473,250 473,275 430,275 " fill="green" /><polygon points="473,250 516,250 516,275 473,275 " fill="green" /><polygon points="516,250 559,250 559,275 516,275 " fill="green" /><polygon points="559,250 602,250 602,275 559,275 " fill="green" /><polygon points="602,250 645,250 645,275 602,275 " fill="green" /><polygon points="645,250 688,250 688,275 645,275 " fill="green" /><polygon points="688,250 731,250 731,275 688,275 " fill="green" /><polygon points="731,250 774,250 774,275 731,275 " fill="green" /><polygon points="774,250 817,250 817,275 774,275 " fill="green" /><polygon points="0,275 43,275 43,300 0,300 " fill="green" /><polygon points="43,275 86,275 86,300 43,300 " fill="green" /><polygon points="86,275 129,275 129,300 86,300 " fill="green" /><polygon points="129,275 172,275 172,300 129,300 " fill="green" /><polygon points="172,275 215,275 215,300 172,300 " fill="green" /><polygon points="215,275 258,275 258,300 215,300 " fill="green" /><polygon points="258,275 301,275 301,300 258,300 " fill="green" /><polygon points="301,275 344,275 344,300 301,300 " fill="green" /><polygon points="344,275 387,275 387,300 344,300 " fill="green" /><polygon points="387,275 430,275 430,300 387,300 " fill="green" /><polygon points="430,275 473,275 473,300 430,300 " fill="green" /><polygon points="473,275 516,275 516,300 473,300 " fill="green" /><polygon points="516,275 559,275 559,300 516,300 " fill="green" /><polygon points="559,275 602,275 602,300 559,300 " fill="green" /><polygon points="602,275 645,275 645,300 602,300 " fill="green" /><polygon points="645,275 688,275 688,300 645,300 " fill="green" /><polygon points="688,275 731,275 731,300 688,300 " fill="green" /><polygon points="731,275 774,275 774,300 731,300 " fill="green" /><polygon points="774,275 817,275 817,300 774,300 " fill="green" /><polygon points="0,300 43,300 43,325 0,325 " fill="green" /><polygon points="43,300 86,300 86,325 43,325 " fill="green" /><polygon points="86,300 129,300 129,325 86,325 " fill="green" /><polygon points="129,300 172,300 172,325 129,325 " fill="green" /><polygon points="172,300 215,300 215,325 172,325 " fill="green" /><polygon points="215,300 258,300 258,325 215,325 " fill="green" /><polygon points="258,300 301,300 301,325 258,325 " fill="green" /><polygon points="301,300 344,300 344,325 301,325 " fill="green" /><polygon points="344,300 387,300 387,325 344,325 " fill="green" /><polygon points="387,300 430,300 430,325 387,325 " fill="green" /><polygon points="430,300 473,300 473,325 430,325 " fill="green" /><polygon points="473,300 516,300 516,325 473,325 " fill="green" /><polygon points="516,300 559,300 559,325 516,325 " fill="green" /><polygon points="559,300 602,300 602,325 559,325 " fill="green" /><polygon points="602,300 645,300 645,325 602,325 " fill="green" /><polygon points="645,300 688,300 688,325 645,325 " fill="green" /><polygon points="688,300 731,300 731,325 688,325 " fill="green" /><polygon points="731,300 774,300 774,325 731,325 " fill="green" /><polygon points="774,300 817,300 817,325 774,325 " fill="green" /><polygon points="0,325 43,325 43,350 0,350 " fill="green" /><polygon points="43,325 86,325 86,350 43,350 " fill="green" /><polygon points="86,325 129,325 129,350 86,350 " fill="green" /><polygon points="129,325 172,325 172,350 129,350 " fill="green" /><polygon points="172,325 215,325 215,350 172,350 " fill="green" /><polygon points="215,325 258,325 258,350 215,350 " fill="green" /><polygon points="258,325 301,325 301,350 258,350 " fill="green" /><polygon points="301,325 344,325 344,350 301,350 " fill="green" /><polygon points="344,325 387,325 387,350 344,350 " fill="green" /><polygon points="387,325 430,325 430,350 387,350 " fill="green" /><polygon points="430,325 473,325 473,350 430,350 " fill="green" /><polygon points="473,325 516,325 516,350 473,350 " fill="green" /><polygon points="516,325 559,325 559,350 516,350 " fill="green" /><polygon points="559,325 602,325 602,350 559,350 " fill="green" /><polygon points="602,325 645,325 645,350 602,350 " fill="green" /><polygon points="645,325 688,325 688,350 645,350 " fill="green" /><polygon points="688,325 731,325 731,350 688,350 " fill="green" /><polygon points="731,325 774,325 774,350 731,350 " fill="green" /><polygon points="774,325 817,325 817,350 774,350 " fill="green" /><polygon points="0,350 43,350 43,375 0,375 " fill="green" /><polygon points="43,350 86,350 86,375 43,375 " fill="green" /><polygon points="86,350 129,350 129,375 86,375 " fill="green" /><polygon points="129,350 172,350 172,375 129,375 " fill="green" /><polygon points="172,350 215,350 215,375 172,375 " fill="green" /><polygon points="215,350 258,350 258,375 215,375 " fill="green" /><polygon points="258,350 301,350 301,375 258,375 " fill="green" /><polygon points="301,350 344,350 344,375 301,375 " fill="green" /><polygon points="344,350 387,350 387,375 344,375 " fill="green" /><polygon points="387,350 430,350 430,375 387,375 " fill="green" /><polygon points="430,350 473,350 473,375 430,375 " fill="green" /><polygon points="473,350 516,350 516,375 473,375 " fill="green" /><polygon points="516,350 559,350 559,375 516,375 " fill="green" /><polygon points="559,350 602,350 602,375 559,375 " fill="green" /><polygon points="602,350 645,350 645,375 602,375 " fill="green" /><polygon points="645,350 688,350 688,375 645,375 " fill="green" /><polygon points="688,350 731,350 731,375 688,375 " fill="green" /><polygon points="731,350 774,350 774,375 731,375 " fill="green" /><polygon points="774,350 817,350 817,375 774,375 " fill="green" /><polygon points="0,375 43,375 43,400 0,400 " fill="green" /><polygon points="43,375 86,375 86,400 43,400 " fill="green" /><polygon points="86,375 129,375 129,400 86,400 " fill="green" /><polygon points="129,375 172,375 172,400 129,400 " fill="green" /><polygon points="172,375 215,375 215,400 172,400 " fill="green" /><polygon points="215,375 258,375 258,400 215,400 " fill="green" /><polygon points="258,375 301,375 301,400 258,400 " fill="green" /><polygon points="301,375 344,375 344,400 301,400 " fill="green" /><polygon points="344,375 387,375 387,400 344,400 " fill="green" /><polygon points="387,375 430,375 430,400 387,400 " fill="green" /><polygon points="430,375 473,375 473,400 430,400 " fill="green" /><polygon points="473,375 516,375 516,400 473,400 " fill="green" /><polygon points="516,375 559,375 559,400 516,400 " fill="green" /><polygon points="559,375 602,375 602,400 559,400 " fill="green" /><polygon points="602,375 645,375 645,400 602,400 " fill="green" /><polygon points="645,375 688,375 688,400 645,400 " fill="green" /><polygon points="688,375 731,375 731,400 688,400 " fill="green" /><polygon points="731,375 774,375 774,400 731,400 " fill="green" /><polygon points="774,375 817,375 817,400 774,400 " fill="green" /><polygon points="0,400 43,400 43,425 0,425 " fill="green" /><polygon points="43,400 86,400 86,425 43,425 " fill="green" /><polygon points="86,400 129,400 129,425 86,425 " fill="green" /><polygon points="129,400 172,400 172,425 129,425 " fill="green" /><polygon points="172,400 215,400 215,425 172,425 " fill="green" /><polygon points="215,400 258,400 258,425 215,425 " fill="green" /><polygon points="258,400 301,400 301,425 258,425 " fill="green" /><polygon points="301,400 344,400 344,425 301,425 " fill="green" /><polygon points="344,400 387,400 387,425 344,425 " fill="green" /><polygon points="387,400 430,400 430,425 387,425 " fill="green" /><polygon points="430,400 473,400 473,425 430,425 " fill="green" /><polygon points="473,400 516,400 516,425 473,425 " fill="green" /><polygon points="516,400 559,400 559,425 516,425 " fill="green" /><polygon points="559,400 602,400 602,425 559,425 " fill="green" /><polygon points="602,400 645,400 645,425 602,425 " fill="green" /><polygon points="645,400 688,400 688,425 645,425 " fill="green" /><polygon points="688,400 731,400 731,425 688,425 " fill="green" /><polygon points="731,400 774,400 774,425 731,425 " fill="green" /><polygon points="774,400 817,400 817,425 774,425 " fill="green" /><polygon points="0,425 43,425 43,450 0,450 " fill="green" /><polygon points="43,425 86,425 86,450 43,450 " fill="green" /><polygon points="86,425 129,425 129,450 86,450 " fill="green" /><polygon points="129,425 172,425 172,450 129,450 " fill="green" /><polygon points="172,425 215,425 215,450 172,450 " fill="green" /><polygon points="215,425 258,425 258,450 215,450 " fill="green" /><polygon points="258,425 301,425 301,450 258,450 " fill="green" /><polygon points="301,425 344,425 344,450 301,450 " fill="green" /><polygon points="344,425 387,425 387,450 344,450 " fill="green" /><polygon points="387,425 430,425 430,450 387,450 " fill="green" /><polygon points="430,425 473,425 473,450 430,450 " fill="green" /><polygon points="473,425 516,425 516,450 473,450 " fill="green" /><polygon points="516,425 559,425 559,450 516,450 " fill="green" /><polygon points="559,425 602,425 602,450 559,450 " fill="green" /><polygon points="602,425 645,425 645,450 602,450 " fill="green" /><polygon points="645,425 688,425 688,450 645,450 " fill="green" /><polygon points="688,425 731,425 731,450 688,450 " fill="green" /><polygon points="731,425 774,425 774,450 731,450 " fill="green" /><polygon points="774,425 817,425 817,450 774,450 " fill="green" /><polygon points="0,450 43,450 43,475 0,475 " fill="green" /><polygon points="43,450 86,450 86,475 43,475 " fill="green" /><polygon points="86,450 129,450 129,475 86,475 " fill="green" /><polygon points="129,450 172,450 172,475 129,475 " fill="green" /><polygon points="172,450 215,450 215,475 172,475 " fill="green" /><polygon points="215,450 258,450 258,475 215,475 " fill="green" /><polygon points="258,450 301,450 301,475 258,475 " fill="green" /><polygon points="301,450 344,450 344,475 301,475 " fill="green" /><polygon points="344,450 387,450 387,475 344,475 " fill="green" /><polygon points="387,450 430,450 430,475 387,475 " fill="green" /><polygon points="430,450 473,450 473,475 430,475 " fill="green" /><polygon points="473,450 516,450 516,475 473,475 " fill="green" /><polygon points="516,450 559,450 559,475 516,475 " fill="green" /><polygon points="559,450 602,450 602,475 559,475 " fill="green" /><polygon points="602,450 645,450 645,475 602,475 " fill="green" /><polygon points="645,450 688,450 688,475 645,475 " fill="green" /><polygon points="688,450 731,450 731,475 688,475 " fill="green" /><polygon points="731,450 774,450 774,475 731,475 " fill="green" /><polygon points="774,450 817,450 817,475 774,475 " fill="green" /><polygon points="0,475 43,475 43,500 0,500 " fill="green" /><polygon points="43,475 86,475 86,500 43,500 " fill="green" /><polygon points="86,475 129,475 129,500 86,500 " fill="green" /><polygon points="129,475 172,475 172,500 129,500 " fill="green" /><polygon points="172,475 215,475 215,500 172,500 " fill="green" /><polygon points="215,475 258,475 258,500 215,500 " fill="green" /><polygon points="258,475 301,475 301,500 258,500 " fill="green" /><polygon points="301,475 344,475 344,500 301,500 " fill="green" /><polygon points="344,475 387,475 387,500 344,500 " fill="green" /><polygon points="387,475 430,475 430,500 387,500 " fill="green" /><polygon points="430,475 473,475 473,500 430,500 " fill="green" /><polygon points="473,475 516,475 516,500 473,500 " fill="green" /><polygon points="516,475 559,475 559,500 516,500 " fill="green" /><polygon points="559,475 602,475 602,500 559,500 " fill="green" /><polygon points="602,475 645,475 645,500 602,500 " fill="green" /><polygon points="645,475 688,475 688,500 645,500 " fill="green" /><polygon points="688,475 731,475 731,500 688,500 " fill="green" /><polygon points="731,475 774,475 774,500 731,500 " fill="green" /><polygon points="774,475 817,475 817,500 774,500 " fill="green" /><polygon points="0,500 43,500 43,525 0,525 " fill="green" /><polygon points="43,500 86,500 86,525 43,525 " fill="green" /><polygon points="86,500 129,500 129,525 86,525 " fill="green" /><polygon points="129,500 172,500 172,525 129,525 " fill="green" /><polygon points="172,500 215,500 215,525 172,525 " fill="green" /><polygon points="215,500 258,500 258,525 215,525 " fill="green" /><polygon points="258,500 301,500 301,525 258,525 " fill="green" /><polygon points="301,500 344,500 344,525 301,525 " fill="green" /><polygon points="344,500 387,500 387,525 344,525 " fill="green" /><polygon points="387,500 430,500 430,525 387,525 " fill="green" /><polygon points="430,500 473,500 473,525 430,525 " fill="green" /><polygon points="473,500 516,500 516,525 473,525 " fill="green" /><polygon points="516,500 559,500 559,525 516,525 " fill="green" /><polygon points="559,500 602,500 602,525 559,525 " fill="green" /><polygon points="602,500 645,500 645,525 602,525 " fill="green" /><polygon points="645,500 688,500 688,525 645,525 " fill="green" /><polygon points="688,500 731,500 731,525 688,525 " fill="green" /><polygon points="731,500 774,500 774,525 731,525 " fill="green" /><polygon points="774,500 817,500 817,525 774,525 " fill="green" /><polygon points="0,525 43,525 43,550 0,550 " fill="green" /><polygon points="43,525 86,525 86,550 43,550 " fill="green" /><polygon points="86,525 129,525 129,550 86,550 " fill="green" /><polygon points="129,525 172,525 172,550 129,550 " fill="green" /><polygon points="172,525 215,525 215,550 172,550 " fill="green" /><polygon points="215,525 258,525 258,550 215,550 " fill="green" /><polygon points="258,525 301,525 301,550 258,550 " fill="green" /><polygon points="301,525 344,525 344,550 301,550 " fill="green" /><polygon points="344,525 387,525 387,550 344,550 " fill="green" /><polygon points="387,525 430,525 430,550 387,550 " fill="green" /><polygon points="430,525 473,525 473,550 430,550 " fill="green" /><polygon points="473,525 516,525 516,550 473,550 " fill="green" /><polygon points="516,525 559,525 559,550 516,550 " fill="green" /><polygon points="559,525 602,525 602,550 559,550 " fill="green" /><polygon points="602,525 645,525 645,550 602,550 " fill="green" /><polygon points="645,525 688,525 688,550 645,550 " fill="green" /><polygon points="688,525 731,525 731,550 688,550 " fill="green" /><polygon points="731,525 774,525 774,550 731,550 " fill="green" /><polygon points="774,525 817,525 817,550 774,550 " fill="green" /><polygon points="0,550 43,550 43,575 0,575 " fill="green" /><polygon points="43,550 86,550 86,575 43,575 " fill="green" /><polygon points="86,550 129,550 129,575 86,575 " fill="green" /><polygon points="129,550 172,550 172,575 129,575 " fill="green" /><polygon points="172,550 215,550 215,575 172,575 " fill="green" /><polygon points="215,550 258,550 258,575 215,575 " fill="green" /><polygon points="258,550 301,550 301,575 258,575 " fill="green" /><polygon points="301,550 344,550 344,575 301,575 " fill="green" /><polygon points="344,550 387,550 387,575 344,575 " fill="green" /><polygon points="387,550 430,550 430,575 387,575 " fill="green" /><polygon points="430,550 473,550 473,575 430,575 " fill="green" /><polygon points="473,550 516,550 516,575 473,575 " fill="green" /><polygon points="516,550 559,550 559,575 516,575 " fill="green" /><polygon points="559,550 602,550 602,575 559,575 " fill="green" /><polygon points="602,550 645,550 645,575 602,575 " fill="green" /><polygon points="645,550 688,550 688,575 645,575 " fill="green" /><polygon points="688,550 731,550 731,575 688,575 " fill="green" /><polygon points="731,550 774,550 774,575 731,575 " fill="green" /><polygon points="774,550 817,550 817,575 774,575 " fill="green" /><polygon points="0,575 43,575 43,600 0,600 " fill="green" /><polygon points="43,575 86,575 86,600 43,600 " fill="green" /><polygon points="86,575 129,575 129,600 86,600 " fill="green" /><polygon points="129,575 172,575 172,600 129,600 " fill="green" /><polygon points="172,575 215,575 215,600 172,600 " fill="green" /><polygon points="215,575 258,575 258,600 215,600 " fill="green" /><polygon points="258,575 301,575 301,600 258,600 " fill="green" /><polygon points="301,575 344,575 344,600 301,600 " fill="green" /><polygon points="344,575 387,575 387,600 344,600 " fill="green" /><polygon points="387,575 430,575 430,600 387,600 " fill="green" /><polygon points="430,575 473,575 473,600 430,600 " fill="green" /><polygon points="473,575 516,575 516,600 473,600 " fill="green" /><polygon points="516,575 559,575 559,600 516,600 " fill="green" /><polygon points="559,575 602,575 602,600 559,600 " fill="green" /><polygon points="602,575 645,575 645,600 602,600 " fill="green" /><polygon points="645,575 688,575 688,600 645,600 " fill="green" /><polygon points="688,575 731,575 731,600 688,600 " fill="green" /><polygon points="731,575 774,575 774,600 731,600 " fill="green" /><polygon points="774,575 817,575 817,600 774,600 " fill="green" /><polygon points="0,600 43,600 43,625 0,625 " fill="green" /><polygon points="43,600 86,600 86,625 43,625 " fill="green" /><polygon points="86,600 129,600 129,625 86,625 " fill="green" /><polygon points="129,600 172,600 172,625 129,625 " fill="green" /><polygon points="172,600 215,600 215,625 172,625 " fill="green" /><polygon points="215,600 258,600 258,625 215,625 " fill="green" /><polygon points="258,600 301,600 301,625 258,625 " fill="green" /><polygon points="301,600 344,600 344,625 301,625 " fill="green" /><polygon points="344,600 387,600 387,625 344,625 " fill="green" /><polygon points="387,600 430,600 430,625 387,625 " fill="green" /><polygon points="430,600 473,600 473,625 430,625 " fill="green" /><polygon points="473,600 516,600 516,625 473,625 " fill="green" /><polygon points="516,600 559,600 559,625 516,625 " fill="green" /><polygon points="559,600 602,600 602,625 559,625 " fill="green" /><polygon points="602,600 645,600 645,625 602,625 " fill="green" /><polygon points="645,600 688,600 688,625 645,625 " fill="green" /><polygon points="688,600 731,600 731,625 688,625 " fill="green" /><polygon points="731,600 774,600 774,625 731,625 " fill="green" /><polygon points="774,600 817,600 817,625 774,625 " fill="green" /><polygon points="0,625 43,625 43,650 0,650 " fill="green" /><polygon points="43,625 86,625 86,650 43,650 " fill="green" /><polygon points="86,625 129,625 129,650 86,650 " fill="green" /><polygon points="129,625 172,625 172,650 129,650 " fill="green" /><polygon points="172,625 215,625 215,650 172,650 " fill="green" /><polygon points="215,625 258,625 258,650 215,650 " fill="green" /><polygon points="258,625 301,625 301,650 258,650 " fill="green" /><polygon points="301,625 344,625 344,650 301,650 " fill="green" /><polygon points="344,625 387,625 387,650 344,650 " fill="green" /><polygon points="387,625 430,625 430,650 387,650 " fill="green" /><polygon points="430,625 473,625 473,650 430,650 " fill="green" /><polygon points="473,625 516,625 516,650 473,650 " fill="green" /><polygon points="516,625 559,625 559,650 516,650 " fill="green" /><polygon points="559,625 602,625 602,650 559,650 " fill="green" /><polygon points="602,625 645,625 645,650 602,650 " fill="green" /><polygon points="645,625 688,625 688,650 645,650 " fill="green" /><polygon points="688,625 731,625 731,650 688,650 " fill="green" /><polygon points="731,625 774,625 774,650 731,650 " fill="green" /><polygon points="774,625 817,625 817,650 774,650 " fill="green" /><polygon points="0,650 43,650 43,675 0,675 " fill="green" /><polygon points="43,650 86,650 86,675 43,675 " fill="green" /><polygon points="86,650 129,650 129,675 86,675 " fill="green" /><polygon points="129,650 172,650 172,675 129,675 " fill="green" /><polygon points="172,650 215,650 215,675 172,675 " fill="green" /><polygon points="215,650 258,650 258,675 215,675 " fill="green" /><polygon points="258,650 301,650 301,675 258,675 " fill="green" /><polygon points="301,650 344,650 344,675 301,675 " fill="green" /><polygon points="344,650 387,650 387,675 344,675 " fill="green" /><polygon points="387,650 430,650 430,675 387,675 " fill="green" /><polygon points="430,650 473,650 473,675 430,675 " fill="green" /><polygon points="473,650 516,650 516,675 473,675 " fill="green" /><polygon points="516,650 559,650 559,675 516,675 " fill="green" /><polygon points="559,650 602,650 602,675 559,675 " fill="green" /><polygon points="602,650 645,650 645,675 602,675 " fill="green" /><polygon points="645,650 688,650 688,675 645,675 " fill="green" /><polygon points="688,650 731,650 731,675 688,675 " fill="green" /><polygon points="731,650 774,650 774,675 731,675 " fill="green" /><polygon points="774,650 817,650 817,675 774,675 " fill="green" /></svg>