<svg version="1.1" baseProfile="full" width="257" height="257" xmlns="http://wwww.w3.org/2000/svg"><polygon points="128,0 0,221.703 257,221.703" fill="red" /><rect x="7.50555" y="208.703" width="17" height="13" fill="green" /><rect x="24.5056" y="208.703" width="17" height="13" fill="green" /><rect x="41.5056" y="208.703" width="17" height="13" fill="green" /><rect x="58.5056" y="208.703" width="17" height="13" fill="green" /><rect x="75.5056" y="208.703" width="17" height="13" fill="green" /><rect x="92.5056" y="208.703" width="17" height="13" fill="green" /><rect x="109.506" y="208.703" width="17" height="13" fill="green" /><rect x="126.506" y="208.703" width="17" height="13" fill="green" /><rect x="143.506" y="208.703" width="17" height="13" fill="green" /><rect x="160.506" y="208.703" width="17" height="13" fill="green" /><rect x="177.506" y="208.703" width="17" height="13" fill="green" /><rect x="194.506" y="208.703" width="17" height="13" fill="green" /><rect x="211.506" y="208.703" width="17" height="13" fill="green" /><rect x="228.506" y="208.703" width="17" height="13" fill="green" /><rect x="15.0111" y="195.703" width="17" height="13" fill="green" /><rect x="32.0111" y="195.703" width="17" height="13" fill="green" /><rect x="49.0111" y="195.703" width="17" height="13" fill="green" /><rect x="66.0111" y="195.703" width="17" height="13" fill="green" /><rect x="83.0111" y="195.703" width="17" height="13" fill="green" /><rect x="100.011" y="195.703" width="17" height="13" fill="green" /><rect x="117.011" y="195.703" width="17" height="13" fill="green" /><rect x="134.011" y="195.703" width="17" height="13" fill="green" /><rect x="151.011" y="195.703" width="17" height="13" fill="green" /><rect x="168.011" y="195.703" width="17" height="13" fill="green" /><rect x="185.011" y="195.703" width="17" height="13" fill="green" /><rect x="202.011" y="195.703" width="17" height="13" fill="green" /><rect x="219.011" y="195.703" width="17" height="13" fill="green" /><rect x="22.5167" y="182.703" width="17" height="13" fill="green" /><rect x="39.5167" y="182.703" width="17" height="13" fill="green" /><rect x="56.5167" y="182.703" width="17" height="13" fill="green" /><rect x="73.5167" y="182.703" width="17" height="13" fill="green" /><rect x="90.5167" y="182.703" width="17" height="13" fill="green" /><rect x="107.517" y="182.703" width="17" height="13" fill="green" /><rect x="124.517" y="182.703" width="17" height="13" fill="green" /><rect x="141.517" y="182.703" width="17" height="13" fill="green" /><rect x="158.517" y="182.703" width="17" height="13" fill="green" /><rect x="175.517" y="182.703" width="17" height="13" fill="green" /><rect x="192.517" y="182.703" width="17" height="13" fill="green" /><rect x="209.517" y="182.703" width="17" height="13" fill="green" /><rect x="30.0222" y="169.703" width="17" height="13" fill="green" /><rect x="47.0222" y="169.703" width="17" height="13" fill="green" /><rect x="64.0222" y="169.703" width="17" height="13" fill="green" /><rect x="81.0222" y="169.703" width="17" height="13" fill="green" /><rect x="98.0222" y="169.703" width="17" height="13" fill="green" /><rect x="115.022" y="169.703" width="17" height="13" fill="green" /><rect x="132.022" y="169.703" width="17" height="13" fill="green" /><rect x="149.022" y="169.703" width="17" height="13" fill="green" /><rect x="166.022" y="169.703" width="17" height="13" fill="green" /><rect x="183.022" y="169.703" width="17" height="13" fill="green" /><rect x="200.022" y="169.703" width="17" height="13" fill="green" /><rect x="37.5278" y="156.703" width="17" height="13" fill="green" /><rect x="54.5278" y="156.703" width="17" height="13" fill="green" /><rect x="71.5278" y="156.703" width="17" height="13" fill="green" /><rect x="88.5278" y="156.703" width="17" height="13" fill="green" /><rect x="105.528" y="156.703" width="17" height="13" fill="green" /><rect x="122.528" y="156.703" width="17" height="13" fill="green" /><rect x="139.528" y="156.703" width="17" height="13" fill="green" /><rect x="156.528" y="156.703" width="17" height="13" fill="green" /><rect x="173.528" y="156.703" width="17" height="13" fill="green" /><rect x="190.528" y="156.703" width="17" height="13" fill="green" /><rect x="45.0333" y="143.703" width="17" height="13" fill="green" /><rect x="62.0333" y="143.703" width="17" height="13" fill="green" /><rect x="79.0333" y="143.703" width="17" height="13" fill="green" /><rect x="96.0333" y="143.703" width="17" height="13" fill="green" /><rect x="113.033" y="143.703" width="17" height="13" fill="green" /><rect x="130.033" y="143.703" width="17" height="13" fill="green" /><rect x="147.033" y="143.703" width="17" height="13" fill="green" /><rect x="164.033" y="143.703" width="17" height="13" fill="green" /><rect x="181.033" y="143.703" width="17" height="13" fill="green" /><rect x="52.5389" y="130.703" width="17" height="13" fill="green" /><rect x="69.5389" y="130.703" width="17" height="13" fill="green" /><rect x="86.5389" y="130.703" width="17" height="13" fill="green" /><rect x="103.539" y="130.703" width="17" height="13" fill="green" /><rect x="120.539" y="130.703" width="17" height="13" fill="green" /><rect x="137.539" y="130.703" width="17" height="13" fill="green" /><rect x="154.539" y="130.703" width="17" height="13" fill="green" /><rect x="171.539" y="130.703" width="17" height="13" fill="green" /><rect x="60.0444" y="117.703" width="17" height="13" fill="green" /><rect x="77.0444" y="117.703" width="17" height="13" fill="green" /><rect x="94.0444" y="117.703" width="17" height="13" fill="green" /><rect x="111.044" y="117.703" width="17" height="13" fill="green" /><rect x="128.044" y="117.703" width="17" height="13" fill="green" /><rect x="145.044" y="117.703" width="17" height="13" fill="green" /><rect x="162.044" y="117.703" width="17" height="13" fill="green" /><rect x="67.55" y="104.703" width="17" height="13" fill="green" /><rect x="84.55" y="104.703" width="17" height="13" fill="green" /><rect x="101.55" y="104.703" width="17" height="13" fill="green" /><rect x="118.55" y="104.703" width="17" height="13" fill="green" /><rect x="135.55" y="104.703" width="17" height="13" fill="green" /><rect x="152.55" y="104.703" width="17" height="13" fill="green" /><rect x="169.55" y="104.703" width="17" height="13" fill="green" /><rect x="75.0555" y="91.7025" width="17" height="13" fill="green" /><rect x="92.0555" y="91.7025" width="17" height="13" fill="green" /><rect x="109.056" y="91.7025" width="17" height="13" fill="green" /><rect x="126.056" y="91.7025" width="17" height="13" fill="green" /><rect x="143.056" y="91.7025" width="17" height="13" fill="green" /><rect x="160.056" y="91.7025" width="17" height="13" fill="green" /><rect x="82.5611" y="78.7025" width="17" height="13" fill="green" /><rect x="99.5611" y="78.7025" width="17" height="13" fill="green" /><rect x="116.561" y="78.7025" width="17" height="13" fill="green" /><rect x="133.561" y="78.7025" width="17" height="13" fill="green" /><rect x="150.561" y="78.7025" width="17" height="13" fill="green" /><rect x="90.0666" y="65.7025" width="17" height="13" fill="green" /><rect x="107.067" y="65.7025" width="17" height="13" fill="green" /><rect x="124.067" y="65.7025" width="17" height="13" fill="green" /><rect x="141.067" y="65.7025" width="17" height="13" fill="green" /><rect x="97.5722" y="52.7025" width="17" height="13" fill="green" /><rect x="114.572" y="52.7025" width="17" height="13" fill="green" /><rect x="131.572" y="52.7025" width="17" height="13" fill="green" /><rect x="105.078" y="39.7025" width="17" height="13" fill="green" /><rect x="122.078" y="39.7025" width="17" height="13" fill="green" /><rect x="112.583" y="26.7025" width="17" height="13" fill="green" /></svg>