<svg version="1.1" baseProfile="full" width="368" height="368" xmlns="http://wwww.w3.org/2000/svg"><polygon points="184,0 0,318.697 368,318.697" fill="red" /><circle cx="22.5167" cy="305.697" r="13" fill="green" /><circle cx="48.5167" cy="305.697" r="13" fill="green" /><circle cx="74.5167" cy="305.697" r="13" fill="green" /><circle cx="100.517" cy="305.697" r="13" fill="green" /><circle cx="126.517" cy="305.697" r="13" fill="green" /><circle cx="152.517" cy="305.697" r="13" fill="green" /><circle cx="178.517" cy="305.697" r="13" fill="green" /><circle cx="204.517" cy="305.697" r="13" fill="green" /><circle cx="230.517" cy="305.697" r="13" fill="green" /><circle cx="256.517" cy="305.697" r="13" fill="green" /><circle cx="282.517" cy="305.697" r="13" fill="green" /><circle cx="308.517" cy="305.697" r="13" fill="green" /><circle cx="334.517" cy="305.697" r="13" fill="green" /><circle cx="37.5278" cy="279.697" r="13" fill="green" /><circle cx="63.5278" cy="279.697" r="13" fill="green" /><circle cx="89.5278" cy="279.697" r="13" fill="green" /><circle cx="115.528" cy="279.697" r="13" fill="green" /><circle cx="141.528" cy="279.697" r="13" fill="green" /><circle cx="167.528" cy="279.697" r="13" fill="green" /><circle cx="193.528" cy="279.697" r="13" fill="green" /><circle cx="219.528" cy="279.697" r="13" fill="green" /><circle cx="245.528" cy="279.697" r="13" fill="green" /><circle cx="271.528" cy="279.697" r="13" fill="green" /><circle cx="297.528" cy="279.697" r="13" fill="green" /><circle cx="323.528" cy="279.697" r="13" fill="green" /><circle cx="52.5389" cy="253.697" r="13" fill="green" /><circle cx="78.5389" cy="253.697" r="13" fill="green" /><circle cx="104.539" cy="253.697" r="13" fill="green" /><circle cx="130.539" cy="253.697" r="13" fill="green" /><circle cx="156.539" cy="253.697" r="13" fill="green" /><circle cx="182.539" cy="253.697" r="13" fill="green" /><circle cx="208.539" cy="253.697" r="13" fill="green" /><circle cx="234.539" cy="253.697" r="13" fill="green" /><circle cx="260.539" cy="253.697" r="13" fill="green" /><circle cx="286.539" cy="253.697" r="13" fill="green" /><circle cx="312.539" cy="253.697" r="13" fill="green" /><circle cx="67.55" cy="227.697" r="13" fill="green" /><circle cx="93.55" cy="227.697" r="13" fill="green" /><circle cx="119.55" cy="227.697" r="13" fill="green" /><circle cx="145.55" cy="227.697" r="13" fill="green" /><circle cx="171.55" cy="227.697" r="13" fill="green" /><circle cx="197.55" cy="227.697" r="13" fill="green" /><circle cx="223.55" cy="227.697" r="13" fill="green" /><circle cx="249.55" cy="227.697" r="13" fill="green" /><circle cx="275.55" cy="227.697" r="13" fill="green" /><circle cx="82.5611" cy="201.697" r="13" fill="green" /><circle cx="108.561" cy="201.697" r="13" fill="green" /><circle cx="134.561" cy="201.697" r="13" fill="green" /><circle cx="160.561" cy="201.697" r="13" fill="green" /><circle cx="186.561" cy="201.697" r="13" fill="green" /><circle cx="212.561" cy="201.697" r="13" fill="green" /><circle cx="238.561" cy="201.697" r="13" fill="green" /><circle cx="264.561" cy="201.697" r="13" fill="green" /><circle cx="97.5722" cy="175.697" r="13" fill="green" /><circle cx="123.572" cy="175.697" r="13" fill="green" /><circle cx="149.572" cy="175.697" r="13" fill="green" /><circle cx="175.572" cy="175.697" r="13" fill="green" /><circle cx="201.572" cy="175.697" r="13" fill="green" /><circle cx="227.572" cy="175.697" r="13" fill="green" /><circle cx="253.572" cy="175.697" r="13" fill="green" /><circle cx="112.583" cy="149.697" r="13" fill="green" /><circle cx="138.583" cy="149.697" r="13" fill="green" /><circle cx="164.583" cy="149.697" r="13" fill="green" /><circle cx="190.583" cy="149.697" r="13" fill="green" /><circle cx="216.583" cy="149.697" r="13" fill="green" /><circle cx="242.583" cy="149.697" r="13" fill="green" /><circle cx="127.594" cy="123.697" r="13" fill="green" /><circle cx="153.594" cy="123.697" r="13" fill="green" /><circle cx="179.594" cy="123.697" r="13" fill="green" /><circle cx="205.594" cy="123.697" r="13" fill="green" /><circle cx="231.594" cy="123.697" r="13" fill="green" /><circle cx="142.606" cy="97.6973" r="13" fill="green" /><circle cx="168.606" cy="97.6973" r="13" fill="green" /><circle cx="194.606" cy="97.6973" r="13" fill="green" /><circle cx="220.606" cy="97.6973" r="13" fill="green" /><circle cx="157.617" cy="71.6973" r="13" fill="green" /><circle cx="183.617" cy="71.6973" r="13" fill="green" /><circle cx="209.617" cy="71.6973" r="13" fill="green" /><circle cx="172.628" cy="45.6973" r="13" fill="green" /></svg>